G04 #@! TF.GenerationSoftware,KiCad,Pcbnew,5.1.5-52549c5~84~ubuntu18.04.1*
G04 #@! TF.CreationDate,2020-03-20T23:57:41+01:00*
G04 #@! TF.ProjectId,REES,52454553-2e6b-4696-9361-645f70636258,rev?*
G04 #@! TF.SameCoordinates,Original*
G04 #@! TF.FileFunction,Legend,Bot*
G04 #@! TF.FilePolarity,Positive*
%FSLAX46Y46*%
G04 Gerber Fmt 4.6, Leading zero omitted, Abs format (unit mm)*
G04 Created by KiCad (PCBNEW 5.1.5-52549c5~84~ubuntu18.04.1) date 2020-03-20 23:57:41*
%MOMM*%
%LPD*%
G04 APERTURE LIST*
%ADD10C,0.100000*%
%ADD11C,0.120000*%
%ADD12C,0.152400*%
%ADD13C,0.050800*%
%ADD14C,0.096520*%
%ADD15C,0.120650*%
%ADD16C,2.769000*%
%ADD17C,1.767000*%
%ADD18R,1.767000X1.767000*%
%ADD19O,1.414800X2.727600*%
%ADD20C,1.270400*%
%ADD21O,1.618000X3.134000*%
%ADD22O,3.134000X1.618000*%
%ADD23R,2.502000X2.502000*%
%ADD24C,1.602000*%
%ADD25C,1.211600*%
%ADD26C,1.402000*%
%ADD27C,3.404000*%
%ADD28O,1.719600X3.337200*%
%ADD29C,3.912000*%
%ADD30O,1.880000X3.658000*%
%ADD31C,3.702000*%
%ADD32C,2.502000*%
%ADD33O,2.502000X2.502000*%
%ADD34C,1.702000*%
%ADD35O,1.702000X1.702000*%
G04 APERTURE END LIST*
D10*
X118656100Y-100558600D02*
X154216100Y-100558600D01*
X154216100Y-118338600D02*
X118656100Y-118338600D01*
D11*
X118656100Y-100558600D02*
X114846100Y-100558600D01*
X114846100Y-100558600D02*
X114846100Y-118338600D01*
X114846100Y-118338600D02*
X158026100Y-118338600D01*
X158026100Y-118338600D02*
X158026100Y-100558600D01*
X158026100Y-100558600D02*
X154216100Y-100558600D01*
X119926100Y-111988600D02*
X119926100Y-106908600D01*
X119926100Y-106908600D02*
X112306100Y-106908600D01*
X112306100Y-106908600D02*
X112306100Y-111988600D01*
X112306100Y-111988600D02*
X119926100Y-111988600D01*
D10*
G36*
X103670100Y-93700600D02*
G01*
X103162100Y-93700600D01*
X103162100Y-91668600D01*
X103670100Y-91668600D01*
X103670100Y-93700600D01*
G37*
G36*
X104432100Y-92938600D02*
G01*
X102400100Y-92938600D01*
X102400100Y-92430600D01*
X104432100Y-92430600D01*
X104432100Y-92938600D01*
G37*
D12*
X104836000Y-92684600D02*
G75*
G03X104836000Y-92684600I-1419900J0D01*
G01*
X107226100Y-92684600D02*
G75*
G03X107226100Y-92684600I-3810000J0D01*
G01*
D10*
G36*
X192951100Y-89382600D02*
G01*
X191681100Y-89382600D01*
X191681100Y-86588600D01*
X192951100Y-86588600D01*
X192951100Y-89382600D01*
G37*
G36*
X195491100Y-89382600D02*
G01*
X194221100Y-89382600D01*
X194221100Y-86588600D01*
X195491100Y-86588600D01*
X195491100Y-89382600D01*
G37*
G36*
X198031100Y-89382600D02*
G01*
X196761100Y-89382600D01*
X196761100Y-86588600D01*
X198031100Y-86588600D01*
X198031100Y-89382600D01*
G37*
G36*
X197777100Y-90017600D02*
G01*
X197015100Y-90017600D01*
X197015100Y-89382600D01*
X197777100Y-89382600D01*
X197777100Y-90017600D01*
G37*
G36*
X195237100Y-90017600D02*
G01*
X194475100Y-90017600D01*
X194475100Y-89382600D01*
X195237100Y-89382600D01*
X195237100Y-90017600D01*
G37*
G36*
X192697100Y-90017600D02*
G01*
X191935100Y-90017600D01*
X191935100Y-89382600D01*
X192697100Y-89382600D01*
X192697100Y-90017600D01*
G37*
D13*
X199428100Y-85953600D02*
X199428100Y-77698600D01*
X190284100Y-77698600D02*
X199428100Y-77698600D01*
X190284100Y-77698600D02*
X190284100Y-85953600D01*
X199428100Y-85953600D02*
X190284100Y-85953600D01*
D12*
X200063100Y-72618600D02*
X200063100Y-70713600D01*
X199174100Y-72618600D02*
X200063100Y-72618600D01*
X199174100Y-74142600D02*
X199174100Y-72618600D01*
X200063100Y-74142600D02*
X199174100Y-74142600D01*
X200063100Y-86588600D02*
X200063100Y-74142600D01*
X189649100Y-72618600D02*
X189649100Y-70713600D01*
X190538100Y-72618600D02*
X189649100Y-72618600D01*
X190538100Y-74142600D02*
X190538100Y-72618600D01*
X189649100Y-74142600D02*
X190538100Y-74142600D01*
X189649100Y-86588600D02*
X189649100Y-74142600D01*
X189649100Y-70713600D02*
X200063100Y-70713600D01*
X200063100Y-86588600D02*
X189649100Y-86588600D01*
X196659500Y-74142600D02*
G75*
G03X196659500Y-74142600I-1803400J0D01*
G01*
D14*
X134097183Y-105197123D02*
X134097183Y-105771647D01*
X134441897Y-105082219D02*
X133235397Y-105484385D01*
X134441897Y-105886552D01*
X134441897Y-106978147D02*
X133867373Y-106575980D01*
X134441897Y-106288719D02*
X133235397Y-106288719D01*
X133235397Y-106748338D01*
X133292850Y-106863242D01*
X133350302Y-106920695D01*
X133465207Y-106978147D01*
X133637564Y-106978147D01*
X133752469Y-106920695D01*
X133809921Y-106863242D01*
X133867373Y-106748338D01*
X133867373Y-106288719D01*
X134441897Y-107495219D02*
X133235397Y-107495219D01*
X133235397Y-107782480D01*
X133292850Y-107954838D01*
X133407754Y-108069742D01*
X133522659Y-108127195D01*
X133752469Y-108184647D01*
X133924826Y-108184647D01*
X134154635Y-108127195D01*
X134269540Y-108069742D01*
X134384445Y-107954838D01*
X134441897Y-107782480D01*
X134441897Y-107495219D01*
X133235397Y-108701719D02*
X134212088Y-108701719D01*
X134326992Y-108759171D01*
X134384445Y-108816623D01*
X134441897Y-108931528D01*
X134441897Y-109161338D01*
X134384445Y-109276242D01*
X134326992Y-109333695D01*
X134212088Y-109391147D01*
X133235397Y-109391147D01*
X134441897Y-109965671D02*
X133235397Y-109965671D01*
X134441897Y-110540195D02*
X133235397Y-110540195D01*
X134441897Y-111229623D01*
X133235397Y-111229623D01*
X133235397Y-112033957D02*
X133235397Y-112263766D01*
X133292850Y-112378671D01*
X133407754Y-112493576D01*
X133637564Y-112551028D01*
X134039730Y-112551028D01*
X134269540Y-112493576D01*
X134384445Y-112378671D01*
X134441897Y-112263766D01*
X134441897Y-112033957D01*
X134384445Y-111919052D01*
X134269540Y-111804147D01*
X134039730Y-111746695D01*
X133637564Y-111746695D01*
X133407754Y-111804147D01*
X133292850Y-111919052D01*
X133235397Y-112033957D01*
X134441897Y-113700076D02*
X134441897Y-113010647D01*
X134441897Y-113355361D02*
X133235397Y-113355361D01*
X133407754Y-113240457D01*
X133522659Y-113125552D01*
X133580111Y-113010647D01*
X98024695Y-93784147D02*
X98426861Y-93209623D01*
X98714123Y-93784147D02*
X98714123Y-92577647D01*
X98254504Y-92577647D01*
X98139599Y-92635100D01*
X98082147Y-92692552D01*
X98024695Y-92807457D01*
X98024695Y-92979814D01*
X98082147Y-93094719D01*
X98139599Y-93152171D01*
X98254504Y-93209623D01*
X98714123Y-93209623D01*
X96933099Y-92577647D02*
X97507623Y-92577647D01*
X97565076Y-93152171D01*
X97507623Y-93094719D01*
X97392718Y-93037266D01*
X97105457Y-93037266D01*
X96990552Y-93094719D01*
X96933099Y-93152171D01*
X96875647Y-93267076D01*
X96875647Y-93554338D01*
X96933099Y-93669242D01*
X96990552Y-93726695D01*
X97105457Y-93784147D01*
X97392718Y-93784147D01*
X97507623Y-93726695D01*
X97565076Y-93669242D01*
D15*
X198880987Y-84956347D02*
X199283153Y-84381823D01*
X199570415Y-84956347D02*
X199570415Y-83749847D01*
X199110796Y-83749847D01*
X198995891Y-83807300D01*
X198938439Y-83864752D01*
X198880987Y-83979657D01*
X198880987Y-84152014D01*
X198938439Y-84266919D01*
X198995891Y-84324371D01*
X199110796Y-84381823D01*
X199570415Y-84381823D01*
X198363915Y-84324371D02*
X197961748Y-84324371D01*
X197789391Y-84956347D02*
X198363915Y-84956347D01*
X198363915Y-83749847D01*
X197789391Y-83749847D01*
X196640344Y-83807300D02*
X196755248Y-83749847D01*
X196927606Y-83749847D01*
X197099963Y-83807300D01*
X197214867Y-83922204D01*
X197272320Y-84037109D01*
X197329772Y-84266919D01*
X197329772Y-84439276D01*
X197272320Y-84669085D01*
X197214867Y-84783990D01*
X197099963Y-84898895D01*
X196927606Y-84956347D01*
X196812701Y-84956347D01*
X196640344Y-84898895D01*
X196582891Y-84841442D01*
X196582891Y-84439276D01*
X196812701Y-84439276D01*
X196065820Y-83749847D02*
X196065820Y-84726538D01*
X196008367Y-84841442D01*
X195950915Y-84898895D01*
X195836010Y-84956347D01*
X195606201Y-84956347D01*
X195491296Y-84898895D01*
X195433844Y-84841442D01*
X195376391Y-84726538D01*
X195376391Y-83749847D01*
X194227344Y-84956347D02*
X194801867Y-84956347D01*
X194801867Y-83749847D01*
X193882629Y-84611633D02*
X193308106Y-84611633D01*
X193997534Y-84956347D02*
X193595367Y-83749847D01*
X193193201Y-84956347D01*
X192791034Y-84956347D02*
X192791034Y-83749847D01*
X192503772Y-83749847D01*
X192331415Y-83807300D01*
X192216510Y-83922204D01*
X192159058Y-84037109D01*
X192101606Y-84266919D01*
X192101606Y-84439276D01*
X192159058Y-84669085D01*
X192216510Y-84783990D01*
X192331415Y-84898895D01*
X192503772Y-84956347D01*
X192791034Y-84956347D01*
X191354725Y-83749847D02*
X191124915Y-83749847D01*
X191010010Y-83807300D01*
X190895106Y-83922204D01*
X190837653Y-84152014D01*
X190837653Y-84554180D01*
X190895106Y-84783990D01*
X191010010Y-84898895D01*
X191124915Y-84956347D01*
X191354725Y-84956347D01*
X191469629Y-84898895D01*
X191584534Y-84783990D01*
X191641987Y-84554180D01*
X191641987Y-84152014D01*
X191584534Y-83922204D01*
X191469629Y-83807300D01*
X191354725Y-83749847D01*
X189631153Y-84956347D02*
X190033320Y-84381823D01*
X190320582Y-84956347D02*
X190320582Y-83749847D01*
X189860963Y-83749847D01*
X189746058Y-83807300D01*
X189688606Y-83864752D01*
X189631153Y-83979657D01*
X189631153Y-84152014D01*
X189688606Y-84266919D01*
X189746058Y-84324371D01*
X189860963Y-84381823D01*
X190320582Y-84381823D01*
X188482106Y-84956347D02*
X189171534Y-84956347D01*
X188826820Y-84956347D02*
X188826820Y-83749847D01*
X188941725Y-83922204D01*
X189056629Y-84037109D01*
X189171534Y-84094561D01*
%LPC*%
D16*
X156756100Y-101828600D03*
X116116100Y-101828600D03*
X116116100Y-117068600D03*
X156756100Y-117068600D03*
D17*
X118656100Y-101828600D03*
X121196100Y-101828600D03*
X123736100Y-101828600D03*
X126276100Y-101828600D03*
X128816100Y-101828600D03*
X131356100Y-101828600D03*
X133896100Y-101828600D03*
X136436100Y-101828600D03*
X138976100Y-101828600D03*
X141516100Y-101828600D03*
X144056100Y-101828600D03*
X146596100Y-101828600D03*
X149136100Y-101828600D03*
X151676100Y-101828600D03*
X154216100Y-101828600D03*
X118656100Y-117068600D03*
X121196100Y-117068600D03*
X123736100Y-117068600D03*
X126276100Y-117068600D03*
X128816100Y-117068600D03*
X131356100Y-117068600D03*
X133896100Y-117068600D03*
X136436100Y-117068600D03*
X138976100Y-117068600D03*
X141516100Y-117068600D03*
X144056100Y-117068600D03*
X146596100Y-117068600D03*
X149136100Y-117068600D03*
X151676100Y-117068600D03*
D18*
X154216100Y-117068600D03*
D19*
X202476100Y-127228600D03*
X207556100Y-127228600D03*
X205016100Y-127228600D03*
D20*
X192222000Y-94500000D03*
X194000000Y-94500000D03*
X212511000Y-94400000D03*
X214289000Y-94400000D03*
D21*
X138090000Y-72500000D03*
X140630000Y-72500000D03*
X143170000Y-72500000D03*
X145710000Y-72500000D03*
X164010000Y-72400000D03*
X161470000Y-72400000D03*
X158930000Y-72400000D03*
X156390000Y-72400000D03*
X179140000Y-72600000D03*
X176600000Y-72600000D03*
X174060000Y-72600000D03*
D22*
X212636100Y-82778600D03*
X212636100Y-80238600D03*
D23*
X209076100Y-106908600D03*
X195876100Y-106908600D03*
D24*
X204976100Y-114408600D03*
X202476100Y-114408600D03*
X199976100Y-114408600D03*
X204976100Y-99908600D03*
X199976100Y-99908600D03*
D25*
X100876100Y-92684600D03*
X103416100Y-95224600D03*
X105956100Y-92684600D03*
D26*
X197800000Y-137200000D03*
X205400000Y-137200000D03*
D27*
X194856100Y-74142600D03*
D28*
X192316100Y-89128600D03*
X194856100Y-89128600D03*
X197396100Y-89128600D03*
D29*
X183841200Y-81501500D03*
X183851200Y-136501500D03*
X90841200Y-136501500D03*
X90831200Y-81511500D03*
D30*
X136428500Y-81501500D03*
X133888500Y-81501500D03*
X131348500Y-81501500D03*
X128808500Y-81501500D03*
X126268500Y-81501500D03*
X123728500Y-81501500D03*
X121188500Y-81501500D03*
X118648500Y-81501500D03*
X116108500Y-81501500D03*
X113568500Y-81501500D03*
X111028500Y-81501500D03*
X108488500Y-81501500D03*
X105948500Y-81501500D03*
X103408500Y-81501500D03*
X100868500Y-81501500D03*
X98328500Y-81501500D03*
D31*
X83096100Y-71348600D03*
X83096100Y-139928600D03*
X213906100Y-139928600D03*
X213906100Y-71348600D03*
D32*
X206400000Y-72060000D03*
D33*
X206400000Y-87300000D03*
D34*
X95900000Y-75000000D03*
X100900000Y-75000000D03*
X133000000Y-76400000D03*
D35*
X140620000Y-76400000D03*
X199920000Y-127200000D03*
D34*
X192300000Y-127200000D03*
X177584100Y-108500000D03*
D35*
X177584100Y-100880000D03*
X173100000Y-100880000D03*
D34*
X173100000Y-108500000D03*
X182100000Y-108500000D03*
D35*
X182100000Y-100880000D03*
D34*
X108700000Y-75000000D03*
D35*
X116320000Y-75000000D03*
M02*
