M48
; DRILL file {KiCad 5.1.5-52549c5~84~ubuntu18.04.1} date mar 24 mar 2020 03:20:34 CET
; FORMAT={-:-/ absolute / metric / decimal}
; #@! TF.CreationDate,2020-03-24T03:20:34+01:00
; #@! TF.GenerationSoftware,Kicad,Pcbnew,5.1.5-52549c5~84~ubuntu18.04.1
FMAT,2
METRIC
T1C0.400
T2C0.610
T3C0.711
T4C0.750
T5C0.800
T6C1.000
T7C1.016
T8C1.100
T9C1.118
T10C1.200
T11C1.500
T12C1.900
T13C2.540
T14C3.200
T15C3.302
T16C3.600
%
G90
G05
T1
X94.922Y-132.2
X96.9Y-113.8
X103.0Y-132.2
X123.728Y-100.371
X126.268Y-100.431
X128.808Y-100.391
X131.349Y-100.352
X184.2Y-125.4
X185.9Y-125.4
X192.0Y-133.5
T2
X82.9Y-104.26
X82.9Y-109.34
X85.44Y-106.8
T3
X196.522Y-95.3
X198.3Y-95.3
X191.122Y-95.3
X192.9Y-95.3
T4
X205.0Y-125.93
X205.0Y-127.2
X205.0Y-128.47
T5
X191.3Y-102.705
X191.3Y-110.325
X85.0Y-79.0
X90.0Y-79.0
X192.3Y-127.2
X199.92Y-127.2
X184.0Y-102.705
X184.0Y-110.325
X197.8Y-137.2
X205.4Y-137.2
X142.0Y-82.6
X149.62Y-82.6
X187.5Y-102.705
X187.5Y-110.325
T6
X153.46Y-86.8
X156.0Y-86.8
X158.54Y-86.8
X161.08Y-86.8
X194.976Y-109.709
X194.976Y-112.209
X194.976Y-114.709
X209.476Y-109.709
X209.476Y-114.709
T7
X98.328Y-86.801
X100.868Y-86.801
X103.408Y-86.801
X105.948Y-86.801
X108.489Y-86.801
X111.028Y-86.801
X113.569Y-86.801
X116.108Y-86.801
X118.648Y-86.801
X121.188Y-86.801
X123.728Y-86.801
X126.268Y-86.801
X128.808Y-86.801
X131.349Y-86.801
X133.888Y-86.801
X136.428Y-86.801
X100.136Y-78.3
X102.676Y-78.3
X105.216Y-78.3
X107.756Y-78.3
X109.28Y-126.56
X110.296Y-78.3
X111.82Y-126.56
X112.836Y-78.3
X114.36Y-126.56
X115.376Y-78.3
X116.9Y-126.56
X117.916Y-78.3
X119.44Y-126.56
X120.456Y-78.3
X121.98Y-126.56
X122.996Y-78.3
X124.52Y-126.56
X127.06Y-78.3
X127.06Y-126.56
X129.6Y-78.3
X132.14Y-78.3
X132.14Y-126.56
X134.68Y-78.3
X134.68Y-126.56
X137.22Y-78.3
X137.22Y-126.56
X139.76Y-78.3
X139.76Y-126.56
X142.3Y-78.3
X142.3Y-126.56
X144.84Y-78.3
X144.84Y-126.56
X147.38Y-126.56
X149.92Y-78.3
X149.92Y-126.56
X152.46Y-78.3
X155.0Y-78.3
X155.0Y-126.56
X157.54Y-78.3
X157.54Y-126.56
X160.08Y-78.3
X160.08Y-126.56
X162.62Y-78.3
X162.62Y-126.56
X165.16Y-78.3
X165.16Y-126.56
X167.7Y-78.3
X167.7Y-126.56
X170.24Y-126.56
X172.78Y-126.56
X175.32Y-78.3
X175.32Y-80.84
X175.32Y-83.38
X175.32Y-85.92
X175.32Y-88.46
X175.32Y-91.0
X175.32Y-93.54
X175.32Y-96.08
X175.32Y-98.62
X175.32Y-101.16
X175.32Y-103.7
X175.32Y-106.24
X175.32Y-108.78
X175.32Y-111.32
X175.32Y-113.86
X175.32Y-116.4
X175.32Y-118.94
X175.32Y-121.48
X177.86Y-78.3
X177.86Y-80.84
X177.86Y-83.38
X177.86Y-85.92
X177.86Y-88.46
X177.86Y-91.0
X177.86Y-93.54
X177.86Y-96.08
X177.86Y-98.62
X177.86Y-101.16
X177.86Y-103.7
X177.86Y-106.24
X177.86Y-108.78
X177.86Y-111.32
X177.86Y-113.86
X177.86Y-116.4
X177.86Y-118.94
X177.86Y-121.48
T8
X203.5Y-68.24
X203.5Y-78.4
T9
X191.716Y-89.129
X194.256Y-89.129
X196.796Y-89.129
T10
X209.0Y-79.66
X209.0Y-82.2
X152.775Y-139.3
X155.315Y-139.3
X157.855Y-139.3
X172.66Y-139.5
X175.2Y-139.5
X177.74Y-139.5
X97.92Y-139.295
X100.46Y-139.295
X103.0Y-139.295
X105.54Y-139.295
X108.08Y-139.295
X110.62Y-139.295
X151.78Y-70.8
X154.32Y-70.8
X156.86Y-70.8
X159.4Y-70.8
X140.96Y-70.8
X143.5Y-70.8
X146.04Y-70.8
X162.445Y-139.3
X164.985Y-139.3
X167.525Y-139.3
X169.66Y-70.8
X172.2Y-70.8
X174.74Y-70.8
X177.28Y-70.8
X121.46Y-70.7
X124.0Y-70.7
X126.54Y-70.7
X129.08Y-70.7
X114.92Y-139.295
X117.46Y-139.295
X120.0Y-139.295
X122.54Y-139.295
X125.08Y-139.295
X127.62Y-139.295
X143.105Y-139.3
X145.645Y-139.3
X148.185Y-139.3
X100.18Y-70.6
X102.72Y-70.6
X105.26Y-70.6
X107.8Y-70.6
X132.76Y-139.3
X135.3Y-139.3
X137.84Y-139.3
X203.5Y-82.46
X203.5Y-97.7
T11
X212.3Y-78.4
X212.3Y-83.4
T12
X202.476Y-105.609
X202.476Y-118.809
T13
X90.831Y-86.811
X90.841Y-141.802
X183.841Y-86.801
X183.851Y-141.802
T14
X95.31Y-126.56
X96.58Y-78.3
X171.51Y-78.3
X177.86Y-126.56
T15
X194.256Y-74.143
T16
X213.906Y-139.929
X213.906Y-71.349
X83.096Y-71.349
X83.096Y-139.929
T5
G00X209.9Y-95.0
M15
G01X209.9Y-92.4
M16
G05
G00X214.0Y-88.9
M15
G01X211.8Y-88.9
M16
G05
G00X215.7Y-94.8
M15
G01X215.7Y-92.6
M16
G05
T0
M30
