G04 #@! TF.GenerationSoftware,KiCad,Pcbnew,5.1.5-52549c5~84~ubuntu18.04.1*
G04 #@! TF.CreationDate,2020-03-20T23:57:41+01:00*
G04 #@! TF.ProjectId,REES,52454553-2e6b-4696-9361-645f70636258,rev?*
G04 #@! TF.SameCoordinates,Original*
G04 #@! TF.FileFunction,Legend,Top*
G04 #@! TF.FilePolarity,Positive*
%FSLAX46Y46*%
G04 Gerber Fmt 4.6, Leading zero omitted, Abs format (unit mm)*
G04 Created by KiCad (PCBNEW 5.1.5-52549c5~84~ubuntu18.04.1) date 2020-03-20 23:57:41*
%MOMM*%
%LPD*%
G04 APERTURE LIST*
%ADD10C,0.304800*%
%ADD11C,0.127000*%
%ADD12C,0.152400*%
%ADD13C,0.254000*%
%ADD14C,0.100000*%
%ADD15C,0.203200*%
%ADD16C,0.120000*%
%ADD17C,0.120650*%
%ADD18C,0.096520*%
%ADD19C,0.177800*%
%ADD20C,0.168910*%
%ADD21C,0.101600*%
%ADD22C,0.150000*%
%ADD23C,2.769000*%
%ADD24C,1.767000*%
%ADD25R,1.767000X1.767000*%
%ADD26O,1.414800X2.727600*%
%ADD27C,1.270400*%
%ADD28O,1.618000X3.134000*%
%ADD29O,3.134000X1.618000*%
%ADD30R,2.502000X2.502000*%
%ADD31C,1.602000*%
%ADD32C,1.211600*%
%ADD33C,1.402000*%
%ADD34C,3.404000*%
%ADD35O,1.719600X3.337200*%
%ADD36C,3.912000*%
%ADD37O,1.880000X3.658000*%
%ADD38C,3.702000*%
%ADD39C,2.502000*%
%ADD40O,2.502000X2.502000*%
%ADD41C,1.702000*%
%ADD42O,1.702000X1.702000*%
G04 APERTURE END LIST*
D10*
X205016190Y-139390714D02*
X205983809Y-139390714D01*
X205500000Y-139874523D02*
X205500000Y-138906904D01*
D11*
X202591400Y-126116800D02*
G75*
G02X202921100Y-125577600I2424208J-1111909D01*
G01*
X203612100Y-127101600D02*
X203880100Y-127101600D01*
X206152100Y-127101600D02*
X206420100Y-127101600D01*
X207111100Y-125577600D02*
G75*
G02X207429600Y-126092700I-2094505J-1651106D01*
G01*
X202603101Y-128364502D02*
G75*
G03X207429100Y-128364500I2412999J1135910D01*
G01*
X207111100Y-125577600D02*
X202921100Y-125577600D01*
D12*
X195143000Y-94500000D02*
G75*
G03X195143000Y-94500000I-2032000J0D01*
G01*
X192349000Y-93357000D02*
X192349000Y-92849000D01*
X192095000Y-93103000D02*
X192603000Y-93103000D01*
X215432000Y-94400000D02*
G75*
G03X215432000Y-94400000I-2032000J0D01*
G01*
X212638000Y-93257000D02*
X212638000Y-92749000D01*
X212384000Y-93003000D02*
X212892000Y-93003000D01*
D13*
X136820000Y-67420000D02*
X136820000Y-70595000D01*
X136820000Y-70595000D02*
X137455000Y-70595000D01*
X137455000Y-70595000D02*
X137455000Y-69960000D01*
X137455000Y-69960000D02*
X138725000Y-69960000D01*
X138725000Y-69960000D02*
X138725000Y-70595000D01*
X138725000Y-70595000D02*
X139995000Y-70595000D01*
X139995000Y-70595000D02*
X139995000Y-69960000D01*
X139995000Y-69960000D02*
X141265000Y-69960000D01*
X141265000Y-69960000D02*
X141265000Y-70595000D01*
X141265000Y-70595000D02*
X142535000Y-70595000D01*
X142535000Y-70595000D02*
X142535000Y-69960000D01*
X142535000Y-69960000D02*
X143805000Y-69960000D01*
X143805000Y-69960000D02*
X143805000Y-70595000D01*
X143805000Y-70595000D02*
X145075000Y-70595000D01*
X145075000Y-70595000D02*
X145075000Y-69960000D01*
X145075000Y-69960000D02*
X146345000Y-69960000D01*
X146345000Y-69960000D02*
X146345000Y-70595000D01*
X146345000Y-70595000D02*
X146980000Y-70595000D01*
X146980000Y-70595000D02*
X146980000Y-67420000D01*
X146980000Y-67420000D02*
X146091000Y-67420000D01*
X146091000Y-67420000D02*
X138090000Y-67420000D01*
X138090000Y-67420000D02*
X136820000Y-67420000D01*
X138090000Y-67420000D02*
X138090000Y-59419000D01*
X138090000Y-59419000D02*
X138344000Y-58911000D01*
X138344000Y-58911000D02*
X141950800Y-58911000D01*
X145710000Y-67420000D02*
X145710000Y-59419000D01*
X145710000Y-59419000D02*
X145456000Y-58911000D01*
X145456000Y-58911000D02*
X141849200Y-58911000D01*
X146091000Y-67420000D02*
X146091000Y-61197000D01*
X146091000Y-61197000D02*
X145760800Y-60841400D01*
X137709000Y-67420000D02*
X137709000Y-61197000D01*
X137709000Y-61197000D02*
X138039200Y-60841400D01*
X156009000Y-61097000D02*
X156339200Y-60741400D01*
X156009000Y-67320000D02*
X156009000Y-61097000D01*
X164391000Y-61097000D02*
X164060800Y-60741400D01*
X164391000Y-67320000D02*
X164391000Y-61097000D01*
X163756000Y-58811000D02*
X160149200Y-58811000D01*
X164010000Y-59319000D02*
X163756000Y-58811000D01*
X164010000Y-67320000D02*
X164010000Y-59319000D01*
X156644000Y-58811000D02*
X160250800Y-58811000D01*
X156390000Y-59319000D02*
X156644000Y-58811000D01*
X156390000Y-67320000D02*
X156390000Y-59319000D01*
X156390000Y-67320000D02*
X155120000Y-67320000D01*
X164391000Y-67320000D02*
X156390000Y-67320000D01*
X165280000Y-67320000D02*
X164391000Y-67320000D01*
X165280000Y-70495000D02*
X165280000Y-67320000D01*
X164645000Y-70495000D02*
X165280000Y-70495000D01*
X164645000Y-69860000D02*
X164645000Y-70495000D01*
X163375000Y-69860000D02*
X164645000Y-69860000D01*
X163375000Y-70495000D02*
X163375000Y-69860000D01*
X162105000Y-70495000D02*
X163375000Y-70495000D01*
X162105000Y-69860000D02*
X162105000Y-70495000D01*
X160835000Y-69860000D02*
X162105000Y-69860000D01*
X160835000Y-70495000D02*
X160835000Y-69860000D01*
X159565000Y-70495000D02*
X160835000Y-70495000D01*
X159565000Y-69860000D02*
X159565000Y-70495000D01*
X158295000Y-69860000D02*
X159565000Y-69860000D01*
X158295000Y-70495000D02*
X158295000Y-69860000D01*
X157025000Y-70495000D02*
X158295000Y-70495000D01*
X157025000Y-69860000D02*
X157025000Y-70495000D01*
X155755000Y-69860000D02*
X157025000Y-69860000D01*
X155755000Y-70495000D02*
X155755000Y-69860000D01*
X155120000Y-70495000D02*
X155755000Y-70495000D01*
X155120000Y-67320000D02*
X155120000Y-70495000D01*
X173679000Y-61297000D02*
X174009200Y-60941400D01*
X173679000Y-67520000D02*
X173679000Y-61297000D01*
X179521000Y-61297000D02*
X179190800Y-60941400D01*
X179521000Y-67520000D02*
X179521000Y-61297000D01*
X178886000Y-59011000D02*
X177819200Y-59011000D01*
X179140000Y-59519000D02*
X178886000Y-59011000D01*
X179140000Y-67520000D02*
X179140000Y-59519000D01*
X174314000Y-59011000D02*
X177920800Y-59011000D01*
X174060000Y-59519000D02*
X174314000Y-59011000D01*
X174060000Y-67520000D02*
X174060000Y-59519000D01*
X174060000Y-67520000D02*
X172790000Y-67520000D01*
D11*
X179521000Y-67520000D02*
X174060000Y-67520000D01*
D13*
X180410000Y-67520000D02*
X179521000Y-67520000D01*
X180410000Y-70695000D02*
X180410000Y-67520000D01*
X179775000Y-70695000D02*
X180410000Y-70695000D01*
X179775000Y-70060000D02*
X179775000Y-70695000D01*
X178505000Y-70060000D02*
X179775000Y-70060000D01*
X178505000Y-70695000D02*
X178505000Y-70060000D01*
X177235000Y-70695000D02*
X178505000Y-70695000D01*
X177235000Y-70060000D02*
X177235000Y-70695000D01*
X175965000Y-70060000D02*
X177235000Y-70060000D01*
X175965000Y-70695000D02*
X175965000Y-70060000D01*
X174695000Y-70695000D02*
X175965000Y-70695000D01*
X174695000Y-70060000D02*
X174695000Y-70695000D01*
X173425000Y-70060000D02*
X174695000Y-70060000D01*
X173425000Y-70695000D02*
X173425000Y-70060000D01*
X172790000Y-70695000D02*
X173425000Y-70695000D01*
X172790000Y-67520000D02*
X172790000Y-70695000D01*
X223939100Y-79857600D02*
X224294700Y-80187800D01*
X217716100Y-79857600D02*
X223939100Y-79857600D01*
X223939100Y-83159600D02*
X224294700Y-82829400D01*
X217716100Y-83159600D02*
X223939100Y-83159600D01*
X226225100Y-81559400D02*
X226225100Y-81457800D01*
X226225100Y-82524600D02*
X226225100Y-81559400D01*
X225717100Y-82778600D02*
X226225100Y-82524600D01*
X217716100Y-82778600D02*
X225717100Y-82778600D01*
X226225100Y-80492600D02*
X226225100Y-81559400D01*
X225717100Y-80238600D02*
X226225100Y-80492600D01*
X217716100Y-80238600D02*
X225717100Y-80238600D01*
X217716100Y-80238600D02*
X217716100Y-78968600D01*
X217716100Y-83159600D02*
X217716100Y-80238600D01*
X217716100Y-84048600D02*
X217716100Y-83159600D01*
X214541100Y-84048600D02*
X217716100Y-84048600D01*
X214541100Y-83413600D02*
X214541100Y-84048600D01*
X215176100Y-83413600D02*
X214541100Y-83413600D01*
X215176100Y-82143600D02*
X215176100Y-83413600D01*
X214541100Y-82143600D02*
X215176100Y-82143600D01*
X214541100Y-80873600D02*
X214541100Y-82143600D01*
X215176100Y-80873600D02*
X214541100Y-80873600D01*
X215176100Y-79603600D02*
X215176100Y-80873600D01*
X214541100Y-79603600D02*
X215176100Y-79603600D01*
X214541100Y-78968600D02*
X214541100Y-79603600D01*
X217716100Y-78968600D02*
X214541100Y-78968600D01*
D12*
X205476100Y-106908600D02*
G75*
G03X205476100Y-106908600I-3000000J0D01*
G01*
X205876100Y-106908600D02*
G75*
G03X205876100Y-106908600I-3400000J0D01*
G01*
X207096100Y-111918600D02*
G75*
G03X207096100Y-111918600I-510000J0D01*
G01*
X207096100Y-101898600D02*
G75*
G03X207096100Y-101898600I-510000J0D01*
G01*
X198876100Y-101898600D02*
G75*
G03X198876100Y-101898600I-510000J0D01*
G01*
X198876100Y-111918600D02*
G75*
G03X198876100Y-111918600I-510000J0D01*
G01*
X200191401Y-105918599D02*
G75*
G03X201516100Y-109206100I2277600J-992885D01*
G01*
X201516100Y-109206100D02*
X202026100Y-109874700D01*
X201516100Y-105918600D02*
X201516100Y-109206100D01*
X200191400Y-105918600D02*
X199878000Y-105408600D01*
X201516100Y-105918600D02*
X200191400Y-105918600D01*
X202026100Y-105408600D02*
X201516100Y-105918600D01*
X204760801Y-105918599D02*
G75*
G02X203436100Y-109206100I-2277701J-992844D01*
G01*
X203436100Y-109206100D02*
X202926100Y-109874700D01*
X203436100Y-105918600D02*
X203436100Y-109206100D01*
X204760800Y-105918600D02*
X205074200Y-105408600D01*
X203436100Y-105918600D02*
X204760800Y-105918600D01*
X202926100Y-105408600D02*
X203436100Y-105918600D01*
X202926100Y-105408600D02*
X202926100Y-109874700D01*
X202026100Y-105408600D02*
X202031100Y-109875400D01*
X202926100Y-105408600D02*
X205074200Y-105408600D01*
X202026100Y-105408600D02*
X202926100Y-105408600D01*
X199878000Y-105408600D02*
X202026100Y-105408600D01*
X201196100Y-100308600D02*
X203756100Y-100308600D01*
X208676100Y-108908600D02*
X208676100Y-112098600D01*
X208676100Y-101718600D02*
X208676100Y-104908600D01*
X208676100Y-112098600D02*
X208166100Y-112098600D01*
X208166100Y-101718600D02*
X208676100Y-101718600D01*
X196276100Y-108908600D02*
X196276100Y-112098600D01*
X196276100Y-101718600D02*
X196276100Y-104908600D01*
X206756100Y-113508600D02*
G75*
G03X208166100Y-112098600I0J1410000D01*
G01*
X208166100Y-101718600D02*
G75*
G03X206756100Y-100308600I-1410000J0D01*
G01*
X198196100Y-113508600D02*
G75*
G02X196786100Y-112098600I0J1410000D01*
G01*
X196276100Y-112098600D02*
X196786100Y-112098600D01*
X196786100Y-101718600D02*
X196276100Y-101718600D01*
X196786100Y-101718600D02*
G75*
G02X198196100Y-100308600I1410000J0D01*
G01*
D14*
X201600002Y-143200000D02*
G75*
G02X201600000Y-131200000I-1J6000000D01*
G01*
X201600000Y-131200000D02*
X201600000Y-131200000D01*
X201600000Y-131200000D02*
G75*
G02X201600000Y-143200000I0J-6000000D01*
G01*
X201600000Y-143200000D02*
X201600000Y-143200000D01*
D11*
X185831500Y-81514200D02*
G75*
G03X185831500Y-81514200I-1993900J0D01*
G01*
X185806100Y-136505200D02*
G75*
G03X185806100Y-136505200I-1968500J0D01*
G01*
X92829400Y-136505200D02*
G75*
G03X92829400Y-136505200I-1993900J0D01*
G01*
X92816700Y-81514200D02*
G75*
G03X92816700Y-81514200I-1981200J0D01*
G01*
X175333600Y-121507100D02*
X175333600Y-96507100D01*
X99333600Y-121507100D02*
X175333600Y-121507100D01*
X99333600Y-96507100D02*
X99333600Y-121507100D01*
X175333600Y-96507100D02*
X175333600Y-98007100D01*
X99333600Y-96507100D02*
X175333600Y-96507100D01*
X88333600Y-79007100D02*
X88333600Y-139007100D01*
X186333600Y-79007100D02*
X88333600Y-79007100D01*
X186333600Y-139007100D02*
X186333600Y-79007100D01*
X88333600Y-139007100D02*
X186333600Y-139007100D01*
D15*
X84996100Y-71348600D02*
G75*
G03X84996100Y-71348600I-1900000J0D01*
G01*
D12*
X86525100Y-71348600D02*
G75*
G03X86525100Y-71348600I-3429000J0D01*
G01*
D15*
X84996100Y-139928600D02*
G75*
G03X84996100Y-139928600I-1900000J0D01*
G01*
D12*
X86525100Y-139928600D02*
G75*
G03X86525100Y-139928600I-3429000J0D01*
G01*
D15*
X215806100Y-139928600D02*
G75*
G03X215806100Y-139928600I-1900000J0D01*
G01*
D12*
X217335100Y-139928600D02*
G75*
G03X217335100Y-139928600I-3429000J0D01*
G01*
D15*
X215806100Y-71348600D02*
G75*
G03X215806100Y-71348600I-1900000J0D01*
G01*
D12*
X217335100Y-71348600D02*
G75*
G03X217335100Y-71348600I-3429000J0D01*
G01*
D16*
X208770000Y-73610000D02*
X204030000Y-73610000D01*
X204030000Y-73610000D02*
X204030000Y-85750000D01*
X204030000Y-85750000D02*
X208770000Y-85750000D01*
X208770000Y-85750000D02*
X208770000Y-73610000D01*
X206400000Y-73500000D02*
X206400000Y-73610000D01*
X206400000Y-85860000D02*
X206400000Y-85750000D01*
X94780000Y-76870000D02*
X94780000Y-73130000D01*
X102020000Y-76870000D02*
X102020000Y-73130000D01*
X102020000Y-73130000D02*
X94780000Y-73130000D01*
X102020000Y-76870000D02*
X94780000Y-76870000D01*
X133540000Y-75360000D02*
X133540000Y-75030000D01*
X133540000Y-75030000D02*
X140080000Y-75030000D01*
X140080000Y-75030000D02*
X140080000Y-75360000D01*
X133540000Y-77440000D02*
X133540000Y-77770000D01*
X133540000Y-77770000D02*
X140080000Y-77770000D01*
X140080000Y-77770000D02*
X140080000Y-77440000D01*
X199380000Y-128570000D02*
X199380000Y-128240000D01*
X192840000Y-128570000D02*
X199380000Y-128570000D01*
X192840000Y-128240000D02*
X192840000Y-128570000D01*
X199380000Y-125830000D02*
X199380000Y-126160000D01*
X192840000Y-125830000D02*
X199380000Y-125830000D01*
X192840000Y-126160000D02*
X192840000Y-125830000D01*
X176544100Y-107960000D02*
X176214100Y-107960000D01*
X176214100Y-107960000D02*
X176214100Y-101420000D01*
X176214100Y-101420000D02*
X176544100Y-101420000D01*
X178624100Y-107960000D02*
X178954100Y-107960000D01*
X178954100Y-107960000D02*
X178954100Y-101420000D01*
X178954100Y-101420000D02*
X178624100Y-101420000D01*
X174470000Y-101420000D02*
X174140000Y-101420000D01*
X174470000Y-107960000D02*
X174470000Y-101420000D01*
X174140000Y-107960000D02*
X174470000Y-107960000D01*
X171730000Y-101420000D02*
X172060000Y-101420000D01*
X171730000Y-107960000D02*
X171730000Y-101420000D01*
X172060000Y-107960000D02*
X171730000Y-107960000D01*
X181060000Y-107960000D02*
X180730000Y-107960000D01*
X180730000Y-107960000D02*
X180730000Y-101420000D01*
X180730000Y-101420000D02*
X181060000Y-101420000D01*
X183140000Y-107960000D02*
X183470000Y-107960000D01*
X183470000Y-107960000D02*
X183470000Y-101420000D01*
X183470000Y-101420000D02*
X183140000Y-101420000D01*
X109240000Y-73960000D02*
X109240000Y-73630000D01*
X109240000Y-73630000D02*
X115780000Y-73630000D01*
X115780000Y-73630000D02*
X115780000Y-73960000D01*
X109240000Y-76040000D02*
X109240000Y-76370000D01*
X109240000Y-76370000D02*
X115780000Y-76370000D01*
X115780000Y-76370000D02*
X115780000Y-76040000D01*
D17*
X202990147Y-125450403D02*
X202990147Y-124760974D01*
X204196647Y-125105689D02*
X202990147Y-125105689D01*
X204196647Y-123726832D02*
X204196647Y-124416260D01*
X204196647Y-124071546D02*
X202990147Y-124071546D01*
X203162504Y-124186451D01*
X203277409Y-124301355D01*
X203334861Y-124416260D01*
X193014842Y-100656279D02*
X193072295Y-100713732D01*
X193129747Y-100886089D01*
X193129747Y-101000993D01*
X193072295Y-101173351D01*
X192957390Y-101288255D01*
X192842485Y-101345708D01*
X192612676Y-101403160D01*
X192440319Y-101403160D01*
X192210509Y-101345708D01*
X192095604Y-101288255D01*
X191980700Y-101173351D01*
X191923247Y-101000993D01*
X191923247Y-100886089D01*
X191980700Y-100713732D01*
X192038152Y-100656279D01*
X192038152Y-100196660D02*
X191980700Y-100139208D01*
X191923247Y-100024303D01*
X191923247Y-99737041D01*
X191980700Y-99622136D01*
X192038152Y-99564684D01*
X192153057Y-99507232D01*
X192267961Y-99507232D01*
X192440319Y-99564684D01*
X193129747Y-100254112D01*
X193129747Y-99507232D01*
X214918557Y-92534112D02*
X214861104Y-92476660D01*
X214803652Y-92304303D01*
X214803652Y-92189398D01*
X214861104Y-92017041D01*
X214976009Y-91902136D01*
X215090914Y-91844684D01*
X215320723Y-91787232D01*
X215493080Y-91787232D01*
X215722890Y-91844684D01*
X215837795Y-91902136D01*
X215952700Y-92017041D01*
X216010152Y-92189398D01*
X216010152Y-92304303D01*
X215952700Y-92476660D01*
X215895247Y-92534112D01*
X214803652Y-93683160D02*
X214803652Y-92993732D01*
X214803652Y-93338446D02*
X216010152Y-93338446D01*
X215837795Y-93223541D01*
X215722890Y-93108636D01*
X215665438Y-92993732D01*
D18*
X135199238Y-71786223D02*
X134234038Y-71786223D01*
X134325961Y-71372566D02*
X134280000Y-71326604D01*
X134234038Y-71234680D01*
X134234038Y-71004871D01*
X134280000Y-70912947D01*
X134325961Y-70866985D01*
X134417885Y-70821023D01*
X134509809Y-70821023D01*
X134647695Y-70866985D01*
X135199238Y-71418528D01*
X135199238Y-70821023D01*
X135107314Y-69855823D02*
X135153276Y-69901785D01*
X135199238Y-70039671D01*
X135199238Y-70131595D01*
X135153276Y-70269480D01*
X135061352Y-70361404D01*
X134969428Y-70407366D01*
X134785580Y-70453328D01*
X134647695Y-70453328D01*
X134463847Y-70407366D01*
X134371923Y-70361404D01*
X134280000Y-70269480D01*
X134234038Y-70131595D01*
X134234038Y-70039671D01*
X134280000Y-69901785D01*
X134325961Y-69855823D01*
X135199238Y-68936585D02*
X135199238Y-69488128D01*
X135199238Y-69212357D02*
X134234038Y-69212357D01*
X134371923Y-69304280D01*
X134463847Y-69396204D01*
X134509809Y-69488128D01*
D19*
X139723147Y-69443279D02*
X139723147Y-70132708D01*
X139723147Y-69787993D02*
X138516647Y-69787993D01*
X138689004Y-69902898D01*
X138803909Y-70017803D01*
X138861361Y-70132708D01*
X146488014Y-69685184D02*
X147292347Y-69685184D01*
X146028395Y-69972446D02*
X146890180Y-70259708D01*
X146890180Y-69512827D01*
D18*
X153499238Y-74397976D02*
X152534038Y-74397976D01*
X152534038Y-74168166D01*
X152580000Y-74030280D01*
X152671923Y-73938357D01*
X152763847Y-73892395D01*
X152947695Y-73846433D01*
X153085580Y-73846433D01*
X153269428Y-73892395D01*
X153361352Y-73938357D01*
X153453276Y-74030280D01*
X153499238Y-74168166D01*
X153499238Y-74397976D01*
X153499238Y-72881233D02*
X153039619Y-73202966D01*
X153499238Y-73432776D02*
X152534038Y-73432776D01*
X152534038Y-73065080D01*
X152580000Y-72973157D01*
X152625961Y-72927195D01*
X152717885Y-72881233D01*
X152855771Y-72881233D01*
X152947695Y-72927195D01*
X152993657Y-72973157D01*
X153039619Y-73065080D01*
X153039619Y-73432776D01*
X153499238Y-72467576D02*
X152534038Y-72467576D01*
X152534038Y-72145842D02*
X153499238Y-71824109D01*
X152534038Y-71502376D01*
X152993657Y-71180642D02*
X152993657Y-70858909D01*
X153499238Y-70721023D02*
X153499238Y-71180642D01*
X152534038Y-71180642D01*
X152534038Y-70721023D01*
X153499238Y-69755823D02*
X153039619Y-70077557D01*
X153499238Y-70307366D02*
X152534038Y-70307366D01*
X152534038Y-69939671D01*
X152580000Y-69847747D01*
X152625961Y-69801785D01*
X152717885Y-69755823D01*
X152855771Y-69755823D01*
X152947695Y-69801785D01*
X152993657Y-69847747D01*
X153039619Y-69939671D01*
X153039619Y-70307366D01*
X153499238Y-68836585D02*
X153499238Y-69388128D01*
X153499238Y-69112357D02*
X152534038Y-69112357D01*
X152671923Y-69204280D01*
X152763847Y-69296204D01*
X152809809Y-69388128D01*
D19*
X164788014Y-69585184D02*
X165592347Y-69585184D01*
X164328395Y-69872446D02*
X165190180Y-70159708D01*
X165190180Y-69412827D01*
X158023147Y-69343279D02*
X158023147Y-70032708D01*
X158023147Y-69687993D02*
X156816647Y-69687993D01*
X156989004Y-69802898D01*
X157103909Y-69917803D01*
X157161361Y-70032708D01*
D18*
X172439238Y-75483347D02*
X171474038Y-75483347D01*
X171933657Y-75483347D02*
X171933657Y-74931804D01*
X172439238Y-74931804D02*
X171474038Y-74931804D01*
X172163466Y-74518147D02*
X172163466Y-74058528D01*
X172439238Y-74610071D02*
X171474038Y-74288338D01*
X172439238Y-73966604D01*
X172439238Y-73185252D02*
X172439238Y-73644871D01*
X171474038Y-73644871D01*
X172439238Y-72403899D02*
X172439238Y-72863518D01*
X171474038Y-72863518D01*
X172439238Y-71576585D02*
X172439238Y-72128128D01*
X172439238Y-71852357D02*
X171474038Y-71852357D01*
X171611923Y-71944280D01*
X171703847Y-72036204D01*
X171749809Y-72128128D01*
D19*
X179515847Y-70417160D02*
X179515847Y-69670279D01*
X179975466Y-70072446D01*
X179975466Y-69900089D01*
X180032919Y-69785184D01*
X180090371Y-69727731D01*
X180205276Y-69670279D01*
X180492538Y-69670279D01*
X180607442Y-69727731D01*
X180664895Y-69785184D01*
X180722347Y-69900089D01*
X180722347Y-70244803D01*
X180664895Y-70359708D01*
X180607442Y-70417160D01*
X175693147Y-69543279D02*
X175693147Y-70232708D01*
X175693147Y-69887993D02*
X174486647Y-69887993D01*
X174659004Y-70002898D01*
X174773909Y-70117803D01*
X174831361Y-70232708D01*
D18*
X214060761Y-85272638D02*
X214382495Y-86237838D01*
X214704228Y-85272638D01*
X215025961Y-86237838D02*
X215025961Y-85272638D01*
X215485580Y-86237838D02*
X215485580Y-85272638D01*
X216037123Y-86237838D01*
X216037123Y-85272638D01*
X217002323Y-86237838D02*
X216450780Y-86237838D01*
X216726552Y-86237838D02*
X216726552Y-85272638D01*
X216634628Y-85410523D01*
X216542704Y-85502447D01*
X216450780Y-85548409D01*
D19*
X216256579Y-83269352D02*
X216314031Y-83211900D01*
X216428936Y-83154447D01*
X216716198Y-83154447D01*
X216831103Y-83211900D01*
X216888555Y-83269352D01*
X216946008Y-83384257D01*
X216946008Y-83499161D01*
X216888555Y-83671519D01*
X216199127Y-84360947D01*
X216946008Y-84360947D01*
X217073008Y-81871747D02*
X216383579Y-81871747D01*
X216728293Y-81871747D02*
X216728293Y-80665247D01*
X216613389Y-80837604D01*
X216498484Y-80952509D01*
X216383579Y-81009961D01*
D20*
X209607624Y-114257733D02*
X209848924Y-114338166D01*
X210251091Y-114338166D01*
X210411958Y-114257733D01*
X210492391Y-114177300D01*
X210572824Y-114016433D01*
X210572824Y-113855566D01*
X210492391Y-113694700D01*
X210411958Y-113614266D01*
X210251091Y-113533833D01*
X209929358Y-113453400D01*
X209768491Y-113372966D01*
X209688058Y-113292533D01*
X209607624Y-113131666D01*
X209607624Y-112970800D01*
X209688058Y-112809933D01*
X209768491Y-112729500D01*
X209929358Y-112649066D01*
X210331524Y-112649066D01*
X210572824Y-112729500D01*
X211135858Y-112649066D02*
X211538024Y-114338166D01*
X211859758Y-113131666D01*
X212181491Y-114338166D01*
X212583658Y-112649066D01*
X214111891Y-114338166D02*
X213146691Y-114338166D01*
X213629291Y-114338166D02*
X213629291Y-112649066D01*
X213468424Y-112890366D01*
X213307558Y-113051233D01*
X213146691Y-113131666D01*
D18*
X201513821Y-140618416D02*
X201571273Y-140446059D01*
X201628726Y-140388607D01*
X201743630Y-140331154D01*
X201915988Y-140331154D01*
X202030892Y-140388607D01*
X202088345Y-140446059D01*
X202145797Y-140560964D01*
X202145797Y-141020583D01*
X200939297Y-141020583D01*
X200939297Y-140618416D01*
X200996750Y-140503511D01*
X201054202Y-140446059D01*
X201169107Y-140388607D01*
X201284011Y-140388607D01*
X201398916Y-140446059D01*
X201456369Y-140503511D01*
X201513821Y-140618416D01*
X201513821Y-141020583D01*
X200939297Y-139814083D02*
X201915988Y-139814083D01*
X202030892Y-139756630D01*
X202088345Y-139699178D01*
X202145797Y-139584273D01*
X202145797Y-139354464D01*
X202088345Y-139239559D01*
X202030892Y-139182107D01*
X201915988Y-139124654D01*
X200939297Y-139124654D01*
X200939297Y-138665035D02*
X200939297Y-137860702D01*
X202145797Y-138665035D01*
X202145797Y-137860702D01*
X200939297Y-137515988D02*
X200939297Y-136711654D01*
X202145797Y-137515988D01*
X202145797Y-136711654D01*
X201513821Y-136252035D02*
X201513821Y-135849869D01*
X202145797Y-135677511D02*
X202145797Y-136252035D01*
X200939297Y-136252035D01*
X200939297Y-135677511D01*
X202145797Y-134471011D02*
X201571273Y-134873178D01*
X202145797Y-135160440D02*
X200939297Y-135160440D01*
X200939297Y-134700821D01*
X200996750Y-134585916D01*
X201054202Y-134528464D01*
X201169107Y-134471011D01*
X201341464Y-134471011D01*
X201456369Y-134528464D01*
X201513821Y-134585916D01*
X201571273Y-134700821D01*
X201571273Y-135160440D01*
X202145797Y-133321964D02*
X202145797Y-134011392D01*
X202145797Y-133666678D02*
X200939297Y-133666678D01*
X201111654Y-133781583D01*
X201226559Y-133896488D01*
X201284011Y-134011392D01*
X89613723Y-77634047D02*
X89039199Y-77634047D01*
X89039199Y-76427547D01*
X90705318Y-77519142D02*
X90647866Y-77576595D01*
X90475509Y-77634047D01*
X90360604Y-77634047D01*
X90188247Y-77576595D01*
X90073342Y-77461690D01*
X90015890Y-77346785D01*
X89958438Y-77116976D01*
X89958438Y-76944619D01*
X90015890Y-76714809D01*
X90073342Y-76599904D01*
X90188247Y-76485000D01*
X90360604Y-76427547D01*
X90475509Y-76427547D01*
X90647866Y-76485000D01*
X90705318Y-76542452D01*
X91222390Y-77634047D02*
X91222390Y-76427547D01*
X91509652Y-76427547D01*
X91682009Y-76485000D01*
X91796914Y-76599904D01*
X91854366Y-76714809D01*
X91911818Y-76944619D01*
X91911818Y-77116976D01*
X91854366Y-77346785D01*
X91796914Y-77461690D01*
X91682009Y-77576595D01*
X91509652Y-77634047D01*
X91222390Y-77634047D01*
X93060866Y-77634047D02*
X92371438Y-77634047D01*
X92716152Y-77634047D02*
X92716152Y-76427547D01*
X92601247Y-76599904D01*
X92486342Y-76714809D01*
X92371438Y-76772261D01*
D21*
X136410478Y-85508047D02*
X135721049Y-85508047D01*
X136065763Y-85508047D02*
X136065763Y-84301547D01*
X135950859Y-84473904D01*
X135835954Y-84588809D01*
X135721049Y-84646261D01*
X137444620Y-84301547D02*
X137214811Y-84301547D01*
X137099906Y-84359000D01*
X137042454Y-84416452D01*
X136927549Y-84588809D01*
X136870097Y-84818619D01*
X136870097Y-85278238D01*
X136927549Y-85393142D01*
X136985001Y-85450595D01*
X137099906Y-85508047D01*
X137329716Y-85508047D01*
X137444620Y-85450595D01*
X137502073Y-85393142D01*
X137559525Y-85278238D01*
X137559525Y-84990976D01*
X137502073Y-84876071D01*
X137444620Y-84818619D01*
X137329716Y-84761166D01*
X137099906Y-84761166D01*
X136985001Y-84818619D01*
X136927549Y-84876071D01*
X136870097Y-84990976D01*
X131330478Y-85508047D02*
X130641049Y-85508047D01*
X130985763Y-85508047D02*
X130985763Y-84301547D01*
X130870859Y-84473904D01*
X130755954Y-84588809D01*
X130641049Y-84646261D01*
X132364620Y-84703714D02*
X132364620Y-85508047D01*
X132077359Y-84244095D02*
X131790097Y-85105880D01*
X132536978Y-85105880D01*
X98818478Y-85254047D02*
X98129049Y-85254047D01*
X98473763Y-85254047D02*
X98473763Y-84047547D01*
X98358859Y-84219904D01*
X98243954Y-84334809D01*
X98129049Y-84392261D01*
D22*
X210222380Y-79846666D02*
X209746190Y-80180000D01*
X210222380Y-80418095D02*
X209222380Y-80418095D01*
X209222380Y-80037142D01*
X209270000Y-79941904D01*
X209317619Y-79894285D01*
X209412857Y-79846666D01*
X209555714Y-79846666D01*
X209650952Y-79894285D01*
X209698571Y-79941904D01*
X209746190Y-80037142D01*
X209746190Y-80418095D01*
X209222380Y-78989523D02*
X209222380Y-79180000D01*
X209270000Y-79275238D01*
X209317619Y-79322857D01*
X209460476Y-79418095D01*
X209650952Y-79465714D01*
X210031904Y-79465714D01*
X210127142Y-79418095D01*
X210174761Y-79370476D01*
X210222380Y-79275238D01*
X210222380Y-79084761D01*
X210174761Y-78989523D01*
X210127142Y-78941904D01*
X210031904Y-78894285D01*
X209793809Y-78894285D01*
X209698571Y-78941904D01*
X209650952Y-78989523D01*
X209603333Y-79084761D01*
X209603333Y-79275238D01*
X209650952Y-79370476D01*
X209698571Y-79418095D01*
X209793809Y-79465714D01*
X98233333Y-78357142D02*
X98185714Y-78404761D01*
X98042857Y-78452380D01*
X97947619Y-78452380D01*
X97804761Y-78404761D01*
X97709523Y-78309523D01*
X97661904Y-78214285D01*
X97614285Y-78023809D01*
X97614285Y-77880952D01*
X97661904Y-77690476D01*
X97709523Y-77595238D01*
X97804761Y-77500000D01*
X97947619Y-77452380D01*
X98042857Y-77452380D01*
X98185714Y-77500000D01*
X98233333Y-77547619D01*
X98566666Y-77452380D02*
X99185714Y-77452380D01*
X98852380Y-77833333D01*
X98995238Y-77833333D01*
X99090476Y-77880952D01*
X99138095Y-77928571D01*
X99185714Y-78023809D01*
X99185714Y-78261904D01*
X99138095Y-78357142D01*
X99090476Y-78404761D01*
X98995238Y-78452380D01*
X98709523Y-78452380D01*
X98614285Y-78404761D01*
X98566666Y-78357142D01*
X136643333Y-74482380D02*
X136310000Y-74006190D01*
X136071904Y-74482380D02*
X136071904Y-73482380D01*
X136452857Y-73482380D01*
X136548095Y-73530000D01*
X136595714Y-73577619D01*
X136643333Y-73672857D01*
X136643333Y-73815714D01*
X136595714Y-73910952D01*
X136548095Y-73958571D01*
X136452857Y-74006190D01*
X136071904Y-74006190D01*
X136976666Y-73482380D02*
X137643333Y-73482380D01*
X137214761Y-74482380D01*
X195943333Y-125282380D02*
X195610000Y-124806190D01*
X195371904Y-125282380D02*
X195371904Y-124282380D01*
X195752857Y-124282380D01*
X195848095Y-124330000D01*
X195895714Y-124377619D01*
X195943333Y-124472857D01*
X195943333Y-124615714D01*
X195895714Y-124710952D01*
X195848095Y-124758571D01*
X195752857Y-124806190D01*
X195371904Y-124806190D01*
X196895714Y-125282380D02*
X196324285Y-125282380D01*
X196610000Y-125282380D02*
X196610000Y-124282380D01*
X196514761Y-124425238D01*
X196419523Y-124520476D01*
X196324285Y-124568095D01*
X175666480Y-104856666D02*
X175190290Y-105190000D01*
X175666480Y-105428095D02*
X174666480Y-105428095D01*
X174666480Y-105047142D01*
X174714100Y-104951904D01*
X174761719Y-104904285D01*
X174856957Y-104856666D01*
X174999814Y-104856666D01*
X175095052Y-104904285D01*
X175142671Y-104951904D01*
X175190290Y-105047142D01*
X175190290Y-105428095D01*
X174761719Y-104475714D02*
X174714100Y-104428095D01*
X174666480Y-104332857D01*
X174666480Y-104094761D01*
X174714100Y-103999523D01*
X174761719Y-103951904D01*
X174856957Y-103904285D01*
X174952195Y-103904285D01*
X175095052Y-103951904D01*
X175666480Y-104523333D01*
X175666480Y-103904285D01*
X171182380Y-104856666D02*
X170706190Y-105190000D01*
X171182380Y-105428095D02*
X170182380Y-105428095D01*
X170182380Y-105047142D01*
X170230000Y-104951904D01*
X170277619Y-104904285D01*
X170372857Y-104856666D01*
X170515714Y-104856666D01*
X170610952Y-104904285D01*
X170658571Y-104951904D01*
X170706190Y-105047142D01*
X170706190Y-105428095D01*
X170182380Y-104523333D02*
X170182380Y-103904285D01*
X170563333Y-104237619D01*
X170563333Y-104094761D01*
X170610952Y-103999523D01*
X170658571Y-103951904D01*
X170753809Y-103904285D01*
X170991904Y-103904285D01*
X171087142Y-103951904D01*
X171134761Y-103999523D01*
X171182380Y-104094761D01*
X171182380Y-104380476D01*
X171134761Y-104475714D01*
X171087142Y-104523333D01*
X180182380Y-104856666D02*
X179706190Y-105190000D01*
X180182380Y-105428095D02*
X179182380Y-105428095D01*
X179182380Y-105047142D01*
X179230000Y-104951904D01*
X179277619Y-104904285D01*
X179372857Y-104856666D01*
X179515714Y-104856666D01*
X179610952Y-104904285D01*
X179658571Y-104951904D01*
X179706190Y-105047142D01*
X179706190Y-105428095D01*
X179515714Y-103999523D02*
X180182380Y-103999523D01*
X179134761Y-104237619D02*
X179849047Y-104475714D01*
X179849047Y-103856666D01*
X112343333Y-73082380D02*
X112010000Y-72606190D01*
X111771904Y-73082380D02*
X111771904Y-72082380D01*
X112152857Y-72082380D01*
X112248095Y-72130000D01*
X112295714Y-72177619D01*
X112343333Y-72272857D01*
X112343333Y-72415714D01*
X112295714Y-72510952D01*
X112248095Y-72558571D01*
X112152857Y-72606190D01*
X111771904Y-72606190D01*
X112914761Y-72510952D02*
X112819523Y-72463333D01*
X112771904Y-72415714D01*
X112724285Y-72320476D01*
X112724285Y-72272857D01*
X112771904Y-72177619D01*
X112819523Y-72130000D01*
X112914761Y-72082380D01*
X113105238Y-72082380D01*
X113200476Y-72130000D01*
X113248095Y-72177619D01*
X113295714Y-72272857D01*
X113295714Y-72320476D01*
X113248095Y-72415714D01*
X113200476Y-72463333D01*
X113105238Y-72510952D01*
X112914761Y-72510952D01*
X112819523Y-72558571D01*
X112771904Y-72606190D01*
X112724285Y-72701428D01*
X112724285Y-72891904D01*
X112771904Y-72987142D01*
X112819523Y-73034761D01*
X112914761Y-73082380D01*
X113105238Y-73082380D01*
X113200476Y-73034761D01*
X113248095Y-72987142D01*
X113295714Y-72891904D01*
X113295714Y-72701428D01*
X113248095Y-72606190D01*
X113200476Y-72558571D01*
X113105238Y-72510952D01*
%LPC*%
D23*
X156756100Y-101828600D03*
X116116100Y-101828600D03*
X116116100Y-117068600D03*
X156756100Y-117068600D03*
D24*
X118656100Y-101828600D03*
X121196100Y-101828600D03*
X123736100Y-101828600D03*
X126276100Y-101828600D03*
X128816100Y-101828600D03*
X131356100Y-101828600D03*
X133896100Y-101828600D03*
X136436100Y-101828600D03*
X138976100Y-101828600D03*
X141516100Y-101828600D03*
X144056100Y-101828600D03*
X146596100Y-101828600D03*
X149136100Y-101828600D03*
X151676100Y-101828600D03*
X154216100Y-101828600D03*
X118656100Y-117068600D03*
X121196100Y-117068600D03*
X123736100Y-117068600D03*
X126276100Y-117068600D03*
X128816100Y-117068600D03*
X131356100Y-117068600D03*
X133896100Y-117068600D03*
X136436100Y-117068600D03*
X138976100Y-117068600D03*
X141516100Y-117068600D03*
X144056100Y-117068600D03*
X146596100Y-117068600D03*
X149136100Y-117068600D03*
X151676100Y-117068600D03*
D25*
X154216100Y-117068600D03*
D26*
X202476100Y-127228600D03*
X207556100Y-127228600D03*
X205016100Y-127228600D03*
D27*
X192222000Y-94500000D03*
X194000000Y-94500000D03*
X212511000Y-94400000D03*
X214289000Y-94400000D03*
D28*
X138090000Y-72500000D03*
X140630000Y-72500000D03*
X143170000Y-72500000D03*
X145710000Y-72500000D03*
X164010000Y-72400000D03*
X161470000Y-72400000D03*
X158930000Y-72400000D03*
X156390000Y-72400000D03*
X179140000Y-72600000D03*
X176600000Y-72600000D03*
X174060000Y-72600000D03*
D29*
X212636100Y-82778600D03*
X212636100Y-80238600D03*
D30*
X209076100Y-106908600D03*
X195876100Y-106908600D03*
D31*
X204976100Y-114408600D03*
X202476100Y-114408600D03*
X199976100Y-114408600D03*
X204976100Y-99908600D03*
X199976100Y-99908600D03*
D32*
X100876100Y-92684600D03*
X103416100Y-95224600D03*
X105956100Y-92684600D03*
D33*
X197800000Y-137200000D03*
X205400000Y-137200000D03*
D34*
X194856100Y-74142600D03*
D35*
X192316100Y-89128600D03*
X194856100Y-89128600D03*
X197396100Y-89128600D03*
D36*
X183841200Y-81501500D03*
X183851200Y-136501500D03*
X90841200Y-136501500D03*
X90831200Y-81511500D03*
D37*
X136428500Y-81501500D03*
X133888500Y-81501500D03*
X131348500Y-81501500D03*
X128808500Y-81501500D03*
X126268500Y-81501500D03*
X123728500Y-81501500D03*
X121188500Y-81501500D03*
X118648500Y-81501500D03*
X116108500Y-81501500D03*
X113568500Y-81501500D03*
X111028500Y-81501500D03*
X108488500Y-81501500D03*
X105948500Y-81501500D03*
X103408500Y-81501500D03*
X100868500Y-81501500D03*
X98328500Y-81501500D03*
D38*
X83096100Y-71348600D03*
X83096100Y-139928600D03*
X213906100Y-139928600D03*
X213906100Y-71348600D03*
D39*
X206400000Y-72060000D03*
D40*
X206400000Y-87300000D03*
D41*
X95900000Y-75000000D03*
X100900000Y-75000000D03*
X133000000Y-76400000D03*
D42*
X140620000Y-76400000D03*
X199920000Y-127200000D03*
D41*
X192300000Y-127200000D03*
X177584100Y-108500000D03*
D42*
X177584100Y-100880000D03*
X173100000Y-100880000D03*
D41*
X173100000Y-108500000D03*
X182100000Y-108500000D03*
D42*
X182100000Y-100880000D03*
D41*
X108700000Y-75000000D03*
D42*
X116320000Y-75000000D03*
M02*
