G04 #@! TF.GenerationSoftware,KiCad,Pcbnew,5.1.5-52549c5~84~ubuntu18.04.1*
G04 #@! TF.CreationDate,2020-03-20T23:57:41+01:00*
G04 #@! TF.ProjectId,REES,52454553-2e6b-4696-9361-645f70636258,rev?*
G04 #@! TF.SameCoordinates,Original*
G04 #@! TF.FileFunction,Soldermask,Top*
G04 #@! TF.FilePolarity,Negative*
%FSLAX46Y46*%
G04 Gerber Fmt 4.6, Leading zero omitted, Abs format (unit mm)*
G04 Created by KiCad (PCBNEW 5.1.5-52549c5~84~ubuntu18.04.1) date 2020-03-20 23:57:41*
%MOMM*%
%LPD*%
G04 APERTURE LIST*
%ADD10C,0.100000*%
G04 APERTURE END LIST*
D10*
G36*
X214267213Y-138113167D02*
G01*
X214446017Y-138148733D01*
X214585548Y-138206529D01*
X214782876Y-138288264D01*
X215086043Y-138490834D01*
X215343866Y-138748657D01*
X215546436Y-139051824D01*
X215685967Y-139388684D01*
X215757100Y-139746291D01*
X215757100Y-140110909D01*
X215685967Y-140468516D01*
X215546436Y-140805376D01*
X215343866Y-141108543D01*
X215086043Y-141366366D01*
X214782876Y-141568936D01*
X214585548Y-141650671D01*
X214446017Y-141708467D01*
X214267212Y-141744034D01*
X214088409Y-141779600D01*
X213723791Y-141779600D01*
X213544988Y-141744034D01*
X213366183Y-141708467D01*
X213226652Y-141650671D01*
X213029324Y-141568936D01*
X212726157Y-141366366D01*
X212468334Y-141108543D01*
X212265764Y-140805376D01*
X212126233Y-140468516D01*
X212055100Y-140110909D01*
X212055100Y-139746291D01*
X212126233Y-139388684D01*
X212265764Y-139051824D01*
X212468334Y-138748657D01*
X212726157Y-138490834D01*
X213029324Y-138288264D01*
X213226652Y-138206529D01*
X213366183Y-138148733D01*
X213544987Y-138113167D01*
X213723791Y-138077600D01*
X214088409Y-138077600D01*
X214267213Y-138113167D01*
G37*
G36*
X83457213Y-138113167D02*
G01*
X83636017Y-138148733D01*
X83775548Y-138206529D01*
X83972876Y-138288264D01*
X84276043Y-138490834D01*
X84533866Y-138748657D01*
X84736436Y-139051824D01*
X84875967Y-139388684D01*
X84947100Y-139746291D01*
X84947100Y-140110909D01*
X84875967Y-140468516D01*
X84736436Y-140805376D01*
X84533866Y-141108543D01*
X84276043Y-141366366D01*
X83972876Y-141568936D01*
X83775548Y-141650671D01*
X83636017Y-141708467D01*
X83457212Y-141744034D01*
X83278409Y-141779600D01*
X82913791Y-141779600D01*
X82734988Y-141744034D01*
X82556183Y-141708467D01*
X82416652Y-141650671D01*
X82219324Y-141568936D01*
X81916157Y-141366366D01*
X81658334Y-141108543D01*
X81455764Y-140805376D01*
X81316233Y-140468516D01*
X81245100Y-140110909D01*
X81245100Y-139746291D01*
X81316233Y-139388684D01*
X81455764Y-139051824D01*
X81658334Y-138748657D01*
X81916157Y-138490834D01*
X82219324Y-138288264D01*
X82416652Y-138206529D01*
X82556183Y-138148733D01*
X82734987Y-138113167D01*
X82913791Y-138077600D01*
X83278409Y-138077600D01*
X83457213Y-138113167D01*
G37*
G36*
X91285779Y-134595612D02*
G01*
X91411744Y-134620668D01*
X91559191Y-134681743D01*
X91767712Y-134768115D01*
X91767713Y-134768116D01*
X92088077Y-134982176D01*
X92360524Y-135254623D01*
X92503555Y-135468684D01*
X92574585Y-135574988D01*
X92722032Y-135930957D01*
X92797200Y-136308849D01*
X92797200Y-136694151D01*
X92747088Y-136946079D01*
X92722032Y-137072044D01*
X92697629Y-137130958D01*
X92574585Y-137428012D01*
X92574584Y-137428013D01*
X92360524Y-137748377D01*
X92088077Y-138020824D01*
X91896647Y-138148733D01*
X91767712Y-138234885D01*
X91638841Y-138288265D01*
X91411744Y-138382332D01*
X91285779Y-138407388D01*
X91033851Y-138457500D01*
X90648549Y-138457500D01*
X90396621Y-138407388D01*
X90270656Y-138382332D01*
X90043559Y-138288265D01*
X89914688Y-138234885D01*
X89785753Y-138148733D01*
X89594323Y-138020824D01*
X89321876Y-137748377D01*
X89107816Y-137428013D01*
X89107815Y-137428012D01*
X88984771Y-137130958D01*
X88960368Y-137072044D01*
X88935312Y-136946079D01*
X88885200Y-136694151D01*
X88885200Y-136308849D01*
X88960368Y-135930957D01*
X89107815Y-135574988D01*
X89178845Y-135468684D01*
X89321876Y-135254623D01*
X89594323Y-134982176D01*
X89914687Y-134768116D01*
X89914688Y-134768115D01*
X90123209Y-134681743D01*
X90270656Y-134620668D01*
X90396621Y-134595612D01*
X90648549Y-134545500D01*
X91033851Y-134545500D01*
X91285779Y-134595612D01*
G37*
G36*
X184295779Y-134595612D02*
G01*
X184421744Y-134620668D01*
X184569191Y-134681743D01*
X184777712Y-134768115D01*
X184777713Y-134768116D01*
X185098077Y-134982176D01*
X185370524Y-135254623D01*
X185513555Y-135468684D01*
X185584585Y-135574988D01*
X185732032Y-135930957D01*
X185807200Y-136308849D01*
X185807200Y-136694151D01*
X185757088Y-136946079D01*
X185732032Y-137072044D01*
X185707629Y-137130958D01*
X185584585Y-137428012D01*
X185584584Y-137428013D01*
X185370524Y-137748377D01*
X185098077Y-138020824D01*
X184906647Y-138148733D01*
X184777712Y-138234885D01*
X184648841Y-138288265D01*
X184421744Y-138382332D01*
X184295779Y-138407388D01*
X184043851Y-138457500D01*
X183658549Y-138457500D01*
X183406621Y-138407388D01*
X183280656Y-138382332D01*
X183053559Y-138288265D01*
X182924688Y-138234885D01*
X182795753Y-138148733D01*
X182604323Y-138020824D01*
X182331876Y-137748377D01*
X182117816Y-137428013D01*
X182117815Y-137428012D01*
X181994771Y-137130958D01*
X181970368Y-137072044D01*
X181945312Y-136946079D01*
X181895200Y-136694151D01*
X181895200Y-136308849D01*
X181970368Y-135930957D01*
X182117815Y-135574988D01*
X182188845Y-135468684D01*
X182331876Y-135254623D01*
X182604323Y-134982176D01*
X182924687Y-134768116D01*
X182924688Y-134768115D01*
X183133209Y-134681743D01*
X183280656Y-134620668D01*
X183406621Y-134595612D01*
X183658549Y-134545500D01*
X184043851Y-134545500D01*
X184295779Y-134595612D01*
G37*
G36*
X198004473Y-136525938D02*
G01*
X198132049Y-136578782D01*
X198246859Y-136655495D01*
X198344505Y-136753141D01*
X198421218Y-136867951D01*
X198474062Y-136995527D01*
X198501000Y-137130956D01*
X198501000Y-137269044D01*
X198474062Y-137404473D01*
X198421218Y-137532049D01*
X198344505Y-137646859D01*
X198246859Y-137744505D01*
X198132049Y-137821218D01*
X198004473Y-137874062D01*
X197869044Y-137901000D01*
X197730956Y-137901000D01*
X197595527Y-137874062D01*
X197467951Y-137821218D01*
X197353141Y-137744505D01*
X197255495Y-137646859D01*
X197178782Y-137532049D01*
X197125938Y-137404473D01*
X197099000Y-137269044D01*
X197099000Y-137130956D01*
X197125938Y-136995527D01*
X197178782Y-136867951D01*
X197255495Y-136753141D01*
X197353141Y-136655495D01*
X197467951Y-136578782D01*
X197595527Y-136525938D01*
X197730956Y-136499000D01*
X197869044Y-136499000D01*
X198004473Y-136525938D01*
G37*
G36*
X205604473Y-136525938D02*
G01*
X205732049Y-136578782D01*
X205846859Y-136655495D01*
X205944505Y-136753141D01*
X206021218Y-136867951D01*
X206074062Y-136995527D01*
X206101000Y-137130956D01*
X206101000Y-137269044D01*
X206074062Y-137404473D01*
X206021218Y-137532049D01*
X205944505Y-137646859D01*
X205846859Y-137744505D01*
X205732049Y-137821218D01*
X205604473Y-137874062D01*
X205469044Y-137901000D01*
X205330956Y-137901000D01*
X205195527Y-137874062D01*
X205067951Y-137821218D01*
X204953141Y-137744505D01*
X204855495Y-137646859D01*
X204778782Y-137532049D01*
X204725938Y-137404473D01*
X204699000Y-137269044D01*
X204699000Y-137130956D01*
X204725938Y-136995527D01*
X204778782Y-136867951D01*
X204855495Y-136753141D01*
X204953141Y-136655495D01*
X205067951Y-136578782D01*
X205195527Y-136525938D01*
X205330956Y-136499000D01*
X205469044Y-136499000D01*
X205604473Y-136525938D01*
G37*
G36*
X202614774Y-125875036D02*
G01*
X202748120Y-125915486D01*
X202871012Y-125981173D01*
X202978727Y-126069573D01*
X203067127Y-126177288D01*
X203132814Y-126300180D01*
X203173264Y-126433526D01*
X203183500Y-126537455D01*
X203183500Y-127919745D01*
X203173264Y-128023674D01*
X203132814Y-128157020D01*
X203067127Y-128279912D01*
X203019051Y-128338492D01*
X202978729Y-128387624D01*
X202978727Y-128387625D01*
X202978726Y-128387627D01*
X202871011Y-128476027D01*
X202871007Y-128476029D01*
X202871006Y-128476030D01*
X202748121Y-128541713D01*
X202748119Y-128541714D01*
X202614773Y-128582164D01*
X202476100Y-128595822D01*
X202337426Y-128582164D01*
X202204080Y-128541714D01*
X202081188Y-128476027D01*
X202022608Y-128427951D01*
X201973476Y-128387629D01*
X201973475Y-128387627D01*
X201973473Y-128387626D01*
X201885073Y-128279911D01*
X201819386Y-128157019D01*
X201778936Y-128023673D01*
X201768700Y-127919744D01*
X201768701Y-126537455D01*
X201778937Y-126433526D01*
X201819387Y-126300180D01*
X201885074Y-126177288D01*
X201973474Y-126069573D01*
X202081189Y-125981173D01*
X202204081Y-125915486D01*
X202337427Y-125875036D01*
X202476100Y-125861378D01*
X202614774Y-125875036D01*
G37*
G36*
X205154774Y-125875036D02*
G01*
X205288120Y-125915486D01*
X205411012Y-125981173D01*
X205518727Y-126069573D01*
X205607127Y-126177288D01*
X205672814Y-126300180D01*
X205713264Y-126433526D01*
X205723500Y-126537455D01*
X205723500Y-127919745D01*
X205713264Y-128023674D01*
X205672814Y-128157020D01*
X205607127Y-128279912D01*
X205559051Y-128338492D01*
X205518729Y-128387624D01*
X205518727Y-128387625D01*
X205518726Y-128387627D01*
X205411011Y-128476027D01*
X205411007Y-128476029D01*
X205411006Y-128476030D01*
X205288121Y-128541713D01*
X205288119Y-128541714D01*
X205154773Y-128582164D01*
X205016100Y-128595822D01*
X204877426Y-128582164D01*
X204744080Y-128541714D01*
X204621188Y-128476027D01*
X204562608Y-128427951D01*
X204513476Y-128387629D01*
X204513475Y-128387627D01*
X204513473Y-128387626D01*
X204425073Y-128279911D01*
X204359386Y-128157019D01*
X204318936Y-128023673D01*
X204308700Y-127919744D01*
X204308701Y-126537455D01*
X204318937Y-126433526D01*
X204359387Y-126300180D01*
X204425074Y-126177288D01*
X204513474Y-126069573D01*
X204621189Y-125981173D01*
X204744081Y-125915486D01*
X204877427Y-125875036D01*
X205016100Y-125861378D01*
X205154774Y-125875036D01*
G37*
G36*
X207694774Y-125875036D02*
G01*
X207828120Y-125915486D01*
X207951012Y-125981173D01*
X208058727Y-126069573D01*
X208147127Y-126177288D01*
X208212814Y-126300180D01*
X208253264Y-126433526D01*
X208263500Y-126537455D01*
X208263500Y-127919745D01*
X208253264Y-128023674D01*
X208212814Y-128157020D01*
X208147127Y-128279912D01*
X208099051Y-128338492D01*
X208058729Y-128387624D01*
X208058727Y-128387625D01*
X208058726Y-128387627D01*
X207951011Y-128476027D01*
X207951007Y-128476029D01*
X207951006Y-128476030D01*
X207828121Y-128541713D01*
X207828119Y-128541714D01*
X207694773Y-128582164D01*
X207556100Y-128595822D01*
X207417426Y-128582164D01*
X207284080Y-128541714D01*
X207161188Y-128476027D01*
X207102608Y-128427951D01*
X207053476Y-128387629D01*
X207053475Y-128387627D01*
X207053473Y-128387626D01*
X206965073Y-128279911D01*
X206899386Y-128157019D01*
X206858936Y-128023673D01*
X206848700Y-127919744D01*
X206848701Y-126537455D01*
X206858937Y-126433526D01*
X206899387Y-126300180D01*
X206965074Y-126177288D01*
X207053474Y-126069573D01*
X207161189Y-125981173D01*
X207284081Y-125915486D01*
X207417427Y-125875036D01*
X207556100Y-125861378D01*
X207694774Y-125875036D01*
G37*
G36*
X192548228Y-126381703D02*
G01*
X192703100Y-126445853D01*
X192842481Y-126538985D01*
X192961015Y-126657519D01*
X193054147Y-126796900D01*
X193118297Y-126951772D01*
X193151000Y-127116184D01*
X193151000Y-127283816D01*
X193118297Y-127448228D01*
X193054147Y-127603100D01*
X192961015Y-127742481D01*
X192842481Y-127861015D01*
X192703100Y-127954147D01*
X192548228Y-128018297D01*
X192383816Y-128051000D01*
X192216184Y-128051000D01*
X192051772Y-128018297D01*
X191896900Y-127954147D01*
X191757519Y-127861015D01*
X191638985Y-127742481D01*
X191545853Y-127603100D01*
X191481703Y-127448228D01*
X191449000Y-127283816D01*
X191449000Y-127116184D01*
X191481703Y-126951772D01*
X191545853Y-126796900D01*
X191638985Y-126657519D01*
X191757519Y-126538985D01*
X191896900Y-126445853D01*
X192051772Y-126381703D01*
X192216184Y-126349000D01*
X192383816Y-126349000D01*
X192548228Y-126381703D01*
G37*
G36*
X200168228Y-126381703D02*
G01*
X200323100Y-126445853D01*
X200462481Y-126538985D01*
X200581015Y-126657519D01*
X200674147Y-126796900D01*
X200738297Y-126951772D01*
X200771000Y-127116184D01*
X200771000Y-127283816D01*
X200738297Y-127448228D01*
X200674147Y-127603100D01*
X200581015Y-127742481D01*
X200462481Y-127861015D01*
X200323100Y-127954147D01*
X200168228Y-128018297D01*
X200003816Y-128051000D01*
X199836184Y-128051000D01*
X199671772Y-128018297D01*
X199516900Y-127954147D01*
X199377519Y-127861015D01*
X199258985Y-127742481D01*
X199165853Y-127603100D01*
X199101703Y-127448228D01*
X199069000Y-127283816D01*
X199069000Y-127116184D01*
X199101703Y-126951772D01*
X199165853Y-126796900D01*
X199258985Y-126657519D01*
X199377519Y-126538985D01*
X199516900Y-126445853D01*
X199671772Y-126381703D01*
X199836184Y-126349000D01*
X200003816Y-126349000D01*
X200168228Y-126381703D01*
G37*
G36*
X157159943Y-115737305D02*
G01*
X157411905Y-115841671D01*
X157411907Y-115841672D01*
X157468981Y-115879808D01*
X157638667Y-115993188D01*
X157831512Y-116186033D01*
X157944892Y-116355719D01*
X157962681Y-116382341D01*
X157983029Y-116412795D01*
X158087395Y-116664757D01*
X158140600Y-116932237D01*
X158140600Y-117204963D01*
X158087395Y-117472443D01*
X158021389Y-117631796D01*
X157983028Y-117724407D01*
X157944892Y-117781481D01*
X157831512Y-117951167D01*
X157638667Y-118144012D01*
X157468981Y-118257392D01*
X157411907Y-118295528D01*
X157411906Y-118295529D01*
X157411905Y-118295529D01*
X157159943Y-118399895D01*
X156892463Y-118453100D01*
X156619737Y-118453100D01*
X156352257Y-118399895D01*
X156100295Y-118295529D01*
X156100294Y-118295529D01*
X156100293Y-118295528D01*
X156043219Y-118257392D01*
X155873533Y-118144012D01*
X155680688Y-117951167D01*
X155567308Y-117781481D01*
X155529172Y-117724407D01*
X155490811Y-117631796D01*
X155424805Y-117472443D01*
X155371600Y-117204963D01*
X155371600Y-116932237D01*
X155424805Y-116664757D01*
X155529171Y-116412795D01*
X155549520Y-116382341D01*
X155567308Y-116355719D01*
X155680688Y-116186033D01*
X155873533Y-115993188D01*
X156043219Y-115879808D01*
X156100293Y-115841672D01*
X156100295Y-115841671D01*
X156352257Y-115737305D01*
X156619737Y-115684100D01*
X156892463Y-115684100D01*
X157159943Y-115737305D01*
G37*
G36*
X116519943Y-115737305D02*
G01*
X116771905Y-115841671D01*
X116771907Y-115841672D01*
X116828981Y-115879808D01*
X116998667Y-115993188D01*
X117191512Y-116186033D01*
X117304892Y-116355719D01*
X117322681Y-116382341D01*
X117343029Y-116412795D01*
X117447395Y-116664757D01*
X117500600Y-116932237D01*
X117500600Y-117204963D01*
X117447395Y-117472443D01*
X117381389Y-117631796D01*
X117343028Y-117724407D01*
X117304892Y-117781481D01*
X117191512Y-117951167D01*
X116998667Y-118144012D01*
X116828981Y-118257392D01*
X116771907Y-118295528D01*
X116771906Y-118295529D01*
X116771905Y-118295529D01*
X116519943Y-118399895D01*
X116252463Y-118453100D01*
X115979737Y-118453100D01*
X115712257Y-118399895D01*
X115460295Y-118295529D01*
X115460294Y-118295529D01*
X115460293Y-118295528D01*
X115403219Y-118257392D01*
X115233533Y-118144012D01*
X115040688Y-117951167D01*
X114927308Y-117781481D01*
X114889172Y-117724407D01*
X114850811Y-117631796D01*
X114784805Y-117472443D01*
X114731600Y-117204963D01*
X114731600Y-116932237D01*
X114784805Y-116664757D01*
X114889171Y-116412795D01*
X114909520Y-116382341D01*
X114927308Y-116355719D01*
X115040688Y-116186033D01*
X115233533Y-115993188D01*
X115403219Y-115879808D01*
X115460293Y-115841672D01*
X115460295Y-115841671D01*
X115712257Y-115737305D01*
X115979737Y-115684100D01*
X116252463Y-115684100D01*
X116519943Y-115737305D01*
G37*
G36*
X149336910Y-116207735D02*
G01*
X149393807Y-116219052D01*
X149554594Y-116285652D01*
X149554596Y-116285653D01*
X149699296Y-116382338D01*
X149822362Y-116505404D01*
X149919047Y-116650104D01*
X149919048Y-116650106D01*
X149985648Y-116810893D01*
X150019600Y-116981583D01*
X150019600Y-117155617D01*
X149985648Y-117326307D01*
X149925116Y-117472444D01*
X149919047Y-117487096D01*
X149822362Y-117631796D01*
X149699296Y-117754862D01*
X149554596Y-117851547D01*
X149554595Y-117851548D01*
X149554594Y-117851548D01*
X149393807Y-117918148D01*
X149336910Y-117929465D01*
X149223119Y-117952100D01*
X149049081Y-117952100D01*
X148935290Y-117929465D01*
X148878393Y-117918148D01*
X148717606Y-117851548D01*
X148717605Y-117851548D01*
X148717604Y-117851547D01*
X148572904Y-117754862D01*
X148449838Y-117631796D01*
X148353153Y-117487096D01*
X148347084Y-117472444D01*
X148286552Y-117326307D01*
X148252600Y-117155617D01*
X148252600Y-116981583D01*
X148286552Y-116810893D01*
X148353152Y-116650106D01*
X148353153Y-116650104D01*
X148449838Y-116505404D01*
X148572904Y-116382338D01*
X148717604Y-116285653D01*
X148717606Y-116285652D01*
X148878393Y-116219052D01*
X148935290Y-116207735D01*
X149049081Y-116185100D01*
X149223119Y-116185100D01*
X149336910Y-116207735D01*
G37*
G36*
X118856910Y-116207735D02*
G01*
X118913807Y-116219052D01*
X119074594Y-116285652D01*
X119074596Y-116285653D01*
X119219296Y-116382338D01*
X119342362Y-116505404D01*
X119439047Y-116650104D01*
X119439048Y-116650106D01*
X119505648Y-116810893D01*
X119539600Y-116981583D01*
X119539600Y-117155617D01*
X119505648Y-117326307D01*
X119445116Y-117472444D01*
X119439047Y-117487096D01*
X119342362Y-117631796D01*
X119219296Y-117754862D01*
X119074596Y-117851547D01*
X119074595Y-117851548D01*
X119074594Y-117851548D01*
X118913807Y-117918148D01*
X118856910Y-117929465D01*
X118743119Y-117952100D01*
X118569081Y-117952100D01*
X118455290Y-117929465D01*
X118398393Y-117918148D01*
X118237606Y-117851548D01*
X118237605Y-117851548D01*
X118237604Y-117851547D01*
X118092904Y-117754862D01*
X117969838Y-117631796D01*
X117873153Y-117487096D01*
X117867084Y-117472444D01*
X117806552Y-117326307D01*
X117772600Y-117155617D01*
X117772600Y-116981583D01*
X117806552Y-116810893D01*
X117873152Y-116650106D01*
X117873153Y-116650104D01*
X117969838Y-116505404D01*
X118092904Y-116382338D01*
X118237604Y-116285653D01*
X118237606Y-116285652D01*
X118398393Y-116219052D01*
X118455290Y-116207735D01*
X118569081Y-116185100D01*
X118743119Y-116185100D01*
X118856910Y-116207735D01*
G37*
G36*
X123936910Y-116207735D02*
G01*
X123993807Y-116219052D01*
X124154594Y-116285652D01*
X124154596Y-116285653D01*
X124299296Y-116382338D01*
X124422362Y-116505404D01*
X124519047Y-116650104D01*
X124519048Y-116650106D01*
X124585648Y-116810893D01*
X124619600Y-116981583D01*
X124619600Y-117155617D01*
X124585648Y-117326307D01*
X124525116Y-117472444D01*
X124519047Y-117487096D01*
X124422362Y-117631796D01*
X124299296Y-117754862D01*
X124154596Y-117851547D01*
X124154595Y-117851548D01*
X124154594Y-117851548D01*
X123993807Y-117918148D01*
X123936910Y-117929465D01*
X123823119Y-117952100D01*
X123649081Y-117952100D01*
X123535290Y-117929465D01*
X123478393Y-117918148D01*
X123317606Y-117851548D01*
X123317605Y-117851548D01*
X123317604Y-117851547D01*
X123172904Y-117754862D01*
X123049838Y-117631796D01*
X122953153Y-117487096D01*
X122947084Y-117472444D01*
X122886552Y-117326307D01*
X122852600Y-117155617D01*
X122852600Y-116981583D01*
X122886552Y-116810893D01*
X122953152Y-116650106D01*
X122953153Y-116650104D01*
X123049838Y-116505404D01*
X123172904Y-116382338D01*
X123317604Y-116285653D01*
X123317606Y-116285652D01*
X123478393Y-116219052D01*
X123535290Y-116207735D01*
X123649081Y-116185100D01*
X123823119Y-116185100D01*
X123936910Y-116207735D01*
G37*
G36*
X126476910Y-116207735D02*
G01*
X126533807Y-116219052D01*
X126694594Y-116285652D01*
X126694596Y-116285653D01*
X126839296Y-116382338D01*
X126962362Y-116505404D01*
X127059047Y-116650104D01*
X127059048Y-116650106D01*
X127125648Y-116810893D01*
X127159600Y-116981583D01*
X127159600Y-117155617D01*
X127125648Y-117326307D01*
X127065116Y-117472444D01*
X127059047Y-117487096D01*
X126962362Y-117631796D01*
X126839296Y-117754862D01*
X126694596Y-117851547D01*
X126694595Y-117851548D01*
X126694594Y-117851548D01*
X126533807Y-117918148D01*
X126476910Y-117929465D01*
X126363119Y-117952100D01*
X126189081Y-117952100D01*
X126075290Y-117929465D01*
X126018393Y-117918148D01*
X125857606Y-117851548D01*
X125857605Y-117851548D01*
X125857604Y-117851547D01*
X125712904Y-117754862D01*
X125589838Y-117631796D01*
X125493153Y-117487096D01*
X125487084Y-117472444D01*
X125426552Y-117326307D01*
X125392600Y-117155617D01*
X125392600Y-116981583D01*
X125426552Y-116810893D01*
X125493152Y-116650106D01*
X125493153Y-116650104D01*
X125589838Y-116505404D01*
X125712904Y-116382338D01*
X125857604Y-116285653D01*
X125857606Y-116285652D01*
X126018393Y-116219052D01*
X126075290Y-116207735D01*
X126189081Y-116185100D01*
X126363119Y-116185100D01*
X126476910Y-116207735D01*
G37*
G36*
X129016910Y-116207735D02*
G01*
X129073807Y-116219052D01*
X129234594Y-116285652D01*
X129234596Y-116285653D01*
X129379296Y-116382338D01*
X129502362Y-116505404D01*
X129599047Y-116650104D01*
X129599048Y-116650106D01*
X129665648Y-116810893D01*
X129699600Y-116981583D01*
X129699600Y-117155617D01*
X129665648Y-117326307D01*
X129605116Y-117472444D01*
X129599047Y-117487096D01*
X129502362Y-117631796D01*
X129379296Y-117754862D01*
X129234596Y-117851547D01*
X129234595Y-117851548D01*
X129234594Y-117851548D01*
X129073807Y-117918148D01*
X129016910Y-117929465D01*
X128903119Y-117952100D01*
X128729081Y-117952100D01*
X128615290Y-117929465D01*
X128558393Y-117918148D01*
X128397606Y-117851548D01*
X128397605Y-117851548D01*
X128397604Y-117851547D01*
X128252904Y-117754862D01*
X128129838Y-117631796D01*
X128033153Y-117487096D01*
X128027084Y-117472444D01*
X127966552Y-117326307D01*
X127932600Y-117155617D01*
X127932600Y-116981583D01*
X127966552Y-116810893D01*
X128033152Y-116650106D01*
X128033153Y-116650104D01*
X128129838Y-116505404D01*
X128252904Y-116382338D01*
X128397604Y-116285653D01*
X128397606Y-116285652D01*
X128558393Y-116219052D01*
X128615290Y-116207735D01*
X128729081Y-116185100D01*
X128903119Y-116185100D01*
X129016910Y-116207735D01*
G37*
G36*
X131556910Y-116207735D02*
G01*
X131613807Y-116219052D01*
X131774594Y-116285652D01*
X131774596Y-116285653D01*
X131919296Y-116382338D01*
X132042362Y-116505404D01*
X132139047Y-116650104D01*
X132139048Y-116650106D01*
X132205648Y-116810893D01*
X132239600Y-116981583D01*
X132239600Y-117155617D01*
X132205648Y-117326307D01*
X132145116Y-117472444D01*
X132139047Y-117487096D01*
X132042362Y-117631796D01*
X131919296Y-117754862D01*
X131774596Y-117851547D01*
X131774595Y-117851548D01*
X131774594Y-117851548D01*
X131613807Y-117918148D01*
X131556910Y-117929465D01*
X131443119Y-117952100D01*
X131269081Y-117952100D01*
X131155290Y-117929465D01*
X131098393Y-117918148D01*
X130937606Y-117851548D01*
X130937605Y-117851548D01*
X130937604Y-117851547D01*
X130792904Y-117754862D01*
X130669838Y-117631796D01*
X130573153Y-117487096D01*
X130567084Y-117472444D01*
X130506552Y-117326307D01*
X130472600Y-117155617D01*
X130472600Y-116981583D01*
X130506552Y-116810893D01*
X130573152Y-116650106D01*
X130573153Y-116650104D01*
X130669838Y-116505404D01*
X130792904Y-116382338D01*
X130937604Y-116285653D01*
X130937606Y-116285652D01*
X131098393Y-116219052D01*
X131155290Y-116207735D01*
X131269081Y-116185100D01*
X131443119Y-116185100D01*
X131556910Y-116207735D01*
G37*
G36*
X134096910Y-116207735D02*
G01*
X134153807Y-116219052D01*
X134314594Y-116285652D01*
X134314596Y-116285653D01*
X134459296Y-116382338D01*
X134582362Y-116505404D01*
X134679047Y-116650104D01*
X134679048Y-116650106D01*
X134745648Y-116810893D01*
X134779600Y-116981583D01*
X134779600Y-117155617D01*
X134745648Y-117326307D01*
X134685116Y-117472444D01*
X134679047Y-117487096D01*
X134582362Y-117631796D01*
X134459296Y-117754862D01*
X134314596Y-117851547D01*
X134314595Y-117851548D01*
X134314594Y-117851548D01*
X134153807Y-117918148D01*
X134096910Y-117929465D01*
X133983119Y-117952100D01*
X133809081Y-117952100D01*
X133695290Y-117929465D01*
X133638393Y-117918148D01*
X133477606Y-117851548D01*
X133477605Y-117851548D01*
X133477604Y-117851547D01*
X133332904Y-117754862D01*
X133209838Y-117631796D01*
X133113153Y-117487096D01*
X133107084Y-117472444D01*
X133046552Y-117326307D01*
X133012600Y-117155617D01*
X133012600Y-116981583D01*
X133046552Y-116810893D01*
X133113152Y-116650106D01*
X133113153Y-116650104D01*
X133209838Y-116505404D01*
X133332904Y-116382338D01*
X133477604Y-116285653D01*
X133477606Y-116285652D01*
X133638393Y-116219052D01*
X133695290Y-116207735D01*
X133809081Y-116185100D01*
X133983119Y-116185100D01*
X134096910Y-116207735D01*
G37*
G36*
X121396910Y-116207735D02*
G01*
X121453807Y-116219052D01*
X121614594Y-116285652D01*
X121614596Y-116285653D01*
X121759296Y-116382338D01*
X121882362Y-116505404D01*
X121979047Y-116650104D01*
X121979048Y-116650106D01*
X122045648Y-116810893D01*
X122079600Y-116981583D01*
X122079600Y-117155617D01*
X122045648Y-117326307D01*
X121985116Y-117472444D01*
X121979047Y-117487096D01*
X121882362Y-117631796D01*
X121759296Y-117754862D01*
X121614596Y-117851547D01*
X121614595Y-117851548D01*
X121614594Y-117851548D01*
X121453807Y-117918148D01*
X121396910Y-117929465D01*
X121283119Y-117952100D01*
X121109081Y-117952100D01*
X120995290Y-117929465D01*
X120938393Y-117918148D01*
X120777606Y-117851548D01*
X120777605Y-117851548D01*
X120777604Y-117851547D01*
X120632904Y-117754862D01*
X120509838Y-117631796D01*
X120413153Y-117487096D01*
X120407084Y-117472444D01*
X120346552Y-117326307D01*
X120312600Y-117155617D01*
X120312600Y-116981583D01*
X120346552Y-116810893D01*
X120413152Y-116650106D01*
X120413153Y-116650104D01*
X120509838Y-116505404D01*
X120632904Y-116382338D01*
X120777604Y-116285653D01*
X120777606Y-116285652D01*
X120938393Y-116219052D01*
X120995290Y-116207735D01*
X121109081Y-116185100D01*
X121283119Y-116185100D01*
X121396910Y-116207735D01*
G37*
G36*
X139176910Y-116207735D02*
G01*
X139233807Y-116219052D01*
X139394594Y-116285652D01*
X139394596Y-116285653D01*
X139539296Y-116382338D01*
X139662362Y-116505404D01*
X139759047Y-116650104D01*
X139759048Y-116650106D01*
X139825648Y-116810893D01*
X139859600Y-116981583D01*
X139859600Y-117155617D01*
X139825648Y-117326307D01*
X139765116Y-117472444D01*
X139759047Y-117487096D01*
X139662362Y-117631796D01*
X139539296Y-117754862D01*
X139394596Y-117851547D01*
X139394595Y-117851548D01*
X139394594Y-117851548D01*
X139233807Y-117918148D01*
X139176910Y-117929465D01*
X139063119Y-117952100D01*
X138889081Y-117952100D01*
X138775290Y-117929465D01*
X138718393Y-117918148D01*
X138557606Y-117851548D01*
X138557605Y-117851548D01*
X138557604Y-117851547D01*
X138412904Y-117754862D01*
X138289838Y-117631796D01*
X138193153Y-117487096D01*
X138187084Y-117472444D01*
X138126552Y-117326307D01*
X138092600Y-117155617D01*
X138092600Y-116981583D01*
X138126552Y-116810893D01*
X138193152Y-116650106D01*
X138193153Y-116650104D01*
X138289838Y-116505404D01*
X138412904Y-116382338D01*
X138557604Y-116285653D01*
X138557606Y-116285652D01*
X138718393Y-116219052D01*
X138775290Y-116207735D01*
X138889081Y-116185100D01*
X139063119Y-116185100D01*
X139176910Y-116207735D01*
G37*
G36*
X136636910Y-116207735D02*
G01*
X136693807Y-116219052D01*
X136854594Y-116285652D01*
X136854596Y-116285653D01*
X136999296Y-116382338D01*
X137122362Y-116505404D01*
X137219047Y-116650104D01*
X137219048Y-116650106D01*
X137285648Y-116810893D01*
X137319600Y-116981583D01*
X137319600Y-117155617D01*
X137285648Y-117326307D01*
X137225116Y-117472444D01*
X137219047Y-117487096D01*
X137122362Y-117631796D01*
X136999296Y-117754862D01*
X136854596Y-117851547D01*
X136854595Y-117851548D01*
X136854594Y-117851548D01*
X136693807Y-117918148D01*
X136636910Y-117929465D01*
X136523119Y-117952100D01*
X136349081Y-117952100D01*
X136235290Y-117929465D01*
X136178393Y-117918148D01*
X136017606Y-117851548D01*
X136017605Y-117851548D01*
X136017604Y-117851547D01*
X135872904Y-117754862D01*
X135749838Y-117631796D01*
X135653153Y-117487096D01*
X135647084Y-117472444D01*
X135586552Y-117326307D01*
X135552600Y-117155617D01*
X135552600Y-116981583D01*
X135586552Y-116810893D01*
X135653152Y-116650106D01*
X135653153Y-116650104D01*
X135749838Y-116505404D01*
X135872904Y-116382338D01*
X136017604Y-116285653D01*
X136017606Y-116285652D01*
X136178393Y-116219052D01*
X136235290Y-116207735D01*
X136349081Y-116185100D01*
X136523119Y-116185100D01*
X136636910Y-116207735D01*
G37*
G36*
X155099600Y-117952100D02*
G01*
X153332600Y-117952100D01*
X153332600Y-116185100D01*
X155099600Y-116185100D01*
X155099600Y-117952100D01*
G37*
G36*
X151876910Y-116207735D02*
G01*
X151933807Y-116219052D01*
X152094594Y-116285652D01*
X152094596Y-116285653D01*
X152239296Y-116382338D01*
X152362362Y-116505404D01*
X152459047Y-116650104D01*
X152459048Y-116650106D01*
X152525648Y-116810893D01*
X152559600Y-116981583D01*
X152559600Y-117155617D01*
X152525648Y-117326307D01*
X152465116Y-117472444D01*
X152459047Y-117487096D01*
X152362362Y-117631796D01*
X152239296Y-117754862D01*
X152094596Y-117851547D01*
X152094595Y-117851548D01*
X152094594Y-117851548D01*
X151933807Y-117918148D01*
X151876910Y-117929465D01*
X151763119Y-117952100D01*
X151589081Y-117952100D01*
X151475290Y-117929465D01*
X151418393Y-117918148D01*
X151257606Y-117851548D01*
X151257605Y-117851548D01*
X151257604Y-117851547D01*
X151112904Y-117754862D01*
X150989838Y-117631796D01*
X150893153Y-117487096D01*
X150887084Y-117472444D01*
X150826552Y-117326307D01*
X150792600Y-117155617D01*
X150792600Y-116981583D01*
X150826552Y-116810893D01*
X150893152Y-116650106D01*
X150893153Y-116650104D01*
X150989838Y-116505404D01*
X151112904Y-116382338D01*
X151257604Y-116285653D01*
X151257606Y-116285652D01*
X151418393Y-116219052D01*
X151475290Y-116207735D01*
X151589081Y-116185100D01*
X151763119Y-116185100D01*
X151876910Y-116207735D01*
G37*
G36*
X146796910Y-116207735D02*
G01*
X146853807Y-116219052D01*
X147014594Y-116285652D01*
X147014596Y-116285653D01*
X147159296Y-116382338D01*
X147282362Y-116505404D01*
X147379047Y-116650104D01*
X147379048Y-116650106D01*
X147445648Y-116810893D01*
X147479600Y-116981583D01*
X147479600Y-117155617D01*
X147445648Y-117326307D01*
X147385116Y-117472444D01*
X147379047Y-117487096D01*
X147282362Y-117631796D01*
X147159296Y-117754862D01*
X147014596Y-117851547D01*
X147014595Y-117851548D01*
X147014594Y-117851548D01*
X146853807Y-117918148D01*
X146796910Y-117929465D01*
X146683119Y-117952100D01*
X146509081Y-117952100D01*
X146395290Y-117929465D01*
X146338393Y-117918148D01*
X146177606Y-117851548D01*
X146177605Y-117851548D01*
X146177604Y-117851547D01*
X146032904Y-117754862D01*
X145909838Y-117631796D01*
X145813153Y-117487096D01*
X145807084Y-117472444D01*
X145746552Y-117326307D01*
X145712600Y-117155617D01*
X145712600Y-116981583D01*
X145746552Y-116810893D01*
X145813152Y-116650106D01*
X145813153Y-116650104D01*
X145909838Y-116505404D01*
X146032904Y-116382338D01*
X146177604Y-116285653D01*
X146177606Y-116285652D01*
X146338393Y-116219052D01*
X146395290Y-116207735D01*
X146509081Y-116185100D01*
X146683119Y-116185100D01*
X146796910Y-116207735D01*
G37*
G36*
X141716910Y-116207735D02*
G01*
X141773807Y-116219052D01*
X141934594Y-116285652D01*
X141934596Y-116285653D01*
X142079296Y-116382338D01*
X142202362Y-116505404D01*
X142299047Y-116650104D01*
X142299048Y-116650106D01*
X142365648Y-116810893D01*
X142399600Y-116981583D01*
X142399600Y-117155617D01*
X142365648Y-117326307D01*
X142305116Y-117472444D01*
X142299047Y-117487096D01*
X142202362Y-117631796D01*
X142079296Y-117754862D01*
X141934596Y-117851547D01*
X141934595Y-117851548D01*
X141934594Y-117851548D01*
X141773807Y-117918148D01*
X141716910Y-117929465D01*
X141603119Y-117952100D01*
X141429081Y-117952100D01*
X141315290Y-117929465D01*
X141258393Y-117918148D01*
X141097606Y-117851548D01*
X141097605Y-117851548D01*
X141097604Y-117851547D01*
X140952904Y-117754862D01*
X140829838Y-117631796D01*
X140733153Y-117487096D01*
X140727084Y-117472444D01*
X140666552Y-117326307D01*
X140632600Y-117155617D01*
X140632600Y-116981583D01*
X140666552Y-116810893D01*
X140733152Y-116650106D01*
X140733153Y-116650104D01*
X140829838Y-116505404D01*
X140952904Y-116382338D01*
X141097604Y-116285653D01*
X141097606Y-116285652D01*
X141258393Y-116219052D01*
X141315290Y-116207735D01*
X141429081Y-116185100D01*
X141603119Y-116185100D01*
X141716910Y-116207735D01*
G37*
G36*
X144256910Y-116207735D02*
G01*
X144313807Y-116219052D01*
X144474594Y-116285652D01*
X144474596Y-116285653D01*
X144619296Y-116382338D01*
X144742362Y-116505404D01*
X144839047Y-116650104D01*
X144839048Y-116650106D01*
X144905648Y-116810893D01*
X144939600Y-116981583D01*
X144939600Y-117155617D01*
X144905648Y-117326307D01*
X144845116Y-117472444D01*
X144839047Y-117487096D01*
X144742362Y-117631796D01*
X144619296Y-117754862D01*
X144474596Y-117851547D01*
X144474595Y-117851548D01*
X144474594Y-117851548D01*
X144313807Y-117918148D01*
X144256910Y-117929465D01*
X144143119Y-117952100D01*
X143969081Y-117952100D01*
X143855290Y-117929465D01*
X143798393Y-117918148D01*
X143637606Y-117851548D01*
X143637605Y-117851548D01*
X143637604Y-117851547D01*
X143492904Y-117754862D01*
X143369838Y-117631796D01*
X143273153Y-117487096D01*
X143267084Y-117472444D01*
X143206552Y-117326307D01*
X143172600Y-117155617D01*
X143172600Y-116981583D01*
X143206552Y-116810893D01*
X143273152Y-116650106D01*
X143273153Y-116650104D01*
X143369838Y-116505404D01*
X143492904Y-116382338D01*
X143637604Y-116285653D01*
X143637606Y-116285652D01*
X143798393Y-116219052D01*
X143855290Y-116207735D01*
X143969081Y-116185100D01*
X144143119Y-116185100D01*
X144256910Y-116207735D01*
G37*
G36*
X200209742Y-113638381D02*
G01*
X200355514Y-113698762D01*
X200355516Y-113698763D01*
X200486708Y-113786422D01*
X200598278Y-113897992D01*
X200685937Y-114029184D01*
X200685938Y-114029186D01*
X200746319Y-114174958D01*
X200777100Y-114329707D01*
X200777100Y-114487493D01*
X200746319Y-114642242D01*
X200685938Y-114788014D01*
X200685937Y-114788016D01*
X200598278Y-114919208D01*
X200486708Y-115030778D01*
X200355516Y-115118437D01*
X200355515Y-115118438D01*
X200355514Y-115118438D01*
X200209742Y-115178819D01*
X200054993Y-115209600D01*
X199897207Y-115209600D01*
X199742458Y-115178819D01*
X199596686Y-115118438D01*
X199596685Y-115118438D01*
X199596684Y-115118437D01*
X199465492Y-115030778D01*
X199353922Y-114919208D01*
X199266263Y-114788016D01*
X199266262Y-114788014D01*
X199205881Y-114642242D01*
X199175100Y-114487493D01*
X199175100Y-114329707D01*
X199205881Y-114174958D01*
X199266262Y-114029186D01*
X199266263Y-114029184D01*
X199353922Y-113897992D01*
X199465492Y-113786422D01*
X199596684Y-113698763D01*
X199596686Y-113698762D01*
X199742458Y-113638381D01*
X199897207Y-113607600D01*
X200054993Y-113607600D01*
X200209742Y-113638381D01*
G37*
G36*
X202709742Y-113638381D02*
G01*
X202855514Y-113698762D01*
X202855516Y-113698763D01*
X202986708Y-113786422D01*
X203098278Y-113897992D01*
X203185937Y-114029184D01*
X203185938Y-114029186D01*
X203246319Y-114174958D01*
X203277100Y-114329707D01*
X203277100Y-114487493D01*
X203246319Y-114642242D01*
X203185938Y-114788014D01*
X203185937Y-114788016D01*
X203098278Y-114919208D01*
X202986708Y-115030778D01*
X202855516Y-115118437D01*
X202855515Y-115118438D01*
X202855514Y-115118438D01*
X202709742Y-115178819D01*
X202554993Y-115209600D01*
X202397207Y-115209600D01*
X202242458Y-115178819D01*
X202096686Y-115118438D01*
X202096685Y-115118438D01*
X202096684Y-115118437D01*
X201965492Y-115030778D01*
X201853922Y-114919208D01*
X201766263Y-114788016D01*
X201766262Y-114788014D01*
X201705881Y-114642242D01*
X201675100Y-114487493D01*
X201675100Y-114329707D01*
X201705881Y-114174958D01*
X201766262Y-114029186D01*
X201766263Y-114029184D01*
X201853922Y-113897992D01*
X201965492Y-113786422D01*
X202096684Y-113698763D01*
X202096686Y-113698762D01*
X202242458Y-113638381D01*
X202397207Y-113607600D01*
X202554993Y-113607600D01*
X202709742Y-113638381D01*
G37*
G36*
X205209742Y-113638381D02*
G01*
X205355514Y-113698762D01*
X205355516Y-113698763D01*
X205486708Y-113786422D01*
X205598278Y-113897992D01*
X205685937Y-114029184D01*
X205685938Y-114029186D01*
X205746319Y-114174958D01*
X205777100Y-114329707D01*
X205777100Y-114487493D01*
X205746319Y-114642242D01*
X205685938Y-114788014D01*
X205685937Y-114788016D01*
X205598278Y-114919208D01*
X205486708Y-115030778D01*
X205355516Y-115118437D01*
X205355515Y-115118438D01*
X205355514Y-115118438D01*
X205209742Y-115178819D01*
X205054993Y-115209600D01*
X204897207Y-115209600D01*
X204742458Y-115178819D01*
X204596686Y-115118438D01*
X204596685Y-115118438D01*
X204596684Y-115118437D01*
X204465492Y-115030778D01*
X204353922Y-114919208D01*
X204266263Y-114788016D01*
X204266262Y-114788014D01*
X204205881Y-114642242D01*
X204175100Y-114487493D01*
X204175100Y-114329707D01*
X204205881Y-114174958D01*
X204266262Y-114029186D01*
X204266263Y-114029184D01*
X204353922Y-113897992D01*
X204465492Y-113786422D01*
X204596684Y-113698763D01*
X204596686Y-113698762D01*
X204742458Y-113638381D01*
X204897207Y-113607600D01*
X205054993Y-113607600D01*
X205209742Y-113638381D01*
G37*
G36*
X177832328Y-107681703D02*
G01*
X177987200Y-107745853D01*
X178126581Y-107838985D01*
X178245115Y-107957519D01*
X178338247Y-108096900D01*
X178402397Y-108251772D01*
X178435100Y-108416184D01*
X178435100Y-108583816D01*
X178402397Y-108748228D01*
X178338247Y-108903100D01*
X178245115Y-109042481D01*
X178126581Y-109161015D01*
X177987200Y-109254147D01*
X177832328Y-109318297D01*
X177667916Y-109351000D01*
X177500284Y-109351000D01*
X177335872Y-109318297D01*
X177181000Y-109254147D01*
X177041619Y-109161015D01*
X176923085Y-109042481D01*
X176829953Y-108903100D01*
X176765803Y-108748228D01*
X176733100Y-108583816D01*
X176733100Y-108416184D01*
X176765803Y-108251772D01*
X176829953Y-108096900D01*
X176923085Y-107957519D01*
X177041619Y-107838985D01*
X177181000Y-107745853D01*
X177335872Y-107681703D01*
X177500284Y-107649000D01*
X177667916Y-107649000D01*
X177832328Y-107681703D01*
G37*
G36*
X173348228Y-107681703D02*
G01*
X173503100Y-107745853D01*
X173642481Y-107838985D01*
X173761015Y-107957519D01*
X173854147Y-108096900D01*
X173918297Y-108251772D01*
X173951000Y-108416184D01*
X173951000Y-108583816D01*
X173918297Y-108748228D01*
X173854147Y-108903100D01*
X173761015Y-109042481D01*
X173642481Y-109161015D01*
X173503100Y-109254147D01*
X173348228Y-109318297D01*
X173183816Y-109351000D01*
X173016184Y-109351000D01*
X172851772Y-109318297D01*
X172696900Y-109254147D01*
X172557519Y-109161015D01*
X172438985Y-109042481D01*
X172345853Y-108903100D01*
X172281703Y-108748228D01*
X172249000Y-108583816D01*
X172249000Y-108416184D01*
X172281703Y-108251772D01*
X172345853Y-108096900D01*
X172438985Y-107957519D01*
X172557519Y-107838985D01*
X172696900Y-107745853D01*
X172851772Y-107681703D01*
X173016184Y-107649000D01*
X173183816Y-107649000D01*
X173348228Y-107681703D01*
G37*
G36*
X182348228Y-107681703D02*
G01*
X182503100Y-107745853D01*
X182642481Y-107838985D01*
X182761015Y-107957519D01*
X182854147Y-108096900D01*
X182918297Y-108251772D01*
X182951000Y-108416184D01*
X182951000Y-108583816D01*
X182918297Y-108748228D01*
X182854147Y-108903100D01*
X182761015Y-109042481D01*
X182642481Y-109161015D01*
X182503100Y-109254147D01*
X182348228Y-109318297D01*
X182183816Y-109351000D01*
X182016184Y-109351000D01*
X181851772Y-109318297D01*
X181696900Y-109254147D01*
X181557519Y-109161015D01*
X181438985Y-109042481D01*
X181345853Y-108903100D01*
X181281703Y-108748228D01*
X181249000Y-108583816D01*
X181249000Y-108416184D01*
X181281703Y-108251772D01*
X181345853Y-108096900D01*
X181438985Y-107957519D01*
X181557519Y-107838985D01*
X181696900Y-107745853D01*
X181851772Y-107681703D01*
X182016184Y-107649000D01*
X182183816Y-107649000D01*
X182348228Y-107681703D01*
G37*
G36*
X197127100Y-108159600D02*
G01*
X194625100Y-108159600D01*
X194625100Y-105657600D01*
X197127100Y-105657600D01*
X197127100Y-108159600D01*
G37*
G36*
X210327100Y-108159600D02*
G01*
X207825100Y-108159600D01*
X207825100Y-105657600D01*
X210327100Y-105657600D01*
X210327100Y-108159600D01*
G37*
G36*
X116519943Y-100497305D02*
G01*
X116771905Y-100601671D01*
X116771907Y-100601672D01*
X116828981Y-100639808D01*
X116998667Y-100753188D01*
X117191512Y-100946033D01*
X117304892Y-101115719D01*
X117322681Y-101142341D01*
X117343029Y-101172795D01*
X117447395Y-101424757D01*
X117500600Y-101692237D01*
X117500600Y-101964963D01*
X117447395Y-102232443D01*
X117381389Y-102391796D01*
X117343028Y-102484407D01*
X117304892Y-102541481D01*
X117191512Y-102711167D01*
X116998667Y-102904012D01*
X116828981Y-103017392D01*
X116771907Y-103055528D01*
X116771906Y-103055529D01*
X116771905Y-103055529D01*
X116519943Y-103159895D01*
X116252463Y-103213100D01*
X115979737Y-103213100D01*
X115712257Y-103159895D01*
X115460295Y-103055529D01*
X115460294Y-103055529D01*
X115460293Y-103055528D01*
X115403219Y-103017392D01*
X115233533Y-102904012D01*
X115040688Y-102711167D01*
X114927308Y-102541481D01*
X114889172Y-102484407D01*
X114850811Y-102391796D01*
X114784805Y-102232443D01*
X114731600Y-101964963D01*
X114731600Y-101692237D01*
X114784805Y-101424757D01*
X114889171Y-101172795D01*
X114909520Y-101142341D01*
X114927308Y-101115719D01*
X115040688Y-100946033D01*
X115233533Y-100753188D01*
X115403219Y-100639808D01*
X115460293Y-100601672D01*
X115460295Y-100601671D01*
X115712257Y-100497305D01*
X115979737Y-100444100D01*
X116252463Y-100444100D01*
X116519943Y-100497305D01*
G37*
G36*
X157159943Y-100497305D02*
G01*
X157411905Y-100601671D01*
X157411907Y-100601672D01*
X157468981Y-100639808D01*
X157638667Y-100753188D01*
X157831512Y-100946033D01*
X157944892Y-101115719D01*
X157962681Y-101142341D01*
X157983029Y-101172795D01*
X158087395Y-101424757D01*
X158140600Y-101692237D01*
X158140600Y-101964963D01*
X158087395Y-102232443D01*
X158021389Y-102391796D01*
X157983028Y-102484407D01*
X157944892Y-102541481D01*
X157831512Y-102711167D01*
X157638667Y-102904012D01*
X157468981Y-103017392D01*
X157411907Y-103055528D01*
X157411906Y-103055529D01*
X157411905Y-103055529D01*
X157159943Y-103159895D01*
X156892463Y-103213100D01*
X156619737Y-103213100D01*
X156352257Y-103159895D01*
X156100295Y-103055529D01*
X156100294Y-103055529D01*
X156100293Y-103055528D01*
X156043219Y-103017392D01*
X155873533Y-102904012D01*
X155680688Y-102711167D01*
X155567308Y-102541481D01*
X155529172Y-102484407D01*
X155490811Y-102391796D01*
X155424805Y-102232443D01*
X155371600Y-101964963D01*
X155371600Y-101692237D01*
X155424805Y-101424757D01*
X155529171Y-101172795D01*
X155549520Y-101142341D01*
X155567308Y-101115719D01*
X155680688Y-100946033D01*
X155873533Y-100753188D01*
X156043219Y-100639808D01*
X156100293Y-100601672D01*
X156100295Y-100601671D01*
X156352257Y-100497305D01*
X156619737Y-100444100D01*
X156892463Y-100444100D01*
X157159943Y-100497305D01*
G37*
G36*
X136617205Y-100963815D02*
G01*
X136693807Y-100979052D01*
X136854594Y-101045652D01*
X136854596Y-101045653D01*
X136999296Y-101142338D01*
X137122362Y-101265404D01*
X137219047Y-101410104D01*
X137219048Y-101410106D01*
X137285648Y-101570893D01*
X137319600Y-101741583D01*
X137319600Y-101915617D01*
X137285648Y-102086307D01*
X137225116Y-102232444D01*
X137219047Y-102247096D01*
X137122362Y-102391796D01*
X136999296Y-102514862D01*
X136854596Y-102611547D01*
X136854595Y-102611548D01*
X136854594Y-102611548D01*
X136693807Y-102678148D01*
X136636910Y-102689465D01*
X136523119Y-102712100D01*
X136349081Y-102712100D01*
X136235290Y-102689465D01*
X136178393Y-102678148D01*
X136017606Y-102611548D01*
X136017605Y-102611548D01*
X136017604Y-102611547D01*
X135872904Y-102514862D01*
X135749838Y-102391796D01*
X135653153Y-102247096D01*
X135647084Y-102232444D01*
X135586552Y-102086307D01*
X135552600Y-101915617D01*
X135552600Y-101741583D01*
X135586552Y-101570893D01*
X135653152Y-101410106D01*
X135653153Y-101410104D01*
X135749838Y-101265404D01*
X135872904Y-101142338D01*
X136017604Y-101045653D01*
X136017606Y-101045652D01*
X136178393Y-100979052D01*
X136254995Y-100963815D01*
X136349081Y-100945100D01*
X136523119Y-100945100D01*
X136617205Y-100963815D01*
G37*
G36*
X149317205Y-100963815D02*
G01*
X149393807Y-100979052D01*
X149554594Y-101045652D01*
X149554596Y-101045653D01*
X149699296Y-101142338D01*
X149822362Y-101265404D01*
X149919047Y-101410104D01*
X149919048Y-101410106D01*
X149985648Y-101570893D01*
X150019600Y-101741583D01*
X150019600Y-101915617D01*
X149985648Y-102086307D01*
X149925116Y-102232444D01*
X149919047Y-102247096D01*
X149822362Y-102391796D01*
X149699296Y-102514862D01*
X149554596Y-102611547D01*
X149554595Y-102611548D01*
X149554594Y-102611548D01*
X149393807Y-102678148D01*
X149336910Y-102689465D01*
X149223119Y-102712100D01*
X149049081Y-102712100D01*
X148935290Y-102689465D01*
X148878393Y-102678148D01*
X148717606Y-102611548D01*
X148717605Y-102611548D01*
X148717604Y-102611547D01*
X148572904Y-102514862D01*
X148449838Y-102391796D01*
X148353153Y-102247096D01*
X148347084Y-102232444D01*
X148286552Y-102086307D01*
X148252600Y-101915617D01*
X148252600Y-101741583D01*
X148286552Y-101570893D01*
X148353152Y-101410106D01*
X148353153Y-101410104D01*
X148449838Y-101265404D01*
X148572904Y-101142338D01*
X148717604Y-101045653D01*
X148717606Y-101045652D01*
X148878393Y-100979052D01*
X148954995Y-100963815D01*
X149049081Y-100945100D01*
X149223119Y-100945100D01*
X149317205Y-100963815D01*
G37*
G36*
X154397205Y-100963815D02*
G01*
X154473807Y-100979052D01*
X154634594Y-101045652D01*
X154634596Y-101045653D01*
X154779296Y-101142338D01*
X154902362Y-101265404D01*
X154999047Y-101410104D01*
X154999048Y-101410106D01*
X155065648Y-101570893D01*
X155099600Y-101741583D01*
X155099600Y-101915617D01*
X155065648Y-102086307D01*
X155005116Y-102232444D01*
X154999047Y-102247096D01*
X154902362Y-102391796D01*
X154779296Y-102514862D01*
X154634596Y-102611547D01*
X154634595Y-102611548D01*
X154634594Y-102611548D01*
X154473807Y-102678148D01*
X154416910Y-102689465D01*
X154303119Y-102712100D01*
X154129081Y-102712100D01*
X154015290Y-102689465D01*
X153958393Y-102678148D01*
X153797606Y-102611548D01*
X153797605Y-102611548D01*
X153797604Y-102611547D01*
X153652904Y-102514862D01*
X153529838Y-102391796D01*
X153433153Y-102247096D01*
X153427084Y-102232444D01*
X153366552Y-102086307D01*
X153332600Y-101915617D01*
X153332600Y-101741583D01*
X153366552Y-101570893D01*
X153433152Y-101410106D01*
X153433153Y-101410104D01*
X153529838Y-101265404D01*
X153652904Y-101142338D01*
X153797604Y-101045653D01*
X153797606Y-101045652D01*
X153958393Y-100979052D01*
X154034995Y-100963815D01*
X154129081Y-100945100D01*
X154303119Y-100945100D01*
X154397205Y-100963815D01*
G37*
G36*
X118837205Y-100963815D02*
G01*
X118913807Y-100979052D01*
X119074594Y-101045652D01*
X119074596Y-101045653D01*
X119219296Y-101142338D01*
X119342362Y-101265404D01*
X119439047Y-101410104D01*
X119439048Y-101410106D01*
X119505648Y-101570893D01*
X119539600Y-101741583D01*
X119539600Y-101915617D01*
X119505648Y-102086307D01*
X119445116Y-102232444D01*
X119439047Y-102247096D01*
X119342362Y-102391796D01*
X119219296Y-102514862D01*
X119074596Y-102611547D01*
X119074595Y-102611548D01*
X119074594Y-102611548D01*
X118913807Y-102678148D01*
X118856910Y-102689465D01*
X118743119Y-102712100D01*
X118569081Y-102712100D01*
X118455290Y-102689465D01*
X118398393Y-102678148D01*
X118237606Y-102611548D01*
X118237605Y-102611548D01*
X118237604Y-102611547D01*
X118092904Y-102514862D01*
X117969838Y-102391796D01*
X117873153Y-102247096D01*
X117867084Y-102232444D01*
X117806552Y-102086307D01*
X117772600Y-101915617D01*
X117772600Y-101741583D01*
X117806552Y-101570893D01*
X117873152Y-101410106D01*
X117873153Y-101410104D01*
X117969838Y-101265404D01*
X118092904Y-101142338D01*
X118237604Y-101045653D01*
X118237606Y-101045652D01*
X118398393Y-100979052D01*
X118474995Y-100963815D01*
X118569081Y-100945100D01*
X118743119Y-100945100D01*
X118837205Y-100963815D01*
G37*
G36*
X121377205Y-100963815D02*
G01*
X121453807Y-100979052D01*
X121614594Y-101045652D01*
X121614596Y-101045653D01*
X121759296Y-101142338D01*
X121882362Y-101265404D01*
X121979047Y-101410104D01*
X121979048Y-101410106D01*
X122045648Y-101570893D01*
X122079600Y-101741583D01*
X122079600Y-101915617D01*
X122045648Y-102086307D01*
X121985116Y-102232444D01*
X121979047Y-102247096D01*
X121882362Y-102391796D01*
X121759296Y-102514862D01*
X121614596Y-102611547D01*
X121614595Y-102611548D01*
X121614594Y-102611548D01*
X121453807Y-102678148D01*
X121396910Y-102689465D01*
X121283119Y-102712100D01*
X121109081Y-102712100D01*
X120995290Y-102689465D01*
X120938393Y-102678148D01*
X120777606Y-102611548D01*
X120777605Y-102611548D01*
X120777604Y-102611547D01*
X120632904Y-102514862D01*
X120509838Y-102391796D01*
X120413153Y-102247096D01*
X120407084Y-102232444D01*
X120346552Y-102086307D01*
X120312600Y-101915617D01*
X120312600Y-101741583D01*
X120346552Y-101570893D01*
X120413152Y-101410106D01*
X120413153Y-101410104D01*
X120509838Y-101265404D01*
X120632904Y-101142338D01*
X120777604Y-101045653D01*
X120777606Y-101045652D01*
X120938393Y-100979052D01*
X121014995Y-100963815D01*
X121109081Y-100945100D01*
X121283119Y-100945100D01*
X121377205Y-100963815D01*
G37*
G36*
X123917205Y-100963815D02*
G01*
X123993807Y-100979052D01*
X124154594Y-101045652D01*
X124154596Y-101045653D01*
X124299296Y-101142338D01*
X124422362Y-101265404D01*
X124519047Y-101410104D01*
X124519048Y-101410106D01*
X124585648Y-101570893D01*
X124619600Y-101741583D01*
X124619600Y-101915617D01*
X124585648Y-102086307D01*
X124525116Y-102232444D01*
X124519047Y-102247096D01*
X124422362Y-102391796D01*
X124299296Y-102514862D01*
X124154596Y-102611547D01*
X124154595Y-102611548D01*
X124154594Y-102611548D01*
X123993807Y-102678148D01*
X123936910Y-102689465D01*
X123823119Y-102712100D01*
X123649081Y-102712100D01*
X123535290Y-102689465D01*
X123478393Y-102678148D01*
X123317606Y-102611548D01*
X123317605Y-102611548D01*
X123317604Y-102611547D01*
X123172904Y-102514862D01*
X123049838Y-102391796D01*
X122953153Y-102247096D01*
X122947084Y-102232444D01*
X122886552Y-102086307D01*
X122852600Y-101915617D01*
X122852600Y-101741583D01*
X122886552Y-101570893D01*
X122953152Y-101410106D01*
X122953153Y-101410104D01*
X123049838Y-101265404D01*
X123172904Y-101142338D01*
X123317604Y-101045653D01*
X123317606Y-101045652D01*
X123478393Y-100979052D01*
X123554995Y-100963815D01*
X123649081Y-100945100D01*
X123823119Y-100945100D01*
X123917205Y-100963815D01*
G37*
G36*
X151857205Y-100963815D02*
G01*
X151933807Y-100979052D01*
X152094594Y-101045652D01*
X152094596Y-101045653D01*
X152239296Y-101142338D01*
X152362362Y-101265404D01*
X152459047Y-101410104D01*
X152459048Y-101410106D01*
X152525648Y-101570893D01*
X152559600Y-101741583D01*
X152559600Y-101915617D01*
X152525648Y-102086307D01*
X152465116Y-102232444D01*
X152459047Y-102247096D01*
X152362362Y-102391796D01*
X152239296Y-102514862D01*
X152094596Y-102611547D01*
X152094595Y-102611548D01*
X152094594Y-102611548D01*
X151933807Y-102678148D01*
X151876910Y-102689465D01*
X151763119Y-102712100D01*
X151589081Y-102712100D01*
X151475290Y-102689465D01*
X151418393Y-102678148D01*
X151257606Y-102611548D01*
X151257605Y-102611548D01*
X151257604Y-102611547D01*
X151112904Y-102514862D01*
X150989838Y-102391796D01*
X150893153Y-102247096D01*
X150887084Y-102232444D01*
X150826552Y-102086307D01*
X150792600Y-101915617D01*
X150792600Y-101741583D01*
X150826552Y-101570893D01*
X150893152Y-101410106D01*
X150893153Y-101410104D01*
X150989838Y-101265404D01*
X151112904Y-101142338D01*
X151257604Y-101045653D01*
X151257606Y-101045652D01*
X151418393Y-100979052D01*
X151494995Y-100963815D01*
X151589081Y-100945100D01*
X151763119Y-100945100D01*
X151857205Y-100963815D01*
G37*
G36*
X126457205Y-100963815D02*
G01*
X126533807Y-100979052D01*
X126694594Y-101045652D01*
X126694596Y-101045653D01*
X126839296Y-101142338D01*
X126962362Y-101265404D01*
X127059047Y-101410104D01*
X127059048Y-101410106D01*
X127125648Y-101570893D01*
X127159600Y-101741583D01*
X127159600Y-101915617D01*
X127125648Y-102086307D01*
X127065116Y-102232444D01*
X127059047Y-102247096D01*
X126962362Y-102391796D01*
X126839296Y-102514862D01*
X126694596Y-102611547D01*
X126694595Y-102611548D01*
X126694594Y-102611548D01*
X126533807Y-102678148D01*
X126476910Y-102689465D01*
X126363119Y-102712100D01*
X126189081Y-102712100D01*
X126075290Y-102689465D01*
X126018393Y-102678148D01*
X125857606Y-102611548D01*
X125857605Y-102611548D01*
X125857604Y-102611547D01*
X125712904Y-102514862D01*
X125589838Y-102391796D01*
X125493153Y-102247096D01*
X125487084Y-102232444D01*
X125426552Y-102086307D01*
X125392600Y-101915617D01*
X125392600Y-101741583D01*
X125426552Y-101570893D01*
X125493152Y-101410106D01*
X125493153Y-101410104D01*
X125589838Y-101265404D01*
X125712904Y-101142338D01*
X125857604Y-101045653D01*
X125857606Y-101045652D01*
X126018393Y-100979052D01*
X126094995Y-100963815D01*
X126189081Y-100945100D01*
X126363119Y-100945100D01*
X126457205Y-100963815D01*
G37*
G36*
X128997205Y-100963815D02*
G01*
X129073807Y-100979052D01*
X129234594Y-101045652D01*
X129234596Y-101045653D01*
X129379296Y-101142338D01*
X129502362Y-101265404D01*
X129599047Y-101410104D01*
X129599048Y-101410106D01*
X129665648Y-101570893D01*
X129699600Y-101741583D01*
X129699600Y-101915617D01*
X129665648Y-102086307D01*
X129605116Y-102232444D01*
X129599047Y-102247096D01*
X129502362Y-102391796D01*
X129379296Y-102514862D01*
X129234596Y-102611547D01*
X129234595Y-102611548D01*
X129234594Y-102611548D01*
X129073807Y-102678148D01*
X129016910Y-102689465D01*
X128903119Y-102712100D01*
X128729081Y-102712100D01*
X128615290Y-102689465D01*
X128558393Y-102678148D01*
X128397606Y-102611548D01*
X128397605Y-102611548D01*
X128397604Y-102611547D01*
X128252904Y-102514862D01*
X128129838Y-102391796D01*
X128033153Y-102247096D01*
X128027084Y-102232444D01*
X127966552Y-102086307D01*
X127932600Y-101915617D01*
X127932600Y-101741583D01*
X127966552Y-101570893D01*
X128033152Y-101410106D01*
X128033153Y-101410104D01*
X128129838Y-101265404D01*
X128252904Y-101142338D01*
X128397604Y-101045653D01*
X128397606Y-101045652D01*
X128558393Y-100979052D01*
X128634995Y-100963815D01*
X128729081Y-100945100D01*
X128903119Y-100945100D01*
X128997205Y-100963815D01*
G37*
G36*
X131537205Y-100963815D02*
G01*
X131613807Y-100979052D01*
X131774594Y-101045652D01*
X131774596Y-101045653D01*
X131919296Y-101142338D01*
X132042362Y-101265404D01*
X132139047Y-101410104D01*
X132139048Y-101410106D01*
X132205648Y-101570893D01*
X132239600Y-101741583D01*
X132239600Y-101915617D01*
X132205648Y-102086307D01*
X132145116Y-102232444D01*
X132139047Y-102247096D01*
X132042362Y-102391796D01*
X131919296Y-102514862D01*
X131774596Y-102611547D01*
X131774595Y-102611548D01*
X131774594Y-102611548D01*
X131613807Y-102678148D01*
X131556910Y-102689465D01*
X131443119Y-102712100D01*
X131269081Y-102712100D01*
X131155290Y-102689465D01*
X131098393Y-102678148D01*
X130937606Y-102611548D01*
X130937605Y-102611548D01*
X130937604Y-102611547D01*
X130792904Y-102514862D01*
X130669838Y-102391796D01*
X130573153Y-102247096D01*
X130567084Y-102232444D01*
X130506552Y-102086307D01*
X130472600Y-101915617D01*
X130472600Y-101741583D01*
X130506552Y-101570893D01*
X130573152Y-101410106D01*
X130573153Y-101410104D01*
X130669838Y-101265404D01*
X130792904Y-101142338D01*
X130937604Y-101045653D01*
X130937606Y-101045652D01*
X131098393Y-100979052D01*
X131174995Y-100963815D01*
X131269081Y-100945100D01*
X131443119Y-100945100D01*
X131537205Y-100963815D01*
G37*
G36*
X134077205Y-100963815D02*
G01*
X134153807Y-100979052D01*
X134314594Y-101045652D01*
X134314596Y-101045653D01*
X134459296Y-101142338D01*
X134582362Y-101265404D01*
X134679047Y-101410104D01*
X134679048Y-101410106D01*
X134745648Y-101570893D01*
X134779600Y-101741583D01*
X134779600Y-101915617D01*
X134745648Y-102086307D01*
X134685116Y-102232444D01*
X134679047Y-102247096D01*
X134582362Y-102391796D01*
X134459296Y-102514862D01*
X134314596Y-102611547D01*
X134314595Y-102611548D01*
X134314594Y-102611548D01*
X134153807Y-102678148D01*
X134096910Y-102689465D01*
X133983119Y-102712100D01*
X133809081Y-102712100D01*
X133695290Y-102689465D01*
X133638393Y-102678148D01*
X133477606Y-102611548D01*
X133477605Y-102611548D01*
X133477604Y-102611547D01*
X133332904Y-102514862D01*
X133209838Y-102391796D01*
X133113153Y-102247096D01*
X133107084Y-102232444D01*
X133046552Y-102086307D01*
X133012600Y-101915617D01*
X133012600Y-101741583D01*
X133046552Y-101570893D01*
X133113152Y-101410106D01*
X133113153Y-101410104D01*
X133209838Y-101265404D01*
X133332904Y-101142338D01*
X133477604Y-101045653D01*
X133477606Y-101045652D01*
X133638393Y-100979052D01*
X133714995Y-100963815D01*
X133809081Y-100945100D01*
X133983119Y-100945100D01*
X134077205Y-100963815D01*
G37*
G36*
X139157205Y-100963815D02*
G01*
X139233807Y-100979052D01*
X139394594Y-101045652D01*
X139394596Y-101045653D01*
X139539296Y-101142338D01*
X139662362Y-101265404D01*
X139759047Y-101410104D01*
X139759048Y-101410106D01*
X139825648Y-101570893D01*
X139859600Y-101741583D01*
X139859600Y-101915617D01*
X139825648Y-102086307D01*
X139765116Y-102232444D01*
X139759047Y-102247096D01*
X139662362Y-102391796D01*
X139539296Y-102514862D01*
X139394596Y-102611547D01*
X139394595Y-102611548D01*
X139394594Y-102611548D01*
X139233807Y-102678148D01*
X139176910Y-102689465D01*
X139063119Y-102712100D01*
X138889081Y-102712100D01*
X138775290Y-102689465D01*
X138718393Y-102678148D01*
X138557606Y-102611548D01*
X138557605Y-102611548D01*
X138557604Y-102611547D01*
X138412904Y-102514862D01*
X138289838Y-102391796D01*
X138193153Y-102247096D01*
X138187084Y-102232444D01*
X138126552Y-102086307D01*
X138092600Y-101915617D01*
X138092600Y-101741583D01*
X138126552Y-101570893D01*
X138193152Y-101410106D01*
X138193153Y-101410104D01*
X138289838Y-101265404D01*
X138412904Y-101142338D01*
X138557604Y-101045653D01*
X138557606Y-101045652D01*
X138718393Y-100979052D01*
X138794995Y-100963815D01*
X138889081Y-100945100D01*
X139063119Y-100945100D01*
X139157205Y-100963815D01*
G37*
G36*
X144237205Y-100963815D02*
G01*
X144313807Y-100979052D01*
X144474594Y-101045652D01*
X144474596Y-101045653D01*
X144619296Y-101142338D01*
X144742362Y-101265404D01*
X144839047Y-101410104D01*
X144839048Y-101410106D01*
X144905648Y-101570893D01*
X144939600Y-101741583D01*
X144939600Y-101915617D01*
X144905648Y-102086307D01*
X144845116Y-102232444D01*
X144839047Y-102247096D01*
X144742362Y-102391796D01*
X144619296Y-102514862D01*
X144474596Y-102611547D01*
X144474595Y-102611548D01*
X144474594Y-102611548D01*
X144313807Y-102678148D01*
X144256910Y-102689465D01*
X144143119Y-102712100D01*
X143969081Y-102712100D01*
X143855290Y-102689465D01*
X143798393Y-102678148D01*
X143637606Y-102611548D01*
X143637605Y-102611548D01*
X143637604Y-102611547D01*
X143492904Y-102514862D01*
X143369838Y-102391796D01*
X143273153Y-102247096D01*
X143267084Y-102232444D01*
X143206552Y-102086307D01*
X143172600Y-101915617D01*
X143172600Y-101741583D01*
X143206552Y-101570893D01*
X143273152Y-101410106D01*
X143273153Y-101410104D01*
X143369838Y-101265404D01*
X143492904Y-101142338D01*
X143637604Y-101045653D01*
X143637606Y-101045652D01*
X143798393Y-100979052D01*
X143874995Y-100963815D01*
X143969081Y-100945100D01*
X144143119Y-100945100D01*
X144237205Y-100963815D01*
G37*
G36*
X146777205Y-100963815D02*
G01*
X146853807Y-100979052D01*
X147014594Y-101045652D01*
X147014596Y-101045653D01*
X147159296Y-101142338D01*
X147282362Y-101265404D01*
X147379047Y-101410104D01*
X147379048Y-101410106D01*
X147445648Y-101570893D01*
X147479600Y-101741583D01*
X147479600Y-101915617D01*
X147445648Y-102086307D01*
X147385116Y-102232444D01*
X147379047Y-102247096D01*
X147282362Y-102391796D01*
X147159296Y-102514862D01*
X147014596Y-102611547D01*
X147014595Y-102611548D01*
X147014594Y-102611548D01*
X146853807Y-102678148D01*
X146796910Y-102689465D01*
X146683119Y-102712100D01*
X146509081Y-102712100D01*
X146395290Y-102689465D01*
X146338393Y-102678148D01*
X146177606Y-102611548D01*
X146177605Y-102611548D01*
X146177604Y-102611547D01*
X146032904Y-102514862D01*
X145909838Y-102391796D01*
X145813153Y-102247096D01*
X145807084Y-102232444D01*
X145746552Y-102086307D01*
X145712600Y-101915617D01*
X145712600Y-101741583D01*
X145746552Y-101570893D01*
X145813152Y-101410106D01*
X145813153Y-101410104D01*
X145909838Y-101265404D01*
X146032904Y-101142338D01*
X146177604Y-101045653D01*
X146177606Y-101045652D01*
X146338393Y-100979052D01*
X146414995Y-100963815D01*
X146509081Y-100945100D01*
X146683119Y-100945100D01*
X146777205Y-100963815D01*
G37*
G36*
X141697205Y-100963815D02*
G01*
X141773807Y-100979052D01*
X141934594Y-101045652D01*
X141934596Y-101045653D01*
X142079296Y-101142338D01*
X142202362Y-101265404D01*
X142299047Y-101410104D01*
X142299048Y-101410106D01*
X142365648Y-101570893D01*
X142399600Y-101741583D01*
X142399600Y-101915617D01*
X142365648Y-102086307D01*
X142305116Y-102232444D01*
X142299047Y-102247096D01*
X142202362Y-102391796D01*
X142079296Y-102514862D01*
X141934596Y-102611547D01*
X141934595Y-102611548D01*
X141934594Y-102611548D01*
X141773807Y-102678148D01*
X141716910Y-102689465D01*
X141603119Y-102712100D01*
X141429081Y-102712100D01*
X141315290Y-102689465D01*
X141258393Y-102678148D01*
X141097606Y-102611548D01*
X141097605Y-102611548D01*
X141097604Y-102611547D01*
X140952904Y-102514862D01*
X140829838Y-102391796D01*
X140733153Y-102247096D01*
X140727084Y-102232444D01*
X140666552Y-102086307D01*
X140632600Y-101915617D01*
X140632600Y-101741583D01*
X140666552Y-101570893D01*
X140733152Y-101410106D01*
X140733153Y-101410104D01*
X140829838Y-101265404D01*
X140952904Y-101142338D01*
X141097604Y-101045653D01*
X141097606Y-101045652D01*
X141258393Y-100979052D01*
X141334995Y-100963815D01*
X141429081Y-100945100D01*
X141603119Y-100945100D01*
X141697205Y-100963815D01*
G37*
G36*
X173348228Y-100061703D02*
G01*
X173503100Y-100125853D01*
X173642481Y-100218985D01*
X173761015Y-100337519D01*
X173854147Y-100476900D01*
X173918297Y-100631772D01*
X173951000Y-100796184D01*
X173951000Y-100963816D01*
X173918297Y-101128228D01*
X173854147Y-101283100D01*
X173761015Y-101422481D01*
X173642481Y-101541015D01*
X173503100Y-101634147D01*
X173348228Y-101698297D01*
X173183816Y-101731000D01*
X173016184Y-101731000D01*
X172851772Y-101698297D01*
X172696900Y-101634147D01*
X172557519Y-101541015D01*
X172438985Y-101422481D01*
X172345853Y-101283100D01*
X172281703Y-101128228D01*
X172249000Y-100963816D01*
X172249000Y-100796184D01*
X172281703Y-100631772D01*
X172345853Y-100476900D01*
X172438985Y-100337519D01*
X172557519Y-100218985D01*
X172696900Y-100125853D01*
X172851772Y-100061703D01*
X173016184Y-100029000D01*
X173183816Y-100029000D01*
X173348228Y-100061703D01*
G37*
G36*
X182348228Y-100061703D02*
G01*
X182503100Y-100125853D01*
X182642481Y-100218985D01*
X182761015Y-100337519D01*
X182854147Y-100476900D01*
X182918297Y-100631772D01*
X182951000Y-100796184D01*
X182951000Y-100963816D01*
X182918297Y-101128228D01*
X182854147Y-101283100D01*
X182761015Y-101422481D01*
X182642481Y-101541015D01*
X182503100Y-101634147D01*
X182348228Y-101698297D01*
X182183816Y-101731000D01*
X182016184Y-101731000D01*
X181851772Y-101698297D01*
X181696900Y-101634147D01*
X181557519Y-101541015D01*
X181438985Y-101422481D01*
X181345853Y-101283100D01*
X181281703Y-101128228D01*
X181249000Y-100963816D01*
X181249000Y-100796184D01*
X181281703Y-100631772D01*
X181345853Y-100476900D01*
X181438985Y-100337519D01*
X181557519Y-100218985D01*
X181696900Y-100125853D01*
X181851772Y-100061703D01*
X182016184Y-100029000D01*
X182183816Y-100029000D01*
X182348228Y-100061703D01*
G37*
G36*
X177832328Y-100061703D02*
G01*
X177987200Y-100125853D01*
X178126581Y-100218985D01*
X178245115Y-100337519D01*
X178338247Y-100476900D01*
X178402397Y-100631772D01*
X178435100Y-100796184D01*
X178435100Y-100963816D01*
X178402397Y-101128228D01*
X178338247Y-101283100D01*
X178245115Y-101422481D01*
X178126581Y-101541015D01*
X177987200Y-101634147D01*
X177832328Y-101698297D01*
X177667916Y-101731000D01*
X177500284Y-101731000D01*
X177335872Y-101698297D01*
X177181000Y-101634147D01*
X177041619Y-101541015D01*
X176923085Y-101422481D01*
X176829953Y-101283100D01*
X176765803Y-101128228D01*
X176733100Y-100963816D01*
X176733100Y-100796184D01*
X176765803Y-100631772D01*
X176829953Y-100476900D01*
X176923085Y-100337519D01*
X177041619Y-100218985D01*
X177181000Y-100125853D01*
X177335872Y-100061703D01*
X177500284Y-100029000D01*
X177667916Y-100029000D01*
X177832328Y-100061703D01*
G37*
G36*
X205209742Y-99138381D02*
G01*
X205355514Y-99198762D01*
X205355516Y-99198763D01*
X205486708Y-99286422D01*
X205598278Y-99397992D01*
X205685937Y-99529184D01*
X205685938Y-99529186D01*
X205746319Y-99674958D01*
X205777100Y-99829707D01*
X205777100Y-99987493D01*
X205746319Y-100142242D01*
X205714531Y-100218985D01*
X205685937Y-100288016D01*
X205598278Y-100419208D01*
X205486708Y-100530778D01*
X205355516Y-100618437D01*
X205355515Y-100618438D01*
X205355514Y-100618438D01*
X205209742Y-100678819D01*
X205054993Y-100709600D01*
X204897207Y-100709600D01*
X204742458Y-100678819D01*
X204596686Y-100618438D01*
X204596685Y-100618438D01*
X204596684Y-100618437D01*
X204465492Y-100530778D01*
X204353922Y-100419208D01*
X204266263Y-100288016D01*
X204237669Y-100218985D01*
X204205881Y-100142242D01*
X204175100Y-99987493D01*
X204175100Y-99829707D01*
X204205881Y-99674958D01*
X204266262Y-99529186D01*
X204266263Y-99529184D01*
X204353922Y-99397992D01*
X204465492Y-99286422D01*
X204596684Y-99198763D01*
X204596686Y-99198762D01*
X204742458Y-99138381D01*
X204897207Y-99107600D01*
X205054993Y-99107600D01*
X205209742Y-99138381D01*
G37*
G36*
X200209742Y-99138381D02*
G01*
X200355514Y-99198762D01*
X200355516Y-99198763D01*
X200486708Y-99286422D01*
X200598278Y-99397992D01*
X200685937Y-99529184D01*
X200685938Y-99529186D01*
X200746319Y-99674958D01*
X200777100Y-99829707D01*
X200777100Y-99987493D01*
X200746319Y-100142242D01*
X200714531Y-100218985D01*
X200685937Y-100288016D01*
X200598278Y-100419208D01*
X200486708Y-100530778D01*
X200355516Y-100618437D01*
X200355515Y-100618438D01*
X200355514Y-100618438D01*
X200209742Y-100678819D01*
X200054993Y-100709600D01*
X199897207Y-100709600D01*
X199742458Y-100678819D01*
X199596686Y-100618438D01*
X199596685Y-100618438D01*
X199596684Y-100618437D01*
X199465492Y-100530778D01*
X199353922Y-100419208D01*
X199266263Y-100288016D01*
X199237669Y-100218985D01*
X199205881Y-100142242D01*
X199175100Y-99987493D01*
X199175100Y-99829707D01*
X199205881Y-99674958D01*
X199266262Y-99529186D01*
X199266263Y-99529184D01*
X199353922Y-99397992D01*
X199465492Y-99286422D01*
X199596684Y-99198763D01*
X199596686Y-99198762D01*
X199742458Y-99138381D01*
X199897207Y-99107600D01*
X200054993Y-99107600D01*
X200209742Y-99138381D01*
G37*
G36*
X103592805Y-94642080D02*
G01*
X103703052Y-94687746D01*
X103703054Y-94687747D01*
X103753001Y-94721121D01*
X103802274Y-94754044D01*
X103886656Y-94838426D01*
X103952954Y-94937648D01*
X103998620Y-95047895D01*
X104021900Y-95164933D01*
X104021900Y-95284267D01*
X103998620Y-95401305D01*
X103952954Y-95511552D01*
X103952953Y-95511554D01*
X103886655Y-95610775D01*
X103802275Y-95695155D01*
X103703054Y-95761453D01*
X103703053Y-95761454D01*
X103703052Y-95761454D01*
X103592805Y-95807120D01*
X103475767Y-95830400D01*
X103356433Y-95830400D01*
X103239395Y-95807120D01*
X103129148Y-95761454D01*
X103129147Y-95761454D01*
X103129146Y-95761453D01*
X103029925Y-95695155D01*
X102945545Y-95610775D01*
X102879247Y-95511554D01*
X102879246Y-95511552D01*
X102833580Y-95401305D01*
X102810300Y-95284267D01*
X102810300Y-95164933D01*
X102833580Y-95047895D01*
X102879246Y-94937648D01*
X102945544Y-94838426D01*
X103029926Y-94754044D01*
X103079199Y-94721121D01*
X103129146Y-94687747D01*
X103129148Y-94687746D01*
X103239395Y-94642080D01*
X103356433Y-94618800D01*
X103475767Y-94618800D01*
X103592805Y-94642080D01*
G37*
G36*
X192407278Y-93889210D02*
G01*
X192407280Y-93889211D01*
X192407281Y-93889211D01*
X192522880Y-93937093D01*
X192626916Y-94006608D01*
X192715392Y-94095084D01*
X192784907Y-94199120D01*
X192791369Y-94214722D01*
X192832790Y-94314722D01*
X192857200Y-94437437D01*
X192857200Y-94562563D01*
X192841383Y-94642081D01*
X192832789Y-94685281D01*
X192784907Y-94800880D01*
X192715392Y-94904916D01*
X192626916Y-94993392D01*
X192522880Y-95062907D01*
X192407281Y-95110789D01*
X192407280Y-95110789D01*
X192407278Y-95110790D01*
X192284563Y-95135200D01*
X192159437Y-95135200D01*
X192036722Y-95110790D01*
X192036720Y-95110789D01*
X192036719Y-95110789D01*
X191921120Y-95062907D01*
X191817084Y-94993392D01*
X191728608Y-94904916D01*
X191659093Y-94800880D01*
X191611211Y-94685281D01*
X191602618Y-94642081D01*
X191586800Y-94562563D01*
X191586800Y-94437437D01*
X191611210Y-94314722D01*
X191652631Y-94214722D01*
X191659093Y-94199120D01*
X191728608Y-94095084D01*
X191817084Y-94006608D01*
X191921120Y-93937093D01*
X192036719Y-93889211D01*
X192036720Y-93889211D01*
X192036722Y-93889210D01*
X192159437Y-93864800D01*
X192284563Y-93864800D01*
X192407278Y-93889210D01*
G37*
G36*
X194185278Y-93889210D02*
G01*
X194185280Y-93889211D01*
X194185281Y-93889211D01*
X194300880Y-93937093D01*
X194404916Y-94006608D01*
X194493392Y-94095084D01*
X194562907Y-94199120D01*
X194569369Y-94214722D01*
X194610790Y-94314722D01*
X194635200Y-94437437D01*
X194635200Y-94562563D01*
X194619383Y-94642081D01*
X194610789Y-94685281D01*
X194562907Y-94800880D01*
X194493392Y-94904916D01*
X194404916Y-94993392D01*
X194300880Y-95062907D01*
X194185281Y-95110789D01*
X194185280Y-95110789D01*
X194185278Y-95110790D01*
X194062563Y-95135200D01*
X193937437Y-95135200D01*
X193814722Y-95110790D01*
X193814720Y-95110789D01*
X193814719Y-95110789D01*
X193699120Y-95062907D01*
X193595084Y-94993392D01*
X193506608Y-94904916D01*
X193437093Y-94800880D01*
X193389211Y-94685281D01*
X193380618Y-94642081D01*
X193364800Y-94562563D01*
X193364800Y-94437437D01*
X193389210Y-94314722D01*
X193430631Y-94214722D01*
X193437093Y-94199120D01*
X193506608Y-94095084D01*
X193595084Y-94006608D01*
X193699120Y-93937093D01*
X193814719Y-93889211D01*
X193814720Y-93889211D01*
X193814722Y-93889210D01*
X193937437Y-93864800D01*
X194062563Y-93864800D01*
X194185278Y-93889210D01*
G37*
G36*
X212696278Y-93789210D02*
G01*
X212696280Y-93789211D01*
X212696281Y-93789211D01*
X212811880Y-93837093D01*
X212915916Y-93906608D01*
X213004392Y-93995084D01*
X213073907Y-94099120D01*
X213121789Y-94214719D01*
X213121790Y-94214722D01*
X213146200Y-94337437D01*
X213146200Y-94462563D01*
X213126309Y-94562562D01*
X213121789Y-94585281D01*
X213073907Y-94700880D01*
X213004392Y-94804916D01*
X212915916Y-94893392D01*
X212811880Y-94962907D01*
X212696281Y-95010789D01*
X212696280Y-95010789D01*
X212696278Y-95010790D01*
X212573563Y-95035200D01*
X212448437Y-95035200D01*
X212325722Y-95010790D01*
X212325720Y-95010789D01*
X212325719Y-95010789D01*
X212210120Y-94962907D01*
X212106084Y-94893392D01*
X212017608Y-94804916D01*
X211948093Y-94700880D01*
X211900211Y-94585281D01*
X211895692Y-94562562D01*
X211875800Y-94462563D01*
X211875800Y-94337437D01*
X211900210Y-94214722D01*
X211900211Y-94214719D01*
X211948093Y-94099120D01*
X212017608Y-93995084D01*
X212106084Y-93906608D01*
X212210120Y-93837093D01*
X212325719Y-93789211D01*
X212325720Y-93789211D01*
X212325722Y-93789210D01*
X212448437Y-93764800D01*
X212573563Y-93764800D01*
X212696278Y-93789210D01*
G37*
G36*
X214474278Y-93789210D02*
G01*
X214474280Y-93789211D01*
X214474281Y-93789211D01*
X214589880Y-93837093D01*
X214693916Y-93906608D01*
X214782392Y-93995084D01*
X214851907Y-94099120D01*
X214899789Y-94214719D01*
X214899790Y-94214722D01*
X214924200Y-94337437D01*
X214924200Y-94462563D01*
X214904309Y-94562562D01*
X214899789Y-94585281D01*
X214851907Y-94700880D01*
X214782392Y-94804916D01*
X214693916Y-94893392D01*
X214589880Y-94962907D01*
X214474281Y-95010789D01*
X214474280Y-95010789D01*
X214474278Y-95010790D01*
X214351563Y-95035200D01*
X214226437Y-95035200D01*
X214103722Y-95010790D01*
X214103720Y-95010789D01*
X214103719Y-95010789D01*
X213988120Y-94962907D01*
X213884084Y-94893392D01*
X213795608Y-94804916D01*
X213726093Y-94700880D01*
X213678211Y-94585281D01*
X213673692Y-94562562D01*
X213653800Y-94462563D01*
X213653800Y-94337437D01*
X213678210Y-94214722D01*
X213678211Y-94214719D01*
X213726093Y-94099120D01*
X213795608Y-93995084D01*
X213884084Y-93906608D01*
X213988120Y-93837093D01*
X214103719Y-93789211D01*
X214103720Y-93789211D01*
X214103722Y-93789210D01*
X214226437Y-93764800D01*
X214351563Y-93764800D01*
X214474278Y-93789210D01*
G37*
G36*
X106132805Y-92102080D02*
G01*
X106243052Y-92147746D01*
X106243054Y-92147747D01*
X106293001Y-92181121D01*
X106342274Y-92214044D01*
X106426656Y-92298426D01*
X106492954Y-92397648D01*
X106538620Y-92507895D01*
X106561900Y-92624933D01*
X106561900Y-92744267D01*
X106538620Y-92861305D01*
X106492954Y-92971552D01*
X106492953Y-92971554D01*
X106426655Y-93070775D01*
X106342275Y-93155155D01*
X106243054Y-93221453D01*
X106243053Y-93221454D01*
X106243052Y-93221454D01*
X106132805Y-93267120D01*
X106015767Y-93290400D01*
X105896433Y-93290400D01*
X105779395Y-93267120D01*
X105669148Y-93221454D01*
X105669147Y-93221454D01*
X105669146Y-93221453D01*
X105569925Y-93155155D01*
X105485545Y-93070775D01*
X105419247Y-92971554D01*
X105419246Y-92971552D01*
X105373580Y-92861305D01*
X105350300Y-92744267D01*
X105350300Y-92624933D01*
X105373580Y-92507895D01*
X105419246Y-92397648D01*
X105485544Y-92298426D01*
X105569926Y-92214044D01*
X105619199Y-92181121D01*
X105669146Y-92147747D01*
X105669148Y-92147746D01*
X105779395Y-92102080D01*
X105896433Y-92078800D01*
X106015767Y-92078800D01*
X106132805Y-92102080D01*
G37*
G36*
X101052805Y-92102080D02*
G01*
X101163052Y-92147746D01*
X101163054Y-92147747D01*
X101213001Y-92181121D01*
X101262274Y-92214044D01*
X101346656Y-92298426D01*
X101412954Y-92397648D01*
X101458620Y-92507895D01*
X101481900Y-92624933D01*
X101481900Y-92744267D01*
X101458620Y-92861305D01*
X101412954Y-92971552D01*
X101412953Y-92971554D01*
X101346655Y-93070775D01*
X101262275Y-93155155D01*
X101163054Y-93221453D01*
X101163053Y-93221454D01*
X101163052Y-93221454D01*
X101052805Y-93267120D01*
X100935767Y-93290400D01*
X100816433Y-93290400D01*
X100699395Y-93267120D01*
X100589148Y-93221454D01*
X100589147Y-93221454D01*
X100589146Y-93221453D01*
X100489925Y-93155155D01*
X100405545Y-93070775D01*
X100339247Y-92971554D01*
X100339246Y-92971552D01*
X100293580Y-92861305D01*
X100270300Y-92744267D01*
X100270300Y-92624933D01*
X100293580Y-92507895D01*
X100339246Y-92397648D01*
X100405544Y-92298426D01*
X100489926Y-92214044D01*
X100539199Y-92181121D01*
X100589146Y-92147747D01*
X100589148Y-92147746D01*
X100699395Y-92102080D01*
X100816433Y-92078800D01*
X100935767Y-92078800D01*
X101052805Y-92102080D01*
G37*
G36*
X192484647Y-87472440D02*
G01*
X192646725Y-87521606D01*
X192796089Y-87601443D01*
X192927012Y-87708888D01*
X193034456Y-87839809D01*
X193114295Y-87989176D01*
X193163460Y-88151252D01*
X193175900Y-88277560D01*
X193175900Y-89979640D01*
X193163460Y-90105948D01*
X193114295Y-90268024D01*
X193034456Y-90417391D01*
X192927012Y-90548312D01*
X192796091Y-90655756D01*
X192646724Y-90735595D01*
X192484648Y-90784760D01*
X192316100Y-90801360D01*
X192147553Y-90784760D01*
X191985477Y-90735595D01*
X191836110Y-90655756D01*
X191705189Y-90548312D01*
X191597745Y-90417391D01*
X191517906Y-90268024D01*
X191468741Y-90105948D01*
X191456301Y-89979640D01*
X191456300Y-88277561D01*
X191468740Y-88151253D01*
X191517906Y-87989175D01*
X191597743Y-87839811D01*
X191705188Y-87708888D01*
X191836109Y-87601444D01*
X191985476Y-87521605D01*
X192147552Y-87472440D01*
X192316100Y-87455840D01*
X192484647Y-87472440D01*
G37*
G36*
X195024647Y-87472440D02*
G01*
X195186725Y-87521606D01*
X195336089Y-87601443D01*
X195467012Y-87708888D01*
X195574456Y-87839809D01*
X195654295Y-87989176D01*
X195703460Y-88151252D01*
X195715900Y-88277560D01*
X195715900Y-89979640D01*
X195703460Y-90105948D01*
X195654295Y-90268024D01*
X195574456Y-90417391D01*
X195467012Y-90548312D01*
X195336091Y-90655756D01*
X195186724Y-90735595D01*
X195024648Y-90784760D01*
X194856100Y-90801360D01*
X194687553Y-90784760D01*
X194525477Y-90735595D01*
X194376110Y-90655756D01*
X194245189Y-90548312D01*
X194137745Y-90417391D01*
X194057906Y-90268024D01*
X194008741Y-90105948D01*
X193996301Y-89979640D01*
X193996300Y-88277561D01*
X194008740Y-88151253D01*
X194057906Y-87989175D01*
X194137743Y-87839811D01*
X194245188Y-87708888D01*
X194376109Y-87601444D01*
X194525476Y-87521605D01*
X194687552Y-87472440D01*
X194856100Y-87455840D01*
X195024647Y-87472440D01*
G37*
G36*
X197564647Y-87472440D02*
G01*
X197726725Y-87521606D01*
X197876089Y-87601443D01*
X198007012Y-87708888D01*
X198114456Y-87839809D01*
X198194295Y-87989176D01*
X198243460Y-88151252D01*
X198255900Y-88277560D01*
X198255900Y-89979640D01*
X198243460Y-90105948D01*
X198194295Y-90268024D01*
X198114456Y-90417391D01*
X198007012Y-90548312D01*
X197876091Y-90655756D01*
X197726724Y-90735595D01*
X197564648Y-90784760D01*
X197396100Y-90801360D01*
X197227553Y-90784760D01*
X197065477Y-90735595D01*
X196916110Y-90655756D01*
X196785189Y-90548312D01*
X196677745Y-90417391D01*
X196597906Y-90268024D01*
X196548741Y-90105948D01*
X196536301Y-89979640D01*
X196536300Y-88277561D01*
X196548740Y-88151253D01*
X196597906Y-87989175D01*
X196677743Y-87839811D01*
X196785188Y-87708888D01*
X196916109Y-87601444D01*
X197065476Y-87521605D01*
X197227552Y-87472440D01*
X197396100Y-87455840D01*
X197564647Y-87472440D01*
G37*
G36*
X206764903Y-86097075D02*
G01*
X206992571Y-86191378D01*
X207197466Y-86328285D01*
X207371715Y-86502534D01*
X207371716Y-86502536D01*
X207508623Y-86707431D01*
X207602925Y-86935097D01*
X207651000Y-87176786D01*
X207651000Y-87423214D01*
X207615548Y-87601443D01*
X207602925Y-87664903D01*
X207508622Y-87892571D01*
X207371715Y-88097466D01*
X207197466Y-88271715D01*
X206992571Y-88408622D01*
X206992570Y-88408623D01*
X206992569Y-88408623D01*
X206764903Y-88502925D01*
X206523214Y-88551000D01*
X206276786Y-88551000D01*
X206035097Y-88502925D01*
X205807431Y-88408623D01*
X205807430Y-88408623D01*
X205807429Y-88408622D01*
X205602534Y-88271715D01*
X205428285Y-88097466D01*
X205291378Y-87892571D01*
X205197075Y-87664903D01*
X205184452Y-87601443D01*
X205149000Y-87423214D01*
X205149000Y-87176786D01*
X205197075Y-86935097D01*
X205291377Y-86707431D01*
X205428284Y-86502536D01*
X205428285Y-86502534D01*
X205602534Y-86328285D01*
X205807429Y-86191378D01*
X206035097Y-86097075D01*
X206276786Y-86049000D01*
X206523214Y-86049000D01*
X206764903Y-86097075D01*
G37*
G36*
X213552690Y-81981305D02*
G01*
X213628940Y-82004435D01*
X213705189Y-82027565D01*
X213705191Y-82027566D01*
X213845730Y-82102686D01*
X213968917Y-82203783D01*
X214070014Y-82326970D01*
X214145134Y-82467509D01*
X214191395Y-82620010D01*
X214207014Y-82778600D01*
X214191395Y-82937190D01*
X214191394Y-82937192D01*
X214154628Y-83058396D01*
X214145134Y-83089691D01*
X214070014Y-83230230D01*
X213968917Y-83353417D01*
X213845730Y-83454514D01*
X213705191Y-83529634D01*
X213705189Y-83529635D01*
X213628940Y-83552765D01*
X213552690Y-83575895D01*
X213433843Y-83587600D01*
X211838357Y-83587600D01*
X211719510Y-83575895D01*
X211643260Y-83552765D01*
X211567011Y-83529635D01*
X211567009Y-83529634D01*
X211426470Y-83454514D01*
X211303283Y-83353417D01*
X211202186Y-83230230D01*
X211127066Y-83089691D01*
X211117573Y-83058396D01*
X211080806Y-82937192D01*
X211080805Y-82937190D01*
X211065186Y-82778600D01*
X211080805Y-82620010D01*
X211127066Y-82467509D01*
X211202186Y-82326970D01*
X211303283Y-82203783D01*
X211426470Y-82102686D01*
X211567009Y-82027566D01*
X211567011Y-82027565D01*
X211643260Y-82004435D01*
X211719510Y-81981305D01*
X211838357Y-81969600D01*
X213433843Y-81969600D01*
X213552690Y-81981305D01*
G37*
G36*
X91275779Y-79605612D02*
G01*
X91401744Y-79630668D01*
X91481690Y-79663783D01*
X91757712Y-79778115D01*
X91770964Y-79786970D01*
X92078077Y-79992176D01*
X92350524Y-80264623D01*
X92493555Y-80478684D01*
X92564585Y-80584988D01*
X92608178Y-80690231D01*
X92712032Y-80940956D01*
X92733245Y-81047600D01*
X92785211Y-81308849D01*
X92787200Y-81318851D01*
X92787200Y-81704149D01*
X92712032Y-82082044D01*
X92703481Y-82102687D01*
X92564585Y-82438012D01*
X92544874Y-82467511D01*
X92350524Y-82758377D01*
X92078077Y-83030824D01*
X91989979Y-83089689D01*
X91757712Y-83244885D01*
X91549191Y-83331257D01*
X91401744Y-83392332D01*
X91275779Y-83417388D01*
X91023851Y-83467500D01*
X90638549Y-83467500D01*
X90386621Y-83417388D01*
X90260656Y-83392332D01*
X90113209Y-83331257D01*
X89904688Y-83244885D01*
X89672421Y-83089689D01*
X89584323Y-83030824D01*
X89311876Y-82758377D01*
X89117526Y-82467511D01*
X89097815Y-82438012D01*
X88958919Y-82102687D01*
X88950368Y-82082044D01*
X88875200Y-81704149D01*
X88875200Y-81318851D01*
X88877190Y-81308849D01*
X88929155Y-81047600D01*
X88950368Y-80940956D01*
X89054222Y-80690231D01*
X89097815Y-80584988D01*
X89168845Y-80478684D01*
X89311876Y-80264623D01*
X89584323Y-79992176D01*
X89891436Y-79786970D01*
X89904688Y-79778115D01*
X90180710Y-79663783D01*
X90260656Y-79630668D01*
X90386621Y-79605612D01*
X90638549Y-79555500D01*
X91023851Y-79555500D01*
X91275779Y-79605612D01*
G37*
G36*
X184285779Y-79595612D02*
G01*
X184411744Y-79620668D01*
X184515832Y-79663783D01*
X184767712Y-79768115D01*
X184795929Y-79786969D01*
X185088077Y-79982176D01*
X185360524Y-80254623D01*
X185367206Y-80264624D01*
X185574585Y-80574988D01*
X185722032Y-80930957D01*
X185797200Y-81308849D01*
X185797200Y-81694151D01*
X185747088Y-81946079D01*
X185722032Y-82072044D01*
X185709339Y-82102687D01*
X185574585Y-82428012D01*
X185503555Y-82534316D01*
X185360524Y-82748377D01*
X185088077Y-83020824D01*
X185031846Y-83058396D01*
X184767712Y-83234885D01*
X184569712Y-83316899D01*
X184411744Y-83382332D01*
X184285779Y-83407388D01*
X184033851Y-83457500D01*
X183648549Y-83457500D01*
X183396621Y-83407388D01*
X183270656Y-83382332D01*
X183112688Y-83316899D01*
X182914688Y-83234885D01*
X182650554Y-83058396D01*
X182594323Y-83020824D01*
X182321876Y-82748377D01*
X182178845Y-82534316D01*
X182107815Y-82428012D01*
X181973061Y-82102687D01*
X181960368Y-82072044D01*
X181935312Y-81946079D01*
X181885200Y-81694151D01*
X181885200Y-81308849D01*
X181960368Y-80930957D01*
X182107815Y-80574988D01*
X182315194Y-80264624D01*
X182321876Y-80254623D01*
X182594323Y-79982176D01*
X182886471Y-79786969D01*
X182914688Y-79768115D01*
X183166568Y-79663783D01*
X183270656Y-79620668D01*
X183396621Y-79595612D01*
X183648549Y-79545500D01*
X184033851Y-79545500D01*
X184285779Y-79595612D01*
G37*
G36*
X136612772Y-79686101D02*
G01*
X136789963Y-79739851D01*
X136789966Y-79739852D01*
X136953259Y-79827134D01*
X136953262Y-79827136D01*
X136953263Y-79827137D01*
X137096396Y-79944604D01*
X137207522Y-80080010D01*
X137213866Y-80087741D01*
X137301148Y-80251034D01*
X137301149Y-80251037D01*
X137354899Y-80428228D01*
X137354899Y-80428230D01*
X137368500Y-80566322D01*
X137368500Y-82436678D01*
X137365463Y-82467509D01*
X137354899Y-82574772D01*
X137341176Y-82620010D01*
X137301148Y-82751966D01*
X137213866Y-82915259D01*
X137096396Y-83058396D01*
X136953259Y-83175866D01*
X136789965Y-83263148D01*
X136789962Y-83263149D01*
X136612771Y-83316899D01*
X136428500Y-83335048D01*
X136244228Y-83316899D01*
X136067037Y-83263149D01*
X136067034Y-83263148D01*
X135903741Y-83175866D01*
X135760604Y-83058396D01*
X135643134Y-82915259D01*
X135555852Y-82751965D01*
X135515824Y-82620010D01*
X135502101Y-82574771D01*
X135488632Y-82438013D01*
X135488500Y-82436677D01*
X135488500Y-80566323D01*
X135502102Y-80428230D01*
X135502102Y-80428228D01*
X135555852Y-80251037D01*
X135555853Y-80251034D01*
X135643135Y-80087741D01*
X135649480Y-80080010D01*
X135760605Y-79944604D01*
X135903738Y-79827137D01*
X135903739Y-79827136D01*
X135903742Y-79827134D01*
X136067035Y-79739852D01*
X136067038Y-79739851D01*
X136244229Y-79686101D01*
X136428500Y-79667952D01*
X136612772Y-79686101D01*
G37*
G36*
X108672772Y-79686101D02*
G01*
X108849963Y-79739851D01*
X108849966Y-79739852D01*
X109013259Y-79827134D01*
X109013262Y-79827136D01*
X109013263Y-79827137D01*
X109156396Y-79944604D01*
X109267522Y-80080010D01*
X109273866Y-80087741D01*
X109361148Y-80251034D01*
X109361149Y-80251037D01*
X109414899Y-80428228D01*
X109414899Y-80428230D01*
X109428500Y-80566322D01*
X109428500Y-82436678D01*
X109425463Y-82467509D01*
X109414899Y-82574772D01*
X109401176Y-82620010D01*
X109361148Y-82751966D01*
X109273866Y-82915259D01*
X109156396Y-83058396D01*
X109013259Y-83175866D01*
X108849965Y-83263148D01*
X108849962Y-83263149D01*
X108672771Y-83316899D01*
X108488500Y-83335048D01*
X108304228Y-83316899D01*
X108127037Y-83263149D01*
X108127034Y-83263148D01*
X107963741Y-83175866D01*
X107820604Y-83058396D01*
X107703134Y-82915259D01*
X107615852Y-82751965D01*
X107575824Y-82620010D01*
X107562101Y-82574771D01*
X107548632Y-82438013D01*
X107548500Y-82436677D01*
X107548500Y-80566323D01*
X107562102Y-80428230D01*
X107562102Y-80428228D01*
X107615852Y-80251037D01*
X107615853Y-80251034D01*
X107703135Y-80087741D01*
X107709480Y-80080010D01*
X107820605Y-79944604D01*
X107963738Y-79827137D01*
X107963739Y-79827136D01*
X107963742Y-79827134D01*
X108127035Y-79739852D01*
X108127038Y-79739851D01*
X108304229Y-79686101D01*
X108488500Y-79667952D01*
X108672772Y-79686101D01*
G37*
G36*
X103592772Y-79686101D02*
G01*
X103769963Y-79739851D01*
X103769966Y-79739852D01*
X103933259Y-79827134D01*
X103933262Y-79827136D01*
X103933263Y-79827137D01*
X104076396Y-79944604D01*
X104187522Y-80080010D01*
X104193866Y-80087741D01*
X104281148Y-80251034D01*
X104281149Y-80251037D01*
X104334899Y-80428228D01*
X104334899Y-80428230D01*
X104348500Y-80566322D01*
X104348500Y-82436678D01*
X104345463Y-82467509D01*
X104334899Y-82574772D01*
X104321176Y-82620010D01*
X104281148Y-82751966D01*
X104193866Y-82915259D01*
X104076396Y-83058396D01*
X103933259Y-83175866D01*
X103769965Y-83263148D01*
X103769962Y-83263149D01*
X103592771Y-83316899D01*
X103408500Y-83335048D01*
X103224228Y-83316899D01*
X103047037Y-83263149D01*
X103047034Y-83263148D01*
X102883741Y-83175866D01*
X102740604Y-83058396D01*
X102623134Y-82915259D01*
X102535852Y-82751965D01*
X102495824Y-82620010D01*
X102482101Y-82574771D01*
X102468632Y-82438013D01*
X102468500Y-82436677D01*
X102468500Y-80566323D01*
X102482102Y-80428230D01*
X102482102Y-80428228D01*
X102535852Y-80251037D01*
X102535853Y-80251034D01*
X102623135Y-80087741D01*
X102629480Y-80080010D01*
X102740605Y-79944604D01*
X102883738Y-79827137D01*
X102883739Y-79827136D01*
X102883742Y-79827134D01*
X103047035Y-79739852D01*
X103047038Y-79739851D01*
X103224229Y-79686101D01*
X103408500Y-79667952D01*
X103592772Y-79686101D01*
G37*
G36*
X101052772Y-79686101D02*
G01*
X101229963Y-79739851D01*
X101229966Y-79739852D01*
X101393259Y-79827134D01*
X101393262Y-79827136D01*
X101393263Y-79827137D01*
X101536396Y-79944604D01*
X101647522Y-80080010D01*
X101653866Y-80087741D01*
X101741148Y-80251034D01*
X101741149Y-80251037D01*
X101794899Y-80428228D01*
X101794899Y-80428230D01*
X101808500Y-80566322D01*
X101808500Y-82436678D01*
X101805463Y-82467509D01*
X101794899Y-82574772D01*
X101781176Y-82620010D01*
X101741148Y-82751966D01*
X101653866Y-82915259D01*
X101536396Y-83058396D01*
X101393259Y-83175866D01*
X101229965Y-83263148D01*
X101229962Y-83263149D01*
X101052771Y-83316899D01*
X100868500Y-83335048D01*
X100684228Y-83316899D01*
X100507037Y-83263149D01*
X100507034Y-83263148D01*
X100343741Y-83175866D01*
X100200604Y-83058396D01*
X100083134Y-82915259D01*
X99995852Y-82751965D01*
X99955824Y-82620010D01*
X99942101Y-82574771D01*
X99928632Y-82438013D01*
X99928500Y-82436677D01*
X99928500Y-80566323D01*
X99942102Y-80428230D01*
X99942102Y-80428228D01*
X99995852Y-80251037D01*
X99995853Y-80251034D01*
X100083135Y-80087741D01*
X100089480Y-80080010D01*
X100200605Y-79944604D01*
X100343738Y-79827137D01*
X100343739Y-79827136D01*
X100343742Y-79827134D01*
X100507035Y-79739852D01*
X100507038Y-79739851D01*
X100684229Y-79686101D01*
X100868500Y-79667952D01*
X101052772Y-79686101D01*
G37*
G36*
X131532772Y-79686101D02*
G01*
X131709963Y-79739851D01*
X131709966Y-79739852D01*
X131873259Y-79827134D01*
X131873262Y-79827136D01*
X131873263Y-79827137D01*
X132016396Y-79944604D01*
X132127522Y-80080010D01*
X132133866Y-80087741D01*
X132221148Y-80251034D01*
X132221149Y-80251037D01*
X132274899Y-80428228D01*
X132274899Y-80428230D01*
X132288500Y-80566322D01*
X132288500Y-82436678D01*
X132285463Y-82467509D01*
X132274899Y-82574772D01*
X132261176Y-82620010D01*
X132221148Y-82751966D01*
X132133866Y-82915259D01*
X132016396Y-83058396D01*
X131873259Y-83175866D01*
X131709965Y-83263148D01*
X131709962Y-83263149D01*
X131532771Y-83316899D01*
X131348500Y-83335048D01*
X131164228Y-83316899D01*
X130987037Y-83263149D01*
X130987034Y-83263148D01*
X130823741Y-83175866D01*
X130680604Y-83058396D01*
X130563134Y-82915259D01*
X130475852Y-82751965D01*
X130435824Y-82620010D01*
X130422101Y-82574771D01*
X130408632Y-82438013D01*
X130408500Y-82436677D01*
X130408500Y-80566323D01*
X130422102Y-80428230D01*
X130422102Y-80428228D01*
X130475852Y-80251037D01*
X130475853Y-80251034D01*
X130563135Y-80087741D01*
X130569480Y-80080010D01*
X130680605Y-79944604D01*
X130823738Y-79827137D01*
X130823739Y-79827136D01*
X130823742Y-79827134D01*
X130987035Y-79739852D01*
X130987038Y-79739851D01*
X131164229Y-79686101D01*
X131348500Y-79667952D01*
X131532772Y-79686101D01*
G37*
G36*
X134072772Y-79686101D02*
G01*
X134249963Y-79739851D01*
X134249966Y-79739852D01*
X134413259Y-79827134D01*
X134413262Y-79827136D01*
X134413263Y-79827137D01*
X134556396Y-79944604D01*
X134667522Y-80080010D01*
X134673866Y-80087741D01*
X134761148Y-80251034D01*
X134761149Y-80251037D01*
X134814899Y-80428228D01*
X134814899Y-80428230D01*
X134828500Y-80566322D01*
X134828500Y-82436678D01*
X134825463Y-82467509D01*
X134814899Y-82574772D01*
X134801176Y-82620010D01*
X134761148Y-82751966D01*
X134673866Y-82915259D01*
X134556396Y-83058396D01*
X134413259Y-83175866D01*
X134249965Y-83263148D01*
X134249962Y-83263149D01*
X134072771Y-83316899D01*
X133888500Y-83335048D01*
X133704228Y-83316899D01*
X133527037Y-83263149D01*
X133527034Y-83263148D01*
X133363741Y-83175866D01*
X133220604Y-83058396D01*
X133103134Y-82915259D01*
X133015852Y-82751965D01*
X132975824Y-82620010D01*
X132962101Y-82574771D01*
X132948632Y-82438013D01*
X132948500Y-82436677D01*
X132948500Y-80566323D01*
X132962102Y-80428230D01*
X132962102Y-80428228D01*
X133015852Y-80251037D01*
X133015853Y-80251034D01*
X133103135Y-80087741D01*
X133109480Y-80080010D01*
X133220605Y-79944604D01*
X133363738Y-79827137D01*
X133363739Y-79827136D01*
X133363742Y-79827134D01*
X133527035Y-79739852D01*
X133527038Y-79739851D01*
X133704229Y-79686101D01*
X133888500Y-79667952D01*
X134072772Y-79686101D01*
G37*
G36*
X121372772Y-79686101D02*
G01*
X121549963Y-79739851D01*
X121549966Y-79739852D01*
X121713259Y-79827134D01*
X121713262Y-79827136D01*
X121713263Y-79827137D01*
X121856396Y-79944604D01*
X121967522Y-80080010D01*
X121973866Y-80087741D01*
X122061148Y-80251034D01*
X122061149Y-80251037D01*
X122114899Y-80428228D01*
X122114899Y-80428230D01*
X122128500Y-80566322D01*
X122128500Y-82436678D01*
X122125463Y-82467509D01*
X122114899Y-82574772D01*
X122101176Y-82620010D01*
X122061148Y-82751966D01*
X121973866Y-82915259D01*
X121856396Y-83058396D01*
X121713259Y-83175866D01*
X121549965Y-83263148D01*
X121549962Y-83263149D01*
X121372771Y-83316899D01*
X121188500Y-83335048D01*
X121004228Y-83316899D01*
X120827037Y-83263149D01*
X120827034Y-83263148D01*
X120663741Y-83175866D01*
X120520604Y-83058396D01*
X120403134Y-82915259D01*
X120315852Y-82751965D01*
X120275824Y-82620010D01*
X120262101Y-82574771D01*
X120248632Y-82438013D01*
X120248500Y-82436677D01*
X120248500Y-80566323D01*
X120262102Y-80428230D01*
X120262102Y-80428228D01*
X120315852Y-80251037D01*
X120315853Y-80251034D01*
X120403135Y-80087741D01*
X120409480Y-80080010D01*
X120520605Y-79944604D01*
X120663738Y-79827137D01*
X120663739Y-79827136D01*
X120663742Y-79827134D01*
X120827035Y-79739852D01*
X120827038Y-79739851D01*
X121004229Y-79686101D01*
X121188500Y-79667952D01*
X121372772Y-79686101D01*
G37*
G36*
X118832772Y-79686101D02*
G01*
X119009963Y-79739851D01*
X119009966Y-79739852D01*
X119173259Y-79827134D01*
X119173262Y-79827136D01*
X119173263Y-79827137D01*
X119316396Y-79944604D01*
X119427522Y-80080010D01*
X119433866Y-80087741D01*
X119521148Y-80251034D01*
X119521149Y-80251037D01*
X119574899Y-80428228D01*
X119574899Y-80428230D01*
X119588500Y-80566322D01*
X119588500Y-82436678D01*
X119585463Y-82467509D01*
X119574899Y-82574772D01*
X119561176Y-82620010D01*
X119521148Y-82751966D01*
X119433866Y-82915259D01*
X119316396Y-83058396D01*
X119173259Y-83175866D01*
X119009965Y-83263148D01*
X119009962Y-83263149D01*
X118832771Y-83316899D01*
X118648500Y-83335048D01*
X118464228Y-83316899D01*
X118287037Y-83263149D01*
X118287034Y-83263148D01*
X118123741Y-83175866D01*
X117980604Y-83058396D01*
X117863134Y-82915259D01*
X117775852Y-82751965D01*
X117735824Y-82620010D01*
X117722101Y-82574771D01*
X117708632Y-82438013D01*
X117708500Y-82436677D01*
X117708500Y-80566323D01*
X117722102Y-80428230D01*
X117722102Y-80428228D01*
X117775852Y-80251037D01*
X117775853Y-80251034D01*
X117863135Y-80087741D01*
X117869480Y-80080010D01*
X117980605Y-79944604D01*
X118123738Y-79827137D01*
X118123739Y-79827136D01*
X118123742Y-79827134D01*
X118287035Y-79739852D01*
X118287038Y-79739851D01*
X118464229Y-79686101D01*
X118648500Y-79667952D01*
X118832772Y-79686101D01*
G37*
G36*
X126452772Y-79686101D02*
G01*
X126629963Y-79739851D01*
X126629966Y-79739852D01*
X126793259Y-79827134D01*
X126793262Y-79827136D01*
X126793263Y-79827137D01*
X126936396Y-79944604D01*
X127047522Y-80080010D01*
X127053866Y-80087741D01*
X127141148Y-80251034D01*
X127141149Y-80251037D01*
X127194899Y-80428228D01*
X127194899Y-80428230D01*
X127208500Y-80566322D01*
X127208500Y-82436678D01*
X127205463Y-82467509D01*
X127194899Y-82574772D01*
X127181176Y-82620010D01*
X127141148Y-82751966D01*
X127053866Y-82915259D01*
X126936396Y-83058396D01*
X126793259Y-83175866D01*
X126629965Y-83263148D01*
X126629962Y-83263149D01*
X126452771Y-83316899D01*
X126268500Y-83335048D01*
X126084228Y-83316899D01*
X125907037Y-83263149D01*
X125907034Y-83263148D01*
X125743741Y-83175866D01*
X125600604Y-83058396D01*
X125483134Y-82915259D01*
X125395852Y-82751965D01*
X125355824Y-82620010D01*
X125342101Y-82574771D01*
X125328632Y-82438013D01*
X125328500Y-82436677D01*
X125328500Y-80566323D01*
X125342102Y-80428230D01*
X125342102Y-80428228D01*
X125395852Y-80251037D01*
X125395853Y-80251034D01*
X125483135Y-80087741D01*
X125489480Y-80080010D01*
X125600605Y-79944604D01*
X125743738Y-79827137D01*
X125743739Y-79827136D01*
X125743742Y-79827134D01*
X125907035Y-79739852D01*
X125907038Y-79739851D01*
X126084229Y-79686101D01*
X126268500Y-79667952D01*
X126452772Y-79686101D01*
G37*
G36*
X98512772Y-79686101D02*
G01*
X98689963Y-79739851D01*
X98689966Y-79739852D01*
X98853259Y-79827134D01*
X98853262Y-79827136D01*
X98853263Y-79827137D01*
X98996396Y-79944604D01*
X99107522Y-80080010D01*
X99113866Y-80087741D01*
X99201148Y-80251034D01*
X99201149Y-80251037D01*
X99254899Y-80428228D01*
X99254899Y-80428230D01*
X99268500Y-80566322D01*
X99268500Y-82436678D01*
X99265463Y-82467509D01*
X99254899Y-82574772D01*
X99241176Y-82620010D01*
X99201148Y-82751966D01*
X99113866Y-82915259D01*
X98996396Y-83058396D01*
X98853259Y-83175866D01*
X98689965Y-83263148D01*
X98689962Y-83263149D01*
X98512771Y-83316899D01*
X98328500Y-83335048D01*
X98144228Y-83316899D01*
X97967037Y-83263149D01*
X97967034Y-83263148D01*
X97803741Y-83175866D01*
X97660604Y-83058396D01*
X97543134Y-82915259D01*
X97455852Y-82751965D01*
X97415824Y-82620010D01*
X97402101Y-82574771D01*
X97388632Y-82438013D01*
X97388500Y-82436677D01*
X97388500Y-80566323D01*
X97402102Y-80428230D01*
X97402102Y-80428228D01*
X97455852Y-80251037D01*
X97455853Y-80251034D01*
X97543135Y-80087741D01*
X97549480Y-80080010D01*
X97660605Y-79944604D01*
X97803738Y-79827137D01*
X97803739Y-79827136D01*
X97803742Y-79827134D01*
X97967035Y-79739852D01*
X97967038Y-79739851D01*
X98144229Y-79686101D01*
X98328500Y-79667952D01*
X98512772Y-79686101D01*
G37*
G36*
X113752772Y-79686101D02*
G01*
X113929963Y-79739851D01*
X113929966Y-79739852D01*
X114093259Y-79827134D01*
X114093262Y-79827136D01*
X114093263Y-79827137D01*
X114236396Y-79944604D01*
X114347522Y-80080010D01*
X114353866Y-80087741D01*
X114441148Y-80251034D01*
X114441149Y-80251037D01*
X114494899Y-80428228D01*
X114494899Y-80428230D01*
X114508500Y-80566322D01*
X114508500Y-82436678D01*
X114505463Y-82467509D01*
X114494899Y-82574772D01*
X114481176Y-82620010D01*
X114441148Y-82751966D01*
X114353866Y-82915259D01*
X114236396Y-83058396D01*
X114093259Y-83175866D01*
X113929965Y-83263148D01*
X113929962Y-83263149D01*
X113752771Y-83316899D01*
X113568500Y-83335048D01*
X113384228Y-83316899D01*
X113207037Y-83263149D01*
X113207034Y-83263148D01*
X113043741Y-83175866D01*
X112900604Y-83058396D01*
X112783134Y-82915259D01*
X112695852Y-82751965D01*
X112655824Y-82620010D01*
X112642101Y-82574771D01*
X112628632Y-82438013D01*
X112628500Y-82436677D01*
X112628500Y-80566323D01*
X112642102Y-80428230D01*
X112642102Y-80428228D01*
X112695852Y-80251037D01*
X112695853Y-80251034D01*
X112783135Y-80087741D01*
X112789480Y-80080010D01*
X112900605Y-79944604D01*
X113043738Y-79827137D01*
X113043739Y-79827136D01*
X113043742Y-79827134D01*
X113207035Y-79739852D01*
X113207038Y-79739851D01*
X113384229Y-79686101D01*
X113568500Y-79667952D01*
X113752772Y-79686101D01*
G37*
G36*
X111212772Y-79686101D02*
G01*
X111389963Y-79739851D01*
X111389966Y-79739852D01*
X111553259Y-79827134D01*
X111553262Y-79827136D01*
X111553263Y-79827137D01*
X111696396Y-79944604D01*
X111807522Y-80080010D01*
X111813866Y-80087741D01*
X111901148Y-80251034D01*
X111901149Y-80251037D01*
X111954899Y-80428228D01*
X111954899Y-80428230D01*
X111968500Y-80566322D01*
X111968500Y-82436678D01*
X111965463Y-82467509D01*
X111954899Y-82574772D01*
X111941176Y-82620010D01*
X111901148Y-82751966D01*
X111813866Y-82915259D01*
X111696396Y-83058396D01*
X111553259Y-83175866D01*
X111389965Y-83263148D01*
X111389962Y-83263149D01*
X111212771Y-83316899D01*
X111028500Y-83335048D01*
X110844228Y-83316899D01*
X110667037Y-83263149D01*
X110667034Y-83263148D01*
X110503741Y-83175866D01*
X110360604Y-83058396D01*
X110243134Y-82915259D01*
X110155852Y-82751965D01*
X110115824Y-82620010D01*
X110102101Y-82574771D01*
X110088632Y-82438013D01*
X110088500Y-82436677D01*
X110088500Y-80566323D01*
X110102102Y-80428230D01*
X110102102Y-80428228D01*
X110155852Y-80251037D01*
X110155853Y-80251034D01*
X110243135Y-80087741D01*
X110249480Y-80080010D01*
X110360605Y-79944604D01*
X110503738Y-79827137D01*
X110503739Y-79827136D01*
X110503742Y-79827134D01*
X110667035Y-79739852D01*
X110667038Y-79739851D01*
X110844229Y-79686101D01*
X111028500Y-79667952D01*
X111212772Y-79686101D01*
G37*
G36*
X106132772Y-79686101D02*
G01*
X106309963Y-79739851D01*
X106309966Y-79739852D01*
X106473259Y-79827134D01*
X106473262Y-79827136D01*
X106473263Y-79827137D01*
X106616396Y-79944604D01*
X106727522Y-80080010D01*
X106733866Y-80087741D01*
X106821148Y-80251034D01*
X106821149Y-80251037D01*
X106874899Y-80428228D01*
X106874899Y-80428230D01*
X106888500Y-80566322D01*
X106888500Y-82436678D01*
X106885463Y-82467509D01*
X106874899Y-82574772D01*
X106861176Y-82620010D01*
X106821148Y-82751966D01*
X106733866Y-82915259D01*
X106616396Y-83058396D01*
X106473259Y-83175866D01*
X106309965Y-83263148D01*
X106309962Y-83263149D01*
X106132771Y-83316899D01*
X105948500Y-83335048D01*
X105764228Y-83316899D01*
X105587037Y-83263149D01*
X105587034Y-83263148D01*
X105423741Y-83175866D01*
X105280604Y-83058396D01*
X105163134Y-82915259D01*
X105075852Y-82751965D01*
X105035824Y-82620010D01*
X105022101Y-82574771D01*
X105008632Y-82438013D01*
X105008500Y-82436677D01*
X105008500Y-80566323D01*
X105022102Y-80428230D01*
X105022102Y-80428228D01*
X105075852Y-80251037D01*
X105075853Y-80251034D01*
X105163135Y-80087741D01*
X105169480Y-80080010D01*
X105280605Y-79944604D01*
X105423738Y-79827137D01*
X105423739Y-79827136D01*
X105423742Y-79827134D01*
X105587035Y-79739852D01*
X105587038Y-79739851D01*
X105764229Y-79686101D01*
X105948500Y-79667952D01*
X106132772Y-79686101D01*
G37*
G36*
X128992772Y-79686101D02*
G01*
X129169963Y-79739851D01*
X129169966Y-79739852D01*
X129333259Y-79827134D01*
X129333262Y-79827136D01*
X129333263Y-79827137D01*
X129476396Y-79944604D01*
X129587522Y-80080010D01*
X129593866Y-80087741D01*
X129681148Y-80251034D01*
X129681149Y-80251037D01*
X129734899Y-80428228D01*
X129734899Y-80428230D01*
X129748500Y-80566322D01*
X129748500Y-82436678D01*
X129745463Y-82467509D01*
X129734899Y-82574772D01*
X129721176Y-82620010D01*
X129681148Y-82751966D01*
X129593866Y-82915259D01*
X129476396Y-83058396D01*
X129333259Y-83175866D01*
X129169965Y-83263148D01*
X129169962Y-83263149D01*
X128992771Y-83316899D01*
X128808500Y-83335048D01*
X128624228Y-83316899D01*
X128447037Y-83263149D01*
X128447034Y-83263148D01*
X128283741Y-83175866D01*
X128140604Y-83058396D01*
X128023134Y-82915259D01*
X127935852Y-82751965D01*
X127895824Y-82620010D01*
X127882101Y-82574771D01*
X127868632Y-82438013D01*
X127868500Y-82436677D01*
X127868500Y-80566323D01*
X127882102Y-80428230D01*
X127882102Y-80428228D01*
X127935852Y-80251037D01*
X127935853Y-80251034D01*
X128023135Y-80087741D01*
X128029480Y-80080010D01*
X128140605Y-79944604D01*
X128283738Y-79827137D01*
X128283739Y-79827136D01*
X128283742Y-79827134D01*
X128447035Y-79739852D01*
X128447038Y-79739851D01*
X128624229Y-79686101D01*
X128808500Y-79667952D01*
X128992772Y-79686101D01*
G37*
G36*
X123912772Y-79686101D02*
G01*
X124089963Y-79739851D01*
X124089966Y-79739852D01*
X124253259Y-79827134D01*
X124253262Y-79827136D01*
X124253263Y-79827137D01*
X124396396Y-79944604D01*
X124507522Y-80080010D01*
X124513866Y-80087741D01*
X124601148Y-80251034D01*
X124601149Y-80251037D01*
X124654899Y-80428228D01*
X124654899Y-80428230D01*
X124668500Y-80566322D01*
X124668500Y-82436678D01*
X124665463Y-82467509D01*
X124654899Y-82574772D01*
X124641176Y-82620010D01*
X124601148Y-82751966D01*
X124513866Y-82915259D01*
X124396396Y-83058396D01*
X124253259Y-83175866D01*
X124089965Y-83263148D01*
X124089962Y-83263149D01*
X123912771Y-83316899D01*
X123728500Y-83335048D01*
X123544228Y-83316899D01*
X123367037Y-83263149D01*
X123367034Y-83263148D01*
X123203741Y-83175866D01*
X123060604Y-83058396D01*
X122943134Y-82915259D01*
X122855852Y-82751965D01*
X122815824Y-82620010D01*
X122802101Y-82574771D01*
X122788632Y-82438013D01*
X122788500Y-82436677D01*
X122788500Y-80566323D01*
X122802102Y-80428230D01*
X122802102Y-80428228D01*
X122855852Y-80251037D01*
X122855853Y-80251034D01*
X122943135Y-80087741D01*
X122949480Y-80080010D01*
X123060605Y-79944604D01*
X123203738Y-79827137D01*
X123203739Y-79827136D01*
X123203742Y-79827134D01*
X123367035Y-79739852D01*
X123367038Y-79739851D01*
X123544229Y-79686101D01*
X123728500Y-79667952D01*
X123912772Y-79686101D01*
G37*
G36*
X116292772Y-79686101D02*
G01*
X116469963Y-79739851D01*
X116469966Y-79739852D01*
X116633259Y-79827134D01*
X116633262Y-79827136D01*
X116633263Y-79827137D01*
X116776396Y-79944604D01*
X116887522Y-80080010D01*
X116893866Y-80087741D01*
X116981148Y-80251034D01*
X116981149Y-80251037D01*
X117034899Y-80428228D01*
X117034899Y-80428230D01*
X117048500Y-80566322D01*
X117048500Y-82436678D01*
X117045463Y-82467509D01*
X117034899Y-82574772D01*
X117021176Y-82620010D01*
X116981148Y-82751966D01*
X116893866Y-82915259D01*
X116776396Y-83058396D01*
X116633259Y-83175866D01*
X116469965Y-83263148D01*
X116469962Y-83263149D01*
X116292771Y-83316899D01*
X116108500Y-83335048D01*
X115924228Y-83316899D01*
X115747037Y-83263149D01*
X115747034Y-83263148D01*
X115583741Y-83175866D01*
X115440604Y-83058396D01*
X115323134Y-82915259D01*
X115235852Y-82751965D01*
X115195824Y-82620010D01*
X115182101Y-82574771D01*
X115168632Y-82438013D01*
X115168500Y-82436677D01*
X115168500Y-80566323D01*
X115182102Y-80428230D01*
X115182102Y-80428228D01*
X115235852Y-80251037D01*
X115235853Y-80251034D01*
X115323135Y-80087741D01*
X115329480Y-80080010D01*
X115440605Y-79944604D01*
X115583738Y-79827137D01*
X115583739Y-79827136D01*
X115583742Y-79827134D01*
X115747035Y-79739852D01*
X115747038Y-79739851D01*
X115924229Y-79686101D01*
X116108500Y-79667952D01*
X116292772Y-79686101D01*
G37*
G36*
X213552690Y-79441305D02*
G01*
X213628941Y-79464436D01*
X213705189Y-79487565D01*
X213705191Y-79487566D01*
X213845730Y-79562686D01*
X213968917Y-79663783D01*
X214070014Y-79786970D01*
X214145134Y-79927509D01*
X214191395Y-80080010D01*
X214207014Y-80238600D01*
X214191395Y-80397190D01*
X214145134Y-80549691D01*
X214070014Y-80690230D01*
X213968917Y-80813417D01*
X213845730Y-80914514D01*
X213705191Y-80989634D01*
X213705189Y-80989635D01*
X213628941Y-81012764D01*
X213552690Y-81035895D01*
X213433843Y-81047600D01*
X211838357Y-81047600D01*
X211719510Y-81035895D01*
X211643259Y-81012764D01*
X211567011Y-80989635D01*
X211567009Y-80989634D01*
X211426470Y-80914514D01*
X211303283Y-80813417D01*
X211202186Y-80690230D01*
X211127066Y-80549691D01*
X211080805Y-80397190D01*
X211065186Y-80238600D01*
X211080805Y-80080010D01*
X211127066Y-79927509D01*
X211202186Y-79786970D01*
X211303283Y-79663783D01*
X211426470Y-79562686D01*
X211567009Y-79487566D01*
X211567011Y-79487565D01*
X211643259Y-79464436D01*
X211719510Y-79441305D01*
X211838357Y-79429600D01*
X213433843Y-79429600D01*
X213552690Y-79441305D01*
G37*
G36*
X140868228Y-75581703D02*
G01*
X141023100Y-75645853D01*
X141162481Y-75738985D01*
X141281015Y-75857519D01*
X141374147Y-75996900D01*
X141438297Y-76151772D01*
X141471000Y-76316184D01*
X141471000Y-76483816D01*
X141438297Y-76648228D01*
X141374147Y-76803100D01*
X141281015Y-76942481D01*
X141162481Y-77061015D01*
X141023100Y-77154147D01*
X140868228Y-77218297D01*
X140703816Y-77251000D01*
X140536184Y-77251000D01*
X140371772Y-77218297D01*
X140216900Y-77154147D01*
X140077519Y-77061015D01*
X139958985Y-76942481D01*
X139865853Y-76803100D01*
X139801703Y-76648228D01*
X139769000Y-76483816D01*
X139769000Y-76316184D01*
X139801703Y-76151772D01*
X139865853Y-75996900D01*
X139958985Y-75857519D01*
X140077519Y-75738985D01*
X140216900Y-75645853D01*
X140371772Y-75581703D01*
X140536184Y-75549000D01*
X140703816Y-75549000D01*
X140868228Y-75581703D01*
G37*
G36*
X133248228Y-75581703D02*
G01*
X133403100Y-75645853D01*
X133542481Y-75738985D01*
X133661015Y-75857519D01*
X133754147Y-75996900D01*
X133818297Y-76151772D01*
X133851000Y-76316184D01*
X133851000Y-76483816D01*
X133818297Y-76648228D01*
X133754147Y-76803100D01*
X133661015Y-76942481D01*
X133542481Y-77061015D01*
X133403100Y-77154147D01*
X133248228Y-77218297D01*
X133083816Y-77251000D01*
X132916184Y-77251000D01*
X132751772Y-77218297D01*
X132596900Y-77154147D01*
X132457519Y-77061015D01*
X132338985Y-76942481D01*
X132245853Y-76803100D01*
X132181703Y-76648228D01*
X132149000Y-76483816D01*
X132149000Y-76316184D01*
X132181703Y-76151772D01*
X132245853Y-75996900D01*
X132338985Y-75857519D01*
X132457519Y-75738985D01*
X132596900Y-75645853D01*
X132751772Y-75581703D01*
X132916184Y-75549000D01*
X133083816Y-75549000D01*
X133248228Y-75581703D01*
G37*
G36*
X116568228Y-74181703D02*
G01*
X116723100Y-74245853D01*
X116862481Y-74338985D01*
X116981015Y-74457519D01*
X117074147Y-74596900D01*
X117138297Y-74751772D01*
X117171000Y-74916184D01*
X117171000Y-75083816D01*
X117138297Y-75248228D01*
X117074147Y-75403100D01*
X116981015Y-75542481D01*
X116862481Y-75661015D01*
X116723100Y-75754147D01*
X116568228Y-75818297D01*
X116403816Y-75851000D01*
X116236184Y-75851000D01*
X116071772Y-75818297D01*
X115916900Y-75754147D01*
X115777519Y-75661015D01*
X115658985Y-75542481D01*
X115565853Y-75403100D01*
X115501703Y-75248228D01*
X115469000Y-75083816D01*
X115469000Y-74916184D01*
X115501703Y-74751772D01*
X115565853Y-74596900D01*
X115658985Y-74457519D01*
X115777519Y-74338985D01*
X115916900Y-74245853D01*
X116071772Y-74181703D01*
X116236184Y-74149000D01*
X116403816Y-74149000D01*
X116568228Y-74181703D01*
G37*
G36*
X108948228Y-74181703D02*
G01*
X109103100Y-74245853D01*
X109242481Y-74338985D01*
X109361015Y-74457519D01*
X109454147Y-74596900D01*
X109518297Y-74751772D01*
X109551000Y-74916184D01*
X109551000Y-75083816D01*
X109518297Y-75248228D01*
X109454147Y-75403100D01*
X109361015Y-75542481D01*
X109242481Y-75661015D01*
X109103100Y-75754147D01*
X108948228Y-75818297D01*
X108783816Y-75851000D01*
X108616184Y-75851000D01*
X108451772Y-75818297D01*
X108296900Y-75754147D01*
X108157519Y-75661015D01*
X108038985Y-75542481D01*
X107945853Y-75403100D01*
X107881703Y-75248228D01*
X107849000Y-75083816D01*
X107849000Y-74916184D01*
X107881703Y-74751772D01*
X107945853Y-74596900D01*
X108038985Y-74457519D01*
X108157519Y-74338985D01*
X108296900Y-74245853D01*
X108451772Y-74181703D01*
X108616184Y-74149000D01*
X108783816Y-74149000D01*
X108948228Y-74181703D01*
G37*
G36*
X101148228Y-74181703D02*
G01*
X101303100Y-74245853D01*
X101442481Y-74338985D01*
X101561015Y-74457519D01*
X101654147Y-74596900D01*
X101718297Y-74751772D01*
X101751000Y-74916184D01*
X101751000Y-75083816D01*
X101718297Y-75248228D01*
X101654147Y-75403100D01*
X101561015Y-75542481D01*
X101442481Y-75661015D01*
X101303100Y-75754147D01*
X101148228Y-75818297D01*
X100983816Y-75851000D01*
X100816184Y-75851000D01*
X100651772Y-75818297D01*
X100496900Y-75754147D01*
X100357519Y-75661015D01*
X100238985Y-75542481D01*
X100145853Y-75403100D01*
X100081703Y-75248228D01*
X100049000Y-75083816D01*
X100049000Y-74916184D01*
X100081703Y-74751772D01*
X100145853Y-74596900D01*
X100238985Y-74457519D01*
X100357519Y-74338985D01*
X100496900Y-74245853D01*
X100651772Y-74181703D01*
X100816184Y-74149000D01*
X100983816Y-74149000D01*
X101148228Y-74181703D01*
G37*
G36*
X96148228Y-74181703D02*
G01*
X96303100Y-74245853D01*
X96442481Y-74338985D01*
X96561015Y-74457519D01*
X96654147Y-74596900D01*
X96718297Y-74751772D01*
X96751000Y-74916184D01*
X96751000Y-75083816D01*
X96718297Y-75248228D01*
X96654147Y-75403100D01*
X96561015Y-75542481D01*
X96442481Y-75661015D01*
X96303100Y-75754147D01*
X96148228Y-75818297D01*
X95983816Y-75851000D01*
X95816184Y-75851000D01*
X95651772Y-75818297D01*
X95496900Y-75754147D01*
X95357519Y-75661015D01*
X95238985Y-75542481D01*
X95145853Y-75403100D01*
X95081703Y-75248228D01*
X95049000Y-75083816D01*
X95049000Y-74916184D01*
X95081703Y-74751772D01*
X95145853Y-74596900D01*
X95238985Y-74457519D01*
X95357519Y-74338985D01*
X95496900Y-74245853D01*
X95651772Y-74181703D01*
X95816184Y-74149000D01*
X95983816Y-74149000D01*
X96148228Y-74181703D01*
G37*
G36*
X195242947Y-72484205D02*
G01*
X195352555Y-72506007D01*
X195662299Y-72634307D01*
X195941062Y-72820570D01*
X196178130Y-73057638D01*
X196364393Y-73336401D01*
X196492693Y-73646145D01*
X196514495Y-73755753D01*
X196549935Y-73933916D01*
X196558100Y-73974968D01*
X196558100Y-74310232D01*
X196492693Y-74639055D01*
X196364393Y-74948799D01*
X196178130Y-75227562D01*
X195941062Y-75464630D01*
X195662299Y-75650893D01*
X195352555Y-75779193D01*
X195242947Y-75800995D01*
X195023734Y-75844600D01*
X194688466Y-75844600D01*
X194469253Y-75800995D01*
X194359645Y-75779193D01*
X194049901Y-75650893D01*
X193771138Y-75464630D01*
X193534070Y-75227562D01*
X193347807Y-74948799D01*
X193219507Y-74639055D01*
X193154100Y-74310232D01*
X193154100Y-73974968D01*
X193162266Y-73933916D01*
X193197705Y-73755753D01*
X193219507Y-73646145D01*
X193347807Y-73336401D01*
X193534070Y-73057638D01*
X193771138Y-72820570D01*
X194049901Y-72634307D01*
X194359645Y-72506007D01*
X194469253Y-72484205D01*
X194688466Y-72440600D01*
X195023734Y-72440600D01*
X195242947Y-72484205D01*
G37*
G36*
X174218590Y-71044705D02*
G01*
X174294840Y-71067835D01*
X174371089Y-71090965D01*
X174371091Y-71090966D01*
X174511630Y-71166086D01*
X174634817Y-71267183D01*
X174735914Y-71390370D01*
X174811034Y-71530909D01*
X174857295Y-71683410D01*
X174869000Y-71802257D01*
X174869000Y-73397743D01*
X174857295Y-73516590D01*
X174857294Y-73516592D01*
X174817995Y-73646146D01*
X174811034Y-73669091D01*
X174735914Y-73809630D01*
X174715983Y-73833916D01*
X174634817Y-73932817D01*
X174541945Y-74009034D01*
X174511626Y-74033916D01*
X174371090Y-74109034D01*
X174371088Y-74109035D01*
X174294840Y-74132164D01*
X174218589Y-74155295D01*
X174060000Y-74170914D01*
X173901410Y-74155295D01*
X173825159Y-74132164D01*
X173748911Y-74109035D01*
X173677592Y-74070914D01*
X173608370Y-74033914D01*
X173536542Y-73974966D01*
X173485183Y-73932817D01*
X173384087Y-73809630D01*
X173384086Y-73809629D01*
X173384084Y-73809626D01*
X173308966Y-73669090D01*
X173302006Y-73646145D01*
X173285835Y-73592839D01*
X173262705Y-73516589D01*
X173251000Y-73397742D01*
X173251001Y-71802257D01*
X173262706Y-71683410D01*
X173308967Y-71530909D01*
X173384087Y-71390370D01*
X173485184Y-71267183D01*
X173608371Y-71166086D01*
X173748910Y-71090966D01*
X173748912Y-71090965D01*
X173825161Y-71067835D01*
X173901411Y-71044705D01*
X174060000Y-71029086D01*
X174218590Y-71044705D01*
G37*
G36*
X176758590Y-71044705D02*
G01*
X176834840Y-71067835D01*
X176911089Y-71090965D01*
X176911091Y-71090966D01*
X177051630Y-71166086D01*
X177174817Y-71267183D01*
X177275914Y-71390370D01*
X177351034Y-71530909D01*
X177397295Y-71683410D01*
X177409000Y-71802257D01*
X177409000Y-73397743D01*
X177397295Y-73516590D01*
X177397294Y-73516592D01*
X177357995Y-73646146D01*
X177351034Y-73669091D01*
X177275914Y-73809630D01*
X177255983Y-73833916D01*
X177174817Y-73932817D01*
X177081945Y-74009034D01*
X177051626Y-74033916D01*
X176911090Y-74109034D01*
X176911088Y-74109035D01*
X176834840Y-74132164D01*
X176758589Y-74155295D01*
X176600000Y-74170914D01*
X176441410Y-74155295D01*
X176365159Y-74132164D01*
X176288911Y-74109035D01*
X176217592Y-74070914D01*
X176148370Y-74033914D01*
X176076542Y-73974966D01*
X176025183Y-73932817D01*
X175924087Y-73809630D01*
X175924086Y-73809629D01*
X175924084Y-73809626D01*
X175848966Y-73669090D01*
X175842006Y-73646145D01*
X175825835Y-73592839D01*
X175802705Y-73516589D01*
X175791000Y-73397742D01*
X175791001Y-71802257D01*
X175802706Y-71683410D01*
X175848967Y-71530909D01*
X175924087Y-71390370D01*
X176025184Y-71267183D01*
X176148371Y-71166086D01*
X176288910Y-71090966D01*
X176288912Y-71090965D01*
X176365161Y-71067835D01*
X176441411Y-71044705D01*
X176600000Y-71029086D01*
X176758590Y-71044705D01*
G37*
G36*
X179298590Y-71044705D02*
G01*
X179374840Y-71067835D01*
X179451089Y-71090965D01*
X179451091Y-71090966D01*
X179591630Y-71166086D01*
X179714817Y-71267183D01*
X179815914Y-71390370D01*
X179891034Y-71530909D01*
X179937295Y-71683410D01*
X179949000Y-71802257D01*
X179949000Y-73397743D01*
X179937295Y-73516590D01*
X179937294Y-73516592D01*
X179897995Y-73646146D01*
X179891034Y-73669091D01*
X179815914Y-73809630D01*
X179795983Y-73833916D01*
X179714817Y-73932817D01*
X179621945Y-74009034D01*
X179591626Y-74033916D01*
X179451090Y-74109034D01*
X179451088Y-74109035D01*
X179374840Y-74132164D01*
X179298589Y-74155295D01*
X179140000Y-74170914D01*
X178981410Y-74155295D01*
X178905159Y-74132164D01*
X178828911Y-74109035D01*
X178757592Y-74070914D01*
X178688370Y-74033914D01*
X178616542Y-73974966D01*
X178565183Y-73932817D01*
X178464087Y-73809630D01*
X178464086Y-73809629D01*
X178464084Y-73809626D01*
X178388966Y-73669090D01*
X178382006Y-73646145D01*
X178365835Y-73592839D01*
X178342705Y-73516589D01*
X178331000Y-73397742D01*
X178331001Y-71802257D01*
X178342706Y-71683410D01*
X178388967Y-71530909D01*
X178464087Y-71390370D01*
X178565184Y-71267183D01*
X178688371Y-71166086D01*
X178828910Y-71090966D01*
X178828912Y-71090965D01*
X178905161Y-71067835D01*
X178981411Y-71044705D01*
X179140000Y-71029086D01*
X179298590Y-71044705D01*
G37*
G36*
X140788590Y-70944705D02*
G01*
X140864840Y-70967835D01*
X140941089Y-70990965D01*
X140941091Y-70990966D01*
X141081630Y-71066086D01*
X141204817Y-71167183D01*
X141305914Y-71290370D01*
X141359365Y-71390369D01*
X141381035Y-71430911D01*
X141392113Y-71467431D01*
X141427295Y-71583410D01*
X141439000Y-71702257D01*
X141439000Y-73297743D01*
X141427295Y-73416590D01*
X141427294Y-73416592D01*
X141396961Y-73516589D01*
X141381034Y-73569091D01*
X141327583Y-73669091D01*
X141305913Y-73709631D01*
X141204817Y-73832817D01*
X141111945Y-73909034D01*
X141081626Y-73933916D01*
X140941090Y-74009034D01*
X140941088Y-74009035D01*
X140864839Y-74032165D01*
X140788589Y-74055295D01*
X140630000Y-74070914D01*
X140471410Y-74055295D01*
X140395160Y-74032165D01*
X140318911Y-74009035D01*
X140318909Y-74009034D01*
X140178370Y-73933914D01*
X140143928Y-73905648D01*
X140055183Y-73832817D01*
X139954087Y-73709630D01*
X139954086Y-73709629D01*
X139954084Y-73709626D01*
X139878966Y-73569090D01*
X139832705Y-73416589D01*
X139821000Y-73297742D01*
X139821001Y-71702257D01*
X139832706Y-71583410D01*
X139867888Y-71467431D01*
X139878966Y-71430911D01*
X139900636Y-71390369D01*
X139954087Y-71290370D01*
X140055184Y-71167183D01*
X140178371Y-71066086D01*
X140318910Y-70990966D01*
X140318912Y-70990965D01*
X140395161Y-70967835D01*
X140471411Y-70944705D01*
X140630000Y-70929086D01*
X140788590Y-70944705D01*
G37*
G36*
X145868590Y-70944705D02*
G01*
X145944840Y-70967835D01*
X146021089Y-70990965D01*
X146021091Y-70990966D01*
X146161630Y-71066086D01*
X146284817Y-71167183D01*
X146385914Y-71290370D01*
X146439365Y-71390369D01*
X146461035Y-71430911D01*
X146472113Y-71467431D01*
X146507295Y-71583410D01*
X146519000Y-71702257D01*
X146519000Y-73297743D01*
X146507295Y-73416590D01*
X146507294Y-73416592D01*
X146476961Y-73516589D01*
X146461034Y-73569091D01*
X146407583Y-73669091D01*
X146385913Y-73709631D01*
X146284817Y-73832817D01*
X146191945Y-73909034D01*
X146161626Y-73933916D01*
X146021090Y-74009034D01*
X146021088Y-74009035D01*
X145944839Y-74032165D01*
X145868589Y-74055295D01*
X145710000Y-74070914D01*
X145551410Y-74055295D01*
X145475160Y-74032165D01*
X145398911Y-74009035D01*
X145398909Y-74009034D01*
X145258370Y-73933914D01*
X145223928Y-73905648D01*
X145135183Y-73832817D01*
X145034087Y-73709630D01*
X145034086Y-73709629D01*
X145034084Y-73709626D01*
X144958966Y-73569090D01*
X144912705Y-73416589D01*
X144901000Y-73297742D01*
X144901001Y-71702257D01*
X144912706Y-71583410D01*
X144947888Y-71467431D01*
X144958966Y-71430911D01*
X144980636Y-71390369D01*
X145034087Y-71290370D01*
X145135184Y-71167183D01*
X145258371Y-71066086D01*
X145398910Y-70990966D01*
X145398912Y-70990965D01*
X145475161Y-70967835D01*
X145551411Y-70944705D01*
X145710000Y-70929086D01*
X145868590Y-70944705D01*
G37*
G36*
X143328590Y-70944705D02*
G01*
X143404840Y-70967835D01*
X143481089Y-70990965D01*
X143481091Y-70990966D01*
X143621630Y-71066086D01*
X143744817Y-71167183D01*
X143845914Y-71290370D01*
X143899365Y-71390369D01*
X143921035Y-71430911D01*
X143932113Y-71467431D01*
X143967295Y-71583410D01*
X143979000Y-71702257D01*
X143979000Y-73297743D01*
X143967295Y-73416590D01*
X143967294Y-73416592D01*
X143936961Y-73516589D01*
X143921034Y-73569091D01*
X143867583Y-73669091D01*
X143845913Y-73709631D01*
X143744817Y-73832817D01*
X143651945Y-73909034D01*
X143621626Y-73933916D01*
X143481090Y-74009034D01*
X143481088Y-74009035D01*
X143404839Y-74032165D01*
X143328589Y-74055295D01*
X143170000Y-74070914D01*
X143011410Y-74055295D01*
X142935160Y-74032165D01*
X142858911Y-74009035D01*
X142858909Y-74009034D01*
X142718370Y-73933914D01*
X142683928Y-73905648D01*
X142595183Y-73832817D01*
X142494087Y-73709630D01*
X142494086Y-73709629D01*
X142494084Y-73709626D01*
X142418966Y-73569090D01*
X142372705Y-73416589D01*
X142361000Y-73297742D01*
X142361001Y-71702257D01*
X142372706Y-71583410D01*
X142407888Y-71467431D01*
X142418966Y-71430911D01*
X142440636Y-71390369D01*
X142494087Y-71290370D01*
X142595184Y-71167183D01*
X142718371Y-71066086D01*
X142858910Y-70990966D01*
X142858912Y-70990965D01*
X142935161Y-70967835D01*
X143011411Y-70944705D01*
X143170000Y-70929086D01*
X143328590Y-70944705D01*
G37*
G36*
X138248590Y-70944705D02*
G01*
X138324840Y-70967835D01*
X138401089Y-70990965D01*
X138401091Y-70990966D01*
X138541630Y-71066086D01*
X138664817Y-71167183D01*
X138765914Y-71290370D01*
X138819365Y-71390369D01*
X138841035Y-71430911D01*
X138852113Y-71467431D01*
X138887295Y-71583410D01*
X138899000Y-71702257D01*
X138899000Y-73297743D01*
X138887295Y-73416590D01*
X138887294Y-73416592D01*
X138856961Y-73516589D01*
X138841034Y-73569091D01*
X138787583Y-73669091D01*
X138765913Y-73709631D01*
X138664817Y-73832817D01*
X138571945Y-73909034D01*
X138541626Y-73933916D01*
X138401090Y-74009034D01*
X138401088Y-74009035D01*
X138324839Y-74032165D01*
X138248589Y-74055295D01*
X138090000Y-74070914D01*
X137931410Y-74055295D01*
X137855160Y-74032165D01*
X137778911Y-74009035D01*
X137778909Y-74009034D01*
X137638370Y-73933914D01*
X137603928Y-73905648D01*
X137515183Y-73832817D01*
X137414087Y-73709630D01*
X137414086Y-73709629D01*
X137414084Y-73709626D01*
X137338966Y-73569090D01*
X137292705Y-73416589D01*
X137281000Y-73297742D01*
X137281001Y-71702257D01*
X137292706Y-71583410D01*
X137327888Y-71467431D01*
X137338966Y-71430911D01*
X137360636Y-71390369D01*
X137414087Y-71290370D01*
X137515184Y-71167183D01*
X137638371Y-71066086D01*
X137778910Y-70990966D01*
X137778912Y-70990965D01*
X137855161Y-70967835D01*
X137931411Y-70944705D01*
X138090000Y-70929086D01*
X138248590Y-70944705D01*
G37*
G36*
X164168590Y-70844705D02*
G01*
X164209368Y-70857075D01*
X164321089Y-70890965D01*
X164321091Y-70890966D01*
X164461630Y-70966086D01*
X164584817Y-71067183D01*
X164685914Y-71190370D01*
X164739365Y-71290369D01*
X164761035Y-71330911D01*
X164784164Y-71407159D01*
X164807295Y-71483410D01*
X164819000Y-71602257D01*
X164819000Y-73197743D01*
X164807295Y-73316590D01*
X164807294Y-73316592D01*
X164776961Y-73416589D01*
X164761034Y-73469091D01*
X164707583Y-73569091D01*
X164685913Y-73609631D01*
X164584817Y-73732817D01*
X164462969Y-73832814D01*
X164461626Y-73833916D01*
X164321090Y-73909034D01*
X164321088Y-73909035D01*
X164244839Y-73932165D01*
X164168589Y-73955295D01*
X164010000Y-73970914D01*
X163851410Y-73955295D01*
X163775160Y-73932165D01*
X163698911Y-73909035D01*
X163698909Y-73909034D01*
X163558370Y-73833914D01*
X163523928Y-73805648D01*
X163435183Y-73732817D01*
X163334087Y-73609630D01*
X163334086Y-73609629D01*
X163334084Y-73609626D01*
X163258966Y-73469090D01*
X163212705Y-73316589D01*
X163201000Y-73197742D01*
X163201001Y-71602257D01*
X163212706Y-71483410D01*
X163235837Y-71407159D01*
X163258966Y-71330911D01*
X163280636Y-71290369D01*
X163334087Y-71190370D01*
X163435184Y-71067183D01*
X163558371Y-70966086D01*
X163698910Y-70890966D01*
X163698912Y-70890965D01*
X163810633Y-70857075D01*
X163851411Y-70844705D01*
X164010000Y-70829086D01*
X164168590Y-70844705D01*
G37*
G36*
X156548590Y-70844705D02*
G01*
X156589368Y-70857075D01*
X156701089Y-70890965D01*
X156701091Y-70890966D01*
X156841630Y-70966086D01*
X156964817Y-71067183D01*
X157065914Y-71190370D01*
X157119365Y-71290369D01*
X157141035Y-71330911D01*
X157164164Y-71407159D01*
X157187295Y-71483410D01*
X157199000Y-71602257D01*
X157199000Y-73197743D01*
X157187295Y-73316590D01*
X157187294Y-73316592D01*
X157156961Y-73416589D01*
X157141034Y-73469091D01*
X157087583Y-73569091D01*
X157065913Y-73609631D01*
X156964817Y-73732817D01*
X156842969Y-73832814D01*
X156841626Y-73833916D01*
X156701090Y-73909034D01*
X156701088Y-73909035D01*
X156624839Y-73932165D01*
X156548589Y-73955295D01*
X156390000Y-73970914D01*
X156231410Y-73955295D01*
X156155160Y-73932165D01*
X156078911Y-73909035D01*
X156078909Y-73909034D01*
X155938370Y-73833914D01*
X155903928Y-73805648D01*
X155815183Y-73732817D01*
X155714087Y-73609630D01*
X155714086Y-73609629D01*
X155714084Y-73609626D01*
X155638966Y-73469090D01*
X155592705Y-73316589D01*
X155581000Y-73197742D01*
X155581001Y-71602257D01*
X155592706Y-71483410D01*
X155615837Y-71407159D01*
X155638966Y-71330911D01*
X155660636Y-71290369D01*
X155714087Y-71190370D01*
X155815184Y-71067183D01*
X155938371Y-70966086D01*
X156078910Y-70890966D01*
X156078912Y-70890965D01*
X156190633Y-70857075D01*
X156231411Y-70844705D01*
X156390000Y-70829086D01*
X156548590Y-70844705D01*
G37*
G36*
X161628590Y-70844705D02*
G01*
X161669368Y-70857075D01*
X161781089Y-70890965D01*
X161781091Y-70890966D01*
X161921630Y-70966086D01*
X162044817Y-71067183D01*
X162145914Y-71190370D01*
X162199365Y-71290369D01*
X162221035Y-71330911D01*
X162244164Y-71407159D01*
X162267295Y-71483410D01*
X162279000Y-71602257D01*
X162279000Y-73197743D01*
X162267295Y-73316590D01*
X162267294Y-73316592D01*
X162236961Y-73416589D01*
X162221034Y-73469091D01*
X162167583Y-73569091D01*
X162145913Y-73609631D01*
X162044817Y-73732817D01*
X161922969Y-73832814D01*
X161921626Y-73833916D01*
X161781090Y-73909034D01*
X161781088Y-73909035D01*
X161704839Y-73932165D01*
X161628589Y-73955295D01*
X161470000Y-73970914D01*
X161311410Y-73955295D01*
X161235160Y-73932165D01*
X161158911Y-73909035D01*
X161158909Y-73909034D01*
X161018370Y-73833914D01*
X160983928Y-73805648D01*
X160895183Y-73732817D01*
X160794087Y-73609630D01*
X160794086Y-73609629D01*
X160794084Y-73609626D01*
X160718966Y-73469090D01*
X160672705Y-73316589D01*
X160661000Y-73197742D01*
X160661001Y-71602257D01*
X160672706Y-71483410D01*
X160695837Y-71407159D01*
X160718966Y-71330911D01*
X160740636Y-71290369D01*
X160794087Y-71190370D01*
X160895184Y-71067183D01*
X161018371Y-70966086D01*
X161158910Y-70890966D01*
X161158912Y-70890965D01*
X161270633Y-70857075D01*
X161311411Y-70844705D01*
X161470000Y-70829086D01*
X161628590Y-70844705D01*
G37*
G36*
X159088590Y-70844705D02*
G01*
X159129368Y-70857075D01*
X159241089Y-70890965D01*
X159241091Y-70890966D01*
X159381630Y-70966086D01*
X159504817Y-71067183D01*
X159605914Y-71190370D01*
X159659365Y-71290369D01*
X159681035Y-71330911D01*
X159704164Y-71407159D01*
X159727295Y-71483410D01*
X159739000Y-71602257D01*
X159739000Y-73197743D01*
X159727295Y-73316590D01*
X159727294Y-73316592D01*
X159696961Y-73416589D01*
X159681034Y-73469091D01*
X159627583Y-73569091D01*
X159605913Y-73609631D01*
X159504817Y-73732817D01*
X159382969Y-73832814D01*
X159381626Y-73833916D01*
X159241090Y-73909034D01*
X159241088Y-73909035D01*
X159164839Y-73932165D01*
X159088589Y-73955295D01*
X158930000Y-73970914D01*
X158771410Y-73955295D01*
X158695160Y-73932165D01*
X158618911Y-73909035D01*
X158618909Y-73909034D01*
X158478370Y-73833914D01*
X158443928Y-73805648D01*
X158355183Y-73732817D01*
X158254087Y-73609630D01*
X158254086Y-73609629D01*
X158254084Y-73609626D01*
X158178966Y-73469090D01*
X158132705Y-73316589D01*
X158121000Y-73197742D01*
X158121001Y-71602257D01*
X158132706Y-71483410D01*
X158155837Y-71407159D01*
X158178966Y-71330911D01*
X158200636Y-71290369D01*
X158254087Y-71190370D01*
X158355184Y-71067183D01*
X158478371Y-70966086D01*
X158618910Y-70890966D01*
X158618912Y-70890965D01*
X158730633Y-70857075D01*
X158771411Y-70844705D01*
X158930000Y-70829086D01*
X159088590Y-70844705D01*
G37*
G36*
X206764903Y-70857075D02*
G01*
X206976464Y-70944706D01*
X206992571Y-70951378D01*
X207197466Y-71088285D01*
X207371715Y-71262534D01*
X207484220Y-71430909D01*
X207508623Y-71467431D01*
X207564471Y-71602261D01*
X207602925Y-71695097D01*
X207651000Y-71936787D01*
X207651000Y-72183213D01*
X207602925Y-72424903D01*
X207508622Y-72652571D01*
X207371715Y-72857466D01*
X207197466Y-73031715D01*
X206992571Y-73168622D01*
X206992570Y-73168623D01*
X206992569Y-73168623D01*
X206764903Y-73262925D01*
X206523214Y-73311000D01*
X206276786Y-73311000D01*
X206035097Y-73262925D01*
X205807431Y-73168623D01*
X205807430Y-73168623D01*
X205807429Y-73168622D01*
X205602534Y-73031715D01*
X205428285Y-72857466D01*
X205291378Y-72652571D01*
X205197075Y-72424903D01*
X205149000Y-72183213D01*
X205149000Y-71936787D01*
X205197075Y-71695097D01*
X205235529Y-71602261D01*
X205291377Y-71467431D01*
X205315780Y-71430909D01*
X205428285Y-71262534D01*
X205602534Y-71088285D01*
X205807429Y-70951378D01*
X205823537Y-70944706D01*
X206035097Y-70857075D01*
X206276786Y-70809000D01*
X206523214Y-70809000D01*
X206764903Y-70857075D01*
G37*
G36*
X83457213Y-69533167D02*
G01*
X83636017Y-69568733D01*
X83775548Y-69626529D01*
X83972876Y-69708264D01*
X84276043Y-69910834D01*
X84533866Y-70168657D01*
X84736436Y-70471824D01*
X84818171Y-70669152D01*
X84875967Y-70808683D01*
X84903024Y-70944706D01*
X84947100Y-71166291D01*
X84947100Y-71530909D01*
X84875967Y-71888516D01*
X84736436Y-72225376D01*
X84533866Y-72528543D01*
X84276043Y-72786366D01*
X83972876Y-72988936D01*
X83807011Y-73057639D01*
X83636017Y-73128467D01*
X83457213Y-73164033D01*
X83278409Y-73199600D01*
X82913791Y-73199600D01*
X82734987Y-73164033D01*
X82556183Y-73128467D01*
X82385189Y-73057639D01*
X82219324Y-72988936D01*
X81916157Y-72786366D01*
X81658334Y-72528543D01*
X81455764Y-72225376D01*
X81316233Y-71888516D01*
X81245100Y-71530909D01*
X81245100Y-71166291D01*
X81289176Y-70944706D01*
X81316233Y-70808683D01*
X81374029Y-70669152D01*
X81455764Y-70471824D01*
X81658334Y-70168657D01*
X81916157Y-69910834D01*
X82219324Y-69708264D01*
X82416652Y-69626529D01*
X82556183Y-69568733D01*
X82734987Y-69533167D01*
X82913791Y-69497600D01*
X83278409Y-69497600D01*
X83457213Y-69533167D01*
G37*
G36*
X214267213Y-69533167D02*
G01*
X214446017Y-69568733D01*
X214585548Y-69626529D01*
X214782876Y-69708264D01*
X215086043Y-69910834D01*
X215343866Y-70168657D01*
X215546436Y-70471824D01*
X215628171Y-70669152D01*
X215685967Y-70808683D01*
X215713024Y-70944706D01*
X215757100Y-71166291D01*
X215757100Y-71530909D01*
X215685967Y-71888516D01*
X215546436Y-72225376D01*
X215343866Y-72528543D01*
X215086043Y-72786366D01*
X214782876Y-72988936D01*
X214617011Y-73057639D01*
X214446017Y-73128467D01*
X214267213Y-73164033D01*
X214088409Y-73199600D01*
X213723791Y-73199600D01*
X213544987Y-73164033D01*
X213366183Y-73128467D01*
X213195189Y-73057639D01*
X213029324Y-72988936D01*
X212726157Y-72786366D01*
X212468334Y-72528543D01*
X212265764Y-72225376D01*
X212126233Y-71888516D01*
X212055100Y-71530909D01*
X212055100Y-71166291D01*
X212099176Y-70944706D01*
X212126233Y-70808683D01*
X212184029Y-70669152D01*
X212265764Y-70471824D01*
X212468334Y-70168657D01*
X212726157Y-69910834D01*
X213029324Y-69708264D01*
X213226652Y-69626529D01*
X213366183Y-69568733D01*
X213544987Y-69533167D01*
X213723791Y-69497600D01*
X214088409Y-69497600D01*
X214267213Y-69533167D01*
G37*
M02*
