G04 #@! TF.GenerationSoftware,KiCad,Pcbnew,5.1.5-52549c5~84~ubuntu18.04.1*
G04 #@! TF.CreationDate,2020-03-20T23:57:41+01:00*
G04 #@! TF.ProjectId,REES,52454553-2e6b-4696-9361-645f70636258,rev?*
G04 #@! TF.SameCoordinates,Original*
G04 #@! TF.FileFunction,Copper,L1,Top*
G04 #@! TF.FilePolarity,Positive*
%FSLAX46Y46*%
G04 Gerber Fmt 4.6, Leading zero omitted, Abs format (unit mm)*
G04 Created by KiCad (PCBNEW 5.1.5-52549c5~84~ubuntu18.04.1) date 2020-03-20 23:57:41*
%MOMM*%
%LPD*%
G04 APERTURE LIST*
%ADD10C,2.667000*%
%ADD11C,1.665000*%
%ADD12R,1.665000X1.665000*%
%ADD13O,1.312800X2.625600*%
%ADD14C,1.168400*%
%ADD15O,1.516000X3.032000*%
%ADD16O,3.032000X1.516000*%
%ADD17R,2.400000X2.400000*%
%ADD18C,1.500000*%
%ADD19C,1.109600*%
%ADD20C,1.300000*%
%ADD21O,1.617600X3.235200*%
%ADD22C,3.810000*%
%ADD23O,1.778000X3.556000*%
%ADD24C,2.400000*%
%ADD25O,2.400000X2.400000*%
%ADD26C,1.600000*%
%ADD27O,1.600000X1.600000*%
%ADD28C,0.812800*%
%ADD29C,0.406400*%
G04 APERTURE END LIST*
D10*
X156756100Y-101828600D03*
X116116100Y-101828600D03*
X116116100Y-117068600D03*
X156756100Y-117068600D03*
D11*
X118656100Y-101828600D03*
X121196100Y-101828600D03*
X123736100Y-101828600D03*
X126276100Y-101828600D03*
X128816100Y-101828600D03*
X131356100Y-101828600D03*
X133896100Y-101828600D03*
X136436100Y-101828600D03*
X138976100Y-101828600D03*
X141516100Y-101828600D03*
X144056100Y-101828600D03*
X146596100Y-101828600D03*
X149136100Y-101828600D03*
X151676100Y-101828600D03*
X154216100Y-101828600D03*
X118656100Y-117068600D03*
X121196100Y-117068600D03*
X123736100Y-117068600D03*
X126276100Y-117068600D03*
X128816100Y-117068600D03*
X131356100Y-117068600D03*
X133896100Y-117068600D03*
X136436100Y-117068600D03*
X138976100Y-117068600D03*
X141516100Y-117068600D03*
X144056100Y-117068600D03*
X146596100Y-117068600D03*
X149136100Y-117068600D03*
X151676100Y-117068600D03*
D12*
X154216100Y-117068600D03*
D13*
X202476100Y-127228600D03*
X207556100Y-127228600D03*
X205016100Y-127228600D03*
D14*
X192222000Y-94500000D03*
X194000000Y-94500000D03*
X212511000Y-94400000D03*
X214289000Y-94400000D03*
D15*
X138090000Y-72500000D03*
X140630000Y-72500000D03*
X143170000Y-72500000D03*
X145710000Y-72500000D03*
X164010000Y-72400000D03*
X161470000Y-72400000D03*
X158930000Y-72400000D03*
X156390000Y-72400000D03*
X179140000Y-72600000D03*
X176600000Y-72600000D03*
X174060000Y-72600000D03*
D16*
X212636100Y-82778600D03*
X212636100Y-80238600D03*
D17*
X209076100Y-106908600D03*
X195876100Y-106908600D03*
D18*
X204976100Y-114408600D03*
X202476100Y-114408600D03*
X199976100Y-114408600D03*
X204976100Y-99908600D03*
X199976100Y-99908600D03*
D19*
X100876100Y-92684600D03*
X103416100Y-95224600D03*
X105956100Y-92684600D03*
D20*
X197800000Y-137200000D03*
X205400000Y-137200000D03*
D21*
X192316100Y-89128600D03*
X194856100Y-89128600D03*
X197396100Y-89128600D03*
D22*
X183841200Y-81501500D03*
X183851200Y-136501500D03*
X90841200Y-136501500D03*
X90831200Y-81511500D03*
D23*
X136428500Y-81501500D03*
X133888500Y-81501500D03*
X131348500Y-81501500D03*
X128808500Y-81501500D03*
X126268500Y-81501500D03*
X123728500Y-81501500D03*
X121188500Y-81501500D03*
X118648500Y-81501500D03*
X116108500Y-81501500D03*
X113568500Y-81501500D03*
X111028500Y-81501500D03*
X108488500Y-81501500D03*
X105948500Y-81501500D03*
X103408500Y-81501500D03*
X100868500Y-81501500D03*
X98328500Y-81501500D03*
D24*
X206400000Y-72060000D03*
D25*
X206400000Y-87300000D03*
D26*
X95900000Y-75000000D03*
X100900000Y-75000000D03*
X133000000Y-76400000D03*
D27*
X140620000Y-76400000D03*
X199920000Y-127200000D03*
D26*
X192300000Y-127200000D03*
X177584100Y-108500000D03*
D27*
X177584100Y-100880000D03*
X173100000Y-100880000D03*
D26*
X173100000Y-108500000D03*
X182100000Y-108500000D03*
D27*
X182100000Y-100880000D03*
D26*
X108700000Y-75000000D03*
D27*
X116320000Y-75000000D03*
D28*
X108700000Y-75000000D02*
X116320000Y-75000000D01*
D29*
G36*
X218071700Y-144094200D02*
G01*
X78930500Y-144094200D01*
X78930500Y-139701282D01*
X80788100Y-139701282D01*
X80788100Y-140155918D01*
X80876796Y-140601819D01*
X81050777Y-141021848D01*
X81303360Y-141399864D01*
X81624836Y-141721340D01*
X82002852Y-141973923D01*
X82422881Y-142147904D01*
X82868782Y-142236600D01*
X83323418Y-142236600D01*
X83769319Y-142147904D01*
X84189348Y-141973923D01*
X84567364Y-141721340D01*
X84888840Y-141399864D01*
X85141423Y-141021848D01*
X85315404Y-140601819D01*
X85404100Y-140155918D01*
X85404100Y-139701282D01*
X211598100Y-139701282D01*
X211598100Y-140155918D01*
X211686796Y-140601819D01*
X211860777Y-141021848D01*
X212113360Y-141399864D01*
X212434836Y-141721340D01*
X212812852Y-141973923D01*
X213232881Y-142147904D01*
X213678782Y-142236600D01*
X214133418Y-142236600D01*
X214579319Y-142147904D01*
X214999348Y-141973923D01*
X215377364Y-141721340D01*
X215698840Y-141399864D01*
X215951423Y-141021848D01*
X216125404Y-140601819D01*
X216214100Y-140155918D01*
X216214100Y-139701282D01*
X216125404Y-139255381D01*
X215951423Y-138835352D01*
X215698840Y-138457336D01*
X215377364Y-138135860D01*
X214999348Y-137883277D01*
X214579319Y-137709296D01*
X214133418Y-137620600D01*
X213678782Y-137620600D01*
X213232881Y-137709296D01*
X212812852Y-137883277D01*
X212434836Y-138135860D01*
X212113360Y-138457336D01*
X211860777Y-138835352D01*
X211686796Y-139255381D01*
X211598100Y-139701282D01*
X85404100Y-139701282D01*
X85315404Y-139255381D01*
X85141423Y-138835352D01*
X84888840Y-138457336D01*
X84567364Y-138135860D01*
X84189348Y-137883277D01*
X83769319Y-137709296D01*
X83323418Y-137620600D01*
X82868782Y-137620600D01*
X82422881Y-137709296D01*
X82002852Y-137883277D01*
X81624836Y-138135860D01*
X81303360Y-138457336D01*
X81050777Y-138835352D01*
X80876796Y-139255381D01*
X80788100Y-139701282D01*
X78930500Y-139701282D01*
X78930500Y-136263840D01*
X88428200Y-136263840D01*
X88428200Y-136739160D01*
X88520931Y-137205346D01*
X88702828Y-137644484D01*
X88966901Y-138039698D01*
X89303002Y-138375799D01*
X89698216Y-138639872D01*
X90137354Y-138821769D01*
X90603540Y-138914500D01*
X91078860Y-138914500D01*
X91545046Y-138821769D01*
X91984184Y-138639872D01*
X92379398Y-138375799D01*
X92715499Y-138039698D01*
X92979572Y-137644484D01*
X93161469Y-137205346D01*
X93254200Y-136739160D01*
X93254200Y-136263840D01*
X181438200Y-136263840D01*
X181438200Y-136739160D01*
X181530931Y-137205346D01*
X181712828Y-137644484D01*
X181976901Y-138039698D01*
X182313002Y-138375799D01*
X182708216Y-138639872D01*
X183147354Y-138821769D01*
X183613540Y-138914500D01*
X184088860Y-138914500D01*
X184555046Y-138821769D01*
X184994184Y-138639872D01*
X185389398Y-138375799D01*
X185725499Y-138039698D01*
X185989572Y-137644484D01*
X186171469Y-137205346D01*
X186195219Y-137085947D01*
X196642000Y-137085947D01*
X196642000Y-137314053D01*
X196686501Y-137537776D01*
X196773794Y-137748519D01*
X196900523Y-137938182D01*
X197061818Y-138099477D01*
X197251481Y-138226206D01*
X197462224Y-138313499D01*
X197685947Y-138358000D01*
X197914053Y-138358000D01*
X198137776Y-138313499D01*
X198348519Y-138226206D01*
X198538182Y-138099477D01*
X198699477Y-137938182D01*
X198826206Y-137748519D01*
X198913499Y-137537776D01*
X198958000Y-137314053D01*
X198958000Y-137085947D01*
X204242000Y-137085947D01*
X204242000Y-137314053D01*
X204286501Y-137537776D01*
X204373794Y-137748519D01*
X204500523Y-137938182D01*
X204661818Y-138099477D01*
X204851481Y-138226206D01*
X205062224Y-138313499D01*
X205285947Y-138358000D01*
X205514053Y-138358000D01*
X205737776Y-138313499D01*
X205948519Y-138226206D01*
X206138182Y-138099477D01*
X206299477Y-137938182D01*
X206426206Y-137748519D01*
X206513499Y-137537776D01*
X206558000Y-137314053D01*
X206558000Y-137085947D01*
X206513499Y-136862224D01*
X206426206Y-136651481D01*
X206299477Y-136461818D01*
X206138182Y-136300523D01*
X205948519Y-136173794D01*
X205737776Y-136086501D01*
X205514053Y-136042000D01*
X205285947Y-136042000D01*
X205062224Y-136086501D01*
X204851481Y-136173794D01*
X204661818Y-136300523D01*
X204500523Y-136461818D01*
X204373794Y-136651481D01*
X204286501Y-136862224D01*
X204242000Y-137085947D01*
X198958000Y-137085947D01*
X198913499Y-136862224D01*
X198826206Y-136651481D01*
X198699477Y-136461818D01*
X198538182Y-136300523D01*
X198348519Y-136173794D01*
X198137776Y-136086501D01*
X197914053Y-136042000D01*
X197685947Y-136042000D01*
X197462224Y-136086501D01*
X197251481Y-136173794D01*
X197061818Y-136300523D01*
X196900523Y-136461818D01*
X196773794Y-136651481D01*
X196686501Y-136862224D01*
X196642000Y-137085947D01*
X186195219Y-137085947D01*
X186264200Y-136739160D01*
X186264200Y-136263840D01*
X186171469Y-135797654D01*
X185989572Y-135358516D01*
X185725499Y-134963302D01*
X185389398Y-134627201D01*
X184994184Y-134363128D01*
X184555046Y-134181231D01*
X184088860Y-134088500D01*
X183613540Y-134088500D01*
X183147354Y-134181231D01*
X182708216Y-134363128D01*
X182313002Y-134627201D01*
X181976901Y-134963302D01*
X181712828Y-135358516D01*
X181530931Y-135797654D01*
X181438200Y-136263840D01*
X93254200Y-136263840D01*
X93161469Y-135797654D01*
X92979572Y-135358516D01*
X92715499Y-134963302D01*
X92379398Y-134627201D01*
X91984184Y-134363128D01*
X91545046Y-134181231D01*
X91078860Y-134088500D01*
X90603540Y-134088500D01*
X90137354Y-134181231D01*
X89698216Y-134363128D01*
X89303002Y-134627201D01*
X88966901Y-134963302D01*
X88702828Y-135358516D01*
X88520931Y-135797654D01*
X88428200Y-136263840D01*
X78930500Y-136263840D01*
X78930500Y-127071173D01*
X190992000Y-127071173D01*
X190992000Y-127328827D01*
X191042266Y-127581530D01*
X191140865Y-127819570D01*
X191284010Y-128033801D01*
X191466199Y-128215990D01*
X191680430Y-128359135D01*
X191918470Y-128457734D01*
X192171173Y-128508000D01*
X192428827Y-128508000D01*
X192681530Y-128457734D01*
X192919570Y-128359135D01*
X193133801Y-128215990D01*
X193315990Y-128033801D01*
X193459135Y-127819570D01*
X193557734Y-127581530D01*
X193608000Y-127328827D01*
X193608000Y-127071173D01*
X198612000Y-127071173D01*
X198612000Y-127328827D01*
X198662266Y-127581530D01*
X198760865Y-127819570D01*
X198904010Y-128033801D01*
X199086199Y-128215990D01*
X199300430Y-128359135D01*
X199538470Y-128457734D01*
X199791173Y-128508000D01*
X200048827Y-128508000D01*
X200301530Y-128457734D01*
X200539570Y-128359135D01*
X200753801Y-128215990D01*
X200935990Y-128033801D01*
X201079135Y-127819570D01*
X201177734Y-127581530D01*
X201228000Y-127328827D01*
X201228000Y-127071173D01*
X201177734Y-126818470D01*
X201079135Y-126580430D01*
X201035414Y-126514997D01*
X201311700Y-126514997D01*
X201311700Y-127942202D01*
X201328548Y-128113261D01*
X201395130Y-128332752D01*
X201503252Y-128535035D01*
X201648761Y-128712339D01*
X201826064Y-128857848D01*
X202028347Y-128965970D01*
X202247838Y-129032552D01*
X202476100Y-129055034D01*
X202704361Y-129032552D01*
X202923852Y-128965970D01*
X203126135Y-128857848D01*
X203303439Y-128712339D01*
X203448948Y-128535036D01*
X203557070Y-128332753D01*
X203623652Y-128113262D01*
X203640500Y-127942203D01*
X203640500Y-126514997D01*
X203851700Y-126514997D01*
X203851700Y-127942202D01*
X203868548Y-128113261D01*
X203935130Y-128332752D01*
X204043252Y-128535035D01*
X204188761Y-128712339D01*
X204366064Y-128857848D01*
X204568347Y-128965970D01*
X204787838Y-129032552D01*
X205016100Y-129055034D01*
X205244361Y-129032552D01*
X205463852Y-128965970D01*
X205666135Y-128857848D01*
X205843439Y-128712339D01*
X205988948Y-128535036D01*
X206097070Y-128332753D01*
X206163652Y-128113262D01*
X206180500Y-127942203D01*
X206180500Y-127279400D01*
X206188500Y-127279400D01*
X206188500Y-127935800D01*
X206224689Y-128201629D01*
X206312043Y-128455290D01*
X206447205Y-128687036D01*
X206624982Y-128887960D01*
X206838541Y-129050341D01*
X207079675Y-129167938D01*
X207292133Y-129226883D01*
X207505300Y-129073715D01*
X207505300Y-127279400D01*
X207606900Y-127279400D01*
X207606900Y-129073715D01*
X207820067Y-129226883D01*
X208032525Y-129167938D01*
X208273659Y-129050341D01*
X208487218Y-128887960D01*
X208664995Y-128687036D01*
X208800157Y-128455290D01*
X208887511Y-128201629D01*
X208923700Y-127935800D01*
X208923700Y-127279400D01*
X207606900Y-127279400D01*
X207505300Y-127279400D01*
X206188500Y-127279400D01*
X206180500Y-127279400D01*
X206180500Y-126521400D01*
X206188500Y-126521400D01*
X206188500Y-127177800D01*
X207505300Y-127177800D01*
X207505300Y-125383485D01*
X207606900Y-125383485D01*
X207606900Y-127177800D01*
X208923700Y-127177800D01*
X208923700Y-126521400D01*
X208887511Y-126255571D01*
X208800157Y-126001910D01*
X208664995Y-125770164D01*
X208487218Y-125569240D01*
X208273659Y-125406859D01*
X208032525Y-125289262D01*
X207820067Y-125230317D01*
X207606900Y-125383485D01*
X207505300Y-125383485D01*
X207292133Y-125230317D01*
X207079675Y-125289262D01*
X206838541Y-125406859D01*
X206624982Y-125569240D01*
X206447205Y-125770164D01*
X206312043Y-126001910D01*
X206224689Y-126255571D01*
X206188500Y-126521400D01*
X206180500Y-126521400D01*
X206180500Y-126514997D01*
X206163652Y-126343938D01*
X206097070Y-126124447D01*
X205988948Y-125922164D01*
X205843439Y-125744861D01*
X205666136Y-125599352D01*
X205463853Y-125491230D01*
X205244362Y-125424648D01*
X205016100Y-125402166D01*
X204787839Y-125424648D01*
X204568348Y-125491230D01*
X204366065Y-125599352D01*
X204188762Y-125744861D01*
X204043253Y-125922164D01*
X203935130Y-126124447D01*
X203868548Y-126343938D01*
X203851700Y-126514997D01*
X203640500Y-126514997D01*
X203623652Y-126343938D01*
X203557070Y-126124447D01*
X203448948Y-125922164D01*
X203303439Y-125744861D01*
X203126136Y-125599352D01*
X202923853Y-125491230D01*
X202704362Y-125424648D01*
X202476100Y-125402166D01*
X202247839Y-125424648D01*
X202028348Y-125491230D01*
X201826065Y-125599352D01*
X201648762Y-125744861D01*
X201503253Y-125922164D01*
X201395130Y-126124447D01*
X201328548Y-126343938D01*
X201311700Y-126514997D01*
X201035414Y-126514997D01*
X200935990Y-126366199D01*
X200753801Y-126184010D01*
X200539570Y-126040865D01*
X200301530Y-125942266D01*
X200048827Y-125892000D01*
X199791173Y-125892000D01*
X199538470Y-125942266D01*
X199300430Y-126040865D01*
X199086199Y-126184010D01*
X198904010Y-126366199D01*
X198760865Y-126580430D01*
X198662266Y-126818470D01*
X198612000Y-127071173D01*
X193608000Y-127071173D01*
X193557734Y-126818470D01*
X193459135Y-126580430D01*
X193315990Y-126366199D01*
X193133801Y-126184010D01*
X192919570Y-126040865D01*
X192681530Y-125942266D01*
X192428827Y-125892000D01*
X192171173Y-125892000D01*
X191918470Y-125942266D01*
X191680430Y-126040865D01*
X191466199Y-126184010D01*
X191284010Y-126366199D01*
X191140865Y-126580430D01*
X191042266Y-126818470D01*
X190992000Y-127071173D01*
X78930500Y-127071173D01*
X78930500Y-116887228D01*
X114274600Y-116887228D01*
X114274600Y-117249972D01*
X114345368Y-117605746D01*
X114484184Y-117940877D01*
X114685714Y-118242488D01*
X114942212Y-118498986D01*
X115243823Y-118700516D01*
X115578954Y-118839332D01*
X115934728Y-118910100D01*
X116297472Y-118910100D01*
X116653246Y-118839332D01*
X116988377Y-118700516D01*
X117289988Y-118498986D01*
X117546486Y-118242488D01*
X117701796Y-118010049D01*
X117801581Y-118109834D01*
X118021135Y-118256536D01*
X118265091Y-118357585D01*
X118524072Y-118409100D01*
X118788128Y-118409100D01*
X119047109Y-118357585D01*
X119291065Y-118256536D01*
X119510619Y-118109834D01*
X119697334Y-117923119D01*
X119844036Y-117703565D01*
X119926100Y-117505443D01*
X120008164Y-117703565D01*
X120154866Y-117923119D01*
X120341581Y-118109834D01*
X120561135Y-118256536D01*
X120805091Y-118357585D01*
X121064072Y-118409100D01*
X121328128Y-118409100D01*
X121587109Y-118357585D01*
X121831065Y-118256536D01*
X122050619Y-118109834D01*
X122237334Y-117923119D01*
X122384036Y-117703565D01*
X122466100Y-117505443D01*
X122548164Y-117703565D01*
X122694866Y-117923119D01*
X122881581Y-118109834D01*
X123101135Y-118256536D01*
X123345091Y-118357585D01*
X123604072Y-118409100D01*
X123868128Y-118409100D01*
X124127109Y-118357585D01*
X124371065Y-118256536D01*
X124590619Y-118109834D01*
X124777334Y-117923119D01*
X124924036Y-117703565D01*
X125006100Y-117505443D01*
X125088164Y-117703565D01*
X125234866Y-117923119D01*
X125421581Y-118109834D01*
X125641135Y-118256536D01*
X125885091Y-118357585D01*
X126144072Y-118409100D01*
X126408128Y-118409100D01*
X126667109Y-118357585D01*
X126911065Y-118256536D01*
X127130619Y-118109834D01*
X127317334Y-117923119D01*
X127464036Y-117703565D01*
X127546100Y-117505443D01*
X127628164Y-117703565D01*
X127774866Y-117923119D01*
X127961581Y-118109834D01*
X128181135Y-118256536D01*
X128425091Y-118357585D01*
X128684072Y-118409100D01*
X128948128Y-118409100D01*
X129207109Y-118357585D01*
X129451065Y-118256536D01*
X129670619Y-118109834D01*
X129857334Y-117923119D01*
X130004036Y-117703565D01*
X130086100Y-117505443D01*
X130168164Y-117703565D01*
X130314866Y-117923119D01*
X130501581Y-118109834D01*
X130721135Y-118256536D01*
X130965091Y-118357585D01*
X131224072Y-118409100D01*
X131488128Y-118409100D01*
X131747109Y-118357585D01*
X131991065Y-118256536D01*
X132210619Y-118109834D01*
X132397334Y-117923119D01*
X132544036Y-117703565D01*
X132626100Y-117505443D01*
X132708164Y-117703565D01*
X132854866Y-117923119D01*
X133041581Y-118109834D01*
X133261135Y-118256536D01*
X133505091Y-118357585D01*
X133764072Y-118409100D01*
X134028128Y-118409100D01*
X134287109Y-118357585D01*
X134531065Y-118256536D01*
X134750619Y-118109834D01*
X134937334Y-117923119D01*
X135084036Y-117703565D01*
X135166100Y-117505443D01*
X135248164Y-117703565D01*
X135394866Y-117923119D01*
X135581581Y-118109834D01*
X135801135Y-118256536D01*
X136045091Y-118357585D01*
X136304072Y-118409100D01*
X136568128Y-118409100D01*
X136827109Y-118357585D01*
X137071065Y-118256536D01*
X137290619Y-118109834D01*
X137477334Y-117923119D01*
X137624036Y-117703565D01*
X137706100Y-117505443D01*
X137788164Y-117703565D01*
X137934866Y-117923119D01*
X138121581Y-118109834D01*
X138341135Y-118256536D01*
X138585091Y-118357585D01*
X138844072Y-118409100D01*
X139108128Y-118409100D01*
X139367109Y-118357585D01*
X139611065Y-118256536D01*
X139830619Y-118109834D01*
X140017334Y-117923119D01*
X140164036Y-117703565D01*
X140246100Y-117505443D01*
X140328164Y-117703565D01*
X140474866Y-117923119D01*
X140661581Y-118109834D01*
X140881135Y-118256536D01*
X141125091Y-118357585D01*
X141384072Y-118409100D01*
X141648128Y-118409100D01*
X141907109Y-118357585D01*
X142151065Y-118256536D01*
X142370619Y-118109834D01*
X142557334Y-117923119D01*
X142704036Y-117703565D01*
X142786100Y-117505443D01*
X142868164Y-117703565D01*
X143014866Y-117923119D01*
X143201581Y-118109834D01*
X143421135Y-118256536D01*
X143665091Y-118357585D01*
X143924072Y-118409100D01*
X144188128Y-118409100D01*
X144447109Y-118357585D01*
X144691065Y-118256536D01*
X144910619Y-118109834D01*
X144945478Y-118074975D01*
X145661567Y-118074975D01*
X145725933Y-118352709D01*
X145993171Y-118497796D01*
X146283578Y-118587961D01*
X146585996Y-118619737D01*
X146888802Y-118591904D01*
X147180359Y-118505531D01*
X147449464Y-118363937D01*
X147466267Y-118352709D01*
X147530633Y-118074975D01*
X146596100Y-117140442D01*
X145661567Y-118074975D01*
X144945478Y-118074975D01*
X145097334Y-117923119D01*
X145211483Y-117752284D01*
X145300763Y-117921964D01*
X145311991Y-117938767D01*
X145589725Y-118003133D01*
X146524258Y-117068600D01*
X146667942Y-117068600D01*
X147602475Y-118003133D01*
X147880209Y-117938767D01*
X147981123Y-117752892D01*
X148094866Y-117923119D01*
X148281581Y-118109834D01*
X148501135Y-118256536D01*
X148745091Y-118357585D01*
X149004072Y-118409100D01*
X149268128Y-118409100D01*
X149527109Y-118357585D01*
X149771065Y-118256536D01*
X149990619Y-118109834D01*
X150177334Y-117923119D01*
X150324036Y-117703565D01*
X150406100Y-117505443D01*
X150488164Y-117703565D01*
X150634866Y-117923119D01*
X150821581Y-118109834D01*
X151041135Y-118256536D01*
X151285091Y-118357585D01*
X151544072Y-118409100D01*
X151808128Y-118409100D01*
X152067109Y-118357585D01*
X152311065Y-118256536D01*
X152530619Y-118109834D01*
X152717334Y-117923119D01*
X152864036Y-117703565D01*
X152873143Y-117681579D01*
X152873143Y-117901100D01*
X152882951Y-118000685D01*
X152911999Y-118096443D01*
X152959171Y-118184695D01*
X153022652Y-118262048D01*
X153100005Y-118325529D01*
X153188257Y-118372701D01*
X153284015Y-118401749D01*
X153383600Y-118411557D01*
X155048600Y-118411557D01*
X155148185Y-118401749D01*
X155243943Y-118372701D01*
X155332195Y-118325529D01*
X155374246Y-118291020D01*
X155582212Y-118498986D01*
X155883823Y-118700516D01*
X156218954Y-118839332D01*
X156574728Y-118910100D01*
X156937472Y-118910100D01*
X157293246Y-118839332D01*
X157628377Y-118700516D01*
X157929988Y-118498986D01*
X158186486Y-118242488D01*
X158388016Y-117940877D01*
X158526832Y-117605746D01*
X158597600Y-117249972D01*
X158597600Y-116887228D01*
X158526832Y-116531454D01*
X158388016Y-116196323D01*
X158186486Y-115894712D01*
X157929988Y-115638214D01*
X157628377Y-115436684D01*
X157293246Y-115297868D01*
X156937472Y-115227100D01*
X156574728Y-115227100D01*
X156218954Y-115297868D01*
X155883823Y-115436684D01*
X155582212Y-115638214D01*
X155374246Y-115846180D01*
X155332195Y-115811671D01*
X155243943Y-115764499D01*
X155148185Y-115735451D01*
X155048600Y-115725643D01*
X153383600Y-115725643D01*
X153284015Y-115735451D01*
X153188257Y-115764499D01*
X153100005Y-115811671D01*
X153022652Y-115875152D01*
X152959171Y-115952505D01*
X152911999Y-116040757D01*
X152882951Y-116136515D01*
X152873143Y-116236100D01*
X152873143Y-116455621D01*
X152864036Y-116433635D01*
X152717334Y-116214081D01*
X152530619Y-116027366D01*
X152311065Y-115880664D01*
X152067109Y-115779615D01*
X151808128Y-115728100D01*
X151544072Y-115728100D01*
X151285091Y-115779615D01*
X151041135Y-115880664D01*
X150821581Y-116027366D01*
X150634866Y-116214081D01*
X150488164Y-116433635D01*
X150406100Y-116631757D01*
X150324036Y-116433635D01*
X150177334Y-116214081D01*
X149990619Y-116027366D01*
X149771065Y-115880664D01*
X149527109Y-115779615D01*
X149268128Y-115728100D01*
X149004072Y-115728100D01*
X148745091Y-115779615D01*
X148501135Y-115880664D01*
X148281581Y-116027366D01*
X148094866Y-116214081D01*
X147980717Y-116384916D01*
X147891437Y-116215236D01*
X147880209Y-116198433D01*
X147602475Y-116134067D01*
X146667942Y-117068600D01*
X146524258Y-117068600D01*
X145589725Y-116134067D01*
X145311991Y-116198433D01*
X145211077Y-116384308D01*
X145097334Y-116214081D01*
X144945478Y-116062225D01*
X145661567Y-116062225D01*
X146596100Y-116996758D01*
X147530633Y-116062225D01*
X147466267Y-115784491D01*
X147199029Y-115639404D01*
X146908622Y-115549239D01*
X146606204Y-115517463D01*
X146303398Y-115545296D01*
X146011841Y-115631669D01*
X145742736Y-115773263D01*
X145725933Y-115784491D01*
X145661567Y-116062225D01*
X144945478Y-116062225D01*
X144910619Y-116027366D01*
X144691065Y-115880664D01*
X144447109Y-115779615D01*
X144188128Y-115728100D01*
X143924072Y-115728100D01*
X143665091Y-115779615D01*
X143421135Y-115880664D01*
X143201581Y-116027366D01*
X143014866Y-116214081D01*
X142868164Y-116433635D01*
X142786100Y-116631757D01*
X142704036Y-116433635D01*
X142557334Y-116214081D01*
X142370619Y-116027366D01*
X142151065Y-115880664D01*
X141907109Y-115779615D01*
X141648128Y-115728100D01*
X141384072Y-115728100D01*
X141125091Y-115779615D01*
X140881135Y-115880664D01*
X140661581Y-116027366D01*
X140474866Y-116214081D01*
X140328164Y-116433635D01*
X140246100Y-116631757D01*
X140164036Y-116433635D01*
X140017334Y-116214081D01*
X139830619Y-116027366D01*
X139611065Y-115880664D01*
X139367109Y-115779615D01*
X139108128Y-115728100D01*
X138844072Y-115728100D01*
X138585091Y-115779615D01*
X138341135Y-115880664D01*
X138121581Y-116027366D01*
X137934866Y-116214081D01*
X137788164Y-116433635D01*
X137706100Y-116631757D01*
X137624036Y-116433635D01*
X137477334Y-116214081D01*
X137290619Y-116027366D01*
X137071065Y-115880664D01*
X136827109Y-115779615D01*
X136568128Y-115728100D01*
X136304072Y-115728100D01*
X136045091Y-115779615D01*
X135801135Y-115880664D01*
X135581581Y-116027366D01*
X135394866Y-116214081D01*
X135248164Y-116433635D01*
X135166100Y-116631757D01*
X135084036Y-116433635D01*
X134937334Y-116214081D01*
X134750619Y-116027366D01*
X134531065Y-115880664D01*
X134287109Y-115779615D01*
X134028128Y-115728100D01*
X133764072Y-115728100D01*
X133505091Y-115779615D01*
X133261135Y-115880664D01*
X133041581Y-116027366D01*
X132854866Y-116214081D01*
X132708164Y-116433635D01*
X132626100Y-116631757D01*
X132544036Y-116433635D01*
X132397334Y-116214081D01*
X132210619Y-116027366D01*
X131991065Y-115880664D01*
X131747109Y-115779615D01*
X131488128Y-115728100D01*
X131224072Y-115728100D01*
X130965091Y-115779615D01*
X130721135Y-115880664D01*
X130501581Y-116027366D01*
X130314866Y-116214081D01*
X130168164Y-116433635D01*
X130086100Y-116631757D01*
X130004036Y-116433635D01*
X129857334Y-116214081D01*
X129670619Y-116027366D01*
X129451065Y-115880664D01*
X129207109Y-115779615D01*
X128948128Y-115728100D01*
X128684072Y-115728100D01*
X128425091Y-115779615D01*
X128181135Y-115880664D01*
X127961581Y-116027366D01*
X127774866Y-116214081D01*
X127628164Y-116433635D01*
X127546100Y-116631757D01*
X127464036Y-116433635D01*
X127317334Y-116214081D01*
X127130619Y-116027366D01*
X126911065Y-115880664D01*
X126667109Y-115779615D01*
X126408128Y-115728100D01*
X126144072Y-115728100D01*
X125885091Y-115779615D01*
X125641135Y-115880664D01*
X125421581Y-116027366D01*
X125234866Y-116214081D01*
X125088164Y-116433635D01*
X125006100Y-116631757D01*
X124924036Y-116433635D01*
X124777334Y-116214081D01*
X124590619Y-116027366D01*
X124371065Y-115880664D01*
X124127109Y-115779615D01*
X123868128Y-115728100D01*
X123604072Y-115728100D01*
X123345091Y-115779615D01*
X123101135Y-115880664D01*
X122881581Y-116027366D01*
X122694866Y-116214081D01*
X122548164Y-116433635D01*
X122466100Y-116631757D01*
X122384036Y-116433635D01*
X122237334Y-116214081D01*
X122050619Y-116027366D01*
X121831065Y-115880664D01*
X121587109Y-115779615D01*
X121328128Y-115728100D01*
X121064072Y-115728100D01*
X120805091Y-115779615D01*
X120561135Y-115880664D01*
X120341581Y-116027366D01*
X120154866Y-116214081D01*
X120008164Y-116433635D01*
X119926100Y-116631757D01*
X119844036Y-116433635D01*
X119697334Y-116214081D01*
X119510619Y-116027366D01*
X119291065Y-115880664D01*
X119047109Y-115779615D01*
X118788128Y-115728100D01*
X118524072Y-115728100D01*
X118265091Y-115779615D01*
X118021135Y-115880664D01*
X117801581Y-116027366D01*
X117701796Y-116127151D01*
X117546486Y-115894712D01*
X117289988Y-115638214D01*
X116988377Y-115436684D01*
X116653246Y-115297868D01*
X116297472Y-115227100D01*
X115934728Y-115227100D01*
X115578954Y-115297868D01*
X115243823Y-115436684D01*
X114942212Y-115638214D01*
X114685714Y-115894712D01*
X114484184Y-116196323D01*
X114345368Y-116531454D01*
X114274600Y-116887228D01*
X78930500Y-116887228D01*
X78930500Y-114284698D01*
X198718100Y-114284698D01*
X198718100Y-114532502D01*
X198766444Y-114775545D01*
X198861275Y-115004486D01*
X198998948Y-115210528D01*
X199174172Y-115385752D01*
X199380214Y-115523425D01*
X199609155Y-115618256D01*
X199852198Y-115666600D01*
X200100002Y-115666600D01*
X200343045Y-115618256D01*
X200571986Y-115523425D01*
X200778028Y-115385752D01*
X200807466Y-115356314D01*
X201600228Y-115356314D01*
X201654687Y-115625604D01*
X201907896Y-115762469D01*
X202182941Y-115847306D01*
X202469251Y-115876855D01*
X202755825Y-115849978D01*
X203031649Y-115767711D01*
X203286124Y-115633213D01*
X203297513Y-115625604D01*
X203351972Y-115356314D01*
X202476100Y-114480442D01*
X201600228Y-115356314D01*
X200807466Y-115356314D01*
X200953252Y-115210528D01*
X201090925Y-115004486D01*
X201113072Y-114951018D01*
X201116989Y-114964149D01*
X201251487Y-115218624D01*
X201259096Y-115230013D01*
X201528386Y-115284472D01*
X202404258Y-114408600D01*
X202547942Y-114408600D01*
X203423814Y-115284472D01*
X203693104Y-115230013D01*
X203829969Y-114976804D01*
X203838437Y-114949350D01*
X203861275Y-115004486D01*
X203998948Y-115210528D01*
X204174172Y-115385752D01*
X204380214Y-115523425D01*
X204609155Y-115618256D01*
X204852198Y-115666600D01*
X205100002Y-115666600D01*
X205343045Y-115618256D01*
X205571986Y-115523425D01*
X205778028Y-115385752D01*
X205953252Y-115210528D01*
X206090925Y-115004486D01*
X206185756Y-114775545D01*
X206234100Y-114532502D01*
X206234100Y-114284698D01*
X206185756Y-114041655D01*
X206090925Y-113812714D01*
X205953252Y-113606672D01*
X205778028Y-113431448D01*
X205571986Y-113293775D01*
X205343045Y-113198944D01*
X205100002Y-113150600D01*
X204852198Y-113150600D01*
X204609155Y-113198944D01*
X204380214Y-113293775D01*
X204174172Y-113431448D01*
X203998948Y-113606672D01*
X203861275Y-113812714D01*
X203839128Y-113866182D01*
X203835211Y-113853051D01*
X203700713Y-113598576D01*
X203693104Y-113587187D01*
X203423814Y-113532728D01*
X202547942Y-114408600D01*
X202404258Y-114408600D01*
X201528386Y-113532728D01*
X201259096Y-113587187D01*
X201122231Y-113840396D01*
X201113763Y-113867850D01*
X201090925Y-113812714D01*
X200953252Y-113606672D01*
X200807466Y-113460886D01*
X201600228Y-113460886D01*
X202476100Y-114336758D01*
X203351972Y-113460886D01*
X203297513Y-113191596D01*
X203044304Y-113054731D01*
X202769259Y-112969894D01*
X202482949Y-112940345D01*
X202196375Y-112967222D01*
X201920551Y-113049489D01*
X201666076Y-113183987D01*
X201654687Y-113191596D01*
X201600228Y-113460886D01*
X200807466Y-113460886D01*
X200778028Y-113431448D01*
X200571986Y-113293775D01*
X200343045Y-113198944D01*
X200100002Y-113150600D01*
X199852198Y-113150600D01*
X199609155Y-113198944D01*
X199380214Y-113293775D01*
X199174172Y-113431448D01*
X198998948Y-113606672D01*
X198861275Y-113812714D01*
X198766444Y-114041655D01*
X198718100Y-114284698D01*
X78930500Y-114284698D01*
X78930500Y-108371173D01*
X171792000Y-108371173D01*
X171792000Y-108628827D01*
X171842266Y-108881530D01*
X171940865Y-109119570D01*
X172084010Y-109333801D01*
X172266199Y-109515990D01*
X172480430Y-109659135D01*
X172718470Y-109757734D01*
X172971173Y-109808000D01*
X173228827Y-109808000D01*
X173481530Y-109757734D01*
X173719570Y-109659135D01*
X173933801Y-109515990D01*
X174115990Y-109333801D01*
X174259135Y-109119570D01*
X174357734Y-108881530D01*
X174408000Y-108628827D01*
X174408000Y-108371173D01*
X176276100Y-108371173D01*
X176276100Y-108628827D01*
X176326366Y-108881530D01*
X176424965Y-109119570D01*
X176568110Y-109333801D01*
X176750299Y-109515990D01*
X176964530Y-109659135D01*
X177202570Y-109757734D01*
X177455273Y-109808000D01*
X177712927Y-109808000D01*
X177965630Y-109757734D01*
X178203670Y-109659135D01*
X178417901Y-109515990D01*
X178600090Y-109333801D01*
X178743235Y-109119570D01*
X178841834Y-108881530D01*
X178892100Y-108628827D01*
X178892100Y-108371173D01*
X180792000Y-108371173D01*
X180792000Y-108628827D01*
X180842266Y-108881530D01*
X180940865Y-109119570D01*
X181084010Y-109333801D01*
X181266199Y-109515990D01*
X181480430Y-109659135D01*
X181718470Y-109757734D01*
X181971173Y-109808000D01*
X182228827Y-109808000D01*
X182481530Y-109757734D01*
X182719570Y-109659135D01*
X182933801Y-109515990D01*
X183115990Y-109333801D01*
X183259135Y-109119570D01*
X183357734Y-108881530D01*
X183408000Y-108628827D01*
X183408000Y-108371173D01*
X183357734Y-108118470D01*
X183259135Y-107880430D01*
X183115990Y-107666199D01*
X182933801Y-107484010D01*
X182719570Y-107340865D01*
X182481530Y-107242266D01*
X182228827Y-107192000D01*
X181971173Y-107192000D01*
X181718470Y-107242266D01*
X181480430Y-107340865D01*
X181266199Y-107484010D01*
X181084010Y-107666199D01*
X180940865Y-107880430D01*
X180842266Y-108118470D01*
X180792000Y-108371173D01*
X178892100Y-108371173D01*
X178841834Y-108118470D01*
X178743235Y-107880430D01*
X178600090Y-107666199D01*
X178417901Y-107484010D01*
X178203670Y-107340865D01*
X177965630Y-107242266D01*
X177712927Y-107192000D01*
X177455273Y-107192000D01*
X177202570Y-107242266D01*
X176964530Y-107340865D01*
X176750299Y-107484010D01*
X176568110Y-107666199D01*
X176424965Y-107880430D01*
X176326366Y-108118470D01*
X176276100Y-108371173D01*
X174408000Y-108371173D01*
X174357734Y-108118470D01*
X174259135Y-107880430D01*
X174115990Y-107666199D01*
X173933801Y-107484010D01*
X173719570Y-107340865D01*
X173481530Y-107242266D01*
X173228827Y-107192000D01*
X172971173Y-107192000D01*
X172718470Y-107242266D01*
X172480430Y-107340865D01*
X172266199Y-107484010D01*
X172084010Y-107666199D01*
X171940865Y-107880430D01*
X171842266Y-108118470D01*
X171792000Y-108371173D01*
X78930500Y-108371173D01*
X78930500Y-105708600D01*
X194165643Y-105708600D01*
X194165643Y-108108600D01*
X194175451Y-108208185D01*
X194204499Y-108303943D01*
X194251671Y-108392195D01*
X194315152Y-108469548D01*
X194392505Y-108533029D01*
X194480757Y-108580201D01*
X194576515Y-108609249D01*
X194676100Y-108619057D01*
X197076100Y-108619057D01*
X197175685Y-108609249D01*
X197271443Y-108580201D01*
X197359695Y-108533029D01*
X197437048Y-108469548D01*
X197500529Y-108392195D01*
X197547701Y-108303943D01*
X197576749Y-108208185D01*
X197586557Y-108108600D01*
X197586557Y-105708600D01*
X207365643Y-105708600D01*
X207365643Y-108108600D01*
X207375451Y-108208185D01*
X207404499Y-108303943D01*
X207451671Y-108392195D01*
X207515152Y-108469548D01*
X207592505Y-108533029D01*
X207680757Y-108580201D01*
X207776515Y-108609249D01*
X207876100Y-108619057D01*
X210276100Y-108619057D01*
X210375685Y-108609249D01*
X210471443Y-108580201D01*
X210559695Y-108533029D01*
X210637048Y-108469548D01*
X210700529Y-108392195D01*
X210747701Y-108303943D01*
X210776749Y-108208185D01*
X210786557Y-108108600D01*
X210786557Y-105708600D01*
X210776749Y-105609015D01*
X210747701Y-105513257D01*
X210700529Y-105425005D01*
X210637048Y-105347652D01*
X210559695Y-105284171D01*
X210471443Y-105236999D01*
X210375685Y-105207951D01*
X210276100Y-105198143D01*
X207876100Y-105198143D01*
X207776515Y-105207951D01*
X207680757Y-105236999D01*
X207592505Y-105284171D01*
X207515152Y-105347652D01*
X207451671Y-105425005D01*
X207404499Y-105513257D01*
X207375451Y-105609015D01*
X207365643Y-105708600D01*
X197586557Y-105708600D01*
X197576749Y-105609015D01*
X197547701Y-105513257D01*
X197500529Y-105425005D01*
X197437048Y-105347652D01*
X197359695Y-105284171D01*
X197271443Y-105236999D01*
X197175685Y-105207951D01*
X197076100Y-105198143D01*
X194676100Y-105198143D01*
X194576515Y-105207951D01*
X194480757Y-105236999D01*
X194392505Y-105284171D01*
X194315152Y-105347652D01*
X194251671Y-105425005D01*
X194204499Y-105513257D01*
X194175451Y-105609015D01*
X194165643Y-105708600D01*
X78930500Y-105708600D01*
X78930500Y-101647228D01*
X114274600Y-101647228D01*
X114274600Y-102009972D01*
X114345368Y-102365746D01*
X114484184Y-102700877D01*
X114685714Y-103002488D01*
X114942212Y-103258986D01*
X115243823Y-103460516D01*
X115578954Y-103599332D01*
X115934728Y-103670100D01*
X116297472Y-103670100D01*
X116653246Y-103599332D01*
X116988377Y-103460516D01*
X117289988Y-103258986D01*
X117546486Y-103002488D01*
X117701796Y-102770049D01*
X117801581Y-102869834D01*
X118021135Y-103016536D01*
X118265091Y-103117585D01*
X118524072Y-103169100D01*
X118788128Y-103169100D01*
X119047109Y-103117585D01*
X119291065Y-103016536D01*
X119510619Y-102869834D01*
X119697334Y-102683119D01*
X119844036Y-102463565D01*
X119926100Y-102265443D01*
X120008164Y-102463565D01*
X120154866Y-102683119D01*
X120341581Y-102869834D01*
X120561135Y-103016536D01*
X120805091Y-103117585D01*
X121064072Y-103169100D01*
X121328128Y-103169100D01*
X121587109Y-103117585D01*
X121831065Y-103016536D01*
X122050619Y-102869834D01*
X122237334Y-102683119D01*
X122384036Y-102463565D01*
X122466100Y-102265443D01*
X122548164Y-102463565D01*
X122694866Y-102683119D01*
X122881581Y-102869834D01*
X123101135Y-103016536D01*
X123345091Y-103117585D01*
X123604072Y-103169100D01*
X123868128Y-103169100D01*
X124127109Y-103117585D01*
X124371065Y-103016536D01*
X124590619Y-102869834D01*
X124777334Y-102683119D01*
X124924036Y-102463565D01*
X125006100Y-102265443D01*
X125088164Y-102463565D01*
X125234866Y-102683119D01*
X125421581Y-102869834D01*
X125641135Y-103016536D01*
X125885091Y-103117585D01*
X126144072Y-103169100D01*
X126408128Y-103169100D01*
X126667109Y-103117585D01*
X126911065Y-103016536D01*
X127130619Y-102869834D01*
X127317334Y-102683119D01*
X127464036Y-102463565D01*
X127546100Y-102265443D01*
X127628164Y-102463565D01*
X127774866Y-102683119D01*
X127961581Y-102869834D01*
X128181135Y-103016536D01*
X128425091Y-103117585D01*
X128684072Y-103169100D01*
X128948128Y-103169100D01*
X129207109Y-103117585D01*
X129451065Y-103016536D01*
X129670619Y-102869834D01*
X129857334Y-102683119D01*
X130004036Y-102463565D01*
X130086100Y-102265443D01*
X130168164Y-102463565D01*
X130314866Y-102683119D01*
X130501581Y-102869834D01*
X130721135Y-103016536D01*
X130965091Y-103117585D01*
X131224072Y-103169100D01*
X131488128Y-103169100D01*
X131747109Y-103117585D01*
X131991065Y-103016536D01*
X132210619Y-102869834D01*
X132397334Y-102683119D01*
X132544036Y-102463565D01*
X132626100Y-102265443D01*
X132708164Y-102463565D01*
X132854866Y-102683119D01*
X133041581Y-102869834D01*
X133261135Y-103016536D01*
X133505091Y-103117585D01*
X133764072Y-103169100D01*
X134028128Y-103169100D01*
X134287109Y-103117585D01*
X134531065Y-103016536D01*
X134750619Y-102869834D01*
X134937334Y-102683119D01*
X135084036Y-102463565D01*
X135166100Y-102265443D01*
X135248164Y-102463565D01*
X135394866Y-102683119D01*
X135581581Y-102869834D01*
X135801135Y-103016536D01*
X136045091Y-103117585D01*
X136304072Y-103169100D01*
X136568128Y-103169100D01*
X136827109Y-103117585D01*
X137071065Y-103016536D01*
X137290619Y-102869834D01*
X137477334Y-102683119D01*
X137624036Y-102463565D01*
X137706100Y-102265443D01*
X137788164Y-102463565D01*
X137934866Y-102683119D01*
X138121581Y-102869834D01*
X138341135Y-103016536D01*
X138585091Y-103117585D01*
X138844072Y-103169100D01*
X139108128Y-103169100D01*
X139367109Y-103117585D01*
X139611065Y-103016536D01*
X139830619Y-102869834D01*
X140017334Y-102683119D01*
X140164036Y-102463565D01*
X140246100Y-102265443D01*
X140328164Y-102463565D01*
X140474866Y-102683119D01*
X140661581Y-102869834D01*
X140881135Y-103016536D01*
X141125091Y-103117585D01*
X141384072Y-103169100D01*
X141648128Y-103169100D01*
X141907109Y-103117585D01*
X142151065Y-103016536D01*
X142370619Y-102869834D01*
X142557334Y-102683119D01*
X142704036Y-102463565D01*
X142786100Y-102265443D01*
X142868164Y-102463565D01*
X143014866Y-102683119D01*
X143201581Y-102869834D01*
X143421135Y-103016536D01*
X143665091Y-103117585D01*
X143924072Y-103169100D01*
X144188128Y-103169100D01*
X144447109Y-103117585D01*
X144691065Y-103016536D01*
X144910619Y-102869834D01*
X145097334Y-102683119D01*
X145244036Y-102463565D01*
X145326100Y-102265443D01*
X145408164Y-102463565D01*
X145554866Y-102683119D01*
X145741581Y-102869834D01*
X145961135Y-103016536D01*
X146205091Y-103117585D01*
X146464072Y-103169100D01*
X146728128Y-103169100D01*
X146987109Y-103117585D01*
X147231065Y-103016536D01*
X147450619Y-102869834D01*
X147637334Y-102683119D01*
X147784036Y-102463565D01*
X147866100Y-102265443D01*
X147948164Y-102463565D01*
X148094866Y-102683119D01*
X148281581Y-102869834D01*
X148501135Y-103016536D01*
X148745091Y-103117585D01*
X149004072Y-103169100D01*
X149268128Y-103169100D01*
X149527109Y-103117585D01*
X149771065Y-103016536D01*
X149990619Y-102869834D01*
X150025478Y-102834975D01*
X150741567Y-102834975D01*
X150805933Y-103112709D01*
X151073171Y-103257796D01*
X151363578Y-103347961D01*
X151665996Y-103379737D01*
X151968802Y-103351904D01*
X152260359Y-103265531D01*
X152529464Y-103123937D01*
X152546267Y-103112709D01*
X152610633Y-102834975D01*
X151676100Y-101900442D01*
X150741567Y-102834975D01*
X150025478Y-102834975D01*
X150177334Y-102683119D01*
X150291483Y-102512284D01*
X150380763Y-102681964D01*
X150391991Y-102698767D01*
X150669725Y-102763133D01*
X151604258Y-101828600D01*
X151747942Y-101828600D01*
X152682475Y-102763133D01*
X152960209Y-102698767D01*
X153061123Y-102512892D01*
X153174866Y-102683119D01*
X153361581Y-102869834D01*
X153581135Y-103016536D01*
X153825091Y-103117585D01*
X154084072Y-103169100D01*
X154348128Y-103169100D01*
X154607109Y-103117585D01*
X154851065Y-103016536D01*
X155070619Y-102869834D01*
X155170404Y-102770049D01*
X155325714Y-103002488D01*
X155582212Y-103258986D01*
X155883823Y-103460516D01*
X156218954Y-103599332D01*
X156574728Y-103670100D01*
X156937472Y-103670100D01*
X157293246Y-103599332D01*
X157628377Y-103460516D01*
X157929988Y-103258986D01*
X158186486Y-103002488D01*
X158388016Y-102700877D01*
X158526832Y-102365746D01*
X158597600Y-102009972D01*
X158597600Y-101647228D01*
X158526832Y-101291454D01*
X158388016Y-100956323D01*
X158250940Y-100751173D01*
X171792000Y-100751173D01*
X171792000Y-101008827D01*
X171842266Y-101261530D01*
X171940865Y-101499570D01*
X172084010Y-101713801D01*
X172266199Y-101895990D01*
X172480430Y-102039135D01*
X172718470Y-102137734D01*
X172971173Y-102188000D01*
X173228827Y-102188000D01*
X173481530Y-102137734D01*
X173719570Y-102039135D01*
X173933801Y-101895990D01*
X174115990Y-101713801D01*
X174259135Y-101499570D01*
X174357734Y-101261530D01*
X174408000Y-101008827D01*
X174408000Y-100751173D01*
X176276100Y-100751173D01*
X176276100Y-101008827D01*
X176326366Y-101261530D01*
X176424965Y-101499570D01*
X176568110Y-101713801D01*
X176750299Y-101895990D01*
X176964530Y-102039135D01*
X177202570Y-102137734D01*
X177455273Y-102188000D01*
X177712927Y-102188000D01*
X177965630Y-102137734D01*
X178203670Y-102039135D01*
X178417901Y-101895990D01*
X178600090Y-101713801D01*
X178743235Y-101499570D01*
X178841834Y-101261530D01*
X178892100Y-101008827D01*
X178892100Y-100751173D01*
X180792000Y-100751173D01*
X180792000Y-101008827D01*
X180842266Y-101261530D01*
X180940865Y-101499570D01*
X181084010Y-101713801D01*
X181266199Y-101895990D01*
X181480430Y-102039135D01*
X181718470Y-102137734D01*
X181971173Y-102188000D01*
X182228827Y-102188000D01*
X182481530Y-102137734D01*
X182719570Y-102039135D01*
X182933801Y-101895990D01*
X183115990Y-101713801D01*
X183259135Y-101499570D01*
X183357734Y-101261530D01*
X183408000Y-101008827D01*
X183408000Y-100751173D01*
X183357734Y-100498470D01*
X183259135Y-100260430D01*
X183115990Y-100046199D01*
X182933801Y-99864010D01*
X182815103Y-99784698D01*
X198718100Y-99784698D01*
X198718100Y-100032502D01*
X198766444Y-100275545D01*
X198861275Y-100504486D01*
X198998948Y-100710528D01*
X199174172Y-100885752D01*
X199380214Y-101023425D01*
X199609155Y-101118256D01*
X199852198Y-101166600D01*
X200100002Y-101166600D01*
X200343045Y-101118256D01*
X200571986Y-101023425D01*
X200778028Y-100885752D01*
X200807466Y-100856314D01*
X204100228Y-100856314D01*
X204154687Y-101125604D01*
X204407896Y-101262469D01*
X204682941Y-101347306D01*
X204969251Y-101376855D01*
X205255825Y-101349978D01*
X205531649Y-101267711D01*
X205786124Y-101133213D01*
X205797513Y-101125604D01*
X205851972Y-100856314D01*
X204976100Y-99980442D01*
X204100228Y-100856314D01*
X200807466Y-100856314D01*
X200953252Y-100710528D01*
X201090925Y-100504486D01*
X201185756Y-100275545D01*
X201234100Y-100032502D01*
X201234100Y-99901751D01*
X203507845Y-99901751D01*
X203534722Y-100188325D01*
X203616989Y-100464149D01*
X203751487Y-100718624D01*
X203759096Y-100730013D01*
X204028386Y-100784472D01*
X204904258Y-99908600D01*
X205047942Y-99908600D01*
X205923814Y-100784472D01*
X206193104Y-100730013D01*
X206329969Y-100476804D01*
X206414806Y-100201759D01*
X206444355Y-99915449D01*
X206417478Y-99628875D01*
X206335211Y-99353051D01*
X206200713Y-99098576D01*
X206193104Y-99087187D01*
X205923814Y-99032728D01*
X205047942Y-99908600D01*
X204904258Y-99908600D01*
X204028386Y-99032728D01*
X203759096Y-99087187D01*
X203622231Y-99340396D01*
X203537394Y-99615441D01*
X203507845Y-99901751D01*
X201234100Y-99901751D01*
X201234100Y-99784698D01*
X201185756Y-99541655D01*
X201090925Y-99312714D01*
X200953252Y-99106672D01*
X200807466Y-98960886D01*
X204100228Y-98960886D01*
X204976100Y-99836758D01*
X205851972Y-98960886D01*
X205797513Y-98691596D01*
X205544304Y-98554731D01*
X205269259Y-98469894D01*
X204982949Y-98440345D01*
X204696375Y-98467222D01*
X204420551Y-98549489D01*
X204166076Y-98683987D01*
X204154687Y-98691596D01*
X204100228Y-98960886D01*
X200807466Y-98960886D01*
X200778028Y-98931448D01*
X200571986Y-98793775D01*
X200343045Y-98698944D01*
X200100002Y-98650600D01*
X199852198Y-98650600D01*
X199609155Y-98698944D01*
X199380214Y-98793775D01*
X199174172Y-98931448D01*
X198998948Y-99106672D01*
X198861275Y-99312714D01*
X198766444Y-99541655D01*
X198718100Y-99784698D01*
X182815103Y-99784698D01*
X182719570Y-99720865D01*
X182481530Y-99622266D01*
X182228827Y-99572000D01*
X181971173Y-99572000D01*
X181718470Y-99622266D01*
X181480430Y-99720865D01*
X181266199Y-99864010D01*
X181084010Y-100046199D01*
X180940865Y-100260430D01*
X180842266Y-100498470D01*
X180792000Y-100751173D01*
X178892100Y-100751173D01*
X178841834Y-100498470D01*
X178743235Y-100260430D01*
X178600090Y-100046199D01*
X178417901Y-99864010D01*
X178203670Y-99720865D01*
X177965630Y-99622266D01*
X177712927Y-99572000D01*
X177455273Y-99572000D01*
X177202570Y-99622266D01*
X176964530Y-99720865D01*
X176750299Y-99864010D01*
X176568110Y-100046199D01*
X176424965Y-100260430D01*
X176326366Y-100498470D01*
X176276100Y-100751173D01*
X174408000Y-100751173D01*
X174357734Y-100498470D01*
X174259135Y-100260430D01*
X174115990Y-100046199D01*
X173933801Y-99864010D01*
X173719570Y-99720865D01*
X173481530Y-99622266D01*
X173228827Y-99572000D01*
X172971173Y-99572000D01*
X172718470Y-99622266D01*
X172480430Y-99720865D01*
X172266199Y-99864010D01*
X172084010Y-100046199D01*
X171940865Y-100260430D01*
X171842266Y-100498470D01*
X171792000Y-100751173D01*
X158250940Y-100751173D01*
X158186486Y-100654712D01*
X157929988Y-100398214D01*
X157628377Y-100196684D01*
X157293246Y-100057868D01*
X156937472Y-99987100D01*
X156574728Y-99987100D01*
X156218954Y-100057868D01*
X155883823Y-100196684D01*
X155582212Y-100398214D01*
X155325714Y-100654712D01*
X155170404Y-100887151D01*
X155070619Y-100787366D01*
X154851065Y-100640664D01*
X154607109Y-100539615D01*
X154348128Y-100488100D01*
X154084072Y-100488100D01*
X153825091Y-100539615D01*
X153581135Y-100640664D01*
X153361581Y-100787366D01*
X153174866Y-100974081D01*
X153060717Y-101144916D01*
X152971437Y-100975236D01*
X152960209Y-100958433D01*
X152682475Y-100894067D01*
X151747942Y-101828600D01*
X151604258Y-101828600D01*
X150669725Y-100894067D01*
X150391991Y-100958433D01*
X150291077Y-101144308D01*
X150177334Y-100974081D01*
X150025478Y-100822225D01*
X150741567Y-100822225D01*
X151676100Y-101756758D01*
X152610633Y-100822225D01*
X152546267Y-100544491D01*
X152279029Y-100399404D01*
X151988622Y-100309239D01*
X151686204Y-100277463D01*
X151383398Y-100305296D01*
X151091841Y-100391669D01*
X150822736Y-100533263D01*
X150805933Y-100544491D01*
X150741567Y-100822225D01*
X150025478Y-100822225D01*
X149990619Y-100787366D01*
X149771065Y-100640664D01*
X149527109Y-100539615D01*
X149268128Y-100488100D01*
X149004072Y-100488100D01*
X148745091Y-100539615D01*
X148501135Y-100640664D01*
X148281581Y-100787366D01*
X148094866Y-100974081D01*
X147948164Y-101193635D01*
X147866100Y-101391757D01*
X147784036Y-101193635D01*
X147637334Y-100974081D01*
X147450619Y-100787366D01*
X147231065Y-100640664D01*
X146987109Y-100539615D01*
X146728128Y-100488100D01*
X146464072Y-100488100D01*
X146205091Y-100539615D01*
X145961135Y-100640664D01*
X145741581Y-100787366D01*
X145554866Y-100974081D01*
X145408164Y-101193635D01*
X145326100Y-101391757D01*
X145244036Y-101193635D01*
X145097334Y-100974081D01*
X144910619Y-100787366D01*
X144691065Y-100640664D01*
X144447109Y-100539615D01*
X144188128Y-100488100D01*
X143924072Y-100488100D01*
X143665091Y-100539615D01*
X143421135Y-100640664D01*
X143201581Y-100787366D01*
X143014866Y-100974081D01*
X142868164Y-101193635D01*
X142786100Y-101391757D01*
X142704036Y-101193635D01*
X142557334Y-100974081D01*
X142370619Y-100787366D01*
X142151065Y-100640664D01*
X141907109Y-100539615D01*
X141648128Y-100488100D01*
X141384072Y-100488100D01*
X141125091Y-100539615D01*
X140881135Y-100640664D01*
X140661581Y-100787366D01*
X140474866Y-100974081D01*
X140328164Y-101193635D01*
X140246100Y-101391757D01*
X140164036Y-101193635D01*
X140017334Y-100974081D01*
X139830619Y-100787366D01*
X139611065Y-100640664D01*
X139367109Y-100539615D01*
X139108128Y-100488100D01*
X138844072Y-100488100D01*
X138585091Y-100539615D01*
X138341135Y-100640664D01*
X138121581Y-100787366D01*
X137934866Y-100974081D01*
X137788164Y-101193635D01*
X137706100Y-101391757D01*
X137624036Y-101193635D01*
X137477334Y-100974081D01*
X137290619Y-100787366D01*
X137071065Y-100640664D01*
X136827109Y-100539615D01*
X136568128Y-100488100D01*
X136304072Y-100488100D01*
X136045091Y-100539615D01*
X135801135Y-100640664D01*
X135581581Y-100787366D01*
X135394866Y-100974081D01*
X135248164Y-101193635D01*
X135166100Y-101391757D01*
X135084036Y-101193635D01*
X134937334Y-100974081D01*
X134750619Y-100787366D01*
X134531065Y-100640664D01*
X134287109Y-100539615D01*
X134028128Y-100488100D01*
X133764072Y-100488100D01*
X133505091Y-100539615D01*
X133261135Y-100640664D01*
X133041581Y-100787366D01*
X132854866Y-100974081D01*
X132708164Y-101193635D01*
X132626100Y-101391757D01*
X132544036Y-101193635D01*
X132397334Y-100974081D01*
X132210619Y-100787366D01*
X131991065Y-100640664D01*
X131747109Y-100539615D01*
X131488128Y-100488100D01*
X131224072Y-100488100D01*
X130965091Y-100539615D01*
X130721135Y-100640664D01*
X130501581Y-100787366D01*
X130314866Y-100974081D01*
X130168164Y-101193635D01*
X130086100Y-101391757D01*
X130004036Y-101193635D01*
X129857334Y-100974081D01*
X129670619Y-100787366D01*
X129451065Y-100640664D01*
X129207109Y-100539615D01*
X128948128Y-100488100D01*
X128684072Y-100488100D01*
X128425091Y-100539615D01*
X128181135Y-100640664D01*
X127961581Y-100787366D01*
X127774866Y-100974081D01*
X127628164Y-101193635D01*
X127546100Y-101391757D01*
X127464036Y-101193635D01*
X127317334Y-100974081D01*
X127130619Y-100787366D01*
X126911065Y-100640664D01*
X126667109Y-100539615D01*
X126408128Y-100488100D01*
X126144072Y-100488100D01*
X125885091Y-100539615D01*
X125641135Y-100640664D01*
X125421581Y-100787366D01*
X125234866Y-100974081D01*
X125088164Y-101193635D01*
X125006100Y-101391757D01*
X124924036Y-101193635D01*
X124777334Y-100974081D01*
X124590619Y-100787366D01*
X124371065Y-100640664D01*
X124127109Y-100539615D01*
X123868128Y-100488100D01*
X123604072Y-100488100D01*
X123345091Y-100539615D01*
X123101135Y-100640664D01*
X122881581Y-100787366D01*
X122694866Y-100974081D01*
X122548164Y-101193635D01*
X122466100Y-101391757D01*
X122384036Y-101193635D01*
X122237334Y-100974081D01*
X122050619Y-100787366D01*
X121831065Y-100640664D01*
X121587109Y-100539615D01*
X121328128Y-100488100D01*
X121064072Y-100488100D01*
X120805091Y-100539615D01*
X120561135Y-100640664D01*
X120341581Y-100787366D01*
X120154866Y-100974081D01*
X120008164Y-101193635D01*
X119926100Y-101391757D01*
X119844036Y-101193635D01*
X119697334Y-100974081D01*
X119510619Y-100787366D01*
X119291065Y-100640664D01*
X119047109Y-100539615D01*
X118788128Y-100488100D01*
X118524072Y-100488100D01*
X118265091Y-100539615D01*
X118021135Y-100640664D01*
X117801581Y-100787366D01*
X117701796Y-100887151D01*
X117546486Y-100654712D01*
X117289988Y-100398214D01*
X116988377Y-100196684D01*
X116653246Y-100057868D01*
X116297472Y-99987100D01*
X115934728Y-99987100D01*
X115578954Y-100057868D01*
X115243823Y-100196684D01*
X114942212Y-100398214D01*
X114685714Y-100654712D01*
X114484184Y-100956323D01*
X114345368Y-101291454D01*
X114274600Y-101647228D01*
X78930500Y-101647228D01*
X78930500Y-95119923D01*
X102353300Y-95119923D01*
X102353300Y-95329277D01*
X102394143Y-95534607D01*
X102474259Y-95728024D01*
X102590570Y-95902095D01*
X102738605Y-96050130D01*
X102912676Y-96166441D01*
X103106093Y-96246557D01*
X103311423Y-96287400D01*
X103520777Y-96287400D01*
X103726107Y-96246557D01*
X103919524Y-96166441D01*
X104093595Y-96050130D01*
X104241630Y-95902095D01*
X104357941Y-95728024D01*
X104438057Y-95534607D01*
X104478900Y-95329277D01*
X104478900Y-95119923D01*
X104438057Y-94914593D01*
X104357941Y-94721176D01*
X104241630Y-94547105D01*
X104093595Y-94399070D01*
X104083655Y-94392428D01*
X191129800Y-94392428D01*
X191129800Y-94607572D01*
X191171772Y-94818583D01*
X191254105Y-95017351D01*
X191373633Y-95196237D01*
X191525763Y-95348367D01*
X191704649Y-95467895D01*
X191903417Y-95550228D01*
X192114428Y-95592200D01*
X192329572Y-95592200D01*
X192540583Y-95550228D01*
X192739351Y-95467895D01*
X192918237Y-95348367D01*
X192936801Y-95329803D01*
X193242039Y-95329803D01*
X193276580Y-95582129D01*
X193501592Y-95702468D01*
X193745758Y-95776598D01*
X193999695Y-95801668D01*
X194253643Y-95776717D01*
X194497845Y-95702702D01*
X194722915Y-95582467D01*
X194723420Y-95582129D01*
X194757961Y-95329803D01*
X194000000Y-94571842D01*
X193242039Y-95329803D01*
X192936801Y-95329803D01*
X193028095Y-95238509D01*
X193170197Y-95257961D01*
X193928158Y-94500000D01*
X194071842Y-94500000D01*
X194829803Y-95257961D01*
X195082129Y-95223420D01*
X195202468Y-94998408D01*
X195276598Y-94754242D01*
X195301668Y-94500305D01*
X195281244Y-94292428D01*
X211418800Y-94292428D01*
X211418800Y-94507572D01*
X211460772Y-94718583D01*
X211543105Y-94917351D01*
X211662633Y-95096237D01*
X211814763Y-95248367D01*
X211993649Y-95367895D01*
X212192417Y-95450228D01*
X212403428Y-95492200D01*
X212618572Y-95492200D01*
X212829583Y-95450228D01*
X213028351Y-95367895D01*
X213207237Y-95248367D01*
X213225801Y-95229803D01*
X213531039Y-95229803D01*
X213565580Y-95482129D01*
X213790592Y-95602468D01*
X214034758Y-95676598D01*
X214288695Y-95701668D01*
X214542643Y-95676717D01*
X214786845Y-95602702D01*
X215011915Y-95482467D01*
X215012420Y-95482129D01*
X215046961Y-95229803D01*
X214289000Y-94471842D01*
X213531039Y-95229803D01*
X213225801Y-95229803D01*
X213317095Y-95138509D01*
X213459197Y-95157961D01*
X214217158Y-94400000D01*
X214360842Y-94400000D01*
X215118803Y-95157961D01*
X215371129Y-95123420D01*
X215491468Y-94898408D01*
X215565598Y-94654242D01*
X215590668Y-94400305D01*
X215565717Y-94146357D01*
X215491702Y-93902155D01*
X215371467Y-93677085D01*
X215371129Y-93676580D01*
X215118803Y-93642039D01*
X214360842Y-94400000D01*
X214217158Y-94400000D01*
X213459197Y-93642039D01*
X213317095Y-93661491D01*
X213225801Y-93570197D01*
X213531039Y-93570197D01*
X214289000Y-94328158D01*
X215046961Y-93570197D01*
X215012420Y-93317871D01*
X214787408Y-93197532D01*
X214543242Y-93123402D01*
X214289305Y-93098332D01*
X214035357Y-93123283D01*
X213791155Y-93197298D01*
X213566085Y-93317533D01*
X213565580Y-93317871D01*
X213531039Y-93570197D01*
X213225801Y-93570197D01*
X213207237Y-93551633D01*
X213028351Y-93432105D01*
X212829583Y-93349772D01*
X212618572Y-93307800D01*
X212403428Y-93307800D01*
X212192417Y-93349772D01*
X211993649Y-93432105D01*
X211814763Y-93551633D01*
X211662633Y-93703763D01*
X211543105Y-93882649D01*
X211460772Y-94081417D01*
X211418800Y-94292428D01*
X195281244Y-94292428D01*
X195276717Y-94246357D01*
X195202702Y-94002155D01*
X195082467Y-93777085D01*
X195082129Y-93776580D01*
X194829803Y-93742039D01*
X194071842Y-94500000D01*
X193928158Y-94500000D01*
X193170197Y-93742039D01*
X193028095Y-93761491D01*
X192936801Y-93670197D01*
X193242039Y-93670197D01*
X194000000Y-94428158D01*
X194757961Y-93670197D01*
X194723420Y-93417871D01*
X194498408Y-93297532D01*
X194254242Y-93223402D01*
X194000305Y-93198332D01*
X193746357Y-93223283D01*
X193502155Y-93297298D01*
X193277085Y-93417533D01*
X193276580Y-93417871D01*
X193242039Y-93670197D01*
X192936801Y-93670197D01*
X192918237Y-93651633D01*
X192739351Y-93532105D01*
X192540583Y-93449772D01*
X192329572Y-93407800D01*
X192114428Y-93407800D01*
X191903417Y-93449772D01*
X191704649Y-93532105D01*
X191525763Y-93651633D01*
X191373633Y-93803763D01*
X191254105Y-93982649D01*
X191171772Y-94181417D01*
X191129800Y-94392428D01*
X104083655Y-94392428D01*
X103919524Y-94282759D01*
X103726107Y-94202643D01*
X103520777Y-94161800D01*
X103311423Y-94161800D01*
X103106093Y-94202643D01*
X102912676Y-94282759D01*
X102738605Y-94399070D01*
X102590570Y-94547105D01*
X102474259Y-94721176D01*
X102394143Y-94914593D01*
X102353300Y-95119923D01*
X78930500Y-95119923D01*
X78930500Y-92579923D01*
X99813300Y-92579923D01*
X99813300Y-92789277D01*
X99854143Y-92994607D01*
X99934259Y-93188024D01*
X100050570Y-93362095D01*
X100198605Y-93510130D01*
X100372676Y-93626441D01*
X100566093Y-93706557D01*
X100771423Y-93747400D01*
X100980777Y-93747400D01*
X101186107Y-93706557D01*
X101379524Y-93626441D01*
X101553595Y-93510130D01*
X101570233Y-93493492D01*
X105219050Y-93493492D01*
X105250057Y-93742810D01*
X105470070Y-93860219D01*
X105708761Y-93932450D01*
X105956957Y-93956726D01*
X106205120Y-93932115D01*
X106443713Y-93859563D01*
X106662143Y-93742810D01*
X106693150Y-93493492D01*
X105956100Y-92756442D01*
X105219050Y-93493492D01*
X101570233Y-93493492D01*
X101701630Y-93362095D01*
X101817941Y-93188024D01*
X101898057Y-92994607D01*
X101938900Y-92789277D01*
X101938900Y-92685457D01*
X104683974Y-92685457D01*
X104708585Y-92933620D01*
X104781137Y-93172213D01*
X104897890Y-93390643D01*
X105147208Y-93421650D01*
X105884258Y-92684600D01*
X106027942Y-92684600D01*
X106764992Y-93421650D01*
X107014310Y-93390643D01*
X107131719Y-93170630D01*
X107203950Y-92931939D01*
X107228226Y-92683743D01*
X107203615Y-92435580D01*
X107131063Y-92196987D01*
X107014310Y-91978557D01*
X106764992Y-91947550D01*
X106027942Y-92684600D01*
X105884258Y-92684600D01*
X105147208Y-91947550D01*
X104897890Y-91978557D01*
X104780481Y-92198570D01*
X104708250Y-92437261D01*
X104683974Y-92685457D01*
X101938900Y-92685457D01*
X101938900Y-92579923D01*
X101898057Y-92374593D01*
X101817941Y-92181176D01*
X101701630Y-92007105D01*
X101570233Y-91875708D01*
X105219050Y-91875708D01*
X105956100Y-92612758D01*
X106693150Y-91875708D01*
X106662143Y-91626390D01*
X106442130Y-91508981D01*
X106203439Y-91436750D01*
X105955243Y-91412474D01*
X105707080Y-91437085D01*
X105468487Y-91509637D01*
X105250057Y-91626390D01*
X105219050Y-91875708D01*
X101570233Y-91875708D01*
X101553595Y-91859070D01*
X101379524Y-91742759D01*
X101186107Y-91662643D01*
X100980777Y-91621800D01*
X100771423Y-91621800D01*
X100566093Y-91662643D01*
X100372676Y-91742759D01*
X100198605Y-91859070D01*
X100050570Y-92007105D01*
X99934259Y-92181176D01*
X99854143Y-92374593D01*
X99813300Y-92579923D01*
X78930500Y-92579923D01*
X78930500Y-88255114D01*
X190999300Y-88255114D01*
X190999300Y-90002087D01*
X191018353Y-90195538D01*
X191093650Y-90443756D01*
X191215925Y-90672514D01*
X191380478Y-90873023D01*
X191580987Y-91037576D01*
X191809745Y-91159851D01*
X192057963Y-91235147D01*
X192316100Y-91260571D01*
X192574238Y-91235147D01*
X192822456Y-91159851D01*
X193051214Y-91037576D01*
X193251723Y-90873023D01*
X193416276Y-90672514D01*
X193472262Y-90567773D01*
X193620489Y-90824106D01*
X193817219Y-91048124D01*
X194053872Y-91229457D01*
X194321354Y-91361137D01*
X194568278Y-91429901D01*
X194805300Y-91278638D01*
X194805300Y-89179400D01*
X194785300Y-89179400D01*
X194785300Y-89077800D01*
X194805300Y-89077800D01*
X194805300Y-86978562D01*
X194906900Y-86978562D01*
X194906900Y-89077800D01*
X194926900Y-89077800D01*
X194926900Y-89179400D01*
X194906900Y-89179400D01*
X194906900Y-91278638D01*
X195143922Y-91429901D01*
X195390846Y-91361137D01*
X195658328Y-91229457D01*
X195894981Y-91048124D01*
X196091711Y-90824106D01*
X196239939Y-90567773D01*
X196295925Y-90672514D01*
X196460478Y-90873023D01*
X196660987Y-91037576D01*
X196889745Y-91159851D01*
X197137963Y-91235147D01*
X197396100Y-91260571D01*
X197654238Y-91235147D01*
X197902456Y-91159851D01*
X198131214Y-91037576D01*
X198331723Y-90873023D01*
X198496276Y-90672514D01*
X198618551Y-90443756D01*
X198693847Y-90195538D01*
X198712900Y-90002087D01*
X198712900Y-88255113D01*
X198693847Y-88061662D01*
X198618551Y-87813444D01*
X198496276Y-87584686D01*
X198331723Y-87384177D01*
X198131213Y-87219624D01*
X197966865Y-87131777D01*
X204692000Y-87131777D01*
X204692000Y-87468223D01*
X204757638Y-87798205D01*
X204886390Y-88109041D01*
X205073310Y-88388786D01*
X205311214Y-88626690D01*
X205590959Y-88813610D01*
X205901795Y-88942362D01*
X206231777Y-89008000D01*
X206568223Y-89008000D01*
X206898205Y-88942362D01*
X207209041Y-88813610D01*
X207488786Y-88626690D01*
X207726690Y-88388786D01*
X207913610Y-88109041D01*
X208042362Y-87798205D01*
X208108000Y-87468223D01*
X208108000Y-87131777D01*
X208042362Y-86801795D01*
X207913610Y-86490959D01*
X207726690Y-86211214D01*
X207488786Y-85973310D01*
X207209041Y-85786390D01*
X206898205Y-85657638D01*
X206568223Y-85592000D01*
X206231777Y-85592000D01*
X205901795Y-85657638D01*
X205590959Y-85786390D01*
X205311214Y-85973310D01*
X205073310Y-86211214D01*
X204886390Y-86490959D01*
X204757638Y-86801795D01*
X204692000Y-87131777D01*
X197966865Y-87131777D01*
X197902455Y-87097349D01*
X197654237Y-87022053D01*
X197396100Y-86996629D01*
X197137962Y-87022053D01*
X196889744Y-87097349D01*
X196660986Y-87219624D01*
X196460477Y-87384177D01*
X196295924Y-87584687D01*
X196239939Y-87689427D01*
X196091711Y-87433094D01*
X195894981Y-87209076D01*
X195658328Y-87027743D01*
X195390846Y-86896063D01*
X195143922Y-86827299D01*
X194906900Y-86978562D01*
X194805300Y-86978562D01*
X194568278Y-86827299D01*
X194321354Y-86896063D01*
X194053872Y-87027743D01*
X193817219Y-87209076D01*
X193620489Y-87433094D01*
X193472262Y-87689427D01*
X193416276Y-87584686D01*
X193251723Y-87384177D01*
X193051213Y-87219624D01*
X192822455Y-87097349D01*
X192574237Y-87022053D01*
X192316100Y-86996629D01*
X192057962Y-87022053D01*
X191809744Y-87097349D01*
X191580986Y-87219624D01*
X191380477Y-87384177D01*
X191215924Y-87584687D01*
X191093649Y-87813445D01*
X191018353Y-88061663D01*
X190999300Y-88255114D01*
X78930500Y-88255114D01*
X78930500Y-81273840D01*
X88418200Y-81273840D01*
X88418200Y-81749160D01*
X88510931Y-82215346D01*
X88692828Y-82654484D01*
X88956901Y-83049698D01*
X89293002Y-83385799D01*
X89688216Y-83649872D01*
X90127354Y-83831769D01*
X90593540Y-83924500D01*
X91068860Y-83924500D01*
X91535046Y-83831769D01*
X91974184Y-83649872D01*
X92369398Y-83385799D01*
X92705499Y-83049698D01*
X92969572Y-82654484D01*
X93151469Y-82215346D01*
X93244200Y-81749160D01*
X93244200Y-81552300D01*
X96728300Y-81552300D01*
X96728300Y-82441300D01*
X96768958Y-82752507D01*
X96869548Y-83049803D01*
X97026205Y-83321762D01*
X97232908Y-83557933D01*
X97481714Y-83749240D01*
X97763062Y-83888332D01*
X98028125Y-83962255D01*
X98277700Y-83811993D01*
X98277700Y-81552300D01*
X96728300Y-81552300D01*
X93244200Y-81552300D01*
X93244200Y-81273840D01*
X93151469Y-80807654D01*
X93049592Y-80561700D01*
X96728300Y-80561700D01*
X96728300Y-81450700D01*
X98277700Y-81450700D01*
X98277700Y-79191007D01*
X98379300Y-79191007D01*
X98379300Y-81450700D01*
X98399300Y-81450700D01*
X98399300Y-81552300D01*
X98379300Y-81552300D01*
X98379300Y-83811993D01*
X98628875Y-83962255D01*
X98893938Y-83888332D01*
X99175286Y-83749240D01*
X99424092Y-83557933D01*
X99630795Y-83321762D01*
X99711115Y-83182325D01*
X99875892Y-83383107D01*
X100088613Y-83557683D01*
X100331305Y-83687404D01*
X100594640Y-83767286D01*
X100868500Y-83794259D01*
X101142359Y-83767286D01*
X101405694Y-83687404D01*
X101648386Y-83557683D01*
X101861107Y-83383108D01*
X102035683Y-83170387D01*
X102138500Y-82978029D01*
X102241317Y-83170386D01*
X102415892Y-83383107D01*
X102628613Y-83557683D01*
X102871305Y-83687404D01*
X103134640Y-83767286D01*
X103408500Y-83794259D01*
X103682359Y-83767286D01*
X103945694Y-83687404D01*
X104188386Y-83557683D01*
X104401107Y-83383108D01*
X104575683Y-83170387D01*
X104678500Y-82978029D01*
X104781317Y-83170386D01*
X104955892Y-83383107D01*
X105168613Y-83557683D01*
X105411305Y-83687404D01*
X105674640Y-83767286D01*
X105948500Y-83794259D01*
X106222359Y-83767286D01*
X106485694Y-83687404D01*
X106728386Y-83557683D01*
X106941107Y-83383108D01*
X107105885Y-83182326D01*
X107186205Y-83321762D01*
X107392908Y-83557933D01*
X107641714Y-83749240D01*
X107923062Y-83888332D01*
X108188125Y-83962255D01*
X108437700Y-83811993D01*
X108437700Y-81552300D01*
X108417700Y-81552300D01*
X108417700Y-81450700D01*
X108437700Y-81450700D01*
X108437700Y-79191007D01*
X108539300Y-79191007D01*
X108539300Y-81450700D01*
X108559300Y-81450700D01*
X108559300Y-81552300D01*
X108539300Y-81552300D01*
X108539300Y-83811993D01*
X108788875Y-83962255D01*
X109053938Y-83888332D01*
X109335286Y-83749240D01*
X109584092Y-83557933D01*
X109790795Y-83321762D01*
X109871115Y-83182325D01*
X110035892Y-83383107D01*
X110248613Y-83557683D01*
X110491305Y-83687404D01*
X110754640Y-83767286D01*
X111028500Y-83794259D01*
X111302359Y-83767286D01*
X111565694Y-83687404D01*
X111808386Y-83557683D01*
X112021107Y-83383108D01*
X112195683Y-83170387D01*
X112298500Y-82978029D01*
X112401317Y-83170386D01*
X112575892Y-83383107D01*
X112788613Y-83557683D01*
X113031305Y-83687404D01*
X113294640Y-83767286D01*
X113568500Y-83794259D01*
X113842359Y-83767286D01*
X114105694Y-83687404D01*
X114348386Y-83557683D01*
X114561107Y-83383108D01*
X114735683Y-83170387D01*
X114838500Y-82978029D01*
X114941317Y-83170386D01*
X115115892Y-83383107D01*
X115328613Y-83557683D01*
X115571305Y-83687404D01*
X115834640Y-83767286D01*
X116108500Y-83794259D01*
X116382359Y-83767286D01*
X116645694Y-83687404D01*
X116888386Y-83557683D01*
X117101107Y-83383108D01*
X117275683Y-83170387D01*
X117378500Y-82978029D01*
X117481317Y-83170386D01*
X117655892Y-83383107D01*
X117868613Y-83557683D01*
X118111305Y-83687404D01*
X118374640Y-83767286D01*
X118648500Y-83794259D01*
X118922359Y-83767286D01*
X119185694Y-83687404D01*
X119428386Y-83557683D01*
X119641107Y-83383108D01*
X119815683Y-83170387D01*
X119918500Y-82978029D01*
X120021317Y-83170386D01*
X120195892Y-83383107D01*
X120408613Y-83557683D01*
X120651305Y-83687404D01*
X120914640Y-83767286D01*
X121188500Y-83794259D01*
X121462359Y-83767286D01*
X121725694Y-83687404D01*
X121968386Y-83557683D01*
X122181107Y-83383108D01*
X122355683Y-83170387D01*
X122458500Y-82978029D01*
X122561317Y-83170386D01*
X122735892Y-83383107D01*
X122948613Y-83557683D01*
X123191305Y-83687404D01*
X123454640Y-83767286D01*
X123728500Y-83794259D01*
X124002359Y-83767286D01*
X124265694Y-83687404D01*
X124508386Y-83557683D01*
X124721107Y-83383108D01*
X124895683Y-83170387D01*
X124998500Y-82978029D01*
X125101317Y-83170386D01*
X125275892Y-83383107D01*
X125488613Y-83557683D01*
X125731305Y-83687404D01*
X125994640Y-83767286D01*
X126268500Y-83794259D01*
X126542359Y-83767286D01*
X126805694Y-83687404D01*
X127048386Y-83557683D01*
X127261107Y-83383108D01*
X127435683Y-83170387D01*
X127538500Y-82978029D01*
X127641317Y-83170386D01*
X127815892Y-83383107D01*
X128028613Y-83557683D01*
X128271305Y-83687404D01*
X128534640Y-83767286D01*
X128808500Y-83794259D01*
X129082359Y-83767286D01*
X129345694Y-83687404D01*
X129588386Y-83557683D01*
X129801107Y-83383108D01*
X129975683Y-83170387D01*
X130078500Y-82978029D01*
X130181317Y-83170386D01*
X130355892Y-83383107D01*
X130568613Y-83557683D01*
X130811305Y-83687404D01*
X131074640Y-83767286D01*
X131348500Y-83794259D01*
X131622359Y-83767286D01*
X131885694Y-83687404D01*
X132128386Y-83557683D01*
X132341107Y-83383108D01*
X132515683Y-83170387D01*
X132618500Y-82978029D01*
X132721317Y-83170386D01*
X132895892Y-83383107D01*
X133108613Y-83557683D01*
X133351305Y-83687404D01*
X133614640Y-83767286D01*
X133888500Y-83794259D01*
X134162359Y-83767286D01*
X134425694Y-83687404D01*
X134668386Y-83557683D01*
X134881107Y-83383108D01*
X135045885Y-83182326D01*
X135126205Y-83321762D01*
X135332908Y-83557933D01*
X135581714Y-83749240D01*
X135863062Y-83888332D01*
X136128125Y-83962255D01*
X136377700Y-83811993D01*
X136377700Y-81552300D01*
X136479300Y-81552300D01*
X136479300Y-83811993D01*
X136728875Y-83962255D01*
X136993938Y-83888332D01*
X137275286Y-83749240D01*
X137524092Y-83557933D01*
X137730795Y-83321762D01*
X137887452Y-83049803D01*
X137988042Y-82752507D01*
X138028700Y-82441300D01*
X138028700Y-81552300D01*
X136479300Y-81552300D01*
X136377700Y-81552300D01*
X136357700Y-81552300D01*
X136357700Y-81450700D01*
X136377700Y-81450700D01*
X136377700Y-79191007D01*
X136479300Y-79191007D01*
X136479300Y-81450700D01*
X138028700Y-81450700D01*
X138028700Y-81263840D01*
X181428200Y-81263840D01*
X181428200Y-81739160D01*
X181520931Y-82205346D01*
X181702828Y-82644484D01*
X181966901Y-83039698D01*
X182303002Y-83375799D01*
X182698216Y-83639872D01*
X183137354Y-83821769D01*
X183603540Y-83914500D01*
X184078860Y-83914500D01*
X184545046Y-83821769D01*
X184984184Y-83639872D01*
X185379398Y-83375799D01*
X185696726Y-83058471D01*
X210435803Y-83058471D01*
X210501295Y-83293905D01*
X210628281Y-83552605D01*
X210803297Y-83781560D01*
X211019617Y-83971972D01*
X211268928Y-84116523D01*
X211541649Y-84209659D01*
X211827300Y-84247800D01*
X212585300Y-84247800D01*
X212585300Y-82829400D01*
X212686900Y-82829400D01*
X212686900Y-84247800D01*
X213444900Y-84247800D01*
X213730551Y-84209659D01*
X214003272Y-84116523D01*
X214252583Y-83971972D01*
X214468903Y-83781560D01*
X214643919Y-83552605D01*
X214770905Y-83293905D01*
X214836397Y-83058471D01*
X214684500Y-82829400D01*
X212686900Y-82829400D01*
X212585300Y-82829400D01*
X210587700Y-82829400D01*
X210435803Y-83058471D01*
X185696726Y-83058471D01*
X185715499Y-83039698D01*
X185979572Y-82644484D01*
X186039945Y-82498729D01*
X210435803Y-82498729D01*
X210587700Y-82727800D01*
X212585300Y-82727800D01*
X212585300Y-82707800D01*
X212686900Y-82707800D01*
X212686900Y-82727800D01*
X214684500Y-82727800D01*
X214836397Y-82498729D01*
X214770905Y-82263295D01*
X214643919Y-82004595D01*
X214468903Y-81775640D01*
X214252583Y-81585228D01*
X214003272Y-81440677D01*
X213898040Y-81404740D01*
X214100855Y-81296333D01*
X214293628Y-81138128D01*
X214451833Y-80945355D01*
X214569390Y-80725421D01*
X214641781Y-80486779D01*
X214666225Y-80238600D01*
X214641781Y-79990421D01*
X214569390Y-79751779D01*
X214451833Y-79531845D01*
X214293628Y-79339072D01*
X214100855Y-79180867D01*
X213880921Y-79063310D01*
X213642279Y-78990919D01*
X213456287Y-78972600D01*
X211815913Y-78972600D01*
X211629921Y-78990919D01*
X211391279Y-79063310D01*
X211171345Y-79180867D01*
X210978572Y-79339072D01*
X210820367Y-79531845D01*
X210702810Y-79751779D01*
X210630419Y-79990421D01*
X210605975Y-80238600D01*
X210630419Y-80486779D01*
X210702810Y-80725421D01*
X210820367Y-80945355D01*
X210978572Y-81138128D01*
X211171345Y-81296333D01*
X211374160Y-81404740D01*
X211268928Y-81440677D01*
X211019617Y-81585228D01*
X210803297Y-81775640D01*
X210628281Y-82004595D01*
X210501295Y-82263295D01*
X210435803Y-82498729D01*
X186039945Y-82498729D01*
X186161469Y-82205346D01*
X186254200Y-81739160D01*
X186254200Y-81263840D01*
X186161469Y-80797654D01*
X185979572Y-80358516D01*
X185715499Y-79963302D01*
X185379398Y-79627201D01*
X184984184Y-79363128D01*
X184545046Y-79181231D01*
X184078860Y-79088500D01*
X183603540Y-79088500D01*
X183137354Y-79181231D01*
X182698216Y-79363128D01*
X182303002Y-79627201D01*
X181966901Y-79963302D01*
X181702828Y-80358516D01*
X181520931Y-80797654D01*
X181428200Y-81263840D01*
X138028700Y-81263840D01*
X138028700Y-80561700D01*
X137988042Y-80250493D01*
X137887452Y-79953197D01*
X137730795Y-79681238D01*
X137524092Y-79445067D01*
X137275286Y-79253760D01*
X136993938Y-79114668D01*
X136728875Y-79040745D01*
X136479300Y-79191007D01*
X136377700Y-79191007D01*
X136128125Y-79040745D01*
X135863062Y-79114668D01*
X135581714Y-79253760D01*
X135332908Y-79445067D01*
X135126205Y-79681238D01*
X135045885Y-79820674D01*
X134881108Y-79619892D01*
X134668387Y-79445317D01*
X134425695Y-79315596D01*
X134162360Y-79235714D01*
X133888500Y-79208741D01*
X133614641Y-79235714D01*
X133351306Y-79315596D01*
X133108614Y-79445317D01*
X132895893Y-79619892D01*
X132721318Y-79832613D01*
X132618501Y-80024972D01*
X132515683Y-79832613D01*
X132341108Y-79619892D01*
X132128387Y-79445317D01*
X131885695Y-79315596D01*
X131622360Y-79235714D01*
X131348500Y-79208741D01*
X131074641Y-79235714D01*
X130811306Y-79315596D01*
X130568614Y-79445317D01*
X130355893Y-79619892D01*
X130181318Y-79832613D01*
X130078501Y-80024972D01*
X129975683Y-79832613D01*
X129801108Y-79619892D01*
X129588387Y-79445317D01*
X129345695Y-79315596D01*
X129082360Y-79235714D01*
X128808500Y-79208741D01*
X128534641Y-79235714D01*
X128271306Y-79315596D01*
X128028614Y-79445317D01*
X127815893Y-79619892D01*
X127641318Y-79832613D01*
X127538501Y-80024972D01*
X127435683Y-79832613D01*
X127261108Y-79619892D01*
X127048387Y-79445317D01*
X126805695Y-79315596D01*
X126542360Y-79235714D01*
X126268500Y-79208741D01*
X125994641Y-79235714D01*
X125731306Y-79315596D01*
X125488614Y-79445317D01*
X125275893Y-79619892D01*
X125101318Y-79832613D01*
X124998501Y-80024972D01*
X124895683Y-79832613D01*
X124721108Y-79619892D01*
X124508387Y-79445317D01*
X124265695Y-79315596D01*
X124002360Y-79235714D01*
X123728500Y-79208741D01*
X123454641Y-79235714D01*
X123191306Y-79315596D01*
X122948614Y-79445317D01*
X122735893Y-79619892D01*
X122561318Y-79832613D01*
X122458501Y-80024972D01*
X122355683Y-79832613D01*
X122181108Y-79619892D01*
X121968387Y-79445317D01*
X121725695Y-79315596D01*
X121462360Y-79235714D01*
X121188500Y-79208741D01*
X120914641Y-79235714D01*
X120651306Y-79315596D01*
X120408614Y-79445317D01*
X120195893Y-79619892D01*
X120021318Y-79832613D01*
X119918501Y-80024972D01*
X119815683Y-79832613D01*
X119641108Y-79619892D01*
X119428387Y-79445317D01*
X119185695Y-79315596D01*
X118922360Y-79235714D01*
X118648500Y-79208741D01*
X118374641Y-79235714D01*
X118111306Y-79315596D01*
X117868614Y-79445317D01*
X117655893Y-79619892D01*
X117481318Y-79832613D01*
X117378501Y-80024972D01*
X117275683Y-79832613D01*
X117101108Y-79619892D01*
X116888387Y-79445317D01*
X116645695Y-79315596D01*
X116382360Y-79235714D01*
X116108500Y-79208741D01*
X115834641Y-79235714D01*
X115571306Y-79315596D01*
X115328614Y-79445317D01*
X115115893Y-79619892D01*
X114941318Y-79832613D01*
X114838501Y-80024972D01*
X114735683Y-79832613D01*
X114561108Y-79619892D01*
X114348387Y-79445317D01*
X114105695Y-79315596D01*
X113842360Y-79235714D01*
X113568500Y-79208741D01*
X113294641Y-79235714D01*
X113031306Y-79315596D01*
X112788614Y-79445317D01*
X112575893Y-79619892D01*
X112401318Y-79832613D01*
X112298501Y-80024972D01*
X112195683Y-79832613D01*
X112021108Y-79619892D01*
X111808387Y-79445317D01*
X111565695Y-79315596D01*
X111302360Y-79235714D01*
X111028500Y-79208741D01*
X110754641Y-79235714D01*
X110491306Y-79315596D01*
X110248614Y-79445317D01*
X110035893Y-79619892D01*
X109871115Y-79820675D01*
X109790795Y-79681238D01*
X109584092Y-79445067D01*
X109335286Y-79253760D01*
X109053938Y-79114668D01*
X108788875Y-79040745D01*
X108539300Y-79191007D01*
X108437700Y-79191007D01*
X108188125Y-79040745D01*
X107923062Y-79114668D01*
X107641714Y-79253760D01*
X107392908Y-79445067D01*
X107186205Y-79681238D01*
X107105885Y-79820674D01*
X106941108Y-79619892D01*
X106728387Y-79445317D01*
X106485695Y-79315596D01*
X106222360Y-79235714D01*
X105948500Y-79208741D01*
X105674641Y-79235714D01*
X105411306Y-79315596D01*
X105168614Y-79445317D01*
X104955893Y-79619892D01*
X104781318Y-79832613D01*
X104678501Y-80024972D01*
X104575683Y-79832613D01*
X104401108Y-79619892D01*
X104188387Y-79445317D01*
X103945695Y-79315596D01*
X103682360Y-79235714D01*
X103408500Y-79208741D01*
X103134641Y-79235714D01*
X102871306Y-79315596D01*
X102628614Y-79445317D01*
X102415893Y-79619892D01*
X102241318Y-79832613D01*
X102138501Y-80024972D01*
X102035683Y-79832613D01*
X101861108Y-79619892D01*
X101648387Y-79445317D01*
X101405695Y-79315596D01*
X101142360Y-79235714D01*
X100868500Y-79208741D01*
X100594641Y-79235714D01*
X100331306Y-79315596D01*
X100088614Y-79445317D01*
X99875893Y-79619892D01*
X99711115Y-79820675D01*
X99630795Y-79681238D01*
X99424092Y-79445067D01*
X99175286Y-79253760D01*
X98893938Y-79114668D01*
X98628875Y-79040745D01*
X98379300Y-79191007D01*
X98277700Y-79191007D01*
X98028125Y-79040745D01*
X97763062Y-79114668D01*
X97481714Y-79253760D01*
X97232908Y-79445067D01*
X97026205Y-79681238D01*
X96869548Y-79953197D01*
X96768958Y-80250493D01*
X96728300Y-80561700D01*
X93049592Y-80561700D01*
X92969572Y-80368516D01*
X92705499Y-79973302D01*
X92369398Y-79637201D01*
X91974184Y-79373128D01*
X91535046Y-79191231D01*
X91068860Y-79098500D01*
X90593540Y-79098500D01*
X90127354Y-79191231D01*
X89688216Y-79373128D01*
X89293002Y-79637201D01*
X88956901Y-79973302D01*
X88692828Y-80368516D01*
X88510931Y-80807654D01*
X88418200Y-81273840D01*
X78930500Y-81273840D01*
X78930500Y-75983267D01*
X94988575Y-75983267D01*
X95049039Y-76257674D01*
X95310750Y-76399522D01*
X95595105Y-76487587D01*
X95891177Y-76518486D01*
X96187589Y-76491029D01*
X96472948Y-76406273D01*
X96736290Y-76267476D01*
X96750961Y-76257674D01*
X96811425Y-75983267D01*
X95900000Y-75071842D01*
X94988575Y-75983267D01*
X78930500Y-75983267D01*
X78930500Y-74991177D01*
X94381514Y-74991177D01*
X94408971Y-75287589D01*
X94493727Y-75572948D01*
X94632524Y-75836290D01*
X94642326Y-75850961D01*
X94916733Y-75911425D01*
X95828158Y-75000000D01*
X95971842Y-75000000D01*
X96883267Y-75911425D01*
X97157674Y-75850961D01*
X97299522Y-75589250D01*
X97387587Y-75304895D01*
X97418486Y-75008823D01*
X97405736Y-74871173D01*
X99592000Y-74871173D01*
X99592000Y-75128827D01*
X99642266Y-75381530D01*
X99740865Y-75619570D01*
X99884010Y-75833801D01*
X100066199Y-76015990D01*
X100280430Y-76159135D01*
X100518470Y-76257734D01*
X100771173Y-76308000D01*
X101028827Y-76308000D01*
X101281530Y-76257734D01*
X101519570Y-76159135D01*
X101733801Y-76015990D01*
X101915990Y-75833801D01*
X102059135Y-75619570D01*
X102157734Y-75381530D01*
X102208000Y-75128827D01*
X102208000Y-74871173D01*
X102157734Y-74618470D01*
X102059135Y-74380430D01*
X101915990Y-74166199D01*
X101733801Y-73984010D01*
X101519570Y-73840865D01*
X101281530Y-73742266D01*
X101028827Y-73692000D01*
X100771173Y-73692000D01*
X100518470Y-73742266D01*
X100280430Y-73840865D01*
X100066199Y-73984010D01*
X99884010Y-74166199D01*
X99740865Y-74380430D01*
X99642266Y-74618470D01*
X99592000Y-74871173D01*
X97405736Y-74871173D01*
X97391029Y-74712411D01*
X97306273Y-74427052D01*
X97167476Y-74163710D01*
X97157674Y-74149039D01*
X96883267Y-74088575D01*
X95971842Y-75000000D01*
X95828158Y-75000000D01*
X94916733Y-74088575D01*
X94642326Y-74149039D01*
X94500478Y-74410750D01*
X94412413Y-74695105D01*
X94381514Y-74991177D01*
X78930500Y-74991177D01*
X78930500Y-74016733D01*
X94988575Y-74016733D01*
X95900000Y-74928158D01*
X96811425Y-74016733D01*
X96750961Y-73742326D01*
X96489250Y-73600478D01*
X96204895Y-73512413D01*
X95908823Y-73481514D01*
X95612411Y-73508971D01*
X95327052Y-73593727D01*
X95063710Y-73732524D01*
X95049039Y-73742326D01*
X94988575Y-74016733D01*
X78930500Y-74016733D01*
X78930500Y-71121282D01*
X80788100Y-71121282D01*
X80788100Y-71575918D01*
X80876796Y-72021819D01*
X81050777Y-72441848D01*
X81303360Y-72819864D01*
X81624836Y-73141340D01*
X82002852Y-73393923D01*
X82422881Y-73567904D01*
X82868782Y-73656600D01*
X83323418Y-73656600D01*
X83769319Y-73567904D01*
X84189348Y-73393923D01*
X84567364Y-73141340D01*
X84708704Y-73000000D01*
X107096800Y-73000000D01*
X107096800Y-77100000D01*
X107100704Y-77139642D01*
X107112268Y-77177761D01*
X107131045Y-77212892D01*
X107156316Y-77243684D01*
X107187108Y-77268955D01*
X107222239Y-77287732D01*
X107260358Y-77299296D01*
X107300000Y-77303200D01*
X117600000Y-77303200D01*
X117639642Y-77299296D01*
X117677761Y-77287732D01*
X117712892Y-77268955D01*
X117743684Y-77243684D01*
X117768955Y-77212892D01*
X117787732Y-77177761D01*
X117799296Y-77139642D01*
X117803200Y-77100000D01*
X117803200Y-76271173D01*
X131692000Y-76271173D01*
X131692000Y-76528827D01*
X131742266Y-76781530D01*
X131840865Y-77019570D01*
X131984010Y-77233801D01*
X132166199Y-77415990D01*
X132380430Y-77559135D01*
X132618470Y-77657734D01*
X132871173Y-77708000D01*
X133128827Y-77708000D01*
X133381530Y-77657734D01*
X133619570Y-77559135D01*
X133833801Y-77415990D01*
X134015990Y-77233801D01*
X134159135Y-77019570D01*
X134257734Y-76781530D01*
X134308000Y-76528827D01*
X134308000Y-76271173D01*
X139312000Y-76271173D01*
X139312000Y-76528827D01*
X139362266Y-76781530D01*
X139460865Y-77019570D01*
X139604010Y-77233801D01*
X139786199Y-77415990D01*
X140000430Y-77559135D01*
X140238470Y-77657734D01*
X140491173Y-77708000D01*
X140748827Y-77708000D01*
X141001530Y-77657734D01*
X141239570Y-77559135D01*
X141453801Y-77415990D01*
X141635990Y-77233801D01*
X141779135Y-77019570D01*
X141877734Y-76781530D01*
X141928000Y-76528827D01*
X141928000Y-76271173D01*
X141877734Y-76018470D01*
X141779135Y-75780430D01*
X141635990Y-75566199D01*
X141453801Y-75384010D01*
X141239570Y-75240865D01*
X141001530Y-75142266D01*
X140748827Y-75092000D01*
X140491173Y-75092000D01*
X140238470Y-75142266D01*
X140000430Y-75240865D01*
X139786199Y-75384010D01*
X139604010Y-75566199D01*
X139460865Y-75780430D01*
X139362266Y-76018470D01*
X139312000Y-76271173D01*
X134308000Y-76271173D01*
X134257734Y-76018470D01*
X134159135Y-75780430D01*
X134015990Y-75566199D01*
X133833801Y-75384010D01*
X133619570Y-75240865D01*
X133381530Y-75142266D01*
X133128827Y-75092000D01*
X132871173Y-75092000D01*
X132618470Y-75142266D01*
X132380430Y-75240865D01*
X132166199Y-75384010D01*
X131984010Y-75566199D01*
X131840865Y-75780430D01*
X131742266Y-76018470D01*
X131692000Y-76271173D01*
X117803200Y-76271173D01*
X117803200Y-73000000D01*
X117799296Y-72960358D01*
X117787732Y-72922239D01*
X117768955Y-72887108D01*
X117743684Y-72856316D01*
X117712892Y-72831045D01*
X117677761Y-72812268D01*
X117639642Y-72800704D01*
X117600000Y-72796800D01*
X107300000Y-72796800D01*
X107260358Y-72800704D01*
X107222239Y-72812268D01*
X107187108Y-72831045D01*
X107156316Y-72856316D01*
X107131045Y-72887108D01*
X107112268Y-72922239D01*
X107100704Y-72960358D01*
X107096800Y-73000000D01*
X84708704Y-73000000D01*
X84888840Y-72819864D01*
X85068623Y-72550800D01*
X136620800Y-72550800D01*
X136620800Y-73308800D01*
X136658941Y-73594451D01*
X136752077Y-73867172D01*
X136896628Y-74116483D01*
X137087040Y-74332803D01*
X137315995Y-74507819D01*
X137574695Y-74634805D01*
X137810129Y-74700297D01*
X138039200Y-74548400D01*
X138039200Y-72550800D01*
X136620800Y-72550800D01*
X85068623Y-72550800D01*
X85141423Y-72441848D01*
X85315404Y-72021819D01*
X85381168Y-71691200D01*
X136620800Y-71691200D01*
X136620800Y-72449200D01*
X138039200Y-72449200D01*
X138039200Y-70451600D01*
X138140800Y-70451600D01*
X138140800Y-72449200D01*
X138160800Y-72449200D01*
X138160800Y-72550800D01*
X138140800Y-72550800D01*
X138140800Y-74548400D01*
X138369871Y-74700297D01*
X138605305Y-74634805D01*
X138864005Y-74507819D01*
X139092960Y-74332803D01*
X139283372Y-74116483D01*
X139427923Y-73867172D01*
X139463861Y-73761940D01*
X139572267Y-73964754D01*
X139730472Y-74157528D01*
X139923245Y-74315733D01*
X140143179Y-74433290D01*
X140381821Y-74505681D01*
X140630000Y-74530125D01*
X140878178Y-74505681D01*
X141116820Y-74433290D01*
X141336754Y-74315733D01*
X141529528Y-74157528D01*
X141687733Y-73964755D01*
X141805290Y-73744821D01*
X141877681Y-73506179D01*
X141896000Y-73320187D01*
X141896000Y-71679813D01*
X141904000Y-71679813D01*
X141904000Y-73320186D01*
X141922319Y-73506178D01*
X141994710Y-73744820D01*
X142112267Y-73964754D01*
X142270472Y-74157528D01*
X142463245Y-74315733D01*
X142683179Y-74433290D01*
X142921821Y-74505681D01*
X143170000Y-74530125D01*
X143418178Y-74505681D01*
X143656820Y-74433290D01*
X143876754Y-74315733D01*
X144069528Y-74157528D01*
X144227733Y-73964755D01*
X144345290Y-73744821D01*
X144417681Y-73506179D01*
X144436000Y-73320187D01*
X144436000Y-71679813D01*
X144444000Y-71679813D01*
X144444000Y-73320186D01*
X144462319Y-73506178D01*
X144534710Y-73744820D01*
X144652267Y-73964754D01*
X144810472Y-74157528D01*
X145003245Y-74315733D01*
X145223179Y-74433290D01*
X145461821Y-74505681D01*
X145710000Y-74530125D01*
X145958178Y-74505681D01*
X146196820Y-74433290D01*
X146416754Y-74315733D01*
X146609528Y-74157528D01*
X146767733Y-73964755D01*
X146885290Y-73744821D01*
X146957681Y-73506179D01*
X146976000Y-73320187D01*
X146976000Y-72450800D01*
X154920800Y-72450800D01*
X154920800Y-73208800D01*
X154958941Y-73494451D01*
X155052077Y-73767172D01*
X155196628Y-74016483D01*
X155387040Y-74232803D01*
X155615995Y-74407819D01*
X155874695Y-74534805D01*
X156110129Y-74600297D01*
X156339200Y-74448400D01*
X156339200Y-72450800D01*
X154920800Y-72450800D01*
X146976000Y-72450800D01*
X146976000Y-71679813D01*
X146967273Y-71591200D01*
X154920800Y-71591200D01*
X154920800Y-72349200D01*
X156339200Y-72349200D01*
X156339200Y-70351600D01*
X156440800Y-70351600D01*
X156440800Y-72349200D01*
X156460800Y-72349200D01*
X156460800Y-72450800D01*
X156440800Y-72450800D01*
X156440800Y-74448400D01*
X156669871Y-74600297D01*
X156905305Y-74534805D01*
X157164005Y-74407819D01*
X157392960Y-74232803D01*
X157583372Y-74016483D01*
X157727923Y-73767172D01*
X157763861Y-73661940D01*
X157872267Y-73864754D01*
X158030472Y-74057528D01*
X158223245Y-74215733D01*
X158443179Y-74333290D01*
X158681821Y-74405681D01*
X158930000Y-74430125D01*
X159178178Y-74405681D01*
X159416820Y-74333290D01*
X159636754Y-74215733D01*
X159829528Y-74057528D01*
X159987733Y-73864755D01*
X160105290Y-73644821D01*
X160177681Y-73406179D01*
X160196000Y-73220187D01*
X160196000Y-71579813D01*
X160204000Y-71579813D01*
X160204000Y-73220186D01*
X160222319Y-73406178D01*
X160294710Y-73644820D01*
X160412267Y-73864754D01*
X160570472Y-74057528D01*
X160763245Y-74215733D01*
X160983179Y-74333290D01*
X161221821Y-74405681D01*
X161470000Y-74430125D01*
X161718178Y-74405681D01*
X161956820Y-74333290D01*
X162176754Y-74215733D01*
X162369528Y-74057528D01*
X162527733Y-73864755D01*
X162645290Y-73644821D01*
X162717681Y-73406179D01*
X162736000Y-73220187D01*
X162736000Y-71579813D01*
X162744000Y-71579813D01*
X162744000Y-73220186D01*
X162762319Y-73406178D01*
X162834710Y-73644820D01*
X162952267Y-73864754D01*
X163110472Y-74057528D01*
X163303245Y-74215733D01*
X163523179Y-74333290D01*
X163761821Y-74405681D01*
X164010000Y-74430125D01*
X164258178Y-74405681D01*
X164496820Y-74333290D01*
X164716754Y-74215733D01*
X164909528Y-74057528D01*
X165067733Y-73864755D01*
X165185290Y-73644821D01*
X165257681Y-73406179D01*
X165276000Y-73220187D01*
X165276000Y-71779813D01*
X172794000Y-71779813D01*
X172794000Y-73420186D01*
X172812319Y-73606178D01*
X172884710Y-73844820D01*
X173002267Y-74064754D01*
X173160472Y-74257528D01*
X173353245Y-74415733D01*
X173573179Y-74533290D01*
X173811821Y-74605681D01*
X174060000Y-74630125D01*
X174308178Y-74605681D01*
X174546820Y-74533290D01*
X174766754Y-74415733D01*
X174959528Y-74257528D01*
X175117733Y-74064755D01*
X175235290Y-73844821D01*
X175307681Y-73606179D01*
X175326000Y-73420187D01*
X175326000Y-71779813D01*
X175334000Y-71779813D01*
X175334000Y-73420186D01*
X175352319Y-73606178D01*
X175424710Y-73844820D01*
X175542267Y-74064754D01*
X175700472Y-74257528D01*
X175893245Y-74415733D01*
X176113179Y-74533290D01*
X176351821Y-74605681D01*
X176600000Y-74630125D01*
X176848178Y-74605681D01*
X177086820Y-74533290D01*
X177306754Y-74415733D01*
X177499528Y-74257528D01*
X177657733Y-74064755D01*
X177766140Y-73861940D01*
X177802077Y-73967172D01*
X177946628Y-74216483D01*
X178137040Y-74432803D01*
X178365995Y-74607819D01*
X178624695Y-74734805D01*
X178860129Y-74800297D01*
X179089200Y-74648400D01*
X179089200Y-72650800D01*
X179190800Y-72650800D01*
X179190800Y-74648400D01*
X179419871Y-74800297D01*
X179655305Y-74734805D01*
X179914005Y-74607819D01*
X180142960Y-74432803D01*
X180333372Y-74216483D01*
X180477923Y-73967172D01*
X180490632Y-73929957D01*
X192697100Y-73929957D01*
X192697100Y-74355243D01*
X192780070Y-74772357D01*
X192942819Y-75165270D01*
X193179096Y-75518882D01*
X193479818Y-75819604D01*
X193833430Y-76055881D01*
X194226343Y-76218630D01*
X194643457Y-76301600D01*
X195068743Y-76301600D01*
X195485857Y-76218630D01*
X195878770Y-76055881D01*
X196232382Y-75819604D01*
X196533104Y-75518882D01*
X196769381Y-75165270D01*
X196932130Y-74772357D01*
X197015100Y-74355243D01*
X197015100Y-73929957D01*
X196932130Y-73512843D01*
X196769381Y-73119930D01*
X196533104Y-72766318D01*
X196232382Y-72465596D01*
X195878770Y-72229319D01*
X195485857Y-72066570D01*
X195068743Y-71983600D01*
X194643457Y-71983600D01*
X194226343Y-72066570D01*
X193833430Y-72229319D01*
X193479818Y-72465596D01*
X193179096Y-72766318D01*
X192942819Y-73119930D01*
X192780070Y-73512843D01*
X192697100Y-73929957D01*
X180490632Y-73929957D01*
X180571059Y-73694451D01*
X180609200Y-73408800D01*
X180609200Y-72650800D01*
X179190800Y-72650800D01*
X179089200Y-72650800D01*
X179069200Y-72650800D01*
X179069200Y-72549200D01*
X179089200Y-72549200D01*
X179089200Y-70551600D01*
X179190800Y-70551600D01*
X179190800Y-72549200D01*
X180609200Y-72549200D01*
X180609200Y-71891777D01*
X204692000Y-71891777D01*
X204692000Y-72228223D01*
X204757638Y-72558205D01*
X204886390Y-72869041D01*
X205073310Y-73148786D01*
X205311214Y-73386690D01*
X205590959Y-73573610D01*
X205901795Y-73702362D01*
X206231777Y-73768000D01*
X206568223Y-73768000D01*
X206898205Y-73702362D01*
X207209041Y-73573610D01*
X207488786Y-73386690D01*
X207726690Y-73148786D01*
X207913610Y-72869041D01*
X208042362Y-72558205D01*
X208108000Y-72228223D01*
X208108000Y-71891777D01*
X208042362Y-71561795D01*
X207913610Y-71250959D01*
X207826963Y-71121282D01*
X211598100Y-71121282D01*
X211598100Y-71575918D01*
X211686796Y-72021819D01*
X211860777Y-72441848D01*
X212113360Y-72819864D01*
X212434836Y-73141340D01*
X212812852Y-73393923D01*
X213232881Y-73567904D01*
X213678782Y-73656600D01*
X214133418Y-73656600D01*
X214579319Y-73567904D01*
X214999348Y-73393923D01*
X215377364Y-73141340D01*
X215698840Y-72819864D01*
X215951423Y-72441848D01*
X216125404Y-72021819D01*
X216214100Y-71575918D01*
X216214100Y-71121282D01*
X216125404Y-70675381D01*
X215951423Y-70255352D01*
X215698840Y-69877336D01*
X215377364Y-69555860D01*
X214999348Y-69303277D01*
X214579319Y-69129296D01*
X214133418Y-69040600D01*
X213678782Y-69040600D01*
X213232881Y-69129296D01*
X212812852Y-69303277D01*
X212434836Y-69555860D01*
X212113360Y-69877336D01*
X211860777Y-70255352D01*
X211686796Y-70675381D01*
X211598100Y-71121282D01*
X207826963Y-71121282D01*
X207726690Y-70971214D01*
X207488786Y-70733310D01*
X207209041Y-70546390D01*
X206898205Y-70417638D01*
X206568223Y-70352000D01*
X206231777Y-70352000D01*
X205901795Y-70417638D01*
X205590959Y-70546390D01*
X205311214Y-70733310D01*
X205073310Y-70971214D01*
X204886390Y-71250959D01*
X204757638Y-71561795D01*
X204692000Y-71891777D01*
X180609200Y-71891777D01*
X180609200Y-71791200D01*
X180571059Y-71505549D01*
X180477923Y-71232828D01*
X180333372Y-70983517D01*
X180142960Y-70767197D01*
X179914005Y-70592181D01*
X179655305Y-70465195D01*
X179419871Y-70399703D01*
X179190800Y-70551600D01*
X179089200Y-70551600D01*
X178860129Y-70399703D01*
X178624695Y-70465195D01*
X178365995Y-70592181D01*
X178137040Y-70767197D01*
X177946628Y-70983517D01*
X177802077Y-71232828D01*
X177766140Y-71338060D01*
X177657733Y-71135245D01*
X177499528Y-70942472D01*
X177306755Y-70784267D01*
X177086821Y-70666710D01*
X176848179Y-70594319D01*
X176600000Y-70569875D01*
X176351822Y-70594319D01*
X176113180Y-70666710D01*
X175893246Y-70784267D01*
X175700473Y-70942472D01*
X175542268Y-71135245D01*
X175424711Y-71355179D01*
X175352319Y-71593821D01*
X175334000Y-71779813D01*
X175326000Y-71779813D01*
X175307681Y-71593821D01*
X175235290Y-71355179D01*
X175117733Y-71135245D01*
X174959528Y-70942472D01*
X174766755Y-70784267D01*
X174546821Y-70666710D01*
X174308179Y-70594319D01*
X174060000Y-70569875D01*
X173811822Y-70594319D01*
X173573180Y-70666710D01*
X173353246Y-70784267D01*
X173160473Y-70942472D01*
X173002268Y-71135245D01*
X172884711Y-71355179D01*
X172812319Y-71593821D01*
X172794000Y-71779813D01*
X165276000Y-71779813D01*
X165276000Y-71579813D01*
X165257681Y-71393821D01*
X165185290Y-71155179D01*
X165067733Y-70935245D01*
X164909528Y-70742472D01*
X164716755Y-70584267D01*
X164496821Y-70466710D01*
X164258179Y-70394319D01*
X164010000Y-70369875D01*
X163761822Y-70394319D01*
X163523180Y-70466710D01*
X163303246Y-70584267D01*
X163110473Y-70742472D01*
X162952268Y-70935245D01*
X162834711Y-71155179D01*
X162762319Y-71393821D01*
X162744000Y-71579813D01*
X162736000Y-71579813D01*
X162717681Y-71393821D01*
X162645290Y-71155179D01*
X162527733Y-70935245D01*
X162369528Y-70742472D01*
X162176755Y-70584267D01*
X161956821Y-70466710D01*
X161718179Y-70394319D01*
X161470000Y-70369875D01*
X161221822Y-70394319D01*
X160983180Y-70466710D01*
X160763246Y-70584267D01*
X160570473Y-70742472D01*
X160412268Y-70935245D01*
X160294711Y-71155179D01*
X160222319Y-71393821D01*
X160204000Y-71579813D01*
X160196000Y-71579813D01*
X160177681Y-71393821D01*
X160105290Y-71155179D01*
X159987733Y-70935245D01*
X159829528Y-70742472D01*
X159636755Y-70584267D01*
X159416821Y-70466710D01*
X159178179Y-70394319D01*
X158930000Y-70369875D01*
X158681822Y-70394319D01*
X158443180Y-70466710D01*
X158223246Y-70584267D01*
X158030473Y-70742472D01*
X157872268Y-70935245D01*
X157763861Y-71138061D01*
X157727923Y-71032828D01*
X157583372Y-70783517D01*
X157392960Y-70567197D01*
X157164005Y-70392181D01*
X156905305Y-70265195D01*
X156669871Y-70199703D01*
X156440800Y-70351600D01*
X156339200Y-70351600D01*
X156110129Y-70199703D01*
X155874695Y-70265195D01*
X155615995Y-70392181D01*
X155387040Y-70567197D01*
X155196628Y-70783517D01*
X155052077Y-71032828D01*
X154958941Y-71305549D01*
X154920800Y-71591200D01*
X146967273Y-71591200D01*
X146957681Y-71493821D01*
X146885290Y-71255179D01*
X146767733Y-71035245D01*
X146609528Y-70842472D01*
X146416755Y-70684267D01*
X146196821Y-70566710D01*
X145958179Y-70494319D01*
X145710000Y-70469875D01*
X145461822Y-70494319D01*
X145223180Y-70566710D01*
X145003246Y-70684267D01*
X144810473Y-70842472D01*
X144652268Y-71035245D01*
X144534711Y-71255179D01*
X144462319Y-71493821D01*
X144444000Y-71679813D01*
X144436000Y-71679813D01*
X144417681Y-71493821D01*
X144345290Y-71255179D01*
X144227733Y-71035245D01*
X144069528Y-70842472D01*
X143876755Y-70684267D01*
X143656821Y-70566710D01*
X143418179Y-70494319D01*
X143170000Y-70469875D01*
X142921822Y-70494319D01*
X142683180Y-70566710D01*
X142463246Y-70684267D01*
X142270473Y-70842472D01*
X142112268Y-71035245D01*
X141994711Y-71255179D01*
X141922319Y-71493821D01*
X141904000Y-71679813D01*
X141896000Y-71679813D01*
X141877681Y-71493821D01*
X141805290Y-71255179D01*
X141687733Y-71035245D01*
X141529528Y-70842472D01*
X141336755Y-70684267D01*
X141116821Y-70566710D01*
X140878179Y-70494319D01*
X140630000Y-70469875D01*
X140381822Y-70494319D01*
X140143180Y-70566710D01*
X139923246Y-70684267D01*
X139730473Y-70842472D01*
X139572268Y-71035245D01*
X139463861Y-71238061D01*
X139427923Y-71132828D01*
X139283372Y-70883517D01*
X139092960Y-70667197D01*
X138864005Y-70492181D01*
X138605305Y-70365195D01*
X138369871Y-70299703D01*
X138140800Y-70451600D01*
X138039200Y-70451600D01*
X137810129Y-70299703D01*
X137574695Y-70365195D01*
X137315995Y-70492181D01*
X137087040Y-70667197D01*
X136896628Y-70883517D01*
X136752077Y-71132828D01*
X136658941Y-71405549D01*
X136620800Y-71691200D01*
X85381168Y-71691200D01*
X85404100Y-71575918D01*
X85404100Y-71121282D01*
X85315404Y-70675381D01*
X85141423Y-70255352D01*
X84888840Y-69877336D01*
X84567364Y-69555860D01*
X84189348Y-69303277D01*
X83769319Y-69129296D01*
X83323418Y-69040600D01*
X82868782Y-69040600D01*
X82422881Y-69129296D01*
X82002852Y-69303277D01*
X81624836Y-69555860D01*
X81303360Y-69877336D01*
X81050777Y-70255352D01*
X80876796Y-70675381D01*
X80788100Y-71121282D01*
X78930500Y-71121282D01*
X78930500Y-65913000D01*
X218071701Y-65913000D01*
X218071700Y-144094200D01*
G37*
X218071700Y-144094200D02*
X78930500Y-144094200D01*
X78930500Y-139701282D01*
X80788100Y-139701282D01*
X80788100Y-140155918D01*
X80876796Y-140601819D01*
X81050777Y-141021848D01*
X81303360Y-141399864D01*
X81624836Y-141721340D01*
X82002852Y-141973923D01*
X82422881Y-142147904D01*
X82868782Y-142236600D01*
X83323418Y-142236600D01*
X83769319Y-142147904D01*
X84189348Y-141973923D01*
X84567364Y-141721340D01*
X84888840Y-141399864D01*
X85141423Y-141021848D01*
X85315404Y-140601819D01*
X85404100Y-140155918D01*
X85404100Y-139701282D01*
X211598100Y-139701282D01*
X211598100Y-140155918D01*
X211686796Y-140601819D01*
X211860777Y-141021848D01*
X212113360Y-141399864D01*
X212434836Y-141721340D01*
X212812852Y-141973923D01*
X213232881Y-142147904D01*
X213678782Y-142236600D01*
X214133418Y-142236600D01*
X214579319Y-142147904D01*
X214999348Y-141973923D01*
X215377364Y-141721340D01*
X215698840Y-141399864D01*
X215951423Y-141021848D01*
X216125404Y-140601819D01*
X216214100Y-140155918D01*
X216214100Y-139701282D01*
X216125404Y-139255381D01*
X215951423Y-138835352D01*
X215698840Y-138457336D01*
X215377364Y-138135860D01*
X214999348Y-137883277D01*
X214579319Y-137709296D01*
X214133418Y-137620600D01*
X213678782Y-137620600D01*
X213232881Y-137709296D01*
X212812852Y-137883277D01*
X212434836Y-138135860D01*
X212113360Y-138457336D01*
X211860777Y-138835352D01*
X211686796Y-139255381D01*
X211598100Y-139701282D01*
X85404100Y-139701282D01*
X85315404Y-139255381D01*
X85141423Y-138835352D01*
X84888840Y-138457336D01*
X84567364Y-138135860D01*
X84189348Y-137883277D01*
X83769319Y-137709296D01*
X83323418Y-137620600D01*
X82868782Y-137620600D01*
X82422881Y-137709296D01*
X82002852Y-137883277D01*
X81624836Y-138135860D01*
X81303360Y-138457336D01*
X81050777Y-138835352D01*
X80876796Y-139255381D01*
X80788100Y-139701282D01*
X78930500Y-139701282D01*
X78930500Y-136263840D01*
X88428200Y-136263840D01*
X88428200Y-136739160D01*
X88520931Y-137205346D01*
X88702828Y-137644484D01*
X88966901Y-138039698D01*
X89303002Y-138375799D01*
X89698216Y-138639872D01*
X90137354Y-138821769D01*
X90603540Y-138914500D01*
X91078860Y-138914500D01*
X91545046Y-138821769D01*
X91984184Y-138639872D01*
X92379398Y-138375799D01*
X92715499Y-138039698D01*
X92979572Y-137644484D01*
X93161469Y-137205346D01*
X93254200Y-136739160D01*
X93254200Y-136263840D01*
X181438200Y-136263840D01*
X181438200Y-136739160D01*
X181530931Y-137205346D01*
X181712828Y-137644484D01*
X181976901Y-138039698D01*
X182313002Y-138375799D01*
X182708216Y-138639872D01*
X183147354Y-138821769D01*
X183613540Y-138914500D01*
X184088860Y-138914500D01*
X184555046Y-138821769D01*
X184994184Y-138639872D01*
X185389398Y-138375799D01*
X185725499Y-138039698D01*
X185989572Y-137644484D01*
X186171469Y-137205346D01*
X186195219Y-137085947D01*
X196642000Y-137085947D01*
X196642000Y-137314053D01*
X196686501Y-137537776D01*
X196773794Y-137748519D01*
X196900523Y-137938182D01*
X197061818Y-138099477D01*
X197251481Y-138226206D01*
X197462224Y-138313499D01*
X197685947Y-138358000D01*
X197914053Y-138358000D01*
X198137776Y-138313499D01*
X198348519Y-138226206D01*
X198538182Y-138099477D01*
X198699477Y-137938182D01*
X198826206Y-137748519D01*
X198913499Y-137537776D01*
X198958000Y-137314053D01*
X198958000Y-137085947D01*
X204242000Y-137085947D01*
X204242000Y-137314053D01*
X204286501Y-137537776D01*
X204373794Y-137748519D01*
X204500523Y-137938182D01*
X204661818Y-138099477D01*
X204851481Y-138226206D01*
X205062224Y-138313499D01*
X205285947Y-138358000D01*
X205514053Y-138358000D01*
X205737776Y-138313499D01*
X205948519Y-138226206D01*
X206138182Y-138099477D01*
X206299477Y-137938182D01*
X206426206Y-137748519D01*
X206513499Y-137537776D01*
X206558000Y-137314053D01*
X206558000Y-137085947D01*
X206513499Y-136862224D01*
X206426206Y-136651481D01*
X206299477Y-136461818D01*
X206138182Y-136300523D01*
X205948519Y-136173794D01*
X205737776Y-136086501D01*
X205514053Y-136042000D01*
X205285947Y-136042000D01*
X205062224Y-136086501D01*
X204851481Y-136173794D01*
X204661818Y-136300523D01*
X204500523Y-136461818D01*
X204373794Y-136651481D01*
X204286501Y-136862224D01*
X204242000Y-137085947D01*
X198958000Y-137085947D01*
X198913499Y-136862224D01*
X198826206Y-136651481D01*
X198699477Y-136461818D01*
X198538182Y-136300523D01*
X198348519Y-136173794D01*
X198137776Y-136086501D01*
X197914053Y-136042000D01*
X197685947Y-136042000D01*
X197462224Y-136086501D01*
X197251481Y-136173794D01*
X197061818Y-136300523D01*
X196900523Y-136461818D01*
X196773794Y-136651481D01*
X196686501Y-136862224D01*
X196642000Y-137085947D01*
X186195219Y-137085947D01*
X186264200Y-136739160D01*
X186264200Y-136263840D01*
X186171469Y-135797654D01*
X185989572Y-135358516D01*
X185725499Y-134963302D01*
X185389398Y-134627201D01*
X184994184Y-134363128D01*
X184555046Y-134181231D01*
X184088860Y-134088500D01*
X183613540Y-134088500D01*
X183147354Y-134181231D01*
X182708216Y-134363128D01*
X182313002Y-134627201D01*
X181976901Y-134963302D01*
X181712828Y-135358516D01*
X181530931Y-135797654D01*
X181438200Y-136263840D01*
X93254200Y-136263840D01*
X93161469Y-135797654D01*
X92979572Y-135358516D01*
X92715499Y-134963302D01*
X92379398Y-134627201D01*
X91984184Y-134363128D01*
X91545046Y-134181231D01*
X91078860Y-134088500D01*
X90603540Y-134088500D01*
X90137354Y-134181231D01*
X89698216Y-134363128D01*
X89303002Y-134627201D01*
X88966901Y-134963302D01*
X88702828Y-135358516D01*
X88520931Y-135797654D01*
X88428200Y-136263840D01*
X78930500Y-136263840D01*
X78930500Y-127071173D01*
X190992000Y-127071173D01*
X190992000Y-127328827D01*
X191042266Y-127581530D01*
X191140865Y-127819570D01*
X191284010Y-128033801D01*
X191466199Y-128215990D01*
X191680430Y-128359135D01*
X191918470Y-128457734D01*
X192171173Y-128508000D01*
X192428827Y-128508000D01*
X192681530Y-128457734D01*
X192919570Y-128359135D01*
X193133801Y-128215990D01*
X193315990Y-128033801D01*
X193459135Y-127819570D01*
X193557734Y-127581530D01*
X193608000Y-127328827D01*
X193608000Y-127071173D01*
X198612000Y-127071173D01*
X198612000Y-127328827D01*
X198662266Y-127581530D01*
X198760865Y-127819570D01*
X198904010Y-128033801D01*
X199086199Y-128215990D01*
X199300430Y-128359135D01*
X199538470Y-128457734D01*
X199791173Y-128508000D01*
X200048827Y-128508000D01*
X200301530Y-128457734D01*
X200539570Y-128359135D01*
X200753801Y-128215990D01*
X200935990Y-128033801D01*
X201079135Y-127819570D01*
X201177734Y-127581530D01*
X201228000Y-127328827D01*
X201228000Y-127071173D01*
X201177734Y-126818470D01*
X201079135Y-126580430D01*
X201035414Y-126514997D01*
X201311700Y-126514997D01*
X201311700Y-127942202D01*
X201328548Y-128113261D01*
X201395130Y-128332752D01*
X201503252Y-128535035D01*
X201648761Y-128712339D01*
X201826064Y-128857848D01*
X202028347Y-128965970D01*
X202247838Y-129032552D01*
X202476100Y-129055034D01*
X202704361Y-129032552D01*
X202923852Y-128965970D01*
X203126135Y-128857848D01*
X203303439Y-128712339D01*
X203448948Y-128535036D01*
X203557070Y-128332753D01*
X203623652Y-128113262D01*
X203640500Y-127942203D01*
X203640500Y-126514997D01*
X203851700Y-126514997D01*
X203851700Y-127942202D01*
X203868548Y-128113261D01*
X203935130Y-128332752D01*
X204043252Y-128535035D01*
X204188761Y-128712339D01*
X204366064Y-128857848D01*
X204568347Y-128965970D01*
X204787838Y-129032552D01*
X205016100Y-129055034D01*
X205244361Y-129032552D01*
X205463852Y-128965970D01*
X205666135Y-128857848D01*
X205843439Y-128712339D01*
X205988948Y-128535036D01*
X206097070Y-128332753D01*
X206163652Y-128113262D01*
X206180500Y-127942203D01*
X206180500Y-127279400D01*
X206188500Y-127279400D01*
X206188500Y-127935800D01*
X206224689Y-128201629D01*
X206312043Y-128455290D01*
X206447205Y-128687036D01*
X206624982Y-128887960D01*
X206838541Y-129050341D01*
X207079675Y-129167938D01*
X207292133Y-129226883D01*
X207505300Y-129073715D01*
X207505300Y-127279400D01*
X207606900Y-127279400D01*
X207606900Y-129073715D01*
X207820067Y-129226883D01*
X208032525Y-129167938D01*
X208273659Y-129050341D01*
X208487218Y-128887960D01*
X208664995Y-128687036D01*
X208800157Y-128455290D01*
X208887511Y-128201629D01*
X208923700Y-127935800D01*
X208923700Y-127279400D01*
X207606900Y-127279400D01*
X207505300Y-127279400D01*
X206188500Y-127279400D01*
X206180500Y-127279400D01*
X206180500Y-126521400D01*
X206188500Y-126521400D01*
X206188500Y-127177800D01*
X207505300Y-127177800D01*
X207505300Y-125383485D01*
X207606900Y-125383485D01*
X207606900Y-127177800D01*
X208923700Y-127177800D01*
X208923700Y-126521400D01*
X208887511Y-126255571D01*
X208800157Y-126001910D01*
X208664995Y-125770164D01*
X208487218Y-125569240D01*
X208273659Y-125406859D01*
X208032525Y-125289262D01*
X207820067Y-125230317D01*
X207606900Y-125383485D01*
X207505300Y-125383485D01*
X207292133Y-125230317D01*
X207079675Y-125289262D01*
X206838541Y-125406859D01*
X206624982Y-125569240D01*
X206447205Y-125770164D01*
X206312043Y-126001910D01*
X206224689Y-126255571D01*
X206188500Y-126521400D01*
X206180500Y-126521400D01*
X206180500Y-126514997D01*
X206163652Y-126343938D01*
X206097070Y-126124447D01*
X205988948Y-125922164D01*
X205843439Y-125744861D01*
X205666136Y-125599352D01*
X205463853Y-125491230D01*
X205244362Y-125424648D01*
X205016100Y-125402166D01*
X204787839Y-125424648D01*
X204568348Y-125491230D01*
X204366065Y-125599352D01*
X204188762Y-125744861D01*
X204043253Y-125922164D01*
X203935130Y-126124447D01*
X203868548Y-126343938D01*
X203851700Y-126514997D01*
X203640500Y-126514997D01*
X203623652Y-126343938D01*
X203557070Y-126124447D01*
X203448948Y-125922164D01*
X203303439Y-125744861D01*
X203126136Y-125599352D01*
X202923853Y-125491230D01*
X202704362Y-125424648D01*
X202476100Y-125402166D01*
X202247839Y-125424648D01*
X202028348Y-125491230D01*
X201826065Y-125599352D01*
X201648762Y-125744861D01*
X201503253Y-125922164D01*
X201395130Y-126124447D01*
X201328548Y-126343938D01*
X201311700Y-126514997D01*
X201035414Y-126514997D01*
X200935990Y-126366199D01*
X200753801Y-126184010D01*
X200539570Y-126040865D01*
X200301530Y-125942266D01*
X200048827Y-125892000D01*
X199791173Y-125892000D01*
X199538470Y-125942266D01*
X199300430Y-126040865D01*
X199086199Y-126184010D01*
X198904010Y-126366199D01*
X198760865Y-126580430D01*
X198662266Y-126818470D01*
X198612000Y-127071173D01*
X193608000Y-127071173D01*
X193557734Y-126818470D01*
X193459135Y-126580430D01*
X193315990Y-126366199D01*
X193133801Y-126184010D01*
X192919570Y-126040865D01*
X192681530Y-125942266D01*
X192428827Y-125892000D01*
X192171173Y-125892000D01*
X191918470Y-125942266D01*
X191680430Y-126040865D01*
X191466199Y-126184010D01*
X191284010Y-126366199D01*
X191140865Y-126580430D01*
X191042266Y-126818470D01*
X190992000Y-127071173D01*
X78930500Y-127071173D01*
X78930500Y-116887228D01*
X114274600Y-116887228D01*
X114274600Y-117249972D01*
X114345368Y-117605746D01*
X114484184Y-117940877D01*
X114685714Y-118242488D01*
X114942212Y-118498986D01*
X115243823Y-118700516D01*
X115578954Y-118839332D01*
X115934728Y-118910100D01*
X116297472Y-118910100D01*
X116653246Y-118839332D01*
X116988377Y-118700516D01*
X117289988Y-118498986D01*
X117546486Y-118242488D01*
X117701796Y-118010049D01*
X117801581Y-118109834D01*
X118021135Y-118256536D01*
X118265091Y-118357585D01*
X118524072Y-118409100D01*
X118788128Y-118409100D01*
X119047109Y-118357585D01*
X119291065Y-118256536D01*
X119510619Y-118109834D01*
X119697334Y-117923119D01*
X119844036Y-117703565D01*
X119926100Y-117505443D01*
X120008164Y-117703565D01*
X120154866Y-117923119D01*
X120341581Y-118109834D01*
X120561135Y-118256536D01*
X120805091Y-118357585D01*
X121064072Y-118409100D01*
X121328128Y-118409100D01*
X121587109Y-118357585D01*
X121831065Y-118256536D01*
X122050619Y-118109834D01*
X122237334Y-117923119D01*
X122384036Y-117703565D01*
X122466100Y-117505443D01*
X122548164Y-117703565D01*
X122694866Y-117923119D01*
X122881581Y-118109834D01*
X123101135Y-118256536D01*
X123345091Y-118357585D01*
X123604072Y-118409100D01*
X123868128Y-118409100D01*
X124127109Y-118357585D01*
X124371065Y-118256536D01*
X124590619Y-118109834D01*
X124777334Y-117923119D01*
X124924036Y-117703565D01*
X125006100Y-117505443D01*
X125088164Y-117703565D01*
X125234866Y-117923119D01*
X125421581Y-118109834D01*
X125641135Y-118256536D01*
X125885091Y-118357585D01*
X126144072Y-118409100D01*
X126408128Y-118409100D01*
X126667109Y-118357585D01*
X126911065Y-118256536D01*
X127130619Y-118109834D01*
X127317334Y-117923119D01*
X127464036Y-117703565D01*
X127546100Y-117505443D01*
X127628164Y-117703565D01*
X127774866Y-117923119D01*
X127961581Y-118109834D01*
X128181135Y-118256536D01*
X128425091Y-118357585D01*
X128684072Y-118409100D01*
X128948128Y-118409100D01*
X129207109Y-118357585D01*
X129451065Y-118256536D01*
X129670619Y-118109834D01*
X129857334Y-117923119D01*
X130004036Y-117703565D01*
X130086100Y-117505443D01*
X130168164Y-117703565D01*
X130314866Y-117923119D01*
X130501581Y-118109834D01*
X130721135Y-118256536D01*
X130965091Y-118357585D01*
X131224072Y-118409100D01*
X131488128Y-118409100D01*
X131747109Y-118357585D01*
X131991065Y-118256536D01*
X132210619Y-118109834D01*
X132397334Y-117923119D01*
X132544036Y-117703565D01*
X132626100Y-117505443D01*
X132708164Y-117703565D01*
X132854866Y-117923119D01*
X133041581Y-118109834D01*
X133261135Y-118256536D01*
X133505091Y-118357585D01*
X133764072Y-118409100D01*
X134028128Y-118409100D01*
X134287109Y-118357585D01*
X134531065Y-118256536D01*
X134750619Y-118109834D01*
X134937334Y-117923119D01*
X135084036Y-117703565D01*
X135166100Y-117505443D01*
X135248164Y-117703565D01*
X135394866Y-117923119D01*
X135581581Y-118109834D01*
X135801135Y-118256536D01*
X136045091Y-118357585D01*
X136304072Y-118409100D01*
X136568128Y-118409100D01*
X136827109Y-118357585D01*
X137071065Y-118256536D01*
X137290619Y-118109834D01*
X137477334Y-117923119D01*
X137624036Y-117703565D01*
X137706100Y-117505443D01*
X137788164Y-117703565D01*
X137934866Y-117923119D01*
X138121581Y-118109834D01*
X138341135Y-118256536D01*
X138585091Y-118357585D01*
X138844072Y-118409100D01*
X139108128Y-118409100D01*
X139367109Y-118357585D01*
X139611065Y-118256536D01*
X139830619Y-118109834D01*
X140017334Y-117923119D01*
X140164036Y-117703565D01*
X140246100Y-117505443D01*
X140328164Y-117703565D01*
X140474866Y-117923119D01*
X140661581Y-118109834D01*
X140881135Y-118256536D01*
X141125091Y-118357585D01*
X141384072Y-118409100D01*
X141648128Y-118409100D01*
X141907109Y-118357585D01*
X142151065Y-118256536D01*
X142370619Y-118109834D01*
X142557334Y-117923119D01*
X142704036Y-117703565D01*
X142786100Y-117505443D01*
X142868164Y-117703565D01*
X143014866Y-117923119D01*
X143201581Y-118109834D01*
X143421135Y-118256536D01*
X143665091Y-118357585D01*
X143924072Y-118409100D01*
X144188128Y-118409100D01*
X144447109Y-118357585D01*
X144691065Y-118256536D01*
X144910619Y-118109834D01*
X144945478Y-118074975D01*
X145661567Y-118074975D01*
X145725933Y-118352709D01*
X145993171Y-118497796D01*
X146283578Y-118587961D01*
X146585996Y-118619737D01*
X146888802Y-118591904D01*
X147180359Y-118505531D01*
X147449464Y-118363937D01*
X147466267Y-118352709D01*
X147530633Y-118074975D01*
X146596100Y-117140442D01*
X145661567Y-118074975D01*
X144945478Y-118074975D01*
X145097334Y-117923119D01*
X145211483Y-117752284D01*
X145300763Y-117921964D01*
X145311991Y-117938767D01*
X145589725Y-118003133D01*
X146524258Y-117068600D01*
X146667942Y-117068600D01*
X147602475Y-118003133D01*
X147880209Y-117938767D01*
X147981123Y-117752892D01*
X148094866Y-117923119D01*
X148281581Y-118109834D01*
X148501135Y-118256536D01*
X148745091Y-118357585D01*
X149004072Y-118409100D01*
X149268128Y-118409100D01*
X149527109Y-118357585D01*
X149771065Y-118256536D01*
X149990619Y-118109834D01*
X150177334Y-117923119D01*
X150324036Y-117703565D01*
X150406100Y-117505443D01*
X150488164Y-117703565D01*
X150634866Y-117923119D01*
X150821581Y-118109834D01*
X151041135Y-118256536D01*
X151285091Y-118357585D01*
X151544072Y-118409100D01*
X151808128Y-118409100D01*
X152067109Y-118357585D01*
X152311065Y-118256536D01*
X152530619Y-118109834D01*
X152717334Y-117923119D01*
X152864036Y-117703565D01*
X152873143Y-117681579D01*
X152873143Y-117901100D01*
X152882951Y-118000685D01*
X152911999Y-118096443D01*
X152959171Y-118184695D01*
X153022652Y-118262048D01*
X153100005Y-118325529D01*
X153188257Y-118372701D01*
X153284015Y-118401749D01*
X153383600Y-118411557D01*
X155048600Y-118411557D01*
X155148185Y-118401749D01*
X155243943Y-118372701D01*
X155332195Y-118325529D01*
X155374246Y-118291020D01*
X155582212Y-118498986D01*
X155883823Y-118700516D01*
X156218954Y-118839332D01*
X156574728Y-118910100D01*
X156937472Y-118910100D01*
X157293246Y-118839332D01*
X157628377Y-118700516D01*
X157929988Y-118498986D01*
X158186486Y-118242488D01*
X158388016Y-117940877D01*
X158526832Y-117605746D01*
X158597600Y-117249972D01*
X158597600Y-116887228D01*
X158526832Y-116531454D01*
X158388016Y-116196323D01*
X158186486Y-115894712D01*
X157929988Y-115638214D01*
X157628377Y-115436684D01*
X157293246Y-115297868D01*
X156937472Y-115227100D01*
X156574728Y-115227100D01*
X156218954Y-115297868D01*
X155883823Y-115436684D01*
X155582212Y-115638214D01*
X155374246Y-115846180D01*
X155332195Y-115811671D01*
X155243943Y-115764499D01*
X155148185Y-115735451D01*
X155048600Y-115725643D01*
X153383600Y-115725643D01*
X153284015Y-115735451D01*
X153188257Y-115764499D01*
X153100005Y-115811671D01*
X153022652Y-115875152D01*
X152959171Y-115952505D01*
X152911999Y-116040757D01*
X152882951Y-116136515D01*
X152873143Y-116236100D01*
X152873143Y-116455621D01*
X152864036Y-116433635D01*
X152717334Y-116214081D01*
X152530619Y-116027366D01*
X152311065Y-115880664D01*
X152067109Y-115779615D01*
X151808128Y-115728100D01*
X151544072Y-115728100D01*
X151285091Y-115779615D01*
X151041135Y-115880664D01*
X150821581Y-116027366D01*
X150634866Y-116214081D01*
X150488164Y-116433635D01*
X150406100Y-116631757D01*
X150324036Y-116433635D01*
X150177334Y-116214081D01*
X149990619Y-116027366D01*
X149771065Y-115880664D01*
X149527109Y-115779615D01*
X149268128Y-115728100D01*
X149004072Y-115728100D01*
X148745091Y-115779615D01*
X148501135Y-115880664D01*
X148281581Y-116027366D01*
X148094866Y-116214081D01*
X147980717Y-116384916D01*
X147891437Y-116215236D01*
X147880209Y-116198433D01*
X147602475Y-116134067D01*
X146667942Y-117068600D01*
X146524258Y-117068600D01*
X145589725Y-116134067D01*
X145311991Y-116198433D01*
X145211077Y-116384308D01*
X145097334Y-116214081D01*
X144945478Y-116062225D01*
X145661567Y-116062225D01*
X146596100Y-116996758D01*
X147530633Y-116062225D01*
X147466267Y-115784491D01*
X147199029Y-115639404D01*
X146908622Y-115549239D01*
X146606204Y-115517463D01*
X146303398Y-115545296D01*
X146011841Y-115631669D01*
X145742736Y-115773263D01*
X145725933Y-115784491D01*
X145661567Y-116062225D01*
X144945478Y-116062225D01*
X144910619Y-116027366D01*
X144691065Y-115880664D01*
X144447109Y-115779615D01*
X144188128Y-115728100D01*
X143924072Y-115728100D01*
X143665091Y-115779615D01*
X143421135Y-115880664D01*
X143201581Y-116027366D01*
X143014866Y-116214081D01*
X142868164Y-116433635D01*
X142786100Y-116631757D01*
X142704036Y-116433635D01*
X142557334Y-116214081D01*
X142370619Y-116027366D01*
X142151065Y-115880664D01*
X141907109Y-115779615D01*
X141648128Y-115728100D01*
X141384072Y-115728100D01*
X141125091Y-115779615D01*
X140881135Y-115880664D01*
X140661581Y-116027366D01*
X140474866Y-116214081D01*
X140328164Y-116433635D01*
X140246100Y-116631757D01*
X140164036Y-116433635D01*
X140017334Y-116214081D01*
X139830619Y-116027366D01*
X139611065Y-115880664D01*
X139367109Y-115779615D01*
X139108128Y-115728100D01*
X138844072Y-115728100D01*
X138585091Y-115779615D01*
X138341135Y-115880664D01*
X138121581Y-116027366D01*
X137934866Y-116214081D01*
X137788164Y-116433635D01*
X137706100Y-116631757D01*
X137624036Y-116433635D01*
X137477334Y-116214081D01*
X137290619Y-116027366D01*
X137071065Y-115880664D01*
X136827109Y-115779615D01*
X136568128Y-115728100D01*
X136304072Y-115728100D01*
X136045091Y-115779615D01*
X135801135Y-115880664D01*
X135581581Y-116027366D01*
X135394866Y-116214081D01*
X135248164Y-116433635D01*
X135166100Y-116631757D01*
X135084036Y-116433635D01*
X134937334Y-116214081D01*
X134750619Y-116027366D01*
X134531065Y-115880664D01*
X134287109Y-115779615D01*
X134028128Y-115728100D01*
X133764072Y-115728100D01*
X133505091Y-115779615D01*
X133261135Y-115880664D01*
X133041581Y-116027366D01*
X132854866Y-116214081D01*
X132708164Y-116433635D01*
X132626100Y-116631757D01*
X132544036Y-116433635D01*
X132397334Y-116214081D01*
X132210619Y-116027366D01*
X131991065Y-115880664D01*
X131747109Y-115779615D01*
X131488128Y-115728100D01*
X131224072Y-115728100D01*
X130965091Y-115779615D01*
X130721135Y-115880664D01*
X130501581Y-116027366D01*
X130314866Y-116214081D01*
X130168164Y-116433635D01*
X130086100Y-116631757D01*
X130004036Y-116433635D01*
X129857334Y-116214081D01*
X129670619Y-116027366D01*
X129451065Y-115880664D01*
X129207109Y-115779615D01*
X128948128Y-115728100D01*
X128684072Y-115728100D01*
X128425091Y-115779615D01*
X128181135Y-115880664D01*
X127961581Y-116027366D01*
X127774866Y-116214081D01*
X127628164Y-116433635D01*
X127546100Y-116631757D01*
X127464036Y-116433635D01*
X127317334Y-116214081D01*
X127130619Y-116027366D01*
X126911065Y-115880664D01*
X126667109Y-115779615D01*
X126408128Y-115728100D01*
X126144072Y-115728100D01*
X125885091Y-115779615D01*
X125641135Y-115880664D01*
X125421581Y-116027366D01*
X125234866Y-116214081D01*
X125088164Y-116433635D01*
X125006100Y-116631757D01*
X124924036Y-116433635D01*
X124777334Y-116214081D01*
X124590619Y-116027366D01*
X124371065Y-115880664D01*
X124127109Y-115779615D01*
X123868128Y-115728100D01*
X123604072Y-115728100D01*
X123345091Y-115779615D01*
X123101135Y-115880664D01*
X122881581Y-116027366D01*
X122694866Y-116214081D01*
X122548164Y-116433635D01*
X122466100Y-116631757D01*
X122384036Y-116433635D01*
X122237334Y-116214081D01*
X122050619Y-116027366D01*
X121831065Y-115880664D01*
X121587109Y-115779615D01*
X121328128Y-115728100D01*
X121064072Y-115728100D01*
X120805091Y-115779615D01*
X120561135Y-115880664D01*
X120341581Y-116027366D01*
X120154866Y-116214081D01*
X120008164Y-116433635D01*
X119926100Y-116631757D01*
X119844036Y-116433635D01*
X119697334Y-116214081D01*
X119510619Y-116027366D01*
X119291065Y-115880664D01*
X119047109Y-115779615D01*
X118788128Y-115728100D01*
X118524072Y-115728100D01*
X118265091Y-115779615D01*
X118021135Y-115880664D01*
X117801581Y-116027366D01*
X117701796Y-116127151D01*
X117546486Y-115894712D01*
X117289988Y-115638214D01*
X116988377Y-115436684D01*
X116653246Y-115297868D01*
X116297472Y-115227100D01*
X115934728Y-115227100D01*
X115578954Y-115297868D01*
X115243823Y-115436684D01*
X114942212Y-115638214D01*
X114685714Y-115894712D01*
X114484184Y-116196323D01*
X114345368Y-116531454D01*
X114274600Y-116887228D01*
X78930500Y-116887228D01*
X78930500Y-114284698D01*
X198718100Y-114284698D01*
X198718100Y-114532502D01*
X198766444Y-114775545D01*
X198861275Y-115004486D01*
X198998948Y-115210528D01*
X199174172Y-115385752D01*
X199380214Y-115523425D01*
X199609155Y-115618256D01*
X199852198Y-115666600D01*
X200100002Y-115666600D01*
X200343045Y-115618256D01*
X200571986Y-115523425D01*
X200778028Y-115385752D01*
X200807466Y-115356314D01*
X201600228Y-115356314D01*
X201654687Y-115625604D01*
X201907896Y-115762469D01*
X202182941Y-115847306D01*
X202469251Y-115876855D01*
X202755825Y-115849978D01*
X203031649Y-115767711D01*
X203286124Y-115633213D01*
X203297513Y-115625604D01*
X203351972Y-115356314D01*
X202476100Y-114480442D01*
X201600228Y-115356314D01*
X200807466Y-115356314D01*
X200953252Y-115210528D01*
X201090925Y-115004486D01*
X201113072Y-114951018D01*
X201116989Y-114964149D01*
X201251487Y-115218624D01*
X201259096Y-115230013D01*
X201528386Y-115284472D01*
X202404258Y-114408600D01*
X202547942Y-114408600D01*
X203423814Y-115284472D01*
X203693104Y-115230013D01*
X203829969Y-114976804D01*
X203838437Y-114949350D01*
X203861275Y-115004486D01*
X203998948Y-115210528D01*
X204174172Y-115385752D01*
X204380214Y-115523425D01*
X204609155Y-115618256D01*
X204852198Y-115666600D01*
X205100002Y-115666600D01*
X205343045Y-115618256D01*
X205571986Y-115523425D01*
X205778028Y-115385752D01*
X205953252Y-115210528D01*
X206090925Y-115004486D01*
X206185756Y-114775545D01*
X206234100Y-114532502D01*
X206234100Y-114284698D01*
X206185756Y-114041655D01*
X206090925Y-113812714D01*
X205953252Y-113606672D01*
X205778028Y-113431448D01*
X205571986Y-113293775D01*
X205343045Y-113198944D01*
X205100002Y-113150600D01*
X204852198Y-113150600D01*
X204609155Y-113198944D01*
X204380214Y-113293775D01*
X204174172Y-113431448D01*
X203998948Y-113606672D01*
X203861275Y-113812714D01*
X203839128Y-113866182D01*
X203835211Y-113853051D01*
X203700713Y-113598576D01*
X203693104Y-113587187D01*
X203423814Y-113532728D01*
X202547942Y-114408600D01*
X202404258Y-114408600D01*
X201528386Y-113532728D01*
X201259096Y-113587187D01*
X201122231Y-113840396D01*
X201113763Y-113867850D01*
X201090925Y-113812714D01*
X200953252Y-113606672D01*
X200807466Y-113460886D01*
X201600228Y-113460886D01*
X202476100Y-114336758D01*
X203351972Y-113460886D01*
X203297513Y-113191596D01*
X203044304Y-113054731D01*
X202769259Y-112969894D01*
X202482949Y-112940345D01*
X202196375Y-112967222D01*
X201920551Y-113049489D01*
X201666076Y-113183987D01*
X201654687Y-113191596D01*
X201600228Y-113460886D01*
X200807466Y-113460886D01*
X200778028Y-113431448D01*
X200571986Y-113293775D01*
X200343045Y-113198944D01*
X200100002Y-113150600D01*
X199852198Y-113150600D01*
X199609155Y-113198944D01*
X199380214Y-113293775D01*
X199174172Y-113431448D01*
X198998948Y-113606672D01*
X198861275Y-113812714D01*
X198766444Y-114041655D01*
X198718100Y-114284698D01*
X78930500Y-114284698D01*
X78930500Y-108371173D01*
X171792000Y-108371173D01*
X171792000Y-108628827D01*
X171842266Y-108881530D01*
X171940865Y-109119570D01*
X172084010Y-109333801D01*
X172266199Y-109515990D01*
X172480430Y-109659135D01*
X172718470Y-109757734D01*
X172971173Y-109808000D01*
X173228827Y-109808000D01*
X173481530Y-109757734D01*
X173719570Y-109659135D01*
X173933801Y-109515990D01*
X174115990Y-109333801D01*
X174259135Y-109119570D01*
X174357734Y-108881530D01*
X174408000Y-108628827D01*
X174408000Y-108371173D01*
X176276100Y-108371173D01*
X176276100Y-108628827D01*
X176326366Y-108881530D01*
X176424965Y-109119570D01*
X176568110Y-109333801D01*
X176750299Y-109515990D01*
X176964530Y-109659135D01*
X177202570Y-109757734D01*
X177455273Y-109808000D01*
X177712927Y-109808000D01*
X177965630Y-109757734D01*
X178203670Y-109659135D01*
X178417901Y-109515990D01*
X178600090Y-109333801D01*
X178743235Y-109119570D01*
X178841834Y-108881530D01*
X178892100Y-108628827D01*
X178892100Y-108371173D01*
X180792000Y-108371173D01*
X180792000Y-108628827D01*
X180842266Y-108881530D01*
X180940865Y-109119570D01*
X181084010Y-109333801D01*
X181266199Y-109515990D01*
X181480430Y-109659135D01*
X181718470Y-109757734D01*
X181971173Y-109808000D01*
X182228827Y-109808000D01*
X182481530Y-109757734D01*
X182719570Y-109659135D01*
X182933801Y-109515990D01*
X183115990Y-109333801D01*
X183259135Y-109119570D01*
X183357734Y-108881530D01*
X183408000Y-108628827D01*
X183408000Y-108371173D01*
X183357734Y-108118470D01*
X183259135Y-107880430D01*
X183115990Y-107666199D01*
X182933801Y-107484010D01*
X182719570Y-107340865D01*
X182481530Y-107242266D01*
X182228827Y-107192000D01*
X181971173Y-107192000D01*
X181718470Y-107242266D01*
X181480430Y-107340865D01*
X181266199Y-107484010D01*
X181084010Y-107666199D01*
X180940865Y-107880430D01*
X180842266Y-108118470D01*
X180792000Y-108371173D01*
X178892100Y-108371173D01*
X178841834Y-108118470D01*
X178743235Y-107880430D01*
X178600090Y-107666199D01*
X178417901Y-107484010D01*
X178203670Y-107340865D01*
X177965630Y-107242266D01*
X177712927Y-107192000D01*
X177455273Y-107192000D01*
X177202570Y-107242266D01*
X176964530Y-107340865D01*
X176750299Y-107484010D01*
X176568110Y-107666199D01*
X176424965Y-107880430D01*
X176326366Y-108118470D01*
X176276100Y-108371173D01*
X174408000Y-108371173D01*
X174357734Y-108118470D01*
X174259135Y-107880430D01*
X174115990Y-107666199D01*
X173933801Y-107484010D01*
X173719570Y-107340865D01*
X173481530Y-107242266D01*
X173228827Y-107192000D01*
X172971173Y-107192000D01*
X172718470Y-107242266D01*
X172480430Y-107340865D01*
X172266199Y-107484010D01*
X172084010Y-107666199D01*
X171940865Y-107880430D01*
X171842266Y-108118470D01*
X171792000Y-108371173D01*
X78930500Y-108371173D01*
X78930500Y-105708600D01*
X194165643Y-105708600D01*
X194165643Y-108108600D01*
X194175451Y-108208185D01*
X194204499Y-108303943D01*
X194251671Y-108392195D01*
X194315152Y-108469548D01*
X194392505Y-108533029D01*
X194480757Y-108580201D01*
X194576515Y-108609249D01*
X194676100Y-108619057D01*
X197076100Y-108619057D01*
X197175685Y-108609249D01*
X197271443Y-108580201D01*
X197359695Y-108533029D01*
X197437048Y-108469548D01*
X197500529Y-108392195D01*
X197547701Y-108303943D01*
X197576749Y-108208185D01*
X197586557Y-108108600D01*
X197586557Y-105708600D01*
X207365643Y-105708600D01*
X207365643Y-108108600D01*
X207375451Y-108208185D01*
X207404499Y-108303943D01*
X207451671Y-108392195D01*
X207515152Y-108469548D01*
X207592505Y-108533029D01*
X207680757Y-108580201D01*
X207776515Y-108609249D01*
X207876100Y-108619057D01*
X210276100Y-108619057D01*
X210375685Y-108609249D01*
X210471443Y-108580201D01*
X210559695Y-108533029D01*
X210637048Y-108469548D01*
X210700529Y-108392195D01*
X210747701Y-108303943D01*
X210776749Y-108208185D01*
X210786557Y-108108600D01*
X210786557Y-105708600D01*
X210776749Y-105609015D01*
X210747701Y-105513257D01*
X210700529Y-105425005D01*
X210637048Y-105347652D01*
X210559695Y-105284171D01*
X210471443Y-105236999D01*
X210375685Y-105207951D01*
X210276100Y-105198143D01*
X207876100Y-105198143D01*
X207776515Y-105207951D01*
X207680757Y-105236999D01*
X207592505Y-105284171D01*
X207515152Y-105347652D01*
X207451671Y-105425005D01*
X207404499Y-105513257D01*
X207375451Y-105609015D01*
X207365643Y-105708600D01*
X197586557Y-105708600D01*
X197576749Y-105609015D01*
X197547701Y-105513257D01*
X197500529Y-105425005D01*
X197437048Y-105347652D01*
X197359695Y-105284171D01*
X197271443Y-105236999D01*
X197175685Y-105207951D01*
X197076100Y-105198143D01*
X194676100Y-105198143D01*
X194576515Y-105207951D01*
X194480757Y-105236999D01*
X194392505Y-105284171D01*
X194315152Y-105347652D01*
X194251671Y-105425005D01*
X194204499Y-105513257D01*
X194175451Y-105609015D01*
X194165643Y-105708600D01*
X78930500Y-105708600D01*
X78930500Y-101647228D01*
X114274600Y-101647228D01*
X114274600Y-102009972D01*
X114345368Y-102365746D01*
X114484184Y-102700877D01*
X114685714Y-103002488D01*
X114942212Y-103258986D01*
X115243823Y-103460516D01*
X115578954Y-103599332D01*
X115934728Y-103670100D01*
X116297472Y-103670100D01*
X116653246Y-103599332D01*
X116988377Y-103460516D01*
X117289988Y-103258986D01*
X117546486Y-103002488D01*
X117701796Y-102770049D01*
X117801581Y-102869834D01*
X118021135Y-103016536D01*
X118265091Y-103117585D01*
X118524072Y-103169100D01*
X118788128Y-103169100D01*
X119047109Y-103117585D01*
X119291065Y-103016536D01*
X119510619Y-102869834D01*
X119697334Y-102683119D01*
X119844036Y-102463565D01*
X119926100Y-102265443D01*
X120008164Y-102463565D01*
X120154866Y-102683119D01*
X120341581Y-102869834D01*
X120561135Y-103016536D01*
X120805091Y-103117585D01*
X121064072Y-103169100D01*
X121328128Y-103169100D01*
X121587109Y-103117585D01*
X121831065Y-103016536D01*
X122050619Y-102869834D01*
X122237334Y-102683119D01*
X122384036Y-102463565D01*
X122466100Y-102265443D01*
X122548164Y-102463565D01*
X122694866Y-102683119D01*
X122881581Y-102869834D01*
X123101135Y-103016536D01*
X123345091Y-103117585D01*
X123604072Y-103169100D01*
X123868128Y-103169100D01*
X124127109Y-103117585D01*
X124371065Y-103016536D01*
X124590619Y-102869834D01*
X124777334Y-102683119D01*
X124924036Y-102463565D01*
X125006100Y-102265443D01*
X125088164Y-102463565D01*
X125234866Y-102683119D01*
X125421581Y-102869834D01*
X125641135Y-103016536D01*
X125885091Y-103117585D01*
X126144072Y-103169100D01*
X126408128Y-103169100D01*
X126667109Y-103117585D01*
X126911065Y-103016536D01*
X127130619Y-102869834D01*
X127317334Y-102683119D01*
X127464036Y-102463565D01*
X127546100Y-102265443D01*
X127628164Y-102463565D01*
X127774866Y-102683119D01*
X127961581Y-102869834D01*
X128181135Y-103016536D01*
X128425091Y-103117585D01*
X128684072Y-103169100D01*
X128948128Y-103169100D01*
X129207109Y-103117585D01*
X129451065Y-103016536D01*
X129670619Y-102869834D01*
X129857334Y-102683119D01*
X130004036Y-102463565D01*
X130086100Y-102265443D01*
X130168164Y-102463565D01*
X130314866Y-102683119D01*
X130501581Y-102869834D01*
X130721135Y-103016536D01*
X130965091Y-103117585D01*
X131224072Y-103169100D01*
X131488128Y-103169100D01*
X131747109Y-103117585D01*
X131991065Y-103016536D01*
X132210619Y-102869834D01*
X132397334Y-102683119D01*
X132544036Y-102463565D01*
X132626100Y-102265443D01*
X132708164Y-102463565D01*
X132854866Y-102683119D01*
X133041581Y-102869834D01*
X133261135Y-103016536D01*
X133505091Y-103117585D01*
X133764072Y-103169100D01*
X134028128Y-103169100D01*
X134287109Y-103117585D01*
X134531065Y-103016536D01*
X134750619Y-102869834D01*
X134937334Y-102683119D01*
X135084036Y-102463565D01*
X135166100Y-102265443D01*
X135248164Y-102463565D01*
X135394866Y-102683119D01*
X135581581Y-102869834D01*
X135801135Y-103016536D01*
X136045091Y-103117585D01*
X136304072Y-103169100D01*
X136568128Y-103169100D01*
X136827109Y-103117585D01*
X137071065Y-103016536D01*
X137290619Y-102869834D01*
X137477334Y-102683119D01*
X137624036Y-102463565D01*
X137706100Y-102265443D01*
X137788164Y-102463565D01*
X137934866Y-102683119D01*
X138121581Y-102869834D01*
X138341135Y-103016536D01*
X138585091Y-103117585D01*
X138844072Y-103169100D01*
X139108128Y-103169100D01*
X139367109Y-103117585D01*
X139611065Y-103016536D01*
X139830619Y-102869834D01*
X140017334Y-102683119D01*
X140164036Y-102463565D01*
X140246100Y-102265443D01*
X140328164Y-102463565D01*
X140474866Y-102683119D01*
X140661581Y-102869834D01*
X140881135Y-103016536D01*
X141125091Y-103117585D01*
X141384072Y-103169100D01*
X141648128Y-103169100D01*
X141907109Y-103117585D01*
X142151065Y-103016536D01*
X142370619Y-102869834D01*
X142557334Y-102683119D01*
X142704036Y-102463565D01*
X142786100Y-102265443D01*
X142868164Y-102463565D01*
X143014866Y-102683119D01*
X143201581Y-102869834D01*
X143421135Y-103016536D01*
X143665091Y-103117585D01*
X143924072Y-103169100D01*
X144188128Y-103169100D01*
X144447109Y-103117585D01*
X144691065Y-103016536D01*
X144910619Y-102869834D01*
X145097334Y-102683119D01*
X145244036Y-102463565D01*
X145326100Y-102265443D01*
X145408164Y-102463565D01*
X145554866Y-102683119D01*
X145741581Y-102869834D01*
X145961135Y-103016536D01*
X146205091Y-103117585D01*
X146464072Y-103169100D01*
X146728128Y-103169100D01*
X146987109Y-103117585D01*
X147231065Y-103016536D01*
X147450619Y-102869834D01*
X147637334Y-102683119D01*
X147784036Y-102463565D01*
X147866100Y-102265443D01*
X147948164Y-102463565D01*
X148094866Y-102683119D01*
X148281581Y-102869834D01*
X148501135Y-103016536D01*
X148745091Y-103117585D01*
X149004072Y-103169100D01*
X149268128Y-103169100D01*
X149527109Y-103117585D01*
X149771065Y-103016536D01*
X149990619Y-102869834D01*
X150025478Y-102834975D01*
X150741567Y-102834975D01*
X150805933Y-103112709D01*
X151073171Y-103257796D01*
X151363578Y-103347961D01*
X151665996Y-103379737D01*
X151968802Y-103351904D01*
X152260359Y-103265531D01*
X152529464Y-103123937D01*
X152546267Y-103112709D01*
X152610633Y-102834975D01*
X151676100Y-101900442D01*
X150741567Y-102834975D01*
X150025478Y-102834975D01*
X150177334Y-102683119D01*
X150291483Y-102512284D01*
X150380763Y-102681964D01*
X150391991Y-102698767D01*
X150669725Y-102763133D01*
X151604258Y-101828600D01*
X151747942Y-101828600D01*
X152682475Y-102763133D01*
X152960209Y-102698767D01*
X153061123Y-102512892D01*
X153174866Y-102683119D01*
X153361581Y-102869834D01*
X153581135Y-103016536D01*
X153825091Y-103117585D01*
X154084072Y-103169100D01*
X154348128Y-103169100D01*
X154607109Y-103117585D01*
X154851065Y-103016536D01*
X155070619Y-102869834D01*
X155170404Y-102770049D01*
X155325714Y-103002488D01*
X155582212Y-103258986D01*
X155883823Y-103460516D01*
X156218954Y-103599332D01*
X156574728Y-103670100D01*
X156937472Y-103670100D01*
X157293246Y-103599332D01*
X157628377Y-103460516D01*
X157929988Y-103258986D01*
X158186486Y-103002488D01*
X158388016Y-102700877D01*
X158526832Y-102365746D01*
X158597600Y-102009972D01*
X158597600Y-101647228D01*
X158526832Y-101291454D01*
X158388016Y-100956323D01*
X158250940Y-100751173D01*
X171792000Y-100751173D01*
X171792000Y-101008827D01*
X171842266Y-101261530D01*
X171940865Y-101499570D01*
X172084010Y-101713801D01*
X172266199Y-101895990D01*
X172480430Y-102039135D01*
X172718470Y-102137734D01*
X172971173Y-102188000D01*
X173228827Y-102188000D01*
X173481530Y-102137734D01*
X173719570Y-102039135D01*
X173933801Y-101895990D01*
X174115990Y-101713801D01*
X174259135Y-101499570D01*
X174357734Y-101261530D01*
X174408000Y-101008827D01*
X174408000Y-100751173D01*
X176276100Y-100751173D01*
X176276100Y-101008827D01*
X176326366Y-101261530D01*
X176424965Y-101499570D01*
X176568110Y-101713801D01*
X176750299Y-101895990D01*
X176964530Y-102039135D01*
X177202570Y-102137734D01*
X177455273Y-102188000D01*
X177712927Y-102188000D01*
X177965630Y-102137734D01*
X178203670Y-102039135D01*
X178417901Y-101895990D01*
X178600090Y-101713801D01*
X178743235Y-101499570D01*
X178841834Y-101261530D01*
X178892100Y-101008827D01*
X178892100Y-100751173D01*
X180792000Y-100751173D01*
X180792000Y-101008827D01*
X180842266Y-101261530D01*
X180940865Y-101499570D01*
X181084010Y-101713801D01*
X181266199Y-101895990D01*
X181480430Y-102039135D01*
X181718470Y-102137734D01*
X181971173Y-102188000D01*
X182228827Y-102188000D01*
X182481530Y-102137734D01*
X182719570Y-102039135D01*
X182933801Y-101895990D01*
X183115990Y-101713801D01*
X183259135Y-101499570D01*
X183357734Y-101261530D01*
X183408000Y-101008827D01*
X183408000Y-100751173D01*
X183357734Y-100498470D01*
X183259135Y-100260430D01*
X183115990Y-100046199D01*
X182933801Y-99864010D01*
X182815103Y-99784698D01*
X198718100Y-99784698D01*
X198718100Y-100032502D01*
X198766444Y-100275545D01*
X198861275Y-100504486D01*
X198998948Y-100710528D01*
X199174172Y-100885752D01*
X199380214Y-101023425D01*
X199609155Y-101118256D01*
X199852198Y-101166600D01*
X200100002Y-101166600D01*
X200343045Y-101118256D01*
X200571986Y-101023425D01*
X200778028Y-100885752D01*
X200807466Y-100856314D01*
X204100228Y-100856314D01*
X204154687Y-101125604D01*
X204407896Y-101262469D01*
X204682941Y-101347306D01*
X204969251Y-101376855D01*
X205255825Y-101349978D01*
X205531649Y-101267711D01*
X205786124Y-101133213D01*
X205797513Y-101125604D01*
X205851972Y-100856314D01*
X204976100Y-99980442D01*
X204100228Y-100856314D01*
X200807466Y-100856314D01*
X200953252Y-100710528D01*
X201090925Y-100504486D01*
X201185756Y-100275545D01*
X201234100Y-100032502D01*
X201234100Y-99901751D01*
X203507845Y-99901751D01*
X203534722Y-100188325D01*
X203616989Y-100464149D01*
X203751487Y-100718624D01*
X203759096Y-100730013D01*
X204028386Y-100784472D01*
X204904258Y-99908600D01*
X205047942Y-99908600D01*
X205923814Y-100784472D01*
X206193104Y-100730013D01*
X206329969Y-100476804D01*
X206414806Y-100201759D01*
X206444355Y-99915449D01*
X206417478Y-99628875D01*
X206335211Y-99353051D01*
X206200713Y-99098576D01*
X206193104Y-99087187D01*
X205923814Y-99032728D01*
X205047942Y-99908600D01*
X204904258Y-99908600D01*
X204028386Y-99032728D01*
X203759096Y-99087187D01*
X203622231Y-99340396D01*
X203537394Y-99615441D01*
X203507845Y-99901751D01*
X201234100Y-99901751D01*
X201234100Y-99784698D01*
X201185756Y-99541655D01*
X201090925Y-99312714D01*
X200953252Y-99106672D01*
X200807466Y-98960886D01*
X204100228Y-98960886D01*
X204976100Y-99836758D01*
X205851972Y-98960886D01*
X205797513Y-98691596D01*
X205544304Y-98554731D01*
X205269259Y-98469894D01*
X204982949Y-98440345D01*
X204696375Y-98467222D01*
X204420551Y-98549489D01*
X204166076Y-98683987D01*
X204154687Y-98691596D01*
X204100228Y-98960886D01*
X200807466Y-98960886D01*
X200778028Y-98931448D01*
X200571986Y-98793775D01*
X200343045Y-98698944D01*
X200100002Y-98650600D01*
X199852198Y-98650600D01*
X199609155Y-98698944D01*
X199380214Y-98793775D01*
X199174172Y-98931448D01*
X198998948Y-99106672D01*
X198861275Y-99312714D01*
X198766444Y-99541655D01*
X198718100Y-99784698D01*
X182815103Y-99784698D01*
X182719570Y-99720865D01*
X182481530Y-99622266D01*
X182228827Y-99572000D01*
X181971173Y-99572000D01*
X181718470Y-99622266D01*
X181480430Y-99720865D01*
X181266199Y-99864010D01*
X181084010Y-100046199D01*
X180940865Y-100260430D01*
X180842266Y-100498470D01*
X180792000Y-100751173D01*
X178892100Y-100751173D01*
X178841834Y-100498470D01*
X178743235Y-100260430D01*
X178600090Y-100046199D01*
X178417901Y-99864010D01*
X178203670Y-99720865D01*
X177965630Y-99622266D01*
X177712927Y-99572000D01*
X177455273Y-99572000D01*
X177202570Y-99622266D01*
X176964530Y-99720865D01*
X176750299Y-99864010D01*
X176568110Y-100046199D01*
X176424965Y-100260430D01*
X176326366Y-100498470D01*
X176276100Y-100751173D01*
X174408000Y-100751173D01*
X174357734Y-100498470D01*
X174259135Y-100260430D01*
X174115990Y-100046199D01*
X173933801Y-99864010D01*
X173719570Y-99720865D01*
X173481530Y-99622266D01*
X173228827Y-99572000D01*
X172971173Y-99572000D01*
X172718470Y-99622266D01*
X172480430Y-99720865D01*
X172266199Y-99864010D01*
X172084010Y-100046199D01*
X171940865Y-100260430D01*
X171842266Y-100498470D01*
X171792000Y-100751173D01*
X158250940Y-100751173D01*
X158186486Y-100654712D01*
X157929988Y-100398214D01*
X157628377Y-100196684D01*
X157293246Y-100057868D01*
X156937472Y-99987100D01*
X156574728Y-99987100D01*
X156218954Y-100057868D01*
X155883823Y-100196684D01*
X155582212Y-100398214D01*
X155325714Y-100654712D01*
X155170404Y-100887151D01*
X155070619Y-100787366D01*
X154851065Y-100640664D01*
X154607109Y-100539615D01*
X154348128Y-100488100D01*
X154084072Y-100488100D01*
X153825091Y-100539615D01*
X153581135Y-100640664D01*
X153361581Y-100787366D01*
X153174866Y-100974081D01*
X153060717Y-101144916D01*
X152971437Y-100975236D01*
X152960209Y-100958433D01*
X152682475Y-100894067D01*
X151747942Y-101828600D01*
X151604258Y-101828600D01*
X150669725Y-100894067D01*
X150391991Y-100958433D01*
X150291077Y-101144308D01*
X150177334Y-100974081D01*
X150025478Y-100822225D01*
X150741567Y-100822225D01*
X151676100Y-101756758D01*
X152610633Y-100822225D01*
X152546267Y-100544491D01*
X152279029Y-100399404D01*
X151988622Y-100309239D01*
X151686204Y-100277463D01*
X151383398Y-100305296D01*
X151091841Y-100391669D01*
X150822736Y-100533263D01*
X150805933Y-100544491D01*
X150741567Y-100822225D01*
X150025478Y-100822225D01*
X149990619Y-100787366D01*
X149771065Y-100640664D01*
X149527109Y-100539615D01*
X149268128Y-100488100D01*
X149004072Y-100488100D01*
X148745091Y-100539615D01*
X148501135Y-100640664D01*
X148281581Y-100787366D01*
X148094866Y-100974081D01*
X147948164Y-101193635D01*
X147866100Y-101391757D01*
X147784036Y-101193635D01*
X147637334Y-100974081D01*
X147450619Y-100787366D01*
X147231065Y-100640664D01*
X146987109Y-100539615D01*
X146728128Y-100488100D01*
X146464072Y-100488100D01*
X146205091Y-100539615D01*
X145961135Y-100640664D01*
X145741581Y-100787366D01*
X145554866Y-100974081D01*
X145408164Y-101193635D01*
X145326100Y-101391757D01*
X145244036Y-101193635D01*
X145097334Y-100974081D01*
X144910619Y-100787366D01*
X144691065Y-100640664D01*
X144447109Y-100539615D01*
X144188128Y-100488100D01*
X143924072Y-100488100D01*
X143665091Y-100539615D01*
X143421135Y-100640664D01*
X143201581Y-100787366D01*
X143014866Y-100974081D01*
X142868164Y-101193635D01*
X142786100Y-101391757D01*
X142704036Y-101193635D01*
X142557334Y-100974081D01*
X142370619Y-100787366D01*
X142151065Y-100640664D01*
X141907109Y-100539615D01*
X141648128Y-100488100D01*
X141384072Y-100488100D01*
X141125091Y-100539615D01*
X140881135Y-100640664D01*
X140661581Y-100787366D01*
X140474866Y-100974081D01*
X140328164Y-101193635D01*
X140246100Y-101391757D01*
X140164036Y-101193635D01*
X140017334Y-100974081D01*
X139830619Y-100787366D01*
X139611065Y-100640664D01*
X139367109Y-100539615D01*
X139108128Y-100488100D01*
X138844072Y-100488100D01*
X138585091Y-100539615D01*
X138341135Y-100640664D01*
X138121581Y-100787366D01*
X137934866Y-100974081D01*
X137788164Y-101193635D01*
X137706100Y-101391757D01*
X137624036Y-101193635D01*
X137477334Y-100974081D01*
X137290619Y-100787366D01*
X137071065Y-100640664D01*
X136827109Y-100539615D01*
X136568128Y-100488100D01*
X136304072Y-100488100D01*
X136045091Y-100539615D01*
X135801135Y-100640664D01*
X135581581Y-100787366D01*
X135394866Y-100974081D01*
X135248164Y-101193635D01*
X135166100Y-101391757D01*
X135084036Y-101193635D01*
X134937334Y-100974081D01*
X134750619Y-100787366D01*
X134531065Y-100640664D01*
X134287109Y-100539615D01*
X134028128Y-100488100D01*
X133764072Y-100488100D01*
X133505091Y-100539615D01*
X133261135Y-100640664D01*
X133041581Y-100787366D01*
X132854866Y-100974081D01*
X132708164Y-101193635D01*
X132626100Y-101391757D01*
X132544036Y-101193635D01*
X132397334Y-100974081D01*
X132210619Y-100787366D01*
X131991065Y-100640664D01*
X131747109Y-100539615D01*
X131488128Y-100488100D01*
X131224072Y-100488100D01*
X130965091Y-100539615D01*
X130721135Y-100640664D01*
X130501581Y-100787366D01*
X130314866Y-100974081D01*
X130168164Y-101193635D01*
X130086100Y-101391757D01*
X130004036Y-101193635D01*
X129857334Y-100974081D01*
X129670619Y-100787366D01*
X129451065Y-100640664D01*
X129207109Y-100539615D01*
X128948128Y-100488100D01*
X128684072Y-100488100D01*
X128425091Y-100539615D01*
X128181135Y-100640664D01*
X127961581Y-100787366D01*
X127774866Y-100974081D01*
X127628164Y-101193635D01*
X127546100Y-101391757D01*
X127464036Y-101193635D01*
X127317334Y-100974081D01*
X127130619Y-100787366D01*
X126911065Y-100640664D01*
X126667109Y-100539615D01*
X126408128Y-100488100D01*
X126144072Y-100488100D01*
X125885091Y-100539615D01*
X125641135Y-100640664D01*
X125421581Y-100787366D01*
X125234866Y-100974081D01*
X125088164Y-101193635D01*
X125006100Y-101391757D01*
X124924036Y-101193635D01*
X124777334Y-100974081D01*
X124590619Y-100787366D01*
X124371065Y-100640664D01*
X124127109Y-100539615D01*
X123868128Y-100488100D01*
X123604072Y-100488100D01*
X123345091Y-100539615D01*
X123101135Y-100640664D01*
X122881581Y-100787366D01*
X122694866Y-100974081D01*
X122548164Y-101193635D01*
X122466100Y-101391757D01*
X122384036Y-101193635D01*
X122237334Y-100974081D01*
X122050619Y-100787366D01*
X121831065Y-100640664D01*
X121587109Y-100539615D01*
X121328128Y-100488100D01*
X121064072Y-100488100D01*
X120805091Y-100539615D01*
X120561135Y-100640664D01*
X120341581Y-100787366D01*
X120154866Y-100974081D01*
X120008164Y-101193635D01*
X119926100Y-101391757D01*
X119844036Y-101193635D01*
X119697334Y-100974081D01*
X119510619Y-100787366D01*
X119291065Y-100640664D01*
X119047109Y-100539615D01*
X118788128Y-100488100D01*
X118524072Y-100488100D01*
X118265091Y-100539615D01*
X118021135Y-100640664D01*
X117801581Y-100787366D01*
X117701796Y-100887151D01*
X117546486Y-100654712D01*
X117289988Y-100398214D01*
X116988377Y-100196684D01*
X116653246Y-100057868D01*
X116297472Y-99987100D01*
X115934728Y-99987100D01*
X115578954Y-100057868D01*
X115243823Y-100196684D01*
X114942212Y-100398214D01*
X114685714Y-100654712D01*
X114484184Y-100956323D01*
X114345368Y-101291454D01*
X114274600Y-101647228D01*
X78930500Y-101647228D01*
X78930500Y-95119923D01*
X102353300Y-95119923D01*
X102353300Y-95329277D01*
X102394143Y-95534607D01*
X102474259Y-95728024D01*
X102590570Y-95902095D01*
X102738605Y-96050130D01*
X102912676Y-96166441D01*
X103106093Y-96246557D01*
X103311423Y-96287400D01*
X103520777Y-96287400D01*
X103726107Y-96246557D01*
X103919524Y-96166441D01*
X104093595Y-96050130D01*
X104241630Y-95902095D01*
X104357941Y-95728024D01*
X104438057Y-95534607D01*
X104478900Y-95329277D01*
X104478900Y-95119923D01*
X104438057Y-94914593D01*
X104357941Y-94721176D01*
X104241630Y-94547105D01*
X104093595Y-94399070D01*
X104083655Y-94392428D01*
X191129800Y-94392428D01*
X191129800Y-94607572D01*
X191171772Y-94818583D01*
X191254105Y-95017351D01*
X191373633Y-95196237D01*
X191525763Y-95348367D01*
X191704649Y-95467895D01*
X191903417Y-95550228D01*
X192114428Y-95592200D01*
X192329572Y-95592200D01*
X192540583Y-95550228D01*
X192739351Y-95467895D01*
X192918237Y-95348367D01*
X192936801Y-95329803D01*
X193242039Y-95329803D01*
X193276580Y-95582129D01*
X193501592Y-95702468D01*
X193745758Y-95776598D01*
X193999695Y-95801668D01*
X194253643Y-95776717D01*
X194497845Y-95702702D01*
X194722915Y-95582467D01*
X194723420Y-95582129D01*
X194757961Y-95329803D01*
X194000000Y-94571842D01*
X193242039Y-95329803D01*
X192936801Y-95329803D01*
X193028095Y-95238509D01*
X193170197Y-95257961D01*
X193928158Y-94500000D01*
X194071842Y-94500000D01*
X194829803Y-95257961D01*
X195082129Y-95223420D01*
X195202468Y-94998408D01*
X195276598Y-94754242D01*
X195301668Y-94500305D01*
X195281244Y-94292428D01*
X211418800Y-94292428D01*
X211418800Y-94507572D01*
X211460772Y-94718583D01*
X211543105Y-94917351D01*
X211662633Y-95096237D01*
X211814763Y-95248367D01*
X211993649Y-95367895D01*
X212192417Y-95450228D01*
X212403428Y-95492200D01*
X212618572Y-95492200D01*
X212829583Y-95450228D01*
X213028351Y-95367895D01*
X213207237Y-95248367D01*
X213225801Y-95229803D01*
X213531039Y-95229803D01*
X213565580Y-95482129D01*
X213790592Y-95602468D01*
X214034758Y-95676598D01*
X214288695Y-95701668D01*
X214542643Y-95676717D01*
X214786845Y-95602702D01*
X215011915Y-95482467D01*
X215012420Y-95482129D01*
X215046961Y-95229803D01*
X214289000Y-94471842D01*
X213531039Y-95229803D01*
X213225801Y-95229803D01*
X213317095Y-95138509D01*
X213459197Y-95157961D01*
X214217158Y-94400000D01*
X214360842Y-94400000D01*
X215118803Y-95157961D01*
X215371129Y-95123420D01*
X215491468Y-94898408D01*
X215565598Y-94654242D01*
X215590668Y-94400305D01*
X215565717Y-94146357D01*
X215491702Y-93902155D01*
X215371467Y-93677085D01*
X215371129Y-93676580D01*
X215118803Y-93642039D01*
X214360842Y-94400000D01*
X214217158Y-94400000D01*
X213459197Y-93642039D01*
X213317095Y-93661491D01*
X213225801Y-93570197D01*
X213531039Y-93570197D01*
X214289000Y-94328158D01*
X215046961Y-93570197D01*
X215012420Y-93317871D01*
X214787408Y-93197532D01*
X214543242Y-93123402D01*
X214289305Y-93098332D01*
X214035357Y-93123283D01*
X213791155Y-93197298D01*
X213566085Y-93317533D01*
X213565580Y-93317871D01*
X213531039Y-93570197D01*
X213225801Y-93570197D01*
X213207237Y-93551633D01*
X213028351Y-93432105D01*
X212829583Y-93349772D01*
X212618572Y-93307800D01*
X212403428Y-93307800D01*
X212192417Y-93349772D01*
X211993649Y-93432105D01*
X211814763Y-93551633D01*
X211662633Y-93703763D01*
X211543105Y-93882649D01*
X211460772Y-94081417D01*
X211418800Y-94292428D01*
X195281244Y-94292428D01*
X195276717Y-94246357D01*
X195202702Y-94002155D01*
X195082467Y-93777085D01*
X195082129Y-93776580D01*
X194829803Y-93742039D01*
X194071842Y-94500000D01*
X193928158Y-94500000D01*
X193170197Y-93742039D01*
X193028095Y-93761491D01*
X192936801Y-93670197D01*
X193242039Y-93670197D01*
X194000000Y-94428158D01*
X194757961Y-93670197D01*
X194723420Y-93417871D01*
X194498408Y-93297532D01*
X194254242Y-93223402D01*
X194000305Y-93198332D01*
X193746357Y-93223283D01*
X193502155Y-93297298D01*
X193277085Y-93417533D01*
X193276580Y-93417871D01*
X193242039Y-93670197D01*
X192936801Y-93670197D01*
X192918237Y-93651633D01*
X192739351Y-93532105D01*
X192540583Y-93449772D01*
X192329572Y-93407800D01*
X192114428Y-93407800D01*
X191903417Y-93449772D01*
X191704649Y-93532105D01*
X191525763Y-93651633D01*
X191373633Y-93803763D01*
X191254105Y-93982649D01*
X191171772Y-94181417D01*
X191129800Y-94392428D01*
X104083655Y-94392428D01*
X103919524Y-94282759D01*
X103726107Y-94202643D01*
X103520777Y-94161800D01*
X103311423Y-94161800D01*
X103106093Y-94202643D01*
X102912676Y-94282759D01*
X102738605Y-94399070D01*
X102590570Y-94547105D01*
X102474259Y-94721176D01*
X102394143Y-94914593D01*
X102353300Y-95119923D01*
X78930500Y-95119923D01*
X78930500Y-92579923D01*
X99813300Y-92579923D01*
X99813300Y-92789277D01*
X99854143Y-92994607D01*
X99934259Y-93188024D01*
X100050570Y-93362095D01*
X100198605Y-93510130D01*
X100372676Y-93626441D01*
X100566093Y-93706557D01*
X100771423Y-93747400D01*
X100980777Y-93747400D01*
X101186107Y-93706557D01*
X101379524Y-93626441D01*
X101553595Y-93510130D01*
X101570233Y-93493492D01*
X105219050Y-93493492D01*
X105250057Y-93742810D01*
X105470070Y-93860219D01*
X105708761Y-93932450D01*
X105956957Y-93956726D01*
X106205120Y-93932115D01*
X106443713Y-93859563D01*
X106662143Y-93742810D01*
X106693150Y-93493492D01*
X105956100Y-92756442D01*
X105219050Y-93493492D01*
X101570233Y-93493492D01*
X101701630Y-93362095D01*
X101817941Y-93188024D01*
X101898057Y-92994607D01*
X101938900Y-92789277D01*
X101938900Y-92685457D01*
X104683974Y-92685457D01*
X104708585Y-92933620D01*
X104781137Y-93172213D01*
X104897890Y-93390643D01*
X105147208Y-93421650D01*
X105884258Y-92684600D01*
X106027942Y-92684600D01*
X106764992Y-93421650D01*
X107014310Y-93390643D01*
X107131719Y-93170630D01*
X107203950Y-92931939D01*
X107228226Y-92683743D01*
X107203615Y-92435580D01*
X107131063Y-92196987D01*
X107014310Y-91978557D01*
X106764992Y-91947550D01*
X106027942Y-92684600D01*
X105884258Y-92684600D01*
X105147208Y-91947550D01*
X104897890Y-91978557D01*
X104780481Y-92198570D01*
X104708250Y-92437261D01*
X104683974Y-92685457D01*
X101938900Y-92685457D01*
X101938900Y-92579923D01*
X101898057Y-92374593D01*
X101817941Y-92181176D01*
X101701630Y-92007105D01*
X101570233Y-91875708D01*
X105219050Y-91875708D01*
X105956100Y-92612758D01*
X106693150Y-91875708D01*
X106662143Y-91626390D01*
X106442130Y-91508981D01*
X106203439Y-91436750D01*
X105955243Y-91412474D01*
X105707080Y-91437085D01*
X105468487Y-91509637D01*
X105250057Y-91626390D01*
X105219050Y-91875708D01*
X101570233Y-91875708D01*
X101553595Y-91859070D01*
X101379524Y-91742759D01*
X101186107Y-91662643D01*
X100980777Y-91621800D01*
X100771423Y-91621800D01*
X100566093Y-91662643D01*
X100372676Y-91742759D01*
X100198605Y-91859070D01*
X100050570Y-92007105D01*
X99934259Y-92181176D01*
X99854143Y-92374593D01*
X99813300Y-92579923D01*
X78930500Y-92579923D01*
X78930500Y-88255114D01*
X190999300Y-88255114D01*
X190999300Y-90002087D01*
X191018353Y-90195538D01*
X191093650Y-90443756D01*
X191215925Y-90672514D01*
X191380478Y-90873023D01*
X191580987Y-91037576D01*
X191809745Y-91159851D01*
X192057963Y-91235147D01*
X192316100Y-91260571D01*
X192574238Y-91235147D01*
X192822456Y-91159851D01*
X193051214Y-91037576D01*
X193251723Y-90873023D01*
X193416276Y-90672514D01*
X193472262Y-90567773D01*
X193620489Y-90824106D01*
X193817219Y-91048124D01*
X194053872Y-91229457D01*
X194321354Y-91361137D01*
X194568278Y-91429901D01*
X194805300Y-91278638D01*
X194805300Y-89179400D01*
X194785300Y-89179400D01*
X194785300Y-89077800D01*
X194805300Y-89077800D01*
X194805300Y-86978562D01*
X194906900Y-86978562D01*
X194906900Y-89077800D01*
X194926900Y-89077800D01*
X194926900Y-89179400D01*
X194906900Y-89179400D01*
X194906900Y-91278638D01*
X195143922Y-91429901D01*
X195390846Y-91361137D01*
X195658328Y-91229457D01*
X195894981Y-91048124D01*
X196091711Y-90824106D01*
X196239939Y-90567773D01*
X196295925Y-90672514D01*
X196460478Y-90873023D01*
X196660987Y-91037576D01*
X196889745Y-91159851D01*
X197137963Y-91235147D01*
X197396100Y-91260571D01*
X197654238Y-91235147D01*
X197902456Y-91159851D01*
X198131214Y-91037576D01*
X198331723Y-90873023D01*
X198496276Y-90672514D01*
X198618551Y-90443756D01*
X198693847Y-90195538D01*
X198712900Y-90002087D01*
X198712900Y-88255113D01*
X198693847Y-88061662D01*
X198618551Y-87813444D01*
X198496276Y-87584686D01*
X198331723Y-87384177D01*
X198131213Y-87219624D01*
X197966865Y-87131777D01*
X204692000Y-87131777D01*
X204692000Y-87468223D01*
X204757638Y-87798205D01*
X204886390Y-88109041D01*
X205073310Y-88388786D01*
X205311214Y-88626690D01*
X205590959Y-88813610D01*
X205901795Y-88942362D01*
X206231777Y-89008000D01*
X206568223Y-89008000D01*
X206898205Y-88942362D01*
X207209041Y-88813610D01*
X207488786Y-88626690D01*
X207726690Y-88388786D01*
X207913610Y-88109041D01*
X208042362Y-87798205D01*
X208108000Y-87468223D01*
X208108000Y-87131777D01*
X208042362Y-86801795D01*
X207913610Y-86490959D01*
X207726690Y-86211214D01*
X207488786Y-85973310D01*
X207209041Y-85786390D01*
X206898205Y-85657638D01*
X206568223Y-85592000D01*
X206231777Y-85592000D01*
X205901795Y-85657638D01*
X205590959Y-85786390D01*
X205311214Y-85973310D01*
X205073310Y-86211214D01*
X204886390Y-86490959D01*
X204757638Y-86801795D01*
X204692000Y-87131777D01*
X197966865Y-87131777D01*
X197902455Y-87097349D01*
X197654237Y-87022053D01*
X197396100Y-86996629D01*
X197137962Y-87022053D01*
X196889744Y-87097349D01*
X196660986Y-87219624D01*
X196460477Y-87384177D01*
X196295924Y-87584687D01*
X196239939Y-87689427D01*
X196091711Y-87433094D01*
X195894981Y-87209076D01*
X195658328Y-87027743D01*
X195390846Y-86896063D01*
X195143922Y-86827299D01*
X194906900Y-86978562D01*
X194805300Y-86978562D01*
X194568278Y-86827299D01*
X194321354Y-86896063D01*
X194053872Y-87027743D01*
X193817219Y-87209076D01*
X193620489Y-87433094D01*
X193472262Y-87689427D01*
X193416276Y-87584686D01*
X193251723Y-87384177D01*
X193051213Y-87219624D01*
X192822455Y-87097349D01*
X192574237Y-87022053D01*
X192316100Y-86996629D01*
X192057962Y-87022053D01*
X191809744Y-87097349D01*
X191580986Y-87219624D01*
X191380477Y-87384177D01*
X191215924Y-87584687D01*
X191093649Y-87813445D01*
X191018353Y-88061663D01*
X190999300Y-88255114D01*
X78930500Y-88255114D01*
X78930500Y-81273840D01*
X88418200Y-81273840D01*
X88418200Y-81749160D01*
X88510931Y-82215346D01*
X88692828Y-82654484D01*
X88956901Y-83049698D01*
X89293002Y-83385799D01*
X89688216Y-83649872D01*
X90127354Y-83831769D01*
X90593540Y-83924500D01*
X91068860Y-83924500D01*
X91535046Y-83831769D01*
X91974184Y-83649872D01*
X92369398Y-83385799D01*
X92705499Y-83049698D01*
X92969572Y-82654484D01*
X93151469Y-82215346D01*
X93244200Y-81749160D01*
X93244200Y-81552300D01*
X96728300Y-81552300D01*
X96728300Y-82441300D01*
X96768958Y-82752507D01*
X96869548Y-83049803D01*
X97026205Y-83321762D01*
X97232908Y-83557933D01*
X97481714Y-83749240D01*
X97763062Y-83888332D01*
X98028125Y-83962255D01*
X98277700Y-83811993D01*
X98277700Y-81552300D01*
X96728300Y-81552300D01*
X93244200Y-81552300D01*
X93244200Y-81273840D01*
X93151469Y-80807654D01*
X93049592Y-80561700D01*
X96728300Y-80561700D01*
X96728300Y-81450700D01*
X98277700Y-81450700D01*
X98277700Y-79191007D01*
X98379300Y-79191007D01*
X98379300Y-81450700D01*
X98399300Y-81450700D01*
X98399300Y-81552300D01*
X98379300Y-81552300D01*
X98379300Y-83811993D01*
X98628875Y-83962255D01*
X98893938Y-83888332D01*
X99175286Y-83749240D01*
X99424092Y-83557933D01*
X99630795Y-83321762D01*
X99711115Y-83182325D01*
X99875892Y-83383107D01*
X100088613Y-83557683D01*
X100331305Y-83687404D01*
X100594640Y-83767286D01*
X100868500Y-83794259D01*
X101142359Y-83767286D01*
X101405694Y-83687404D01*
X101648386Y-83557683D01*
X101861107Y-83383108D01*
X102035683Y-83170387D01*
X102138500Y-82978029D01*
X102241317Y-83170386D01*
X102415892Y-83383107D01*
X102628613Y-83557683D01*
X102871305Y-83687404D01*
X103134640Y-83767286D01*
X103408500Y-83794259D01*
X103682359Y-83767286D01*
X103945694Y-83687404D01*
X104188386Y-83557683D01*
X104401107Y-83383108D01*
X104575683Y-83170387D01*
X104678500Y-82978029D01*
X104781317Y-83170386D01*
X104955892Y-83383107D01*
X105168613Y-83557683D01*
X105411305Y-83687404D01*
X105674640Y-83767286D01*
X105948500Y-83794259D01*
X106222359Y-83767286D01*
X106485694Y-83687404D01*
X106728386Y-83557683D01*
X106941107Y-83383108D01*
X107105885Y-83182326D01*
X107186205Y-83321762D01*
X107392908Y-83557933D01*
X107641714Y-83749240D01*
X107923062Y-83888332D01*
X108188125Y-83962255D01*
X108437700Y-83811993D01*
X108437700Y-81552300D01*
X108417700Y-81552300D01*
X108417700Y-81450700D01*
X108437700Y-81450700D01*
X108437700Y-79191007D01*
X108539300Y-79191007D01*
X108539300Y-81450700D01*
X108559300Y-81450700D01*
X108559300Y-81552300D01*
X108539300Y-81552300D01*
X108539300Y-83811993D01*
X108788875Y-83962255D01*
X109053938Y-83888332D01*
X109335286Y-83749240D01*
X109584092Y-83557933D01*
X109790795Y-83321762D01*
X109871115Y-83182325D01*
X110035892Y-83383107D01*
X110248613Y-83557683D01*
X110491305Y-83687404D01*
X110754640Y-83767286D01*
X111028500Y-83794259D01*
X111302359Y-83767286D01*
X111565694Y-83687404D01*
X111808386Y-83557683D01*
X112021107Y-83383108D01*
X112195683Y-83170387D01*
X112298500Y-82978029D01*
X112401317Y-83170386D01*
X112575892Y-83383107D01*
X112788613Y-83557683D01*
X113031305Y-83687404D01*
X113294640Y-83767286D01*
X113568500Y-83794259D01*
X113842359Y-83767286D01*
X114105694Y-83687404D01*
X114348386Y-83557683D01*
X114561107Y-83383108D01*
X114735683Y-83170387D01*
X114838500Y-82978029D01*
X114941317Y-83170386D01*
X115115892Y-83383107D01*
X115328613Y-83557683D01*
X115571305Y-83687404D01*
X115834640Y-83767286D01*
X116108500Y-83794259D01*
X116382359Y-83767286D01*
X116645694Y-83687404D01*
X116888386Y-83557683D01*
X117101107Y-83383108D01*
X117275683Y-83170387D01*
X117378500Y-82978029D01*
X117481317Y-83170386D01*
X117655892Y-83383107D01*
X117868613Y-83557683D01*
X118111305Y-83687404D01*
X118374640Y-83767286D01*
X118648500Y-83794259D01*
X118922359Y-83767286D01*
X119185694Y-83687404D01*
X119428386Y-83557683D01*
X119641107Y-83383108D01*
X119815683Y-83170387D01*
X119918500Y-82978029D01*
X120021317Y-83170386D01*
X120195892Y-83383107D01*
X120408613Y-83557683D01*
X120651305Y-83687404D01*
X120914640Y-83767286D01*
X121188500Y-83794259D01*
X121462359Y-83767286D01*
X121725694Y-83687404D01*
X121968386Y-83557683D01*
X122181107Y-83383108D01*
X122355683Y-83170387D01*
X122458500Y-82978029D01*
X122561317Y-83170386D01*
X122735892Y-83383107D01*
X122948613Y-83557683D01*
X123191305Y-83687404D01*
X123454640Y-83767286D01*
X123728500Y-83794259D01*
X124002359Y-83767286D01*
X124265694Y-83687404D01*
X124508386Y-83557683D01*
X124721107Y-83383108D01*
X124895683Y-83170387D01*
X124998500Y-82978029D01*
X125101317Y-83170386D01*
X125275892Y-83383107D01*
X125488613Y-83557683D01*
X125731305Y-83687404D01*
X125994640Y-83767286D01*
X126268500Y-83794259D01*
X126542359Y-83767286D01*
X126805694Y-83687404D01*
X127048386Y-83557683D01*
X127261107Y-83383108D01*
X127435683Y-83170387D01*
X127538500Y-82978029D01*
X127641317Y-83170386D01*
X127815892Y-83383107D01*
X128028613Y-83557683D01*
X128271305Y-83687404D01*
X128534640Y-83767286D01*
X128808500Y-83794259D01*
X129082359Y-83767286D01*
X129345694Y-83687404D01*
X129588386Y-83557683D01*
X129801107Y-83383108D01*
X129975683Y-83170387D01*
X130078500Y-82978029D01*
X130181317Y-83170386D01*
X130355892Y-83383107D01*
X130568613Y-83557683D01*
X130811305Y-83687404D01*
X131074640Y-83767286D01*
X131348500Y-83794259D01*
X131622359Y-83767286D01*
X131885694Y-83687404D01*
X132128386Y-83557683D01*
X132341107Y-83383108D01*
X132515683Y-83170387D01*
X132618500Y-82978029D01*
X132721317Y-83170386D01*
X132895892Y-83383107D01*
X133108613Y-83557683D01*
X133351305Y-83687404D01*
X133614640Y-83767286D01*
X133888500Y-83794259D01*
X134162359Y-83767286D01*
X134425694Y-83687404D01*
X134668386Y-83557683D01*
X134881107Y-83383108D01*
X135045885Y-83182326D01*
X135126205Y-83321762D01*
X135332908Y-83557933D01*
X135581714Y-83749240D01*
X135863062Y-83888332D01*
X136128125Y-83962255D01*
X136377700Y-83811993D01*
X136377700Y-81552300D01*
X136479300Y-81552300D01*
X136479300Y-83811993D01*
X136728875Y-83962255D01*
X136993938Y-83888332D01*
X137275286Y-83749240D01*
X137524092Y-83557933D01*
X137730795Y-83321762D01*
X137887452Y-83049803D01*
X137988042Y-82752507D01*
X138028700Y-82441300D01*
X138028700Y-81552300D01*
X136479300Y-81552300D01*
X136377700Y-81552300D01*
X136357700Y-81552300D01*
X136357700Y-81450700D01*
X136377700Y-81450700D01*
X136377700Y-79191007D01*
X136479300Y-79191007D01*
X136479300Y-81450700D01*
X138028700Y-81450700D01*
X138028700Y-81263840D01*
X181428200Y-81263840D01*
X181428200Y-81739160D01*
X181520931Y-82205346D01*
X181702828Y-82644484D01*
X181966901Y-83039698D01*
X182303002Y-83375799D01*
X182698216Y-83639872D01*
X183137354Y-83821769D01*
X183603540Y-83914500D01*
X184078860Y-83914500D01*
X184545046Y-83821769D01*
X184984184Y-83639872D01*
X185379398Y-83375799D01*
X185696726Y-83058471D01*
X210435803Y-83058471D01*
X210501295Y-83293905D01*
X210628281Y-83552605D01*
X210803297Y-83781560D01*
X211019617Y-83971972D01*
X211268928Y-84116523D01*
X211541649Y-84209659D01*
X211827300Y-84247800D01*
X212585300Y-84247800D01*
X212585300Y-82829400D01*
X212686900Y-82829400D01*
X212686900Y-84247800D01*
X213444900Y-84247800D01*
X213730551Y-84209659D01*
X214003272Y-84116523D01*
X214252583Y-83971972D01*
X214468903Y-83781560D01*
X214643919Y-83552605D01*
X214770905Y-83293905D01*
X214836397Y-83058471D01*
X214684500Y-82829400D01*
X212686900Y-82829400D01*
X212585300Y-82829400D01*
X210587700Y-82829400D01*
X210435803Y-83058471D01*
X185696726Y-83058471D01*
X185715499Y-83039698D01*
X185979572Y-82644484D01*
X186039945Y-82498729D01*
X210435803Y-82498729D01*
X210587700Y-82727800D01*
X212585300Y-82727800D01*
X212585300Y-82707800D01*
X212686900Y-82707800D01*
X212686900Y-82727800D01*
X214684500Y-82727800D01*
X214836397Y-82498729D01*
X214770905Y-82263295D01*
X214643919Y-82004595D01*
X214468903Y-81775640D01*
X214252583Y-81585228D01*
X214003272Y-81440677D01*
X213898040Y-81404740D01*
X214100855Y-81296333D01*
X214293628Y-81138128D01*
X214451833Y-80945355D01*
X214569390Y-80725421D01*
X214641781Y-80486779D01*
X214666225Y-80238600D01*
X214641781Y-79990421D01*
X214569390Y-79751779D01*
X214451833Y-79531845D01*
X214293628Y-79339072D01*
X214100855Y-79180867D01*
X213880921Y-79063310D01*
X213642279Y-78990919D01*
X213456287Y-78972600D01*
X211815913Y-78972600D01*
X211629921Y-78990919D01*
X211391279Y-79063310D01*
X211171345Y-79180867D01*
X210978572Y-79339072D01*
X210820367Y-79531845D01*
X210702810Y-79751779D01*
X210630419Y-79990421D01*
X210605975Y-80238600D01*
X210630419Y-80486779D01*
X210702810Y-80725421D01*
X210820367Y-80945355D01*
X210978572Y-81138128D01*
X211171345Y-81296333D01*
X211374160Y-81404740D01*
X211268928Y-81440677D01*
X211019617Y-81585228D01*
X210803297Y-81775640D01*
X210628281Y-82004595D01*
X210501295Y-82263295D01*
X210435803Y-82498729D01*
X186039945Y-82498729D01*
X186161469Y-82205346D01*
X186254200Y-81739160D01*
X186254200Y-81263840D01*
X186161469Y-80797654D01*
X185979572Y-80358516D01*
X185715499Y-79963302D01*
X185379398Y-79627201D01*
X184984184Y-79363128D01*
X184545046Y-79181231D01*
X184078860Y-79088500D01*
X183603540Y-79088500D01*
X183137354Y-79181231D01*
X182698216Y-79363128D01*
X182303002Y-79627201D01*
X181966901Y-79963302D01*
X181702828Y-80358516D01*
X181520931Y-80797654D01*
X181428200Y-81263840D01*
X138028700Y-81263840D01*
X138028700Y-80561700D01*
X137988042Y-80250493D01*
X137887452Y-79953197D01*
X137730795Y-79681238D01*
X137524092Y-79445067D01*
X137275286Y-79253760D01*
X136993938Y-79114668D01*
X136728875Y-79040745D01*
X136479300Y-79191007D01*
X136377700Y-79191007D01*
X136128125Y-79040745D01*
X135863062Y-79114668D01*
X135581714Y-79253760D01*
X135332908Y-79445067D01*
X135126205Y-79681238D01*
X135045885Y-79820674D01*
X134881108Y-79619892D01*
X134668387Y-79445317D01*
X134425695Y-79315596D01*
X134162360Y-79235714D01*
X133888500Y-79208741D01*
X133614641Y-79235714D01*
X133351306Y-79315596D01*
X133108614Y-79445317D01*
X132895893Y-79619892D01*
X132721318Y-79832613D01*
X132618501Y-80024972D01*
X132515683Y-79832613D01*
X132341108Y-79619892D01*
X132128387Y-79445317D01*
X131885695Y-79315596D01*
X131622360Y-79235714D01*
X131348500Y-79208741D01*
X131074641Y-79235714D01*
X130811306Y-79315596D01*
X130568614Y-79445317D01*
X130355893Y-79619892D01*
X130181318Y-79832613D01*
X130078501Y-80024972D01*
X129975683Y-79832613D01*
X129801108Y-79619892D01*
X129588387Y-79445317D01*
X129345695Y-79315596D01*
X129082360Y-79235714D01*
X128808500Y-79208741D01*
X128534641Y-79235714D01*
X128271306Y-79315596D01*
X128028614Y-79445317D01*
X127815893Y-79619892D01*
X127641318Y-79832613D01*
X127538501Y-80024972D01*
X127435683Y-79832613D01*
X127261108Y-79619892D01*
X127048387Y-79445317D01*
X126805695Y-79315596D01*
X126542360Y-79235714D01*
X126268500Y-79208741D01*
X125994641Y-79235714D01*
X125731306Y-79315596D01*
X125488614Y-79445317D01*
X125275893Y-79619892D01*
X125101318Y-79832613D01*
X124998501Y-80024972D01*
X124895683Y-79832613D01*
X124721108Y-79619892D01*
X124508387Y-79445317D01*
X124265695Y-79315596D01*
X124002360Y-79235714D01*
X123728500Y-79208741D01*
X123454641Y-79235714D01*
X123191306Y-79315596D01*
X122948614Y-79445317D01*
X122735893Y-79619892D01*
X122561318Y-79832613D01*
X122458501Y-80024972D01*
X122355683Y-79832613D01*
X122181108Y-79619892D01*
X121968387Y-79445317D01*
X121725695Y-79315596D01*
X121462360Y-79235714D01*
X121188500Y-79208741D01*
X120914641Y-79235714D01*
X120651306Y-79315596D01*
X120408614Y-79445317D01*
X120195893Y-79619892D01*
X120021318Y-79832613D01*
X119918501Y-80024972D01*
X119815683Y-79832613D01*
X119641108Y-79619892D01*
X119428387Y-79445317D01*
X119185695Y-79315596D01*
X118922360Y-79235714D01*
X118648500Y-79208741D01*
X118374641Y-79235714D01*
X118111306Y-79315596D01*
X117868614Y-79445317D01*
X117655893Y-79619892D01*
X117481318Y-79832613D01*
X117378501Y-80024972D01*
X117275683Y-79832613D01*
X117101108Y-79619892D01*
X116888387Y-79445317D01*
X116645695Y-79315596D01*
X116382360Y-79235714D01*
X116108500Y-79208741D01*
X115834641Y-79235714D01*
X115571306Y-79315596D01*
X115328614Y-79445317D01*
X115115893Y-79619892D01*
X114941318Y-79832613D01*
X114838501Y-80024972D01*
X114735683Y-79832613D01*
X114561108Y-79619892D01*
X114348387Y-79445317D01*
X114105695Y-79315596D01*
X113842360Y-79235714D01*
X113568500Y-79208741D01*
X113294641Y-79235714D01*
X113031306Y-79315596D01*
X112788614Y-79445317D01*
X112575893Y-79619892D01*
X112401318Y-79832613D01*
X112298501Y-80024972D01*
X112195683Y-79832613D01*
X112021108Y-79619892D01*
X111808387Y-79445317D01*
X111565695Y-79315596D01*
X111302360Y-79235714D01*
X111028500Y-79208741D01*
X110754641Y-79235714D01*
X110491306Y-79315596D01*
X110248614Y-79445317D01*
X110035893Y-79619892D01*
X109871115Y-79820675D01*
X109790795Y-79681238D01*
X109584092Y-79445067D01*
X109335286Y-79253760D01*
X109053938Y-79114668D01*
X108788875Y-79040745D01*
X108539300Y-79191007D01*
X108437700Y-79191007D01*
X108188125Y-79040745D01*
X107923062Y-79114668D01*
X107641714Y-79253760D01*
X107392908Y-79445067D01*
X107186205Y-79681238D01*
X107105885Y-79820674D01*
X106941108Y-79619892D01*
X106728387Y-79445317D01*
X106485695Y-79315596D01*
X106222360Y-79235714D01*
X105948500Y-79208741D01*
X105674641Y-79235714D01*
X105411306Y-79315596D01*
X105168614Y-79445317D01*
X104955893Y-79619892D01*
X104781318Y-79832613D01*
X104678501Y-80024972D01*
X104575683Y-79832613D01*
X104401108Y-79619892D01*
X104188387Y-79445317D01*
X103945695Y-79315596D01*
X103682360Y-79235714D01*
X103408500Y-79208741D01*
X103134641Y-79235714D01*
X102871306Y-79315596D01*
X102628614Y-79445317D01*
X102415893Y-79619892D01*
X102241318Y-79832613D01*
X102138501Y-80024972D01*
X102035683Y-79832613D01*
X101861108Y-79619892D01*
X101648387Y-79445317D01*
X101405695Y-79315596D01*
X101142360Y-79235714D01*
X100868500Y-79208741D01*
X100594641Y-79235714D01*
X100331306Y-79315596D01*
X100088614Y-79445317D01*
X99875893Y-79619892D01*
X99711115Y-79820675D01*
X99630795Y-79681238D01*
X99424092Y-79445067D01*
X99175286Y-79253760D01*
X98893938Y-79114668D01*
X98628875Y-79040745D01*
X98379300Y-79191007D01*
X98277700Y-79191007D01*
X98028125Y-79040745D01*
X97763062Y-79114668D01*
X97481714Y-79253760D01*
X97232908Y-79445067D01*
X97026205Y-79681238D01*
X96869548Y-79953197D01*
X96768958Y-80250493D01*
X96728300Y-80561700D01*
X93049592Y-80561700D01*
X92969572Y-80368516D01*
X92705499Y-79973302D01*
X92369398Y-79637201D01*
X91974184Y-79373128D01*
X91535046Y-79191231D01*
X91068860Y-79098500D01*
X90593540Y-79098500D01*
X90127354Y-79191231D01*
X89688216Y-79373128D01*
X89293002Y-79637201D01*
X88956901Y-79973302D01*
X88692828Y-80368516D01*
X88510931Y-80807654D01*
X88418200Y-81273840D01*
X78930500Y-81273840D01*
X78930500Y-75983267D01*
X94988575Y-75983267D01*
X95049039Y-76257674D01*
X95310750Y-76399522D01*
X95595105Y-76487587D01*
X95891177Y-76518486D01*
X96187589Y-76491029D01*
X96472948Y-76406273D01*
X96736290Y-76267476D01*
X96750961Y-76257674D01*
X96811425Y-75983267D01*
X95900000Y-75071842D01*
X94988575Y-75983267D01*
X78930500Y-75983267D01*
X78930500Y-74991177D01*
X94381514Y-74991177D01*
X94408971Y-75287589D01*
X94493727Y-75572948D01*
X94632524Y-75836290D01*
X94642326Y-75850961D01*
X94916733Y-75911425D01*
X95828158Y-75000000D01*
X95971842Y-75000000D01*
X96883267Y-75911425D01*
X97157674Y-75850961D01*
X97299522Y-75589250D01*
X97387587Y-75304895D01*
X97418486Y-75008823D01*
X97405736Y-74871173D01*
X99592000Y-74871173D01*
X99592000Y-75128827D01*
X99642266Y-75381530D01*
X99740865Y-75619570D01*
X99884010Y-75833801D01*
X100066199Y-76015990D01*
X100280430Y-76159135D01*
X100518470Y-76257734D01*
X100771173Y-76308000D01*
X101028827Y-76308000D01*
X101281530Y-76257734D01*
X101519570Y-76159135D01*
X101733801Y-76015990D01*
X101915990Y-75833801D01*
X102059135Y-75619570D01*
X102157734Y-75381530D01*
X102208000Y-75128827D01*
X102208000Y-74871173D01*
X102157734Y-74618470D01*
X102059135Y-74380430D01*
X101915990Y-74166199D01*
X101733801Y-73984010D01*
X101519570Y-73840865D01*
X101281530Y-73742266D01*
X101028827Y-73692000D01*
X100771173Y-73692000D01*
X100518470Y-73742266D01*
X100280430Y-73840865D01*
X100066199Y-73984010D01*
X99884010Y-74166199D01*
X99740865Y-74380430D01*
X99642266Y-74618470D01*
X99592000Y-74871173D01*
X97405736Y-74871173D01*
X97391029Y-74712411D01*
X97306273Y-74427052D01*
X97167476Y-74163710D01*
X97157674Y-74149039D01*
X96883267Y-74088575D01*
X95971842Y-75000000D01*
X95828158Y-75000000D01*
X94916733Y-74088575D01*
X94642326Y-74149039D01*
X94500478Y-74410750D01*
X94412413Y-74695105D01*
X94381514Y-74991177D01*
X78930500Y-74991177D01*
X78930500Y-74016733D01*
X94988575Y-74016733D01*
X95900000Y-74928158D01*
X96811425Y-74016733D01*
X96750961Y-73742326D01*
X96489250Y-73600478D01*
X96204895Y-73512413D01*
X95908823Y-73481514D01*
X95612411Y-73508971D01*
X95327052Y-73593727D01*
X95063710Y-73732524D01*
X95049039Y-73742326D01*
X94988575Y-74016733D01*
X78930500Y-74016733D01*
X78930500Y-71121282D01*
X80788100Y-71121282D01*
X80788100Y-71575918D01*
X80876796Y-72021819D01*
X81050777Y-72441848D01*
X81303360Y-72819864D01*
X81624836Y-73141340D01*
X82002852Y-73393923D01*
X82422881Y-73567904D01*
X82868782Y-73656600D01*
X83323418Y-73656600D01*
X83769319Y-73567904D01*
X84189348Y-73393923D01*
X84567364Y-73141340D01*
X84708704Y-73000000D01*
X107096800Y-73000000D01*
X107096800Y-77100000D01*
X107100704Y-77139642D01*
X107112268Y-77177761D01*
X107131045Y-77212892D01*
X107156316Y-77243684D01*
X107187108Y-77268955D01*
X107222239Y-77287732D01*
X107260358Y-77299296D01*
X107300000Y-77303200D01*
X117600000Y-77303200D01*
X117639642Y-77299296D01*
X117677761Y-77287732D01*
X117712892Y-77268955D01*
X117743684Y-77243684D01*
X117768955Y-77212892D01*
X117787732Y-77177761D01*
X117799296Y-77139642D01*
X117803200Y-77100000D01*
X117803200Y-76271173D01*
X131692000Y-76271173D01*
X131692000Y-76528827D01*
X131742266Y-76781530D01*
X131840865Y-77019570D01*
X131984010Y-77233801D01*
X132166199Y-77415990D01*
X132380430Y-77559135D01*
X132618470Y-77657734D01*
X132871173Y-77708000D01*
X133128827Y-77708000D01*
X133381530Y-77657734D01*
X133619570Y-77559135D01*
X133833801Y-77415990D01*
X134015990Y-77233801D01*
X134159135Y-77019570D01*
X134257734Y-76781530D01*
X134308000Y-76528827D01*
X134308000Y-76271173D01*
X139312000Y-76271173D01*
X139312000Y-76528827D01*
X139362266Y-76781530D01*
X139460865Y-77019570D01*
X139604010Y-77233801D01*
X139786199Y-77415990D01*
X140000430Y-77559135D01*
X140238470Y-77657734D01*
X140491173Y-77708000D01*
X140748827Y-77708000D01*
X141001530Y-77657734D01*
X141239570Y-77559135D01*
X141453801Y-77415990D01*
X141635990Y-77233801D01*
X141779135Y-77019570D01*
X141877734Y-76781530D01*
X141928000Y-76528827D01*
X141928000Y-76271173D01*
X141877734Y-76018470D01*
X141779135Y-75780430D01*
X141635990Y-75566199D01*
X141453801Y-75384010D01*
X141239570Y-75240865D01*
X141001530Y-75142266D01*
X140748827Y-75092000D01*
X140491173Y-75092000D01*
X140238470Y-75142266D01*
X140000430Y-75240865D01*
X139786199Y-75384010D01*
X139604010Y-75566199D01*
X139460865Y-75780430D01*
X139362266Y-76018470D01*
X139312000Y-76271173D01*
X134308000Y-76271173D01*
X134257734Y-76018470D01*
X134159135Y-75780430D01*
X134015990Y-75566199D01*
X133833801Y-75384010D01*
X133619570Y-75240865D01*
X133381530Y-75142266D01*
X133128827Y-75092000D01*
X132871173Y-75092000D01*
X132618470Y-75142266D01*
X132380430Y-75240865D01*
X132166199Y-75384010D01*
X131984010Y-75566199D01*
X131840865Y-75780430D01*
X131742266Y-76018470D01*
X131692000Y-76271173D01*
X117803200Y-76271173D01*
X117803200Y-73000000D01*
X117799296Y-72960358D01*
X117787732Y-72922239D01*
X117768955Y-72887108D01*
X117743684Y-72856316D01*
X117712892Y-72831045D01*
X117677761Y-72812268D01*
X117639642Y-72800704D01*
X117600000Y-72796800D01*
X107300000Y-72796800D01*
X107260358Y-72800704D01*
X107222239Y-72812268D01*
X107187108Y-72831045D01*
X107156316Y-72856316D01*
X107131045Y-72887108D01*
X107112268Y-72922239D01*
X107100704Y-72960358D01*
X107096800Y-73000000D01*
X84708704Y-73000000D01*
X84888840Y-72819864D01*
X85068623Y-72550800D01*
X136620800Y-72550800D01*
X136620800Y-73308800D01*
X136658941Y-73594451D01*
X136752077Y-73867172D01*
X136896628Y-74116483D01*
X137087040Y-74332803D01*
X137315995Y-74507819D01*
X137574695Y-74634805D01*
X137810129Y-74700297D01*
X138039200Y-74548400D01*
X138039200Y-72550800D01*
X136620800Y-72550800D01*
X85068623Y-72550800D01*
X85141423Y-72441848D01*
X85315404Y-72021819D01*
X85381168Y-71691200D01*
X136620800Y-71691200D01*
X136620800Y-72449200D01*
X138039200Y-72449200D01*
X138039200Y-70451600D01*
X138140800Y-70451600D01*
X138140800Y-72449200D01*
X138160800Y-72449200D01*
X138160800Y-72550800D01*
X138140800Y-72550800D01*
X138140800Y-74548400D01*
X138369871Y-74700297D01*
X138605305Y-74634805D01*
X138864005Y-74507819D01*
X139092960Y-74332803D01*
X139283372Y-74116483D01*
X139427923Y-73867172D01*
X139463861Y-73761940D01*
X139572267Y-73964754D01*
X139730472Y-74157528D01*
X139923245Y-74315733D01*
X140143179Y-74433290D01*
X140381821Y-74505681D01*
X140630000Y-74530125D01*
X140878178Y-74505681D01*
X141116820Y-74433290D01*
X141336754Y-74315733D01*
X141529528Y-74157528D01*
X141687733Y-73964755D01*
X141805290Y-73744821D01*
X141877681Y-73506179D01*
X141896000Y-73320187D01*
X141896000Y-71679813D01*
X141904000Y-71679813D01*
X141904000Y-73320186D01*
X141922319Y-73506178D01*
X141994710Y-73744820D01*
X142112267Y-73964754D01*
X142270472Y-74157528D01*
X142463245Y-74315733D01*
X142683179Y-74433290D01*
X142921821Y-74505681D01*
X143170000Y-74530125D01*
X143418178Y-74505681D01*
X143656820Y-74433290D01*
X143876754Y-74315733D01*
X144069528Y-74157528D01*
X144227733Y-73964755D01*
X144345290Y-73744821D01*
X144417681Y-73506179D01*
X144436000Y-73320187D01*
X144436000Y-71679813D01*
X144444000Y-71679813D01*
X144444000Y-73320186D01*
X144462319Y-73506178D01*
X144534710Y-73744820D01*
X144652267Y-73964754D01*
X144810472Y-74157528D01*
X145003245Y-74315733D01*
X145223179Y-74433290D01*
X145461821Y-74505681D01*
X145710000Y-74530125D01*
X145958178Y-74505681D01*
X146196820Y-74433290D01*
X146416754Y-74315733D01*
X146609528Y-74157528D01*
X146767733Y-73964755D01*
X146885290Y-73744821D01*
X146957681Y-73506179D01*
X146976000Y-73320187D01*
X146976000Y-72450800D01*
X154920800Y-72450800D01*
X154920800Y-73208800D01*
X154958941Y-73494451D01*
X155052077Y-73767172D01*
X155196628Y-74016483D01*
X155387040Y-74232803D01*
X155615995Y-74407819D01*
X155874695Y-74534805D01*
X156110129Y-74600297D01*
X156339200Y-74448400D01*
X156339200Y-72450800D01*
X154920800Y-72450800D01*
X146976000Y-72450800D01*
X146976000Y-71679813D01*
X146967273Y-71591200D01*
X154920800Y-71591200D01*
X154920800Y-72349200D01*
X156339200Y-72349200D01*
X156339200Y-70351600D01*
X156440800Y-70351600D01*
X156440800Y-72349200D01*
X156460800Y-72349200D01*
X156460800Y-72450800D01*
X156440800Y-72450800D01*
X156440800Y-74448400D01*
X156669871Y-74600297D01*
X156905305Y-74534805D01*
X157164005Y-74407819D01*
X157392960Y-74232803D01*
X157583372Y-74016483D01*
X157727923Y-73767172D01*
X157763861Y-73661940D01*
X157872267Y-73864754D01*
X158030472Y-74057528D01*
X158223245Y-74215733D01*
X158443179Y-74333290D01*
X158681821Y-74405681D01*
X158930000Y-74430125D01*
X159178178Y-74405681D01*
X159416820Y-74333290D01*
X159636754Y-74215733D01*
X159829528Y-74057528D01*
X159987733Y-73864755D01*
X160105290Y-73644821D01*
X160177681Y-73406179D01*
X160196000Y-73220187D01*
X160196000Y-71579813D01*
X160204000Y-71579813D01*
X160204000Y-73220186D01*
X160222319Y-73406178D01*
X160294710Y-73644820D01*
X160412267Y-73864754D01*
X160570472Y-74057528D01*
X160763245Y-74215733D01*
X160983179Y-74333290D01*
X161221821Y-74405681D01*
X161470000Y-74430125D01*
X161718178Y-74405681D01*
X161956820Y-74333290D01*
X162176754Y-74215733D01*
X162369528Y-74057528D01*
X162527733Y-73864755D01*
X162645290Y-73644821D01*
X162717681Y-73406179D01*
X162736000Y-73220187D01*
X162736000Y-71579813D01*
X162744000Y-71579813D01*
X162744000Y-73220186D01*
X162762319Y-73406178D01*
X162834710Y-73644820D01*
X162952267Y-73864754D01*
X163110472Y-74057528D01*
X163303245Y-74215733D01*
X163523179Y-74333290D01*
X163761821Y-74405681D01*
X164010000Y-74430125D01*
X164258178Y-74405681D01*
X164496820Y-74333290D01*
X164716754Y-74215733D01*
X164909528Y-74057528D01*
X165067733Y-73864755D01*
X165185290Y-73644821D01*
X165257681Y-73406179D01*
X165276000Y-73220187D01*
X165276000Y-71779813D01*
X172794000Y-71779813D01*
X172794000Y-73420186D01*
X172812319Y-73606178D01*
X172884710Y-73844820D01*
X173002267Y-74064754D01*
X173160472Y-74257528D01*
X173353245Y-74415733D01*
X173573179Y-74533290D01*
X173811821Y-74605681D01*
X174060000Y-74630125D01*
X174308178Y-74605681D01*
X174546820Y-74533290D01*
X174766754Y-74415733D01*
X174959528Y-74257528D01*
X175117733Y-74064755D01*
X175235290Y-73844821D01*
X175307681Y-73606179D01*
X175326000Y-73420187D01*
X175326000Y-71779813D01*
X175334000Y-71779813D01*
X175334000Y-73420186D01*
X175352319Y-73606178D01*
X175424710Y-73844820D01*
X175542267Y-74064754D01*
X175700472Y-74257528D01*
X175893245Y-74415733D01*
X176113179Y-74533290D01*
X176351821Y-74605681D01*
X176600000Y-74630125D01*
X176848178Y-74605681D01*
X177086820Y-74533290D01*
X177306754Y-74415733D01*
X177499528Y-74257528D01*
X177657733Y-74064755D01*
X177766140Y-73861940D01*
X177802077Y-73967172D01*
X177946628Y-74216483D01*
X178137040Y-74432803D01*
X178365995Y-74607819D01*
X178624695Y-74734805D01*
X178860129Y-74800297D01*
X179089200Y-74648400D01*
X179089200Y-72650800D01*
X179190800Y-72650800D01*
X179190800Y-74648400D01*
X179419871Y-74800297D01*
X179655305Y-74734805D01*
X179914005Y-74607819D01*
X180142960Y-74432803D01*
X180333372Y-74216483D01*
X180477923Y-73967172D01*
X180490632Y-73929957D01*
X192697100Y-73929957D01*
X192697100Y-74355243D01*
X192780070Y-74772357D01*
X192942819Y-75165270D01*
X193179096Y-75518882D01*
X193479818Y-75819604D01*
X193833430Y-76055881D01*
X194226343Y-76218630D01*
X194643457Y-76301600D01*
X195068743Y-76301600D01*
X195485857Y-76218630D01*
X195878770Y-76055881D01*
X196232382Y-75819604D01*
X196533104Y-75518882D01*
X196769381Y-75165270D01*
X196932130Y-74772357D01*
X197015100Y-74355243D01*
X197015100Y-73929957D01*
X196932130Y-73512843D01*
X196769381Y-73119930D01*
X196533104Y-72766318D01*
X196232382Y-72465596D01*
X195878770Y-72229319D01*
X195485857Y-72066570D01*
X195068743Y-71983600D01*
X194643457Y-71983600D01*
X194226343Y-72066570D01*
X193833430Y-72229319D01*
X193479818Y-72465596D01*
X193179096Y-72766318D01*
X192942819Y-73119930D01*
X192780070Y-73512843D01*
X192697100Y-73929957D01*
X180490632Y-73929957D01*
X180571059Y-73694451D01*
X180609200Y-73408800D01*
X180609200Y-72650800D01*
X179190800Y-72650800D01*
X179089200Y-72650800D01*
X179069200Y-72650800D01*
X179069200Y-72549200D01*
X179089200Y-72549200D01*
X179089200Y-70551600D01*
X179190800Y-70551600D01*
X179190800Y-72549200D01*
X180609200Y-72549200D01*
X180609200Y-71891777D01*
X204692000Y-71891777D01*
X204692000Y-72228223D01*
X204757638Y-72558205D01*
X204886390Y-72869041D01*
X205073310Y-73148786D01*
X205311214Y-73386690D01*
X205590959Y-73573610D01*
X205901795Y-73702362D01*
X206231777Y-73768000D01*
X206568223Y-73768000D01*
X206898205Y-73702362D01*
X207209041Y-73573610D01*
X207488786Y-73386690D01*
X207726690Y-73148786D01*
X207913610Y-72869041D01*
X208042362Y-72558205D01*
X208108000Y-72228223D01*
X208108000Y-71891777D01*
X208042362Y-71561795D01*
X207913610Y-71250959D01*
X207826963Y-71121282D01*
X211598100Y-71121282D01*
X211598100Y-71575918D01*
X211686796Y-72021819D01*
X211860777Y-72441848D01*
X212113360Y-72819864D01*
X212434836Y-73141340D01*
X212812852Y-73393923D01*
X213232881Y-73567904D01*
X213678782Y-73656600D01*
X214133418Y-73656600D01*
X214579319Y-73567904D01*
X214999348Y-73393923D01*
X215377364Y-73141340D01*
X215698840Y-72819864D01*
X215951423Y-72441848D01*
X216125404Y-72021819D01*
X216214100Y-71575918D01*
X216214100Y-71121282D01*
X216125404Y-70675381D01*
X215951423Y-70255352D01*
X215698840Y-69877336D01*
X215377364Y-69555860D01*
X214999348Y-69303277D01*
X214579319Y-69129296D01*
X214133418Y-69040600D01*
X213678782Y-69040600D01*
X213232881Y-69129296D01*
X212812852Y-69303277D01*
X212434836Y-69555860D01*
X212113360Y-69877336D01*
X211860777Y-70255352D01*
X211686796Y-70675381D01*
X211598100Y-71121282D01*
X207826963Y-71121282D01*
X207726690Y-70971214D01*
X207488786Y-70733310D01*
X207209041Y-70546390D01*
X206898205Y-70417638D01*
X206568223Y-70352000D01*
X206231777Y-70352000D01*
X205901795Y-70417638D01*
X205590959Y-70546390D01*
X205311214Y-70733310D01*
X205073310Y-70971214D01*
X204886390Y-71250959D01*
X204757638Y-71561795D01*
X204692000Y-71891777D01*
X180609200Y-71891777D01*
X180609200Y-71791200D01*
X180571059Y-71505549D01*
X180477923Y-71232828D01*
X180333372Y-70983517D01*
X180142960Y-70767197D01*
X179914005Y-70592181D01*
X179655305Y-70465195D01*
X179419871Y-70399703D01*
X179190800Y-70551600D01*
X179089200Y-70551600D01*
X178860129Y-70399703D01*
X178624695Y-70465195D01*
X178365995Y-70592181D01*
X178137040Y-70767197D01*
X177946628Y-70983517D01*
X177802077Y-71232828D01*
X177766140Y-71338060D01*
X177657733Y-71135245D01*
X177499528Y-70942472D01*
X177306755Y-70784267D01*
X177086821Y-70666710D01*
X176848179Y-70594319D01*
X176600000Y-70569875D01*
X176351822Y-70594319D01*
X176113180Y-70666710D01*
X175893246Y-70784267D01*
X175700473Y-70942472D01*
X175542268Y-71135245D01*
X175424711Y-71355179D01*
X175352319Y-71593821D01*
X175334000Y-71779813D01*
X175326000Y-71779813D01*
X175307681Y-71593821D01*
X175235290Y-71355179D01*
X175117733Y-71135245D01*
X174959528Y-70942472D01*
X174766755Y-70784267D01*
X174546821Y-70666710D01*
X174308179Y-70594319D01*
X174060000Y-70569875D01*
X173811822Y-70594319D01*
X173573180Y-70666710D01*
X173353246Y-70784267D01*
X173160473Y-70942472D01*
X173002268Y-71135245D01*
X172884711Y-71355179D01*
X172812319Y-71593821D01*
X172794000Y-71779813D01*
X165276000Y-71779813D01*
X165276000Y-71579813D01*
X165257681Y-71393821D01*
X165185290Y-71155179D01*
X165067733Y-70935245D01*
X164909528Y-70742472D01*
X164716755Y-70584267D01*
X164496821Y-70466710D01*
X164258179Y-70394319D01*
X164010000Y-70369875D01*
X163761822Y-70394319D01*
X163523180Y-70466710D01*
X163303246Y-70584267D01*
X163110473Y-70742472D01*
X162952268Y-70935245D01*
X162834711Y-71155179D01*
X162762319Y-71393821D01*
X162744000Y-71579813D01*
X162736000Y-71579813D01*
X162717681Y-71393821D01*
X162645290Y-71155179D01*
X162527733Y-70935245D01*
X162369528Y-70742472D01*
X162176755Y-70584267D01*
X161956821Y-70466710D01*
X161718179Y-70394319D01*
X161470000Y-70369875D01*
X161221822Y-70394319D01*
X160983180Y-70466710D01*
X160763246Y-70584267D01*
X160570473Y-70742472D01*
X160412268Y-70935245D01*
X160294711Y-71155179D01*
X160222319Y-71393821D01*
X160204000Y-71579813D01*
X160196000Y-71579813D01*
X160177681Y-71393821D01*
X160105290Y-71155179D01*
X159987733Y-70935245D01*
X159829528Y-70742472D01*
X159636755Y-70584267D01*
X159416821Y-70466710D01*
X159178179Y-70394319D01*
X158930000Y-70369875D01*
X158681822Y-70394319D01*
X158443180Y-70466710D01*
X158223246Y-70584267D01*
X158030473Y-70742472D01*
X157872268Y-70935245D01*
X157763861Y-71138061D01*
X157727923Y-71032828D01*
X157583372Y-70783517D01*
X157392960Y-70567197D01*
X157164005Y-70392181D01*
X156905305Y-70265195D01*
X156669871Y-70199703D01*
X156440800Y-70351600D01*
X156339200Y-70351600D01*
X156110129Y-70199703D01*
X155874695Y-70265195D01*
X155615995Y-70392181D01*
X155387040Y-70567197D01*
X155196628Y-70783517D01*
X155052077Y-71032828D01*
X154958941Y-71305549D01*
X154920800Y-71591200D01*
X146967273Y-71591200D01*
X146957681Y-71493821D01*
X146885290Y-71255179D01*
X146767733Y-71035245D01*
X146609528Y-70842472D01*
X146416755Y-70684267D01*
X146196821Y-70566710D01*
X145958179Y-70494319D01*
X145710000Y-70469875D01*
X145461822Y-70494319D01*
X145223180Y-70566710D01*
X145003246Y-70684267D01*
X144810473Y-70842472D01*
X144652268Y-71035245D01*
X144534711Y-71255179D01*
X144462319Y-71493821D01*
X144444000Y-71679813D01*
X144436000Y-71679813D01*
X144417681Y-71493821D01*
X144345290Y-71255179D01*
X144227733Y-71035245D01*
X144069528Y-70842472D01*
X143876755Y-70684267D01*
X143656821Y-70566710D01*
X143418179Y-70494319D01*
X143170000Y-70469875D01*
X142921822Y-70494319D01*
X142683180Y-70566710D01*
X142463246Y-70684267D01*
X142270473Y-70842472D01*
X142112268Y-71035245D01*
X141994711Y-71255179D01*
X141922319Y-71493821D01*
X141904000Y-71679813D01*
X141896000Y-71679813D01*
X141877681Y-71493821D01*
X141805290Y-71255179D01*
X141687733Y-71035245D01*
X141529528Y-70842472D01*
X141336755Y-70684267D01*
X141116821Y-70566710D01*
X140878179Y-70494319D01*
X140630000Y-70469875D01*
X140381822Y-70494319D01*
X140143180Y-70566710D01*
X139923246Y-70684267D01*
X139730473Y-70842472D01*
X139572268Y-71035245D01*
X139463861Y-71238061D01*
X139427923Y-71132828D01*
X139283372Y-70883517D01*
X139092960Y-70667197D01*
X138864005Y-70492181D01*
X138605305Y-70365195D01*
X138369871Y-70299703D01*
X138140800Y-70451600D01*
X138039200Y-70451600D01*
X137810129Y-70299703D01*
X137574695Y-70365195D01*
X137315995Y-70492181D01*
X137087040Y-70667197D01*
X136896628Y-70883517D01*
X136752077Y-71132828D01*
X136658941Y-71405549D01*
X136620800Y-71691200D01*
X85381168Y-71691200D01*
X85404100Y-71575918D01*
X85404100Y-71121282D01*
X85315404Y-70675381D01*
X85141423Y-70255352D01*
X84888840Y-69877336D01*
X84567364Y-69555860D01*
X84189348Y-69303277D01*
X83769319Y-69129296D01*
X83323418Y-69040600D01*
X82868782Y-69040600D01*
X82422881Y-69129296D01*
X82002852Y-69303277D01*
X81624836Y-69555860D01*
X81303360Y-69877336D01*
X81050777Y-70255352D01*
X80876796Y-70675381D01*
X80788100Y-71121282D01*
X78930500Y-71121282D01*
X78930500Y-65913000D01*
X218071701Y-65913000D01*
X218071700Y-144094200D01*
M02*
