G04 #@! TF.GenerationSoftware,KiCad,Pcbnew,5.1.5-52549c5~84~ubuntu18.04.1*
G04 #@! TF.CreationDate,2020-03-24T03:20:29+01:00*
G04 #@! TF.ProjectId,REES,52454553-2e6b-4696-9361-645f70636258,rev?*
G04 #@! TF.SameCoordinates,Original*
G04 #@! TF.FileFunction,Legend,Top*
G04 #@! TF.FilePolarity,Positive*
%FSLAX46Y46*%
G04 Gerber Fmt 4.6, Leading zero omitted, Abs format (unit mm)*
G04 Created by KiCad (PCBNEW 5.1.5-52549c5~84~ubuntu18.04.1) date 2020-03-24 03:20:29*
%MOMM*%
%LPD*%
G04 APERTURE LIST*
%ADD10C,0.200000*%
%ADD11C,0.250000*%
%ADD12C,0.304800*%
%ADD13C,0.150000*%
%ADD14C,0.500000*%
%ADD15C,0.120000*%
%ADD16C,0.127000*%
%ADD17C,0.152400*%
%ADD18C,0.100000*%
%ADD19C,0.203200*%
%ADD20C,0.096520*%
%ADD21C,0.101600*%
%ADD22C,0.120650*%
%ADD23C,0.168910*%
%ADD24O,1.829200X1.829200*%
%ADD25C,3.302000*%
%ADD26R,1.802000X1.802000*%
%ADD27O,1.802000X1.802000*%
%ADD28R,2.302000X2.302000*%
%ADD29O,2.302000X2.302000*%
%ADD30C,3.912000*%
%ADD31O,1.880000X3.658000*%
%ADD32O,1.602000X1.152000*%
%ADD33R,1.602000X1.152000*%
%ADD34C,1.270400*%
%ADD35R,2.502000X2.502000*%
%ADD36C,1.602000*%
%ADD37C,1.211600*%
%ADD38C,1.402000*%
%ADD39C,3.404000*%
%ADD40O,1.719600X3.337200*%
%ADD41C,3.702000*%
%ADD42C,2.502000*%
%ADD43O,2.502000X2.502000*%
%ADD44C,1.702000*%
%ADD45O,1.702000X1.702000*%
%ADD46O,1.842000X2.302000*%
%ADD47O,4.102000X1.902000*%
%ADD48O,1.902000X4.102000*%
%ADD49R,1.902000X4.502000*%
%ADD50O,2.302000X1.842000*%
%ADD51R,3.102000X3.102000*%
%ADD52C,3.102000*%
G04 APERTURE END LIST*
D10*
X159105952Y-84088095D02*
X159165476Y-83909523D01*
X159165476Y-83611904D01*
X159105952Y-83492857D01*
X159046428Y-83433333D01*
X158927380Y-83373809D01*
X158808333Y-83373809D01*
X158689285Y-83433333D01*
X158629761Y-83492857D01*
X158570238Y-83611904D01*
X158510714Y-83850000D01*
X158451190Y-83969047D01*
X158391666Y-84028571D01*
X158272619Y-84088095D01*
X158153571Y-84088095D01*
X158034523Y-84028571D01*
X157975000Y-83969047D01*
X157915476Y-83850000D01*
X157915476Y-83552380D01*
X157975000Y-83373809D01*
X159046428Y-82123809D02*
X159105952Y-82183333D01*
X159165476Y-82361904D01*
X159165476Y-82480952D01*
X159105952Y-82659523D01*
X158986904Y-82778571D01*
X158867857Y-82838095D01*
X158629761Y-82897619D01*
X158451190Y-82897619D01*
X158213095Y-82838095D01*
X158094047Y-82778571D01*
X157975000Y-82659523D01*
X157915476Y-82480952D01*
X157915476Y-82361904D01*
X157975000Y-82183333D01*
X158034523Y-82123809D01*
X159165476Y-80992857D02*
X159165476Y-81588095D01*
X157915476Y-81588095D01*
X161705952Y-84117857D02*
X161765476Y-83939285D01*
X161765476Y-83641666D01*
X161705952Y-83522619D01*
X161646428Y-83463095D01*
X161527380Y-83403571D01*
X161408333Y-83403571D01*
X161289285Y-83463095D01*
X161229761Y-83522619D01*
X161170238Y-83641666D01*
X161110714Y-83879761D01*
X161051190Y-83998809D01*
X160991666Y-84058333D01*
X160872619Y-84117857D01*
X160753571Y-84117857D01*
X160634523Y-84058333D01*
X160575000Y-83998809D01*
X160515476Y-83879761D01*
X160515476Y-83582142D01*
X160575000Y-83403571D01*
X161765476Y-82867857D02*
X160515476Y-82867857D01*
X160515476Y-82570238D01*
X160575000Y-82391666D01*
X160694047Y-82272619D01*
X160813095Y-82213095D01*
X161051190Y-82153571D01*
X161229761Y-82153571D01*
X161467857Y-82213095D01*
X161586904Y-82272619D01*
X161705952Y-82391666D01*
X161765476Y-82570238D01*
X161765476Y-82867857D01*
X161408333Y-81677380D02*
X161408333Y-81082142D01*
X161765476Y-81796428D02*
X160515476Y-81379761D01*
X161765476Y-80963095D01*
D11*
X156089285Y-84071428D02*
X156089285Y-83119047D01*
X156565476Y-83595238D02*
X155613095Y-83595238D01*
X155315476Y-81928571D02*
X155315476Y-82523809D01*
X155910714Y-82583333D01*
X155851190Y-82523809D01*
X155791666Y-82404761D01*
X155791666Y-82107142D01*
X155851190Y-81988095D01*
X155910714Y-81928571D01*
X156029761Y-81869047D01*
X156327380Y-81869047D01*
X156446428Y-81928571D01*
X156505952Y-81988095D01*
X156565476Y-82107142D01*
X156565476Y-82404761D01*
X156505952Y-82523809D01*
X156446428Y-82583333D01*
D10*
X152925000Y-83476190D02*
X152870238Y-83585714D01*
X152870238Y-83750000D01*
X152925000Y-83914285D01*
X153034523Y-84023809D01*
X153144047Y-84078571D01*
X153363095Y-84133333D01*
X153527380Y-84133333D01*
X153746428Y-84078571D01*
X153855952Y-84023809D01*
X153965476Y-83914285D01*
X154020238Y-83750000D01*
X154020238Y-83640476D01*
X153965476Y-83476190D01*
X153910714Y-83421428D01*
X153527380Y-83421428D01*
X153527380Y-83640476D01*
X154020238Y-82928571D02*
X152870238Y-82928571D01*
X154020238Y-82271428D01*
X152870238Y-82271428D01*
X154020238Y-81723809D02*
X152870238Y-81723809D01*
X152870238Y-81450000D01*
X152925000Y-81285714D01*
X153034523Y-81176190D01*
X153144047Y-81121428D01*
X153363095Y-81066666D01*
X153527380Y-81066666D01*
X153746428Y-81121428D01*
X153855952Y-81176190D01*
X153965476Y-81285714D01*
X154020238Y-81450000D01*
X154020238Y-81723809D01*
X210123809Y-100589285D02*
X211076190Y-100589285D01*
X216123809Y-100589285D02*
X217076190Y-100589285D01*
X216600000Y-101065476D02*
X216600000Y-100113095D01*
D12*
X205016190Y-139390714D02*
X205983809Y-139390714D01*
X205500000Y-139874523D02*
X205500000Y-138906904D01*
D13*
X214275000Y-99825000D02*
G75*
G03X214350000Y-101250000I-675000J-750000D01*
G01*
D14*
X213775000Y-100575000D02*
G75*
G03X213775000Y-100575000I-175000J0D01*
G01*
D13*
X217525000Y-100575000D02*
G75*
G03X217525000Y-100575000I-925000J0D01*
G01*
X211525000Y-100575000D02*
G75*
G03X211525000Y-100575000I-925000J0D01*
G01*
X211600000Y-100575000D02*
X212500000Y-100575000D01*
X213600000Y-100575000D02*
X215600000Y-100575000D01*
D15*
X154730000Y-88130000D02*
X154730000Y-85470000D01*
X154730000Y-88130000D02*
X162410000Y-88130000D01*
X162410000Y-88130000D02*
X162410000Y-85470000D01*
X154730000Y-85470000D02*
X162410000Y-85470000D01*
X152130000Y-85470000D02*
X153460000Y-85470000D01*
X152130000Y-86800000D02*
X152130000Y-85470000D01*
X202030000Y-76040000D02*
X204970000Y-76040000D01*
X204970000Y-76040000D02*
X204970000Y-70600000D01*
X204970000Y-70600000D02*
X202030000Y-70600000D01*
X202030000Y-70600000D02*
X202030000Y-76040000D01*
X203500000Y-77060000D02*
X203500000Y-76040000D01*
X203500000Y-69580000D02*
X203500000Y-70600000D01*
X202030000Y-75140000D02*
X204970000Y-75140000D01*
X202030000Y-75020000D02*
X204970000Y-75020000D01*
X202030000Y-75260000D02*
X204970000Y-75260000D01*
D16*
X185831500Y-86814200D02*
G75*
G03X185831500Y-86814200I-1993900J0D01*
G01*
X185806100Y-141805200D02*
G75*
G03X185806100Y-141805200I-1968500J0D01*
G01*
X92829400Y-141805200D02*
G75*
G03X92829400Y-141805200I-1993900J0D01*
G01*
X92816700Y-86814200D02*
G75*
G03X92816700Y-86814200I-1981200J0D01*
G01*
X175333600Y-126807100D02*
X175333600Y-101807100D01*
X99333600Y-126807100D02*
X175333600Y-126807100D01*
X99333600Y-101807100D02*
X99333600Y-126807100D01*
X175333600Y-101807100D02*
X175333600Y-103307100D01*
X99333600Y-101807100D02*
X175333600Y-101807100D01*
X88333600Y-84307100D02*
X88333600Y-144307100D01*
X186333600Y-84307100D02*
X88333600Y-84307100D01*
X186333600Y-144307100D02*
X186333600Y-84307100D01*
X88333600Y-144307100D02*
X186333600Y-144307100D01*
D15*
X206850000Y-129000000D02*
X206850000Y-125400000D01*
X206838478Y-129038478D02*
G75*
G02X202400000Y-127200000I-1838478J1838478D01*
G01*
X206838478Y-125361522D02*
G75*
G03X202400000Y-127200000I-1838478J-1838478D01*
G01*
D17*
X194043000Y-95300000D02*
G75*
G03X194043000Y-95300000I-2032000J0D01*
G01*
X191249000Y-94157000D02*
X191249000Y-93649000D01*
X190995000Y-93903000D02*
X191503000Y-93903000D01*
X199443000Y-95300000D02*
G75*
G03X199443000Y-95300000I-2032000J0D01*
G01*
X196649000Y-94157000D02*
X196649000Y-93649000D01*
X196395000Y-93903000D02*
X196903000Y-93903000D01*
X205476100Y-112208600D02*
G75*
G03X205476100Y-112208600I-3000000J0D01*
G01*
X205876100Y-112208600D02*
G75*
G03X205876100Y-112208600I-3400000J0D01*
G01*
X197976100Y-116318600D02*
G75*
G03X197976100Y-116318600I-510000J0D01*
G01*
X207996100Y-116318600D02*
G75*
G03X207996100Y-116318600I-510000J0D01*
G01*
X207996100Y-108098600D02*
G75*
G03X207996100Y-108098600I-510000J0D01*
G01*
X197976100Y-108098600D02*
G75*
G03X197976100Y-108098600I-510000J0D01*
G01*
X203466101Y-109923901D02*
G75*
G03X200178600Y-111248600I-992885J-2277600D01*
G01*
X200178600Y-111248600D02*
X199510000Y-111758600D01*
X203466100Y-111248600D02*
X200178600Y-111248600D01*
X203466100Y-109923900D02*
X203976100Y-109610500D01*
X203466100Y-111248600D02*
X203466100Y-109923900D01*
X203976100Y-111758600D02*
X203466100Y-111248600D01*
X203466101Y-114493301D02*
G75*
G02X200178600Y-113168600I-992844J2277701D01*
G01*
X200178600Y-113168600D02*
X199510000Y-112658600D01*
X203466100Y-113168600D02*
X200178600Y-113168600D01*
X203466100Y-114493300D02*
X203976100Y-114806700D01*
X203466100Y-113168600D02*
X203466100Y-114493300D01*
X203976100Y-112658600D02*
X203466100Y-113168600D01*
X203976100Y-112658600D02*
X199510000Y-112658600D01*
X203976100Y-111758600D02*
X199509300Y-111763600D01*
X203976100Y-112658600D02*
X203976100Y-114806700D01*
X203976100Y-111758600D02*
X203976100Y-112658600D01*
X203976100Y-109610500D02*
X203976100Y-111758600D01*
X209076100Y-110928600D02*
X209076100Y-113488600D01*
X200476100Y-118408600D02*
X197286100Y-118408600D01*
X207666100Y-118408600D02*
X204476100Y-118408600D01*
X197286100Y-118408600D02*
X197286100Y-117898600D01*
X207666100Y-117898600D02*
X207666100Y-118408600D01*
X200476100Y-106008600D02*
X197286100Y-106008600D01*
X207666100Y-106008600D02*
X204476100Y-106008600D01*
X195876100Y-116488600D02*
G75*
G03X197286100Y-117898600I1410000J0D01*
G01*
X207666100Y-117898600D02*
G75*
G03X209076100Y-116488600I0J1410000D01*
G01*
X195876100Y-107928600D02*
G75*
G02X197286100Y-106518600I1410000J0D01*
G01*
X197286100Y-106008600D02*
X197286100Y-106518600D01*
X207666100Y-106518600D02*
X207666100Y-106008600D01*
X207666100Y-106518600D02*
G75*
G02X209076100Y-107928600I0J-1410000D01*
G01*
D18*
G36*
X83916000Y-107054000D02*
G01*
X83916000Y-106546000D01*
X81884000Y-106546000D01*
X81884000Y-107054000D01*
X83916000Y-107054000D01*
G37*
G36*
X83154000Y-107816000D02*
G01*
X83154000Y-105784000D01*
X82646000Y-105784000D01*
X82646000Y-107816000D01*
X83154000Y-107816000D01*
G37*
D17*
X84319900Y-106800000D02*
G75*
G03X84319900Y-106800000I-1419900J0D01*
G01*
X86710000Y-106800000D02*
G75*
G03X86710000Y-106800000I-3810000J0D01*
G01*
D18*
X201600002Y-143200000D02*
G75*
G02X201600000Y-131200000I-1J6000000D01*
G01*
X201600000Y-131200000D02*
X201600000Y-131200000D01*
X201600000Y-131200000D02*
G75*
G02X201600000Y-143200000I0J-6000000D01*
G01*
X201600000Y-143200000D02*
X201600000Y-143200000D01*
D19*
X84996100Y-71348600D02*
G75*
G03X84996100Y-71348600I-1900000J0D01*
G01*
D17*
X86525100Y-71348600D02*
G75*
G03X86525100Y-71348600I-3429000J0D01*
G01*
D19*
X84996100Y-139928600D02*
G75*
G03X84996100Y-139928600I-1900000J0D01*
G01*
D17*
X86525100Y-139928600D02*
G75*
G03X86525100Y-139928600I-3429000J0D01*
G01*
D19*
X215806100Y-139928600D02*
G75*
G03X215806100Y-139928600I-1900000J0D01*
G01*
D17*
X217335100Y-139928600D02*
G75*
G03X217335100Y-139928600I-3429000J0D01*
G01*
D19*
X215806100Y-71348600D02*
G75*
G03X215806100Y-71348600I-1900000J0D01*
G01*
D17*
X217335100Y-71348600D02*
G75*
G03X217335100Y-71348600I-3429000J0D01*
G01*
D15*
X205870000Y-84010000D02*
X201130000Y-84010000D01*
X201130000Y-84010000D02*
X201130000Y-96150000D01*
X201130000Y-96150000D02*
X205870000Y-96150000D01*
X205870000Y-96150000D02*
X205870000Y-84010000D01*
X203500000Y-83900000D02*
X203500000Y-84010000D01*
X203500000Y-96260000D02*
X203500000Y-96150000D01*
X83880000Y-80870000D02*
X83880000Y-77130000D01*
X91120000Y-80870000D02*
X91120000Y-77130000D01*
X91120000Y-77130000D02*
X83880000Y-77130000D01*
X91120000Y-80870000D02*
X83880000Y-80870000D01*
X142540000Y-81560000D02*
X142540000Y-81230000D01*
X142540000Y-81230000D02*
X149080000Y-81230000D01*
X149080000Y-81230000D02*
X149080000Y-81560000D01*
X142540000Y-83640000D02*
X142540000Y-83970000D01*
X142540000Y-83970000D02*
X149080000Y-83970000D01*
X149080000Y-83970000D02*
X149080000Y-83640000D01*
X199380000Y-128570000D02*
X199380000Y-128240000D01*
X192840000Y-128570000D02*
X199380000Y-128570000D01*
X192840000Y-128240000D02*
X192840000Y-128570000D01*
X199380000Y-125830000D02*
X199380000Y-126160000D01*
X192840000Y-125830000D02*
X199380000Y-125830000D01*
X192840000Y-126160000D02*
X192840000Y-125830000D01*
X182960000Y-109784999D02*
X182630000Y-109784999D01*
X182630000Y-109784999D02*
X182630000Y-103244999D01*
X182630000Y-103244999D02*
X182960000Y-103244999D01*
X185040000Y-109784999D02*
X185370000Y-109784999D01*
X185370000Y-109784999D02*
X185370000Y-103244999D01*
X185370000Y-103244999D02*
X185040000Y-103244999D01*
X192670000Y-103244999D02*
X192340000Y-103244999D01*
X192670000Y-109784999D02*
X192670000Y-103244999D01*
X192340000Y-109784999D02*
X192670000Y-109784999D01*
X189930000Y-103244999D02*
X190260000Y-103244999D01*
X189930000Y-109784999D02*
X189930000Y-103244999D01*
X190260000Y-109784999D02*
X189930000Y-109784999D01*
X186460000Y-109784999D02*
X186130000Y-109784999D01*
X186130000Y-109784999D02*
X186130000Y-103244999D01*
X186130000Y-103244999D02*
X186460000Y-103244999D01*
X188540000Y-109784999D02*
X188870000Y-109784999D01*
X188870000Y-109784999D02*
X188870000Y-103244999D01*
X188870000Y-103244999D02*
X188540000Y-103244999D01*
X215100000Y-89100000D02*
X223600000Y-89100000D01*
X223600000Y-89100000D02*
X223600000Y-98300000D01*
X223600000Y-98300000D02*
X208900000Y-98300000D01*
X208900000Y-91200000D02*
X208900000Y-89100000D01*
X208900000Y-89100000D02*
X210700000Y-89100000D01*
X208600000Y-96900000D02*
X208600000Y-98600000D01*
X208600000Y-98600000D02*
X210200000Y-98600000D01*
X208900000Y-98300000D02*
X208900000Y-96200000D01*
D13*
X156633333Y-89552380D02*
X156157142Y-89552380D01*
X156157142Y-88552380D01*
X157538095Y-89457142D02*
X157490476Y-89504761D01*
X157347619Y-89552380D01*
X157252380Y-89552380D01*
X157109523Y-89504761D01*
X157014285Y-89409523D01*
X156966666Y-89314285D01*
X156919047Y-89123809D01*
X156919047Y-88980952D01*
X156966666Y-88790476D01*
X157014285Y-88695238D01*
X157109523Y-88600000D01*
X157252380Y-88552380D01*
X157347619Y-88552380D01*
X157490476Y-88600000D01*
X157538095Y-88647619D01*
X157966666Y-89552380D02*
X157966666Y-88552380D01*
X158204761Y-88552380D01*
X158347619Y-88600000D01*
X158442857Y-88695238D01*
X158490476Y-88790476D01*
X158538095Y-88980952D01*
X158538095Y-89123809D01*
X158490476Y-89314285D01*
X158442857Y-89409523D01*
X158347619Y-89504761D01*
X158204761Y-89552380D01*
X157966666Y-89552380D01*
X158919047Y-88647619D02*
X158966666Y-88600000D01*
X159061904Y-88552380D01*
X159300000Y-88552380D01*
X159395238Y-88600000D01*
X159442857Y-88647619D01*
X159490476Y-88742857D01*
X159490476Y-88838095D01*
X159442857Y-88980952D01*
X158871428Y-89552380D01*
X159490476Y-89552380D01*
X201482380Y-74058095D02*
X200482380Y-74058095D01*
X200482380Y-73820000D01*
X200530000Y-73677142D01*
X200625238Y-73581904D01*
X200720476Y-73534285D01*
X200910952Y-73486666D01*
X201053809Y-73486666D01*
X201244285Y-73534285D01*
X201339523Y-73581904D01*
X201434761Y-73677142D01*
X201482380Y-73820000D01*
X201482380Y-74058095D01*
X201482380Y-72534285D02*
X201482380Y-73105714D01*
X201482380Y-72820000D02*
X200482380Y-72820000D01*
X200625238Y-72915238D01*
X200720476Y-73010476D01*
X200768095Y-73105714D01*
X206252380Y-75342857D02*
X206252380Y-75914285D01*
X206252380Y-75628571D02*
X205252380Y-75628571D01*
X205395238Y-75723809D01*
X205490476Y-75819047D01*
X205538095Y-75914285D01*
X206252380Y-74914285D02*
X205252380Y-74914285D01*
X206252380Y-74342857D01*
X205252380Y-74342857D01*
X205585714Y-73438095D02*
X206252380Y-73438095D01*
X205204761Y-73676190D02*
X205919047Y-73914285D01*
X205919047Y-73295238D01*
X205252380Y-72723809D02*
X205252380Y-72628571D01*
X205300000Y-72533333D01*
X205347619Y-72485714D01*
X205442857Y-72438095D01*
X205633333Y-72390476D01*
X205871428Y-72390476D01*
X206061904Y-72438095D01*
X206157142Y-72485714D01*
X206204761Y-72533333D01*
X206252380Y-72628571D01*
X206252380Y-72723809D01*
X206204761Y-72819047D01*
X206157142Y-72866666D01*
X206061904Y-72914285D01*
X205871428Y-72961904D01*
X205633333Y-72961904D01*
X205442857Y-72914285D01*
X205347619Y-72866666D01*
X205300000Y-72819047D01*
X205252380Y-72723809D01*
X205252380Y-71771428D02*
X205252380Y-71676190D01*
X205300000Y-71580952D01*
X205347619Y-71533333D01*
X205442857Y-71485714D01*
X205633333Y-71438095D01*
X205871428Y-71438095D01*
X206061904Y-71485714D01*
X206157142Y-71533333D01*
X206204761Y-71580952D01*
X206252380Y-71676190D01*
X206252380Y-71771428D01*
X206204761Y-71866666D01*
X206157142Y-71914285D01*
X206061904Y-71961904D01*
X205871428Y-72009523D01*
X205633333Y-72009523D01*
X205442857Y-71961904D01*
X205347619Y-71914285D01*
X205300000Y-71866666D01*
X205252380Y-71771428D01*
X205252380Y-71104761D02*
X205252380Y-70438095D01*
X206252380Y-70866666D01*
D20*
X91624523Y-83942547D02*
X91049999Y-83942547D01*
X91049999Y-82736047D01*
X92716118Y-83827642D02*
X92658666Y-83885095D01*
X92486309Y-83942547D01*
X92371404Y-83942547D01*
X92199047Y-83885095D01*
X92084142Y-83770190D01*
X92026690Y-83655285D01*
X91969238Y-83425476D01*
X91969238Y-83253119D01*
X92026690Y-83023309D01*
X92084142Y-82908404D01*
X92199047Y-82793500D01*
X92371404Y-82736047D01*
X92486309Y-82736047D01*
X92658666Y-82793500D01*
X92716118Y-82850952D01*
X93233190Y-83942547D02*
X93233190Y-82736047D01*
X93520452Y-82736047D01*
X93692809Y-82793500D01*
X93807714Y-82908404D01*
X93865166Y-83023309D01*
X93922618Y-83253119D01*
X93922618Y-83425476D01*
X93865166Y-83655285D01*
X93807714Y-83770190D01*
X93692809Y-83885095D01*
X93520452Y-83942547D01*
X93233190Y-83942547D01*
X95071666Y-83942547D02*
X94382238Y-83942547D01*
X94726952Y-83942547D02*
X94726952Y-82736047D01*
X94612047Y-82908404D01*
X94497142Y-83023309D01*
X94382238Y-83080761D01*
D21*
X136410478Y-90808047D02*
X135721049Y-90808047D01*
X136065763Y-90808047D02*
X136065763Y-89601547D01*
X135950859Y-89773904D01*
X135835954Y-89888809D01*
X135721049Y-89946261D01*
X137444620Y-89601547D02*
X137214811Y-89601547D01*
X137099906Y-89659000D01*
X137042454Y-89716452D01*
X136927549Y-89888809D01*
X136870097Y-90118619D01*
X136870097Y-90578238D01*
X136927549Y-90693142D01*
X136985001Y-90750595D01*
X137099906Y-90808047D01*
X137329716Y-90808047D01*
X137444620Y-90750595D01*
X137502073Y-90693142D01*
X137559525Y-90578238D01*
X137559525Y-90290976D01*
X137502073Y-90176071D01*
X137444620Y-90118619D01*
X137329716Y-90061166D01*
X137099906Y-90061166D01*
X136985001Y-90118619D01*
X136927549Y-90176071D01*
X136870097Y-90290976D01*
X131330478Y-90808047D02*
X130641049Y-90808047D01*
X130985763Y-90808047D02*
X130985763Y-89601547D01*
X130870859Y-89773904D01*
X130755954Y-89888809D01*
X130641049Y-89946261D01*
X132364620Y-90003714D02*
X132364620Y-90808047D01*
X132077359Y-89544095D02*
X131790097Y-90405880D01*
X132536978Y-90405880D01*
X98818478Y-90554047D02*
X98129049Y-90554047D01*
X98473763Y-90554047D02*
X98473763Y-89347547D01*
X98358859Y-89519904D01*
X98243954Y-89634809D01*
X98129049Y-89692261D01*
D13*
X201987619Y-127295238D02*
X201940000Y-127390476D01*
X201844761Y-127485714D01*
X201701904Y-127628571D01*
X201654285Y-127723809D01*
X201654285Y-127819047D01*
X201892380Y-127771428D02*
X201844761Y-127866666D01*
X201749523Y-127961904D01*
X201559047Y-128009523D01*
X201225714Y-128009523D01*
X201035238Y-127961904D01*
X200940000Y-127866666D01*
X200892380Y-127771428D01*
X200892380Y-127580952D01*
X200940000Y-127485714D01*
X201035238Y-127390476D01*
X201225714Y-127342857D01*
X201559047Y-127342857D01*
X201749523Y-127390476D01*
X201844761Y-127485714D01*
X201892380Y-127580952D01*
X201892380Y-127771428D01*
X201892380Y-126390476D02*
X201892380Y-126961904D01*
X201892380Y-126676190D02*
X200892380Y-126676190D01*
X201035238Y-126771428D01*
X201130476Y-126866666D01*
X201178095Y-126961904D01*
X207718571Y-129057142D02*
X207766190Y-128914285D01*
X207813809Y-128866666D01*
X207909047Y-128819047D01*
X208051904Y-128819047D01*
X208147142Y-128866666D01*
X208194761Y-128914285D01*
X208242380Y-129009523D01*
X208242380Y-129390476D01*
X207242380Y-129390476D01*
X207242380Y-129057142D01*
X207290000Y-128961904D01*
X207337619Y-128914285D01*
X207432857Y-128866666D01*
X207528095Y-128866666D01*
X207623333Y-128914285D01*
X207670952Y-128961904D01*
X207718571Y-129057142D01*
X207718571Y-129390476D01*
X208147142Y-127819047D02*
X208194761Y-127866666D01*
X208242380Y-128009523D01*
X208242380Y-128104761D01*
X208194761Y-128247619D01*
X208099523Y-128342857D01*
X208004285Y-128390476D01*
X207813809Y-128438095D01*
X207670952Y-128438095D01*
X207480476Y-128390476D01*
X207385238Y-128342857D01*
X207290000Y-128247619D01*
X207242380Y-128104761D01*
X207242380Y-128009523D01*
X207290000Y-127866666D01*
X207337619Y-127819047D01*
X207242380Y-126914285D02*
X207242380Y-127390476D01*
X207718571Y-127438095D01*
X207670952Y-127390476D01*
X207623333Y-127295238D01*
X207623333Y-127057142D01*
X207670952Y-126961904D01*
X207718571Y-126914285D01*
X207813809Y-126866666D01*
X208051904Y-126866666D01*
X208147142Y-126914285D01*
X208194761Y-126961904D01*
X208242380Y-127057142D01*
X208242380Y-127295238D01*
X208194761Y-127390476D01*
X208147142Y-127438095D01*
X207575714Y-126009523D02*
X208242380Y-126009523D01*
X207194761Y-126247619D02*
X207909047Y-126485714D01*
X207909047Y-125866666D01*
X207242380Y-125580952D02*
X207242380Y-124914285D01*
X208242380Y-125342857D01*
D22*
X189013660Y-93629842D02*
X188956207Y-93687295D01*
X188783850Y-93744747D01*
X188668946Y-93744747D01*
X188496588Y-93687295D01*
X188381684Y-93572390D01*
X188324231Y-93457485D01*
X188266779Y-93227676D01*
X188266779Y-93055319D01*
X188324231Y-92825509D01*
X188381684Y-92710604D01*
X188496588Y-92595700D01*
X188668946Y-92538247D01*
X188783850Y-92538247D01*
X188956207Y-92595700D01*
X189013660Y-92653152D01*
X189473279Y-92653152D02*
X189530731Y-92595700D01*
X189645636Y-92538247D01*
X189932898Y-92538247D01*
X190047803Y-92595700D01*
X190105255Y-92653152D01*
X190162707Y-92768057D01*
X190162707Y-92882961D01*
X190105255Y-93055319D01*
X189415827Y-93744747D01*
X190162707Y-93744747D01*
X195267472Y-93358062D02*
X195210020Y-93415515D01*
X195037663Y-93472967D01*
X194922758Y-93472967D01*
X194750401Y-93415515D01*
X194635496Y-93300610D01*
X194578044Y-93185705D01*
X194520592Y-92955896D01*
X194520592Y-92783539D01*
X194578044Y-92553729D01*
X194635496Y-92438824D01*
X194750401Y-92323920D01*
X194922758Y-92266467D01*
X195037663Y-92266467D01*
X195210020Y-92323920D01*
X195267472Y-92381372D01*
X196416520Y-93472967D02*
X195727092Y-93472967D01*
X196071806Y-93472967D02*
X196071806Y-92266467D01*
X195956901Y-92438824D01*
X195841996Y-92553729D01*
X195727092Y-92611181D01*
D23*
X195764208Y-105339133D02*
X196005508Y-105419566D01*
X196407675Y-105419566D01*
X196568541Y-105339133D01*
X196648975Y-105258700D01*
X196729408Y-105097833D01*
X196729408Y-104936966D01*
X196648975Y-104776100D01*
X196568541Y-104695666D01*
X196407675Y-104615233D01*
X196085941Y-104534800D01*
X195925075Y-104454366D01*
X195844641Y-104373933D01*
X195764208Y-104213066D01*
X195764208Y-104052200D01*
X195844641Y-103891333D01*
X195925075Y-103810900D01*
X196085941Y-103730466D01*
X196488108Y-103730466D01*
X196729408Y-103810900D01*
X197292441Y-103730466D02*
X197694608Y-105419566D01*
X198016341Y-104213066D01*
X198338075Y-105419566D01*
X198740241Y-103730466D01*
X200268475Y-105419566D02*
X199303275Y-105419566D01*
X199785875Y-105419566D02*
X199785875Y-103730466D01*
X199625008Y-103971766D01*
X199464141Y-104132633D01*
X199303275Y-104213066D01*
D20*
X83999547Y-101408595D02*
X83425023Y-101810761D01*
X83999547Y-102098023D02*
X82793047Y-102098023D01*
X82793047Y-101638404D01*
X82850500Y-101523499D01*
X82907952Y-101466047D01*
X83022857Y-101408595D01*
X83195214Y-101408595D01*
X83310119Y-101466047D01*
X83367571Y-101523499D01*
X83425023Y-101638404D01*
X83425023Y-102098023D01*
X82793047Y-100316999D02*
X82793047Y-100891523D01*
X83367571Y-100948976D01*
X83310119Y-100891523D01*
X83252666Y-100776618D01*
X83252666Y-100489357D01*
X83310119Y-100374452D01*
X83367571Y-100316999D01*
X83482476Y-100259547D01*
X83769738Y-100259547D01*
X83884642Y-100316999D01*
X83942095Y-100374452D01*
X83999547Y-100489357D01*
X83999547Y-100776618D01*
X83942095Y-100891523D01*
X83884642Y-100948976D01*
X81042547Y-107618285D02*
X81042547Y-108307714D01*
X81042547Y-107962999D02*
X79836047Y-107962999D01*
X80008404Y-108077904D01*
X80123309Y-108192809D01*
X80180761Y-108307714D01*
X79836047Y-106526690D02*
X79836047Y-107101214D01*
X80410571Y-107158666D01*
X80353119Y-107101214D01*
X80295666Y-106986309D01*
X80295666Y-106699047D01*
X80353119Y-106584142D01*
X80410571Y-106526690D01*
X80525476Y-106469238D01*
X80812738Y-106469238D01*
X80927642Y-106526690D01*
X80985095Y-106584142D01*
X81042547Y-106699047D01*
X81042547Y-106986309D01*
X80985095Y-107101214D01*
X80927642Y-107158666D01*
X81042547Y-105952166D02*
X79836047Y-105952166D01*
X80582928Y-105837261D02*
X81042547Y-105492547D01*
X80238214Y-105492547D02*
X80697833Y-105952166D01*
X203013821Y-140618416D02*
X203071273Y-140446059D01*
X203128726Y-140388607D01*
X203243630Y-140331154D01*
X203415988Y-140331154D01*
X203530892Y-140388607D01*
X203588345Y-140446059D01*
X203645797Y-140560964D01*
X203645797Y-141020583D01*
X202439297Y-141020583D01*
X202439297Y-140618416D01*
X202496750Y-140503511D01*
X202554202Y-140446059D01*
X202669107Y-140388607D01*
X202784011Y-140388607D01*
X202898916Y-140446059D01*
X202956369Y-140503511D01*
X203013821Y-140618416D01*
X203013821Y-141020583D01*
X202439297Y-139814083D02*
X203415988Y-139814083D01*
X203530892Y-139756630D01*
X203588345Y-139699178D01*
X203645797Y-139584273D01*
X203645797Y-139354464D01*
X203588345Y-139239559D01*
X203530892Y-139182107D01*
X203415988Y-139124654D01*
X202439297Y-139124654D01*
X202439297Y-138665035D02*
X202439297Y-137860702D01*
X203645797Y-138665035D01*
X203645797Y-137860702D01*
X202439297Y-137515988D02*
X202439297Y-136711654D01*
X203645797Y-137515988D01*
X203645797Y-136711654D01*
X203013821Y-136252035D02*
X203013821Y-135849869D01*
X203645797Y-135677511D02*
X203645797Y-136252035D01*
X202439297Y-136252035D01*
X202439297Y-135677511D01*
X203645797Y-134471011D02*
X203071273Y-134873178D01*
X203645797Y-135160440D02*
X202439297Y-135160440D01*
X202439297Y-134700821D01*
X202496750Y-134585916D01*
X202554202Y-134528464D01*
X202669107Y-134471011D01*
X202841464Y-134471011D01*
X202956369Y-134528464D01*
X203013821Y-134585916D01*
X203071273Y-134700821D01*
X203071273Y-135160440D01*
X203645797Y-133321964D02*
X203645797Y-134011392D01*
X203645797Y-133666678D02*
X202439297Y-133666678D01*
X202611654Y-133781583D01*
X202726559Y-133896488D01*
X202784011Y-134011392D01*
D21*
X199342547Y-141519055D02*
X199342547Y-140829626D01*
X200549047Y-141174340D02*
X199342547Y-141174340D01*
X200549047Y-140427460D02*
X199342547Y-140427460D01*
X200204333Y-140025293D01*
X199342547Y-139623126D01*
X200549047Y-139623126D01*
X199917071Y-138646436D02*
X199974523Y-138474079D01*
X200031976Y-138416626D01*
X200146880Y-138359174D01*
X200319238Y-138359174D01*
X200434142Y-138416626D01*
X200491595Y-138474079D01*
X200549047Y-138588983D01*
X200549047Y-139048602D01*
X199342547Y-139048602D01*
X199342547Y-138646436D01*
X199400000Y-138531531D01*
X199457452Y-138474079D01*
X199572357Y-138416626D01*
X199687261Y-138416626D01*
X199802166Y-138474079D01*
X199859619Y-138531531D01*
X199917071Y-138646436D01*
X199917071Y-139048602D01*
X200549047Y-137210126D02*
X200549047Y-137899555D01*
X200549047Y-137554840D02*
X199342547Y-137554840D01*
X199514904Y-137669745D01*
X199629809Y-137784650D01*
X199687261Y-137899555D01*
X199457452Y-136750507D02*
X199400000Y-136693055D01*
X199342547Y-136578150D01*
X199342547Y-136290888D01*
X199400000Y-136175983D01*
X199457452Y-136118531D01*
X199572357Y-136061079D01*
X199687261Y-136061079D01*
X199859619Y-136118531D01*
X200549047Y-136807960D01*
X200549047Y-136061079D01*
X200204333Y-135601460D02*
X200204333Y-135026936D01*
X200549047Y-135716364D02*
X199342547Y-135314198D01*
X200549047Y-134912031D01*
X199342547Y-134280055D02*
X199342547Y-134165150D01*
X199400000Y-134050245D01*
X199457452Y-133992793D01*
X199572357Y-133935340D01*
X199802166Y-133877888D01*
X200089428Y-133877888D01*
X200319238Y-133935340D01*
X200434142Y-133992793D01*
X200491595Y-134050245D01*
X200549047Y-134165150D01*
X200549047Y-134280055D01*
X200491595Y-134394960D01*
X200434142Y-134452412D01*
X200319238Y-134509864D01*
X200089428Y-134567317D01*
X199802166Y-134567317D01*
X199572357Y-134509864D01*
X199457452Y-134452412D01*
X199400000Y-134394960D01*
X199342547Y-134280055D01*
X199342547Y-132786293D02*
X199342547Y-133360817D01*
X199917071Y-133418269D01*
X199859619Y-133360817D01*
X199802166Y-133245912D01*
X199802166Y-132958650D01*
X199859619Y-132843745D01*
X199917071Y-132786293D01*
X200031976Y-132728840D01*
X200319238Y-132728840D01*
X200434142Y-132786293D01*
X200491595Y-132843745D01*
X200549047Y-132958650D01*
X200549047Y-133245912D01*
X200491595Y-133360817D01*
X200434142Y-133418269D01*
D13*
X200652380Y-90166666D02*
X200176190Y-90500000D01*
X200652380Y-90738095D02*
X199652380Y-90738095D01*
X199652380Y-90357142D01*
X199700000Y-90261904D01*
X199747619Y-90214285D01*
X199842857Y-90166666D01*
X199985714Y-90166666D01*
X200080952Y-90214285D01*
X200128571Y-90261904D01*
X200176190Y-90357142D01*
X200176190Y-90738095D01*
X199652380Y-89309523D02*
X199652380Y-89500000D01*
X199700000Y-89595238D01*
X199747619Y-89642857D01*
X199890476Y-89738095D01*
X200080952Y-89785714D01*
X200461904Y-89785714D01*
X200557142Y-89738095D01*
X200604761Y-89690476D01*
X200652380Y-89595238D01*
X200652380Y-89404761D01*
X200604761Y-89309523D01*
X200557142Y-89261904D01*
X200461904Y-89214285D01*
X200223809Y-89214285D01*
X200128571Y-89261904D01*
X200080952Y-89309523D01*
X200033333Y-89404761D01*
X200033333Y-89595238D01*
X200080952Y-89690476D01*
X200128571Y-89738095D01*
X200223809Y-89785714D01*
X203952380Y-90770476D02*
X203952380Y-91341904D01*
X203952380Y-91056190D02*
X202952380Y-91056190D01*
X203095238Y-91151428D01*
X203190476Y-91246666D01*
X203238095Y-91341904D01*
X202952380Y-90151428D02*
X202952380Y-90056190D01*
X203000000Y-89960952D01*
X203047619Y-89913333D01*
X203142857Y-89865714D01*
X203333333Y-89818095D01*
X203571428Y-89818095D01*
X203761904Y-89865714D01*
X203857142Y-89913333D01*
X203904761Y-89960952D01*
X203952380Y-90056190D01*
X203952380Y-90151428D01*
X203904761Y-90246666D01*
X203857142Y-90294285D01*
X203761904Y-90341904D01*
X203571428Y-90389523D01*
X203333333Y-90389523D01*
X203142857Y-90341904D01*
X203047619Y-90294285D01*
X203000000Y-90246666D01*
X202952380Y-90151428D01*
X203952380Y-88818095D02*
X203476190Y-89151428D01*
X203952380Y-89389523D02*
X202952380Y-89389523D01*
X202952380Y-89008571D01*
X203000000Y-88913333D01*
X203047619Y-88865714D01*
X203142857Y-88818095D01*
X203285714Y-88818095D01*
X203380952Y-88865714D01*
X203428571Y-88913333D01*
X203476190Y-89008571D01*
X203476190Y-89389523D01*
X87333333Y-82057142D02*
X87285714Y-82104761D01*
X87142857Y-82152380D01*
X87047619Y-82152380D01*
X86904761Y-82104761D01*
X86809523Y-82009523D01*
X86761904Y-81914285D01*
X86714285Y-81723809D01*
X86714285Y-81580952D01*
X86761904Y-81390476D01*
X86809523Y-81295238D01*
X86904761Y-81200000D01*
X87047619Y-81152380D01*
X87142857Y-81152380D01*
X87285714Y-81200000D01*
X87333333Y-81247619D01*
X87666666Y-81152380D02*
X88285714Y-81152380D01*
X87952380Y-81533333D01*
X88095238Y-81533333D01*
X88190476Y-81580952D01*
X88238095Y-81628571D01*
X88285714Y-81723809D01*
X88285714Y-81961904D01*
X88238095Y-82057142D01*
X88190476Y-82104761D01*
X88095238Y-82152380D01*
X87809523Y-82152380D01*
X87714285Y-82104761D01*
X87666666Y-82057142D01*
X85952380Y-76952380D02*
X85380952Y-76952380D01*
X85666666Y-76952380D02*
X85666666Y-75952380D01*
X85571428Y-76095238D01*
X85476190Y-76190476D01*
X85380952Y-76238095D01*
X86571428Y-75952380D02*
X86666666Y-75952380D01*
X86761904Y-76000000D01*
X86809523Y-76047619D01*
X86857142Y-76142857D01*
X86904761Y-76333333D01*
X86904761Y-76571428D01*
X86857142Y-76761904D01*
X86809523Y-76857142D01*
X86761904Y-76904761D01*
X86666666Y-76952380D01*
X86571428Y-76952380D01*
X86476190Y-76904761D01*
X86428571Y-76857142D01*
X86380952Y-76761904D01*
X86333333Y-76571428D01*
X86333333Y-76333333D01*
X86380952Y-76142857D01*
X86428571Y-76047619D01*
X86476190Y-76000000D01*
X86571428Y-75952380D01*
X87523809Y-75952380D02*
X87619047Y-75952380D01*
X87714285Y-76000000D01*
X87761904Y-76047619D01*
X87809523Y-76142857D01*
X87857142Y-76333333D01*
X87857142Y-76571428D01*
X87809523Y-76761904D01*
X87761904Y-76857142D01*
X87714285Y-76904761D01*
X87619047Y-76952380D01*
X87523809Y-76952380D01*
X87428571Y-76904761D01*
X87380952Y-76857142D01*
X87333333Y-76761904D01*
X87285714Y-76571428D01*
X87285714Y-76333333D01*
X87333333Y-76142857D01*
X87380952Y-76047619D01*
X87428571Y-76000000D01*
X87523809Y-75952380D01*
X88285714Y-76285714D02*
X88285714Y-76952380D01*
X88285714Y-76380952D02*
X88333333Y-76333333D01*
X88428571Y-76285714D01*
X88571428Y-76285714D01*
X88666666Y-76333333D01*
X88714285Y-76428571D01*
X88714285Y-76952380D01*
X89523809Y-76428571D02*
X89190476Y-76428571D01*
X89190476Y-76952380D02*
X89190476Y-75952380D01*
X89666666Y-75952380D01*
X145633333Y-80852380D02*
X145300000Y-80376190D01*
X145061904Y-80852380D02*
X145061904Y-79852380D01*
X145442857Y-79852380D01*
X145538095Y-79900000D01*
X145585714Y-79947619D01*
X145633333Y-80042857D01*
X145633333Y-80185714D01*
X145585714Y-80280952D01*
X145538095Y-80328571D01*
X145442857Y-80376190D01*
X145061904Y-80376190D01*
X145966666Y-79852380D02*
X146633333Y-79852380D01*
X146204761Y-80852380D01*
X145109523Y-83052380D02*
X144538095Y-83052380D01*
X144823809Y-83052380D02*
X144823809Y-82052380D01*
X144728571Y-82195238D01*
X144633333Y-82290476D01*
X144538095Y-82338095D01*
X145728571Y-82052380D02*
X145823809Y-82052380D01*
X145919047Y-82100000D01*
X145966666Y-82147619D01*
X146014285Y-82242857D01*
X146061904Y-82433333D01*
X146061904Y-82671428D01*
X146014285Y-82861904D01*
X145966666Y-82957142D01*
X145919047Y-83004761D01*
X145823809Y-83052380D01*
X145728571Y-83052380D01*
X145633333Y-83004761D01*
X145585714Y-82957142D01*
X145538095Y-82861904D01*
X145490476Y-82671428D01*
X145490476Y-82433333D01*
X145538095Y-82242857D01*
X145585714Y-82147619D01*
X145633333Y-82100000D01*
X145728571Y-82052380D01*
X147061904Y-83052380D02*
X146728571Y-82576190D01*
X146490476Y-83052380D02*
X146490476Y-82052380D01*
X146871428Y-82052380D01*
X146966666Y-82100000D01*
X147014285Y-82147619D01*
X147061904Y-82242857D01*
X147061904Y-82385714D01*
X147014285Y-82480952D01*
X146966666Y-82528571D01*
X146871428Y-82576190D01*
X146490476Y-82576190D01*
X195943333Y-125282380D02*
X195610000Y-124806190D01*
X195371904Y-125282380D02*
X195371904Y-124282380D01*
X195752857Y-124282380D01*
X195848095Y-124330000D01*
X195895714Y-124377619D01*
X195943333Y-124472857D01*
X195943333Y-124615714D01*
X195895714Y-124710952D01*
X195848095Y-124758571D01*
X195752857Y-124806190D01*
X195371904Y-124806190D01*
X196895714Y-125282380D02*
X196324285Y-125282380D01*
X196610000Y-125282380D02*
X196610000Y-124282380D01*
X196514761Y-124425238D01*
X196419523Y-124520476D01*
X196324285Y-124568095D01*
X195990952Y-127652380D02*
X195419523Y-127652380D01*
X195705238Y-127652380D02*
X195705238Y-126652380D01*
X195610000Y-126795238D01*
X195514761Y-126890476D01*
X195419523Y-126938095D01*
X196419523Y-127652380D02*
X196419523Y-126652380D01*
X196514761Y-127271428D02*
X196800476Y-127652380D01*
X196800476Y-126985714D02*
X196419523Y-127366666D01*
X183733333Y-101152380D02*
X183400000Y-100676190D01*
X183161904Y-101152380D02*
X183161904Y-100152380D01*
X183542857Y-100152380D01*
X183638095Y-100200000D01*
X183685714Y-100247619D01*
X183733333Y-100342857D01*
X183733333Y-100485714D01*
X183685714Y-100580952D01*
X183638095Y-100628571D01*
X183542857Y-100676190D01*
X183161904Y-100676190D01*
X184114285Y-100247619D02*
X184161904Y-100200000D01*
X184257142Y-100152380D01*
X184495238Y-100152380D01*
X184590476Y-100200000D01*
X184638095Y-100247619D01*
X184685714Y-100342857D01*
X184685714Y-100438095D01*
X184638095Y-100580952D01*
X184066666Y-101152380D01*
X184685714Y-101152380D01*
X184752380Y-107110237D02*
X184752380Y-107681665D01*
X184752380Y-107395951D02*
X183752380Y-107395951D01*
X183895238Y-107491189D01*
X183990476Y-107586427D01*
X184038095Y-107681665D01*
X183752380Y-106491189D02*
X183752380Y-106395951D01*
X183800000Y-106300713D01*
X183847619Y-106253094D01*
X183942857Y-106205475D01*
X184133333Y-106157856D01*
X184371428Y-106157856D01*
X184561904Y-106205475D01*
X184657142Y-106253094D01*
X184704761Y-106300713D01*
X184752380Y-106395951D01*
X184752380Y-106491189D01*
X184704761Y-106586427D01*
X184657142Y-106634046D01*
X184561904Y-106681665D01*
X184371428Y-106729284D01*
X184133333Y-106729284D01*
X183942857Y-106681665D01*
X183847619Y-106634046D01*
X183800000Y-106586427D01*
X183752380Y-106491189D01*
X184752380Y-105729284D02*
X183752380Y-105729284D01*
X184371428Y-105634046D02*
X184752380Y-105348332D01*
X184085714Y-105348332D02*
X184466666Y-105729284D01*
X191133333Y-101152380D02*
X190800000Y-100676190D01*
X190561904Y-101152380D02*
X190561904Y-100152380D01*
X190942857Y-100152380D01*
X191038095Y-100200000D01*
X191085714Y-100247619D01*
X191133333Y-100342857D01*
X191133333Y-100485714D01*
X191085714Y-100580952D01*
X191038095Y-100628571D01*
X190942857Y-100676190D01*
X190561904Y-100676190D01*
X191466666Y-100152380D02*
X192085714Y-100152380D01*
X191752380Y-100533333D01*
X191895238Y-100533333D01*
X191990476Y-100580952D01*
X192038095Y-100628571D01*
X192085714Y-100723809D01*
X192085714Y-100961904D01*
X192038095Y-101057142D01*
X191990476Y-101104761D01*
X191895238Y-101152380D01*
X191609523Y-101152380D01*
X191514285Y-101104761D01*
X191466666Y-101057142D01*
X191752380Y-107095238D02*
X191752380Y-107666666D01*
X191752380Y-107380952D02*
X190752380Y-107380952D01*
X190895238Y-107476190D01*
X190990476Y-107571428D01*
X191038095Y-107666666D01*
X190752380Y-106476190D02*
X190752380Y-106380952D01*
X190800000Y-106285714D01*
X190847619Y-106238095D01*
X190942857Y-106190476D01*
X191133333Y-106142857D01*
X191371428Y-106142857D01*
X191561904Y-106190476D01*
X191657142Y-106238095D01*
X191704761Y-106285714D01*
X191752380Y-106380952D01*
X191752380Y-106476190D01*
X191704761Y-106571428D01*
X191657142Y-106619047D01*
X191561904Y-106666666D01*
X191371428Y-106714285D01*
X191133333Y-106714285D01*
X190942857Y-106666666D01*
X190847619Y-106619047D01*
X190800000Y-106571428D01*
X190752380Y-106476190D01*
X191752380Y-105714285D02*
X190752380Y-105714285D01*
X191371428Y-105619047D02*
X191752380Y-105333333D01*
X191085714Y-105333333D02*
X191466666Y-105714285D01*
X187333333Y-101152380D02*
X187000000Y-100676190D01*
X186761904Y-101152380D02*
X186761904Y-100152380D01*
X187142857Y-100152380D01*
X187238095Y-100200000D01*
X187285714Y-100247619D01*
X187333333Y-100342857D01*
X187333333Y-100485714D01*
X187285714Y-100580952D01*
X187238095Y-100628571D01*
X187142857Y-100676190D01*
X186761904Y-100676190D01*
X188190476Y-100485714D02*
X188190476Y-101152380D01*
X187952380Y-100104761D02*
X187714285Y-100819047D01*
X188333333Y-100819047D01*
X187952380Y-107195238D02*
X187952380Y-107766666D01*
X187952380Y-107480952D02*
X186952380Y-107480952D01*
X187095238Y-107576190D01*
X187190476Y-107671428D01*
X187238095Y-107766666D01*
X186952380Y-106576190D02*
X186952380Y-106480952D01*
X187000000Y-106385714D01*
X187047619Y-106338095D01*
X187142857Y-106290476D01*
X187333333Y-106242857D01*
X187571428Y-106242857D01*
X187761904Y-106290476D01*
X187857142Y-106338095D01*
X187904761Y-106385714D01*
X187952380Y-106480952D01*
X187952380Y-106576190D01*
X187904761Y-106671428D01*
X187857142Y-106719047D01*
X187761904Y-106766666D01*
X187571428Y-106814285D01*
X187333333Y-106814285D01*
X187142857Y-106766666D01*
X187047619Y-106719047D01*
X187000000Y-106671428D01*
X186952380Y-106576190D01*
X187952380Y-105814285D02*
X186952380Y-105814285D01*
X187571428Y-105719047D02*
X187952380Y-105433333D01*
X187285714Y-105433333D02*
X187666666Y-105814285D01*
X206852380Y-95319047D02*
X207566666Y-95319047D01*
X207709523Y-95366666D01*
X207804761Y-95461904D01*
X207852380Y-95604761D01*
X207852380Y-95700000D01*
X207852380Y-94414285D02*
X207328571Y-94414285D01*
X207233333Y-94461904D01*
X207185714Y-94557142D01*
X207185714Y-94747619D01*
X207233333Y-94842857D01*
X207804761Y-94414285D02*
X207852380Y-94509523D01*
X207852380Y-94747619D01*
X207804761Y-94842857D01*
X207709523Y-94890476D01*
X207614285Y-94890476D01*
X207519047Y-94842857D01*
X207471428Y-94747619D01*
X207471428Y-94509523D01*
X207423809Y-94414285D01*
X207804761Y-93509523D02*
X207852380Y-93604761D01*
X207852380Y-93795238D01*
X207804761Y-93890476D01*
X207757142Y-93938095D01*
X207661904Y-93985714D01*
X207376190Y-93985714D01*
X207280952Y-93938095D01*
X207233333Y-93890476D01*
X207185714Y-93795238D01*
X207185714Y-93604761D01*
X207233333Y-93509523D01*
X207852380Y-93080952D02*
X206852380Y-93080952D01*
X207471428Y-92985714D02*
X207852380Y-92700000D01*
X207185714Y-92700000D02*
X207566666Y-93080952D01*
X207852380Y-91747619D02*
X207852380Y-92319047D01*
X207852380Y-92033333D02*
X206852380Y-92033333D01*
X206995238Y-92128571D01*
X207090476Y-92223809D01*
X207138095Y-92319047D01*
%LPC*%
D24*
X132140000Y-126560000D03*
X127060000Y-126560000D03*
X124520000Y-126560000D03*
X121980000Y-126560000D03*
X119440000Y-126560000D03*
X116900000Y-126560000D03*
X114360000Y-126560000D03*
X111820000Y-126560000D03*
X167700000Y-78300000D03*
X165160000Y-78300000D03*
X162620000Y-78300000D03*
X160080000Y-78300000D03*
X157540000Y-78300000D03*
X155000000Y-78300000D03*
X152460000Y-78300000D03*
X149920000Y-78300000D03*
X144840000Y-78300000D03*
X142300000Y-78300000D03*
X139760000Y-78300000D03*
X137220000Y-78300000D03*
X134680000Y-78300000D03*
X132140000Y-78300000D03*
X129600000Y-78300000D03*
X127060000Y-78300000D03*
X107756000Y-78300000D03*
X122996000Y-78300000D03*
X120456000Y-78300000D03*
X117916000Y-78300000D03*
D25*
X171510000Y-78300000D03*
X96580000Y-78300000D03*
X177860000Y-126560000D03*
X95310000Y-126560000D03*
D24*
X100136000Y-78300000D03*
X102676000Y-78300000D03*
X105216000Y-78300000D03*
X110296000Y-78300000D03*
X112836000Y-78300000D03*
X115376000Y-78300000D03*
X109280000Y-126560000D03*
X134680000Y-126560000D03*
X137220000Y-126560000D03*
X139760000Y-126560000D03*
X142300000Y-126560000D03*
X144840000Y-126560000D03*
X147380000Y-126560000D03*
X149920000Y-126560000D03*
X155000000Y-126560000D03*
X157540000Y-126560000D03*
X160080000Y-126560000D03*
X162620000Y-126560000D03*
X165160000Y-126560000D03*
X167700000Y-126560000D03*
X170240000Y-126560000D03*
X172780000Y-126560000D03*
X175320000Y-78300000D03*
X177860000Y-78300000D03*
X175320000Y-80840000D03*
X177860000Y-80840000D03*
X175320000Y-83380000D03*
X177860000Y-83380000D03*
X175320000Y-85920000D03*
X177860000Y-85920000D03*
X175320000Y-88460000D03*
X177860000Y-88460000D03*
X175320000Y-91000000D03*
X177860000Y-91000000D03*
X175320000Y-93540000D03*
X177860000Y-93540000D03*
X175320000Y-96080000D03*
X177860000Y-96080000D03*
X175320000Y-98620000D03*
X177860000Y-98620000D03*
X175320000Y-101160000D03*
X177860000Y-101160000D03*
X175320000Y-103700000D03*
X177860000Y-103700000D03*
X175320000Y-106240000D03*
X177860000Y-106240000D03*
X175320000Y-108780000D03*
X177860000Y-108780000D03*
X175320000Y-111320000D03*
X177860000Y-111320000D03*
X175320000Y-113860000D03*
X177860000Y-113860000D03*
X175320000Y-116400000D03*
X177860000Y-116400000D03*
X175320000Y-118940000D03*
X177860000Y-118940000D03*
X175320000Y-121480000D03*
X177860000Y-121480000D03*
D26*
X153460000Y-86800000D03*
D27*
X156000000Y-86800000D03*
X158540000Y-86800000D03*
X161080000Y-86800000D03*
D28*
X203500000Y-78400000D03*
D29*
X203500000Y-68240000D03*
D30*
X183841200Y-86801500D03*
X183851200Y-141801500D03*
X90841200Y-141801500D03*
X90831200Y-86811500D03*
D31*
X136428500Y-86801500D03*
X133888500Y-86801500D03*
X131348500Y-86801500D03*
X128808500Y-86801500D03*
X126268500Y-86801500D03*
X123728500Y-86801500D03*
X121188500Y-86801500D03*
X118648500Y-86801500D03*
X116108500Y-86801500D03*
X113568500Y-86801500D03*
X111028500Y-86801500D03*
X108488500Y-86801500D03*
X105948500Y-86801500D03*
X103408500Y-86801500D03*
X100868500Y-86801500D03*
X98328500Y-86801500D03*
D32*
X205000000Y-127200000D03*
X205000000Y-125930000D03*
D33*
X205000000Y-128470000D03*
D34*
X191122000Y-95300000D03*
X192900000Y-95300000D03*
X196522000Y-95300000D03*
X198300000Y-95300000D03*
D35*
X202476100Y-118808600D03*
X202476100Y-105608600D03*
D36*
X194976100Y-114708600D03*
X194976100Y-112208600D03*
X194976100Y-109708600D03*
X209476100Y-114708600D03*
X209476100Y-109708600D03*
D37*
X82900000Y-104260000D03*
X85440000Y-106800000D03*
X82900000Y-109340000D03*
D38*
X197800000Y-137200000D03*
X205400000Y-137200000D03*
D39*
X194256100Y-74142600D03*
D40*
X191716100Y-89128600D03*
X194256100Y-89128600D03*
X196796100Y-89128600D03*
D41*
X83096100Y-71348600D03*
X83096100Y-139928600D03*
X213906100Y-139928600D03*
X213906100Y-71348600D03*
D42*
X203500000Y-82460000D03*
D43*
X203500000Y-97700000D03*
D44*
X85000000Y-79000000D03*
X90000000Y-79000000D03*
X142000000Y-82600000D03*
D45*
X149620000Y-82600000D03*
X199920000Y-127200000D03*
D44*
X192300000Y-127200000D03*
X184000000Y-110324999D03*
D45*
X184000000Y-102704999D03*
X191300000Y-102704999D03*
D44*
X191300000Y-110324999D03*
X187500000Y-110324999D03*
D45*
X187500000Y-102704999D03*
D18*
G36*
X133442287Y-138150274D02*
G01*
X133467977Y-138154085D01*
X133493171Y-138160396D01*
X133517625Y-138169146D01*
X133541103Y-138180250D01*
X133563380Y-138193602D01*
X133584241Y-138209074D01*
X133603485Y-138226515D01*
X133620926Y-138245759D01*
X133636398Y-138266620D01*
X133649750Y-138288897D01*
X133660854Y-138312375D01*
X133669604Y-138336829D01*
X133675915Y-138362023D01*
X133679726Y-138387713D01*
X133681000Y-138413654D01*
X133681000Y-140186346D01*
X133679726Y-140212287D01*
X133675915Y-140237977D01*
X133669604Y-140263171D01*
X133660854Y-140287625D01*
X133649750Y-140311103D01*
X133636398Y-140333380D01*
X133620926Y-140354241D01*
X133603485Y-140373485D01*
X133584241Y-140390926D01*
X133563380Y-140406398D01*
X133541103Y-140419750D01*
X133517625Y-140430854D01*
X133493171Y-140439604D01*
X133467977Y-140445915D01*
X133442287Y-140449726D01*
X133416346Y-140451000D01*
X132103654Y-140451000D01*
X132077713Y-140449726D01*
X132052023Y-140445915D01*
X132026829Y-140439604D01*
X132002375Y-140430854D01*
X131978897Y-140419750D01*
X131956620Y-140406398D01*
X131935759Y-140390926D01*
X131916515Y-140373485D01*
X131899074Y-140354241D01*
X131883602Y-140333380D01*
X131870250Y-140311103D01*
X131859146Y-140287625D01*
X131850396Y-140263171D01*
X131844085Y-140237977D01*
X131840274Y-140212287D01*
X131839000Y-140186346D01*
X131839000Y-138413654D01*
X131840274Y-138387713D01*
X131844085Y-138362023D01*
X131850396Y-138336829D01*
X131859146Y-138312375D01*
X131870250Y-138288897D01*
X131883602Y-138266620D01*
X131899074Y-138245759D01*
X131916515Y-138226515D01*
X131935759Y-138209074D01*
X131956620Y-138193602D01*
X131978897Y-138180250D01*
X132002375Y-138169146D01*
X132026829Y-138160396D01*
X132052023Y-138154085D01*
X132077713Y-138150274D01*
X132103654Y-138149000D01*
X133416346Y-138149000D01*
X133442287Y-138150274D01*
G37*
D46*
X135300000Y-139300000D03*
X137840000Y-139300000D03*
X121460000Y-70700000D03*
X124000000Y-70700000D03*
X126540000Y-70700000D03*
D18*
G36*
X129762287Y-69550274D02*
G01*
X129787977Y-69554085D01*
X129813171Y-69560396D01*
X129837625Y-69569146D01*
X129861103Y-69580250D01*
X129883380Y-69593602D01*
X129904241Y-69609074D01*
X129923485Y-69626515D01*
X129940926Y-69645759D01*
X129956398Y-69666620D01*
X129969750Y-69688897D01*
X129980854Y-69712375D01*
X129989604Y-69736829D01*
X129995915Y-69762023D01*
X129999726Y-69787713D01*
X130001000Y-69813654D01*
X130001000Y-71586346D01*
X129999726Y-71612287D01*
X129995915Y-71637977D01*
X129989604Y-71663171D01*
X129980854Y-71687625D01*
X129969750Y-71711103D01*
X129956398Y-71733380D01*
X129940926Y-71754241D01*
X129923485Y-71773485D01*
X129904241Y-71790926D01*
X129883380Y-71806398D01*
X129861103Y-71819750D01*
X129837625Y-71830854D01*
X129813171Y-71839604D01*
X129787977Y-71845915D01*
X129762287Y-71849726D01*
X129736346Y-71851000D01*
X128423654Y-71851000D01*
X128397713Y-71849726D01*
X128372023Y-71845915D01*
X128346829Y-71839604D01*
X128322375Y-71830854D01*
X128298897Y-71819750D01*
X128276620Y-71806398D01*
X128255759Y-71790926D01*
X128236515Y-71773485D01*
X128219074Y-71754241D01*
X128203602Y-71733380D01*
X128190250Y-71711103D01*
X128179146Y-71687625D01*
X128170396Y-71663171D01*
X128164085Y-71637977D01*
X128160274Y-71612287D01*
X128159000Y-71586346D01*
X128159000Y-69813654D01*
X128160274Y-69787713D01*
X128164085Y-69762023D01*
X128170396Y-69736829D01*
X128179146Y-69712375D01*
X128190250Y-69688897D01*
X128203602Y-69666620D01*
X128219074Y-69645759D01*
X128236515Y-69626515D01*
X128255759Y-69609074D01*
X128276620Y-69593602D01*
X128298897Y-69580250D01*
X128322375Y-69569146D01*
X128346829Y-69560396D01*
X128372023Y-69554085D01*
X128397713Y-69550274D01*
X128423654Y-69549000D01*
X129736346Y-69549000D01*
X129762287Y-69550274D01*
G37*
G36*
X177962287Y-69650274D02*
G01*
X177987977Y-69654085D01*
X178013171Y-69660396D01*
X178037625Y-69669146D01*
X178061103Y-69680250D01*
X178083380Y-69693602D01*
X178104241Y-69709074D01*
X178123485Y-69726515D01*
X178140926Y-69745759D01*
X178156398Y-69766620D01*
X178169750Y-69788897D01*
X178180854Y-69812375D01*
X178189604Y-69836829D01*
X178195915Y-69862023D01*
X178199726Y-69887713D01*
X178201000Y-69913654D01*
X178201000Y-71686346D01*
X178199726Y-71712287D01*
X178195915Y-71737977D01*
X178189604Y-71763171D01*
X178180854Y-71787625D01*
X178169750Y-71811103D01*
X178156398Y-71833380D01*
X178140926Y-71854241D01*
X178123485Y-71873485D01*
X178104241Y-71890926D01*
X178083380Y-71906398D01*
X178061103Y-71919750D01*
X178037625Y-71930854D01*
X178013171Y-71939604D01*
X177987977Y-71945915D01*
X177962287Y-71949726D01*
X177936346Y-71951000D01*
X176623654Y-71951000D01*
X176597713Y-71949726D01*
X176572023Y-71945915D01*
X176546829Y-71939604D01*
X176522375Y-71930854D01*
X176498897Y-71919750D01*
X176476620Y-71906398D01*
X176455759Y-71890926D01*
X176436515Y-71873485D01*
X176419074Y-71854241D01*
X176403602Y-71833380D01*
X176390250Y-71811103D01*
X176379146Y-71787625D01*
X176370396Y-71763171D01*
X176364085Y-71737977D01*
X176360274Y-71712287D01*
X176359000Y-71686346D01*
X176359000Y-69913654D01*
X176360274Y-69887713D01*
X176364085Y-69862023D01*
X176370396Y-69836829D01*
X176379146Y-69812375D01*
X176390250Y-69788897D01*
X176403602Y-69766620D01*
X176419074Y-69745759D01*
X176436515Y-69726515D01*
X176455759Y-69709074D01*
X176476620Y-69693602D01*
X176498897Y-69680250D01*
X176522375Y-69669146D01*
X176546829Y-69660396D01*
X176572023Y-69654085D01*
X176597713Y-69650274D01*
X176623654Y-69649000D01*
X177936346Y-69649000D01*
X177962287Y-69650274D01*
G37*
D46*
X174740000Y-70800000D03*
X172200000Y-70800000D03*
X169660000Y-70800000D03*
X140960000Y-70800000D03*
X143500000Y-70800000D03*
D18*
G36*
X146722287Y-69650274D02*
G01*
X146747977Y-69654085D01*
X146773171Y-69660396D01*
X146797625Y-69669146D01*
X146821103Y-69680250D01*
X146843380Y-69693602D01*
X146864241Y-69709074D01*
X146883485Y-69726515D01*
X146900926Y-69745759D01*
X146916398Y-69766620D01*
X146929750Y-69788897D01*
X146940854Y-69812375D01*
X146949604Y-69836829D01*
X146955915Y-69862023D01*
X146959726Y-69887713D01*
X146961000Y-69913654D01*
X146961000Y-71686346D01*
X146959726Y-71712287D01*
X146955915Y-71737977D01*
X146949604Y-71763171D01*
X146940854Y-71787625D01*
X146929750Y-71811103D01*
X146916398Y-71833380D01*
X146900926Y-71854241D01*
X146883485Y-71873485D01*
X146864241Y-71890926D01*
X146843380Y-71906398D01*
X146821103Y-71919750D01*
X146797625Y-71930854D01*
X146773171Y-71939604D01*
X146747977Y-71945915D01*
X146722287Y-71949726D01*
X146696346Y-71951000D01*
X145383654Y-71951000D01*
X145357713Y-71949726D01*
X145332023Y-71945915D01*
X145306829Y-71939604D01*
X145282375Y-71930854D01*
X145258897Y-71919750D01*
X145236620Y-71906398D01*
X145215759Y-71890926D01*
X145196515Y-71873485D01*
X145179074Y-71854241D01*
X145163602Y-71833380D01*
X145150250Y-71811103D01*
X145139146Y-71787625D01*
X145130396Y-71763171D01*
X145124085Y-71737977D01*
X145120274Y-71712287D01*
X145119000Y-71686346D01*
X145119000Y-69913654D01*
X145120274Y-69887713D01*
X145124085Y-69862023D01*
X145130396Y-69836829D01*
X145139146Y-69812375D01*
X145150250Y-69788897D01*
X145163602Y-69766620D01*
X145179074Y-69745759D01*
X145196515Y-69726515D01*
X145215759Y-69709074D01*
X145236620Y-69693602D01*
X145258897Y-69680250D01*
X145282375Y-69669146D01*
X145306829Y-69660396D01*
X145332023Y-69654085D01*
X145357713Y-69650274D01*
X145383654Y-69649000D01*
X146696346Y-69649000D01*
X146722287Y-69650274D01*
G37*
G36*
X160082287Y-69650274D02*
G01*
X160107977Y-69654085D01*
X160133171Y-69660396D01*
X160157625Y-69669146D01*
X160181103Y-69680250D01*
X160203380Y-69693602D01*
X160224241Y-69709074D01*
X160243485Y-69726515D01*
X160260926Y-69745759D01*
X160276398Y-69766620D01*
X160289750Y-69788897D01*
X160300854Y-69812375D01*
X160309604Y-69836829D01*
X160315915Y-69862023D01*
X160319726Y-69887713D01*
X160321000Y-69913654D01*
X160321000Y-71686346D01*
X160319726Y-71712287D01*
X160315915Y-71737977D01*
X160309604Y-71763171D01*
X160300854Y-71787625D01*
X160289750Y-71811103D01*
X160276398Y-71833380D01*
X160260926Y-71854241D01*
X160243485Y-71873485D01*
X160224241Y-71890926D01*
X160203380Y-71906398D01*
X160181103Y-71919750D01*
X160157625Y-71930854D01*
X160133171Y-71939604D01*
X160107977Y-71945915D01*
X160082287Y-71949726D01*
X160056346Y-71951000D01*
X158743654Y-71951000D01*
X158717713Y-71949726D01*
X158692023Y-71945915D01*
X158666829Y-71939604D01*
X158642375Y-71930854D01*
X158618897Y-71919750D01*
X158596620Y-71906398D01*
X158575759Y-71890926D01*
X158556515Y-71873485D01*
X158539074Y-71854241D01*
X158523602Y-71833380D01*
X158510250Y-71811103D01*
X158499146Y-71787625D01*
X158490396Y-71763171D01*
X158484085Y-71737977D01*
X158480274Y-71712287D01*
X158479000Y-71686346D01*
X158479000Y-69913654D01*
X158480274Y-69887713D01*
X158484085Y-69862023D01*
X158490396Y-69836829D01*
X158499146Y-69812375D01*
X158510250Y-69788897D01*
X158523602Y-69766620D01*
X158539074Y-69745759D01*
X158556515Y-69726515D01*
X158575759Y-69709074D01*
X158596620Y-69693602D01*
X158618897Y-69680250D01*
X158642375Y-69669146D01*
X158666829Y-69660396D01*
X158692023Y-69654085D01*
X158717713Y-69650274D01*
X158743654Y-69649000D01*
X160056346Y-69649000D01*
X160082287Y-69650274D01*
G37*
D46*
X156860000Y-70800000D03*
X154320000Y-70800000D03*
X151780000Y-70800000D03*
X100180000Y-70600000D03*
X102720000Y-70600000D03*
X105260000Y-70600000D03*
D18*
G36*
X108482287Y-69450274D02*
G01*
X108507977Y-69454085D01*
X108533171Y-69460396D01*
X108557625Y-69469146D01*
X108581103Y-69480250D01*
X108603380Y-69493602D01*
X108624241Y-69509074D01*
X108643485Y-69526515D01*
X108660926Y-69545759D01*
X108676398Y-69566620D01*
X108689750Y-69588897D01*
X108700854Y-69612375D01*
X108709604Y-69636829D01*
X108715915Y-69662023D01*
X108719726Y-69687713D01*
X108721000Y-69713654D01*
X108721000Y-71486346D01*
X108719726Y-71512287D01*
X108715915Y-71537977D01*
X108709604Y-71563171D01*
X108700854Y-71587625D01*
X108689750Y-71611103D01*
X108676398Y-71633380D01*
X108660926Y-71654241D01*
X108643485Y-71673485D01*
X108624241Y-71690926D01*
X108603380Y-71706398D01*
X108581103Y-71719750D01*
X108557625Y-71730854D01*
X108533171Y-71739604D01*
X108507977Y-71745915D01*
X108482287Y-71749726D01*
X108456346Y-71751000D01*
X107143654Y-71751000D01*
X107117713Y-71749726D01*
X107092023Y-71745915D01*
X107066829Y-71739604D01*
X107042375Y-71730854D01*
X107018897Y-71719750D01*
X106996620Y-71706398D01*
X106975759Y-71690926D01*
X106956515Y-71673485D01*
X106939074Y-71654241D01*
X106923602Y-71633380D01*
X106910250Y-71611103D01*
X106899146Y-71587625D01*
X106890396Y-71563171D01*
X106884085Y-71537977D01*
X106880274Y-71512287D01*
X106879000Y-71486346D01*
X106879000Y-69713654D01*
X106880274Y-69687713D01*
X106884085Y-69662023D01*
X106890396Y-69636829D01*
X106899146Y-69612375D01*
X106910250Y-69588897D01*
X106923602Y-69566620D01*
X106939074Y-69545759D01*
X106956515Y-69526515D01*
X106975759Y-69509074D01*
X106996620Y-69493602D01*
X107018897Y-69480250D01*
X107042375Y-69469146D01*
X107066829Y-69460396D01*
X107092023Y-69454085D01*
X107117713Y-69450274D01*
X107143654Y-69449000D01*
X108456346Y-69449000D01*
X108482287Y-69450274D01*
G37*
D46*
X148185001Y-139300000D03*
X145645001Y-139300000D03*
D18*
G36*
X143787288Y-138150274D02*
G01*
X143812978Y-138154085D01*
X143838172Y-138160396D01*
X143862626Y-138169146D01*
X143886104Y-138180250D01*
X143908381Y-138193602D01*
X143929242Y-138209074D01*
X143948486Y-138226515D01*
X143965927Y-138245759D01*
X143981399Y-138266620D01*
X143994751Y-138288897D01*
X144005855Y-138312375D01*
X144014605Y-138336829D01*
X144020916Y-138362023D01*
X144024727Y-138387713D01*
X144026001Y-138413654D01*
X144026001Y-140186346D01*
X144024727Y-140212287D01*
X144020916Y-140237977D01*
X144014605Y-140263171D01*
X144005855Y-140287625D01*
X143994751Y-140311103D01*
X143981399Y-140333380D01*
X143965927Y-140354241D01*
X143948486Y-140373485D01*
X143929242Y-140390926D01*
X143908381Y-140406398D01*
X143886104Y-140419750D01*
X143862626Y-140430854D01*
X143838172Y-140439604D01*
X143812978Y-140445915D01*
X143787288Y-140449726D01*
X143761347Y-140451000D01*
X142448655Y-140451000D01*
X142422714Y-140449726D01*
X142397024Y-140445915D01*
X142371830Y-140439604D01*
X142347376Y-140430854D01*
X142323898Y-140419750D01*
X142301621Y-140406398D01*
X142280760Y-140390926D01*
X142261516Y-140373485D01*
X142244075Y-140354241D01*
X142228603Y-140333380D01*
X142215251Y-140311103D01*
X142204147Y-140287625D01*
X142195397Y-140263171D01*
X142189086Y-140237977D01*
X142185275Y-140212287D01*
X142184001Y-140186346D01*
X142184001Y-138413654D01*
X142185275Y-138387713D01*
X142189086Y-138362023D01*
X142195397Y-138336829D01*
X142204147Y-138312375D01*
X142215251Y-138288897D01*
X142228603Y-138266620D01*
X142244075Y-138245759D01*
X142261516Y-138226515D01*
X142280760Y-138209074D01*
X142301621Y-138193602D01*
X142323898Y-138180250D01*
X142347376Y-138169146D01*
X142371830Y-138160396D01*
X142397024Y-138154085D01*
X142422714Y-138150274D01*
X142448655Y-138149000D01*
X143761347Y-138149000D01*
X143787288Y-138150274D01*
G37*
G36*
X153457288Y-138150274D02*
G01*
X153482978Y-138154085D01*
X153508172Y-138160396D01*
X153532626Y-138169146D01*
X153556104Y-138180250D01*
X153578381Y-138193602D01*
X153599242Y-138209074D01*
X153618486Y-138226515D01*
X153635927Y-138245759D01*
X153651399Y-138266620D01*
X153664751Y-138288897D01*
X153675855Y-138312375D01*
X153684605Y-138336829D01*
X153690916Y-138362023D01*
X153694727Y-138387713D01*
X153696001Y-138413654D01*
X153696001Y-140186346D01*
X153694727Y-140212287D01*
X153690916Y-140237977D01*
X153684605Y-140263171D01*
X153675855Y-140287625D01*
X153664751Y-140311103D01*
X153651399Y-140333380D01*
X153635927Y-140354241D01*
X153618486Y-140373485D01*
X153599242Y-140390926D01*
X153578381Y-140406398D01*
X153556104Y-140419750D01*
X153532626Y-140430854D01*
X153508172Y-140439604D01*
X153482978Y-140445915D01*
X153457288Y-140449726D01*
X153431347Y-140451000D01*
X152118655Y-140451000D01*
X152092714Y-140449726D01*
X152067024Y-140445915D01*
X152041830Y-140439604D01*
X152017376Y-140430854D01*
X151993898Y-140419750D01*
X151971621Y-140406398D01*
X151950760Y-140390926D01*
X151931516Y-140373485D01*
X151914075Y-140354241D01*
X151898603Y-140333380D01*
X151885251Y-140311103D01*
X151874147Y-140287625D01*
X151865397Y-140263171D01*
X151859086Y-140237977D01*
X151855275Y-140212287D01*
X151854001Y-140186346D01*
X151854001Y-138413654D01*
X151855275Y-138387713D01*
X151859086Y-138362023D01*
X151865397Y-138336829D01*
X151874147Y-138312375D01*
X151885251Y-138288897D01*
X151898603Y-138266620D01*
X151914075Y-138245759D01*
X151931516Y-138226515D01*
X151950760Y-138209074D01*
X151971621Y-138193602D01*
X151993898Y-138180250D01*
X152017376Y-138169146D01*
X152041830Y-138160396D01*
X152067024Y-138154085D01*
X152092714Y-138150274D01*
X152118655Y-138149000D01*
X153431347Y-138149000D01*
X153457288Y-138150274D01*
G37*
D46*
X155315001Y-139300000D03*
X157855001Y-139300000D03*
D18*
G36*
X163127288Y-138150274D02*
G01*
X163152978Y-138154085D01*
X163178172Y-138160396D01*
X163202626Y-138169146D01*
X163226104Y-138180250D01*
X163248381Y-138193602D01*
X163269242Y-138209074D01*
X163288486Y-138226515D01*
X163305927Y-138245759D01*
X163321399Y-138266620D01*
X163334751Y-138288897D01*
X163345855Y-138312375D01*
X163354605Y-138336829D01*
X163360916Y-138362023D01*
X163364727Y-138387713D01*
X163366001Y-138413654D01*
X163366001Y-140186346D01*
X163364727Y-140212287D01*
X163360916Y-140237977D01*
X163354605Y-140263171D01*
X163345855Y-140287625D01*
X163334751Y-140311103D01*
X163321399Y-140333380D01*
X163305927Y-140354241D01*
X163288486Y-140373485D01*
X163269242Y-140390926D01*
X163248381Y-140406398D01*
X163226104Y-140419750D01*
X163202626Y-140430854D01*
X163178172Y-140439604D01*
X163152978Y-140445915D01*
X163127288Y-140449726D01*
X163101347Y-140451000D01*
X161788655Y-140451000D01*
X161762714Y-140449726D01*
X161737024Y-140445915D01*
X161711830Y-140439604D01*
X161687376Y-140430854D01*
X161663898Y-140419750D01*
X161641621Y-140406398D01*
X161620760Y-140390926D01*
X161601516Y-140373485D01*
X161584075Y-140354241D01*
X161568603Y-140333380D01*
X161555251Y-140311103D01*
X161544147Y-140287625D01*
X161535397Y-140263171D01*
X161529086Y-140237977D01*
X161525275Y-140212287D01*
X161524001Y-140186346D01*
X161524001Y-138413654D01*
X161525275Y-138387713D01*
X161529086Y-138362023D01*
X161535397Y-138336829D01*
X161544147Y-138312375D01*
X161555251Y-138288897D01*
X161568603Y-138266620D01*
X161584075Y-138245759D01*
X161601516Y-138226515D01*
X161620760Y-138209074D01*
X161641621Y-138193602D01*
X161663898Y-138180250D01*
X161687376Y-138169146D01*
X161711830Y-138160396D01*
X161737024Y-138154085D01*
X161762714Y-138150274D01*
X161788655Y-138149000D01*
X163101347Y-138149000D01*
X163127288Y-138150274D01*
G37*
D46*
X164985001Y-139300000D03*
X167525001Y-139300000D03*
X177740000Y-139500000D03*
X175200000Y-139500000D03*
D18*
G36*
X173342287Y-138350274D02*
G01*
X173367977Y-138354085D01*
X173393171Y-138360396D01*
X173417625Y-138369146D01*
X173441103Y-138380250D01*
X173463380Y-138393602D01*
X173484241Y-138409074D01*
X173503485Y-138426515D01*
X173520926Y-138445759D01*
X173536398Y-138466620D01*
X173549750Y-138488897D01*
X173560854Y-138512375D01*
X173569604Y-138536829D01*
X173575915Y-138562023D01*
X173579726Y-138587713D01*
X173581000Y-138613654D01*
X173581000Y-140386346D01*
X173579726Y-140412287D01*
X173575915Y-140437977D01*
X173569604Y-140463171D01*
X173560854Y-140487625D01*
X173549750Y-140511103D01*
X173536398Y-140533380D01*
X173520926Y-140554241D01*
X173503485Y-140573485D01*
X173484241Y-140590926D01*
X173463380Y-140606398D01*
X173441103Y-140619750D01*
X173417625Y-140630854D01*
X173393171Y-140639604D01*
X173367977Y-140645915D01*
X173342287Y-140649726D01*
X173316346Y-140651000D01*
X172003654Y-140651000D01*
X171977713Y-140649726D01*
X171952023Y-140645915D01*
X171926829Y-140639604D01*
X171902375Y-140630854D01*
X171878897Y-140619750D01*
X171856620Y-140606398D01*
X171835759Y-140590926D01*
X171816515Y-140573485D01*
X171799074Y-140554241D01*
X171783602Y-140533380D01*
X171770250Y-140511103D01*
X171759146Y-140487625D01*
X171750396Y-140463171D01*
X171744085Y-140437977D01*
X171740274Y-140412287D01*
X171739000Y-140386346D01*
X171739000Y-138613654D01*
X171740274Y-138587713D01*
X171744085Y-138562023D01*
X171750396Y-138536829D01*
X171759146Y-138512375D01*
X171770250Y-138488897D01*
X171783602Y-138466620D01*
X171799074Y-138445759D01*
X171816515Y-138426515D01*
X171835759Y-138409074D01*
X171856620Y-138393602D01*
X171878897Y-138380250D01*
X171902375Y-138369146D01*
X171926829Y-138360396D01*
X171952023Y-138354085D01*
X171977713Y-138350274D01*
X172003654Y-138349000D01*
X173316346Y-138349000D01*
X173342287Y-138350274D01*
G37*
G36*
X115602287Y-138145273D02*
G01*
X115627977Y-138149084D01*
X115653171Y-138155395D01*
X115677625Y-138164145D01*
X115701103Y-138175249D01*
X115723380Y-138188601D01*
X115744241Y-138204073D01*
X115763485Y-138221514D01*
X115780926Y-138240758D01*
X115796398Y-138261619D01*
X115809750Y-138283896D01*
X115820854Y-138307374D01*
X115829604Y-138331828D01*
X115835915Y-138357022D01*
X115839726Y-138382712D01*
X115841000Y-138408653D01*
X115841000Y-140181345D01*
X115839726Y-140207286D01*
X115835915Y-140232976D01*
X115829604Y-140258170D01*
X115820854Y-140282624D01*
X115809750Y-140306102D01*
X115796398Y-140328379D01*
X115780926Y-140349240D01*
X115763485Y-140368484D01*
X115744241Y-140385925D01*
X115723380Y-140401397D01*
X115701103Y-140414749D01*
X115677625Y-140425853D01*
X115653171Y-140434603D01*
X115627977Y-140440914D01*
X115602287Y-140444725D01*
X115576346Y-140445999D01*
X114263654Y-140445999D01*
X114237713Y-140444725D01*
X114212023Y-140440914D01*
X114186829Y-140434603D01*
X114162375Y-140425853D01*
X114138897Y-140414749D01*
X114116620Y-140401397D01*
X114095759Y-140385925D01*
X114076515Y-140368484D01*
X114059074Y-140349240D01*
X114043602Y-140328379D01*
X114030250Y-140306102D01*
X114019146Y-140282624D01*
X114010396Y-140258170D01*
X114004085Y-140232976D01*
X114000274Y-140207286D01*
X113999000Y-140181345D01*
X113999000Y-138408653D01*
X114000274Y-138382712D01*
X114004085Y-138357022D01*
X114010396Y-138331828D01*
X114019146Y-138307374D01*
X114030250Y-138283896D01*
X114043602Y-138261619D01*
X114059074Y-138240758D01*
X114076515Y-138221514D01*
X114095759Y-138204073D01*
X114116620Y-138188601D01*
X114138897Y-138175249D01*
X114162375Y-138164145D01*
X114186829Y-138155395D01*
X114212023Y-138149084D01*
X114237713Y-138145273D01*
X114263654Y-138143999D01*
X115576346Y-138143999D01*
X115602287Y-138145273D01*
G37*
D46*
X117460000Y-139294999D03*
X120000000Y-139294999D03*
X122540000Y-139294999D03*
X125080000Y-139294999D03*
X127620000Y-139294999D03*
X110620000Y-139294999D03*
X108080000Y-139294999D03*
X105540000Y-139294999D03*
X103000000Y-139294999D03*
X100460000Y-139294999D03*
D18*
G36*
X98602287Y-138145273D02*
G01*
X98627977Y-138149084D01*
X98653171Y-138155395D01*
X98677625Y-138164145D01*
X98701103Y-138175249D01*
X98723380Y-138188601D01*
X98744241Y-138204073D01*
X98763485Y-138221514D01*
X98780926Y-138240758D01*
X98796398Y-138261619D01*
X98809750Y-138283896D01*
X98820854Y-138307374D01*
X98829604Y-138331828D01*
X98835915Y-138357022D01*
X98839726Y-138382712D01*
X98841000Y-138408653D01*
X98841000Y-140181345D01*
X98839726Y-140207286D01*
X98835915Y-140232976D01*
X98829604Y-140258170D01*
X98820854Y-140282624D01*
X98809750Y-140306102D01*
X98796398Y-140328379D01*
X98780926Y-140349240D01*
X98763485Y-140368484D01*
X98744241Y-140385925D01*
X98723380Y-140401397D01*
X98701103Y-140414749D01*
X98677625Y-140425853D01*
X98653171Y-140434603D01*
X98627977Y-140440914D01*
X98602287Y-140444725D01*
X98576346Y-140445999D01*
X97263654Y-140445999D01*
X97237713Y-140444725D01*
X97212023Y-140440914D01*
X97186829Y-140434603D01*
X97162375Y-140425853D01*
X97138897Y-140414749D01*
X97116620Y-140401397D01*
X97095759Y-140385925D01*
X97076515Y-140368484D01*
X97059074Y-140349240D01*
X97043602Y-140328379D01*
X97030250Y-140306102D01*
X97019146Y-140282624D01*
X97010396Y-140258170D01*
X97004085Y-140232976D01*
X97000274Y-140207286D01*
X96999000Y-140181345D01*
X96999000Y-138408653D01*
X97000274Y-138382712D01*
X97004085Y-138357022D01*
X97010396Y-138331828D01*
X97019146Y-138307374D01*
X97030250Y-138283896D01*
X97043602Y-138261619D01*
X97059074Y-138240758D01*
X97076515Y-138221514D01*
X97095759Y-138204073D01*
X97116620Y-138188601D01*
X97138897Y-138175249D01*
X97162375Y-138164145D01*
X97186829Y-138155395D01*
X97212023Y-138149084D01*
X97237713Y-138145273D01*
X97263654Y-138143999D01*
X98576346Y-138143999D01*
X98602287Y-138145273D01*
G37*
D47*
X212900000Y-88900000D03*
D48*
X215700000Y-93700000D03*
D49*
X209900000Y-93700000D03*
D18*
G36*
X209912287Y-81280274D02*
G01*
X209937977Y-81284085D01*
X209963171Y-81290396D01*
X209987625Y-81299146D01*
X210011103Y-81310250D01*
X210033380Y-81323602D01*
X210054241Y-81339074D01*
X210073485Y-81356515D01*
X210090926Y-81375759D01*
X210106398Y-81396620D01*
X210119750Y-81418897D01*
X210130854Y-81442375D01*
X210139604Y-81466829D01*
X210145915Y-81492023D01*
X210149726Y-81517713D01*
X210151000Y-81543654D01*
X210151000Y-82856346D01*
X210149726Y-82882287D01*
X210145915Y-82907977D01*
X210139604Y-82933171D01*
X210130854Y-82957625D01*
X210119750Y-82981103D01*
X210106398Y-83003380D01*
X210090926Y-83024241D01*
X210073485Y-83043485D01*
X210054241Y-83060926D01*
X210033380Y-83076398D01*
X210011103Y-83089750D01*
X209987625Y-83100854D01*
X209963171Y-83109604D01*
X209937977Y-83115915D01*
X209912287Y-83119726D01*
X209886346Y-83121000D01*
X208113654Y-83121000D01*
X208087713Y-83119726D01*
X208062023Y-83115915D01*
X208036829Y-83109604D01*
X208012375Y-83100854D01*
X207988897Y-83089750D01*
X207966620Y-83076398D01*
X207945759Y-83060926D01*
X207926515Y-83043485D01*
X207909074Y-83024241D01*
X207893602Y-83003380D01*
X207880250Y-82981103D01*
X207869146Y-82957625D01*
X207860396Y-82933171D01*
X207854085Y-82907977D01*
X207850274Y-82882287D01*
X207849000Y-82856346D01*
X207849000Y-81543654D01*
X207850274Y-81517713D01*
X207854085Y-81492023D01*
X207860396Y-81466829D01*
X207869146Y-81442375D01*
X207880250Y-81418897D01*
X207893602Y-81396620D01*
X207909074Y-81375759D01*
X207926515Y-81356515D01*
X207945759Y-81339074D01*
X207966620Y-81323602D01*
X207988897Y-81310250D01*
X208012375Y-81299146D01*
X208036829Y-81290396D01*
X208062023Y-81284085D01*
X208087713Y-81280274D01*
X208113654Y-81279000D01*
X209886346Y-81279000D01*
X209912287Y-81280274D01*
G37*
D50*
X209000000Y-79660000D03*
D51*
X212300000Y-78400000D03*
D52*
X212300000Y-83400000D03*
M02*
